<svg width="81" height="81" viewBox="0 0 81 81" fill="none" xmlns="http://www.w3.org/2000/svg">
<g id="AdobeStock_452309798 1">
<path id="Vector" d="M58 76.75V65.875C58 63.125 58.25 60.375 58.625 57.75C59 55.5 60.25 53.625 62 52.25L64.875 50.125C67.625 48.125 69.125 44.875 69.125 41.5V35.75C69.125 35 68.5 34.375 67.75 34.375C65.125 34.375 63 36.5 62.875 39.125C62.875 40.75 62.125 42.375 60.75 43.25L59.25 44.25V26.125C59.25 24.375 57.875 23 56.125 23C54.375 23 53 24.375 53 26.125V22.375C53 20.625 51.625 19.25 49.875 19.25C48.125 19.25 46.75 20.625 46.75 22.375V26.125C46.75 24.375 45.375 23 43.625 23C41.875 23 40.5 24.375 40.5 26.125V29.875V28.625" stroke="#EA6C92" stroke-width="3" stroke-miterlimit="10" stroke-linecap="round" stroke-linejoin="round"/>
<path id="Vector_2" d="M53 23.75V37.5" stroke="#EA6C92" stroke-width="3" stroke-miterlimit="10" stroke-linecap="round" stroke-linejoin="round"/>
<path id="Vector_3" d="M46.75 23.75V33.75" stroke="#EA6C92" stroke-width="3" stroke-miterlimit="10" stroke-linejoin="round"/>
<path id="Vector_4" d="M59.25 44.25L58 44.875C57.125 45.25 56.25 45.625 55.25 45.75C54 46 52.75 46.375 51.75 47.125" stroke="#EA6C92" stroke-width="3" stroke-miterlimit="10" stroke-linecap="round" stroke-linejoin="round"/>
<path id="Vector_5" d="M43 76.75V68.5C43 65.75 43.625 63 44.875 60.5C46.125 58 46.75 55.375 46.75 52.5V32.375C46.75 30.625 45.375 29.25 43.625 29.25C41.875 29.25 40.5 30.625 40.5 32.375V28.625C40.5 26.875 39.125 25.5 37.375 25.5C35.625 25.5 34.25 26.875 34.25 28.625V24.875C34.25 23.125 32.875 21.75 31.125 21.75C29.375 21.75 28 23.125 28 24.875V28.625C28 26.875 26.625 25.5 24.875 25.5C23.125 25.5 21.75 26.875 21.75 28.625V46.75L20.125 45.625C18.75 44.75 18 43.125 18 41.5C17.875 38.875 15.75 36.75 13.125 36.75C12.375 36.75 11.75 37.375 11.75 38.125V43.875C11.75 47.25 13.375 50.5 16 52.5L18.875 54.625C20.625 56 21.875 58 22.25 60.125C22.75 62.875 22.875 65.625 22.875 68.25V76.75" stroke="#EA6C92" stroke-width="3" stroke-miterlimit="10" stroke-linecap="round" stroke-linejoin="round"/>
<path id="Vector_6" d="M28 26.25V40" stroke="#EA6C92" stroke-width="3" stroke-miterlimit="10" stroke-linecap="round" stroke-linejoin="round"/>
<path id="Vector_7" d="M34.25 26.25V40" stroke="#EA6C92" stroke-width="3" stroke-miterlimit="10" stroke-linecap="round" stroke-linejoin="round"/>
<path id="Vector_8" d="M40.5 30V41.25" stroke="#EA6C92" stroke-width="3" stroke-miterlimit="10" stroke-linecap="round" stroke-linejoin="round"/>
<path id="Vector_9" d="M39.25 4.25V15.5" stroke="#EA6C92" stroke-width="3" stroke-miterlimit="10" stroke-linecap="round" stroke-linejoin="round"/>
<path id="Vector_10" d="M45.5 14.25L49.25 6.75" stroke="#EA6C92" stroke-width="3" stroke-miterlimit="10" stroke-linecap="round" stroke-linejoin="round"/>
<path id="Vector_11" d="M28 8L33 15.5" stroke="#EA6C92" stroke-width="3" stroke-miterlimit="10" stroke-linecap="round" stroke-linejoin="round"/>
<path id="Vector_12" d="M26.75 16.75L21.75 13" stroke="#EA6C92" stroke-width="3" stroke-miterlimit="10" stroke-linecap="round" stroke-linejoin="round"/>
<path id="Vector_13" d="M53 14.25L58 10.5" stroke="#EA6C92" stroke-width="3" stroke-miterlimit="10" stroke-linecap="round" stroke-linejoin="round"/>
</g>
</svg>
