<svg width="80" height="81" viewBox="0 0 80 81" fill="none" xmlns="http://www.w3.org/2000/svg">
<g id="AdobeStock_446027730 1">
<g id="Group">
<path id="Vector" d="M41.5842 35.1162C40.8817 35.045 40.2792 35.5362 40.2042 36.2212L39.9917 38.1375C39.9392 38.6137 39.613 39.0225 39.1605 39.18L30.8392 42.0762C30.3367 42.2512 29.9992 42.725 29.9992 43.2575V54.4262C29.9992 54.7562 30.1292 55.0737 30.363 55.3075L37.1355 62.1187C37.3692 62.355 37.4992 62.6675 37.4992 63V74.25C37.4992 74.9387 36.9392 75.5 36.2492 75.5C35.5592 75.5 34.9992 74.9387 34.9992 74.25V64.0312C34.9992 63.7012 34.8692 63.3837 34.6355 63.15L27.3967 55.8687C27.1617 55.6325 26.8442 55.5 26.5105 55.5H23.7492C23.058 55.5 22.4992 56.06 22.4992 56.75V66.75C22.4992 67.1687 22.2917 67.5575 21.943 67.79L10.6917 75.29C10.1367 75.6587 9.32798 75.495 8.95923 74.9425C8.57673 74.37 8.73173 73.5912 9.30548 73.2087L19.4417 66.4512C19.7905 66.22 19.9992 65.83 19.9992 65.4125V56.75C19.9992 56.06 19.4405 55.5 18.7492 55.5C18.058 55.5 17.4992 56.06 17.4992 56.75V64.7437L7.91923 71.13C6.19923 72.2762 5.73298 74.61 6.87923 76.3312C7.57673 77.375 8.74423 78 10.0017 78C10.7442 78 11.463 77.7825 12.0792 77.37L23.3292 69.87C24.3755 69.1725 24.9992 68.0062 24.9992 66.75V58H25.9905L32.4992 64.5475V74.25C32.4992 76.3175 34.1817 78 36.2492 78C38.3167 78 39.9992 76.3175 39.9992 74.25V63C39.9992 62.0025 39.6105 61.0637 38.908 60.3562L32.4992 53.91V44.1462L39.9805 41.5412C41.338 41.07 42.3167 39.8425 42.4755 38.4137L42.688 36.4975C42.7642 35.8112 42.2692 35.1925 41.5842 35.1162Z" fill="#F0A573"/>
<path id="Vector_2" d="M16.1009 50.4863L17.4996 49.375V51.75C17.4996 52.44 18.0584 53 18.7496 53C19.4409 53 19.9996 52.44 19.9996 51.75V46.7838C19.9996 46.3038 19.7246 45.8663 19.2934 45.6588C18.8634 45.45 18.3484 45.5063 17.9721 45.8063L14.5459 48.53C14.2746 48.745 13.9234 48.8375 13.5821 48.7875L6.06088 47.65C5.99088 47.64 5.92463 47.6238 5.86088 47.6025C5.27838 47.4125 4.92338 46.8338 5.01463 46.2275C5.06338 45.8975 5.23963 45.6063 5.50838 45.4088C5.77713 45.2113 6.10338 45.1288 6.43713 45.1788L12.8784 46.1525C13.2196 46.2 13.5721 46.1113 13.8421 45.895L20.2646 40.7925C20.6184 40.6488 21.0796 40.5025 21.2496 40.5H22.4996C23.1909 40.5 23.7496 39.94 23.7496 39.25V38.7225C23.7496 38.2263 23.4559 37.7763 23.0009 37.5775C21.1771 36.7788 19.9996 34.9825 19.9996 33C19.9996 30.2425 22.2421 28 24.9996 28C27.7571 28 29.9996 30.2425 29.9996 33C29.9996 34.9825 28.8221 36.7788 26.9984 37.5775C26.5434 37.7763 26.2496 38.2263 26.2496 38.7225V39.25C26.2496 39.94 26.8084 40.5 27.4996 40.5H28.2684C28.5921 40.5 28.9046 40.3738 29.1371 40.1488C29.2721 40.0175 29.4234 39.9225 29.5884 39.865L36.8496 37.3375C37.3034 37.18 37.6271 36.7738 37.6809 36.295L38.7571 26.61C38.8334 25.9263 39.4621 25.4263 40.1371 25.5075C40.8234 25.575 41.4409 25.0875 41.5171 24.4013C41.5934 23.715 41.0971 23.0988 40.4109 23.0225C38.3534 22.7975 36.4971 24.2825 36.2709 26.3363L35.2821 35.2363L31.6234 36.51C32.1884 35.4488 32.4996 34.25 32.4996 33C32.4996 28.8638 29.1359 25.5 24.9996 25.5C20.8634 25.5 17.4996 28.8638 17.4996 33C17.4996 35.035 18.3259 36.94 19.7221 38.3238C19.4496 38.42 19.2284 38.5138 19.1159 38.5638C19.0184 38.6075 18.9259 38.6625 18.8421 38.7288L12.7134 43.5988L6.80963 42.7063C5.81963 42.56 4.83213 42.8025 4.02338 43.395C3.21588 43.99 2.69088 44.8625 2.53963 45.8538C2.26588 47.6738 3.33588 49.4075 5.08338 49.9775C5.27713 50.0413 5.48088 50.09 5.68713 50.12L13.2059 51.2575C14.2334 51.4125 15.2884 51.1325 16.1009 50.4863Z" fill="#F0A573"/>
<path id="Vector_3" d="M76.1781 13.8925C75.3368 13.1788 74.2256 12.87 73.1281 13.05C71.3443 13.3413 69.9993 14.9888 69.9993 16.8838V33H66.8318C68.3281 31.3275 69.0381 29.0188 68.6356 26.6813C68.1243 23.6988 65.7993 21.2825 62.8518 20.6663C60.5881 20.1963 58.2843 20.7438 56.5218 22.1763C54.7606 23.6088 53.7493 25.7313 53.7493 28C53.7493 29.25 54.0606 30.4488 54.6231 31.51L50.9643 30.2363L49.9918 21.4763C49.7718 19.5188 48.1356 18 46.2543 18H46.2168C45.1531 18.0125 44.1431 18.4738 43.4418 19.2663C42.7406 20.0575 42.4056 21.115 42.5231 22.165L43.7731 33.415C43.9318 34.8425 44.9106 36.07 46.2668 36.5425L53.7493 39.1463V48.91L47.3406 55.3563C46.6381 56.0638 46.2493 57.0025 46.2493 58.0013V69.1163C46.2493 71.0113 47.5943 72.6588 49.3781 72.95C50.4781 73.1275 51.5881 72.8225 52.4268 72.1088C53.2656 71.395 53.7493 70.3513 53.7493 69.25V59.5475L60.2581 53H61.2493V74.1163C61.2493 76.0113 62.5943 77.6588 64.3793 77.9488C64.5843 77.9825 64.7893 77.9988 64.9931 77.9988C65.8831 77.9988 66.7443 77.6863 67.4281 77.1063C68.2681 76.3925 68.7493 75.3513 68.7493 74.25V44.25C68.7493 43.56 68.1906 43 67.4993 43C66.8081 43 66.2493 43.56 66.2493 44.25V74.25C66.2493 74.6175 66.0881 74.965 65.8081 75.2025C65.5218 75.4438 65.1556 75.5388 64.7806 75.4825C64.2018 75.3875 63.7493 74.7875 63.7493 74.1163V51.75C63.7493 51.06 63.1906 50.5 62.4993 50.5H59.7381C59.4043 50.5 59.0868 50.6325 58.8518 50.8688L51.6131 58.15C51.3793 58.385 51.2493 58.7013 51.2493 59.0313V69.25C51.2493 69.6175 51.0881 69.965 50.8081 70.2038C50.5218 70.445 50.1568 70.5425 49.7806 70.4825C49.2018 70.3875 48.7493 69.7875 48.7493 69.1163V58.0013C48.7493 57.6675 48.8793 57.355 49.1131 57.1188L55.8856 50.3075C56.1193 50.0725 56.2493 49.7563 56.2493 49.4263V38.2575C56.2493 37.725 55.9118 37.2513 55.4106 37.0775L47.0893 34.1813C46.6368 34.0238 46.3106 33.615 46.2581 33.1388L45.0081 21.8888C44.9681 21.5338 45.0768 21.19 45.3143 20.9225C45.5506 20.655 45.8818 20.505 46.2443 20.5013C46.8906 20.54 47.4293 21.0563 47.5068 21.7538L48.5681 31.2963C48.6218 31.775 48.9456 32.1813 49.3993 32.3388L56.6618 34.8663C56.8256 34.9238 56.9768 35.0188 57.1118 35.15C57.3443 35.3738 57.6568 35.5 57.9806 35.5H58.7493C59.4406 35.5 59.9993 34.94 59.9993 34.25V33.7225C59.9993 33.2263 59.7056 32.7763 59.2506 32.5775C57.4268 31.7788 56.2493 29.9825 56.2493 28C56.2493 26.4875 56.9231 25.0725 58.0981 24.1175C59.2906 23.1488 60.7943 22.7925 62.3418 23.115C64.2618 23.5163 65.8381 25.1563 66.1718 27.1038C66.5656 29.4 65.3643 31.6513 63.2468 32.5775C62.7931 32.7763 62.4993 33.2263 62.4993 33.7225V34.25C62.4993 34.94 63.0581 35.5 63.7493 35.5H69.9993C71.3781 35.5 72.4993 34.3788 72.4993 33V16.8838C72.4993 16.2125 72.9518 15.6125 73.5293 15.5175C73.9068 15.4588 74.2743 15.555 74.5581 15.7975C74.8381 16.035 74.9993 16.3825 74.9993 16.75V33C74.9993 35.7575 72.7568 38 69.9993 38H67.4993C66.8081 38 66.2493 38.56 66.2493 39.25C66.2493 39.94 66.8081 40.5 67.4993 40.5H69.9993C74.1356 40.5 77.4993 37.1363 77.4993 33V16.75C77.4993 15.6488 77.0181 14.6075 76.1781 13.8925Z" fill="#F0A573"/>
<path id="Vector_4" d="M6.25 18C8.3175 18 10 16.3175 10 14.25V10.5H17.5V13.23C17.1075 13.09 16.69 13 16.25 13C14.1825 13 12.5 14.6825 12.5 16.75C12.5 18.8175 14.1825 20.5 16.25 20.5C18.3175 20.5 20 18.8175 20 16.75V4.25C20 3.56 19.4412 3 18.75 3H8.75C8.05875 3 7.5 3.56 7.5 4.25V10.73C7.1075 10.59 6.69 10.5 6.25 10.5C4.1825 10.5 2.5 12.1825 2.5 14.25C2.5 16.3175 4.1825 18 6.25 18ZM16.25 18C15.56 18 15 17.4388 15 16.75C15 16.0612 15.56 15.5 16.25 15.5C16.94 15.5 17.5 16.0612 17.5 16.75C17.5 17.4388 16.94 18 16.25 18ZM10 5.5H17.5V8H10V5.5ZM6.25 13C6.94 13 7.5 13.5612 7.5 14.25C7.5 14.9388 6.94 15.5 6.25 15.5C5.56 15.5 5 14.9388 5 14.25C5 13.5612 5.56 13 6.25 13Z" fill="#F0A573"/>
<path id="Vector_5" d="M51.5795 16.6063C52.1895 16.9951 52.8833 17.1963 53.5895 17.1963C53.8608 17.1963 54.1345 17.1663 54.4058 17.1063C55.3833 16.8901 56.2183 16.3063 56.757 15.4613C56.757 15.4601 56.7583 15.4588 56.7583 15.4588L60.117 10.1926L65.387 13.5538C65.5958 13.6863 65.8295 13.7501 66.0583 13.7501C66.4708 13.7501 66.8745 13.5463 67.1133 13.1726L69.802 8.95631C69.9808 8.67631 70.0395 8.33756 69.9695 8.01506C69.897 7.69131 69.7008 7.40881 69.422 7.23131L63.0983 3.19756C62.5158 2.82756 61.7433 2.99756 61.372 3.58006L58.6833 7.79631L56.5445 11.1488C56.2845 10.8163 55.9783 10.5188 55.612 10.2851C53.8708 9.17381 51.547 9.68881 50.4345 11.4313C49.3233 13.1713 49.837 15.4938 51.5795 16.6063ZM62.8083 5.97631L67.0233 8.66506L65.6783 10.7738L61.4633 8.08506L62.8083 5.97631ZM52.542 12.7713C52.7795 12.3988 53.1858 12.1938 53.5983 12.1938C53.8295 12.1938 54.0608 12.2576 54.2683 12.3901C54.5508 12.5701 54.7458 12.8476 54.817 13.1738C54.8883 13.5001 54.8295 13.8338 54.6495 14.1151C54.4695 14.3976 54.192 14.5913 53.8658 14.6638C53.5345 14.7363 53.2033 14.6763 52.9233 14.4963C52.3433 14.1276 52.172 13.3526 52.542 12.7713Z" fill="#F0A573"/>
<path id="Vector_6" d="M27.4938 14.6663C27.7101 15.6451 28.2938 16.4801 29.1376 17.0188C29.7476 17.4076 30.4413 17.6088 31.1476 17.6088C31.4188 17.6088 31.6926 17.5801 31.9638 17.5188C32.9376 17.3038 33.7688 16.7226 34.3076 15.8838C34.3101 15.8801 34.3126 15.8776 34.3151 15.8751L38.3501 9.55259C38.7213 8.97009 38.5513 8.19759 37.9688 7.82634C37.3851 7.45509 36.6138 7.62634 36.2426 8.20759L34.1026 11.5626C33.8463 11.2326 33.5438 10.9326 33.1726 10.6951C32.3288 10.1576 31.3276 9.97634 30.3451 10.1951C29.3676 10.4113 28.5326 10.9951 27.9938 11.8401C27.4563 12.6851 27.2776 13.6888 27.4938 14.6663ZM30.1013 13.1851C30.2813 12.9038 30.5588 12.7088 30.8851 12.6376C30.9751 12.6176 31.0676 12.6076 31.1576 12.6076C31.3926 12.6076 31.6251 12.6751 31.8276 12.8051C32.4076 13.1751 32.5788 13.9476 32.2101 14.5301V14.5313C32.0301 14.8126 31.7526 15.0088 31.4263 15.0801C31.0988 15.1513 30.7651 15.0926 30.4826 14.9126C30.2013 14.7326 30.0076 14.4551 29.9351 14.1301C29.8638 13.8013 29.9213 13.4676 30.1013 13.1851Z" fill="#F0A573"/>
<path id="Vector_7" d="M45 13C45.6912 13 46.25 12.44 46.25 11.75V6.75C46.25 6.06 45.6912 5.5 45 5.5C44.3088 5.5 43.75 6.06 43.75 6.75V11.75C43.75 12.44 44.3088 13 45 13Z" fill="#F0A573"/>
<path id="Vector_8" d="M6.25 28V31.75C6.25 32.44 6.80875 33 7.5 33C8.19125 33 8.75 32.44 8.75 31.75V28C8.75 27.31 8.19125 26.75 7.5 26.75C6.80875 26.75 6.25 27.31 6.25 28Z" fill="#F0A573"/>
<path id="Vector_9" d="M32.5 24.25C33.1904 24.25 33.75 23.6904 33.75 23C33.75 22.3096 33.1904 21.75 32.5 21.75C31.8096 21.75 31.25 22.3096 31.25 23C31.25 23.6904 31.8096 24.25 32.5 24.25Z" fill="#F0A573"/>
<path id="Vector_10" d="M26.25 6.75C26.9404 6.75 27.5 6.19036 27.5 5.5C27.5 4.80964 26.9404 4.25 26.25 4.25C25.5596 4.25 25 4.80964 25 5.5C25 6.19036 25.5596 6.75 26.25 6.75Z" fill="#F0A573"/>
</g>
</g>
</svg>
