<svg width="81" height="81" viewBox="0 0 81 81" fill="none" xmlns="http://www.w3.org/2000/svg">
<g id="AdobeStock_444916749 1">
<g id="Group">
<path id="Vector" d="M10.8115 34.8713C10.999 34.8713 11.1902 34.8288 11.369 34.74C11.9865 34.4312 12.2365 33.68 11.9277 33.0625C11.2352 31.6787 11.5052 30.0125 12.6002 28.9175C14.9077 26.61 16.474 23.6938 17.1265 20.485C18.8977 11.8025 26.624 5.5 35.5002 5.5C45.009 5.5 53.0152 12.61 54.1202 22.04C54.3452 23.9438 55.1102 25.8563 56.334 27.57C56.5715 27.9025 56.7864 28.245 56.979 28.5975C57.3102 29.2038 58.0727 29.4275 58.674 29.0963C59.2802 28.765 59.504 28.0063 59.1727 27.4C58.9315 26.9575 58.6602 26.525 58.3665 26.1162C57.3877 24.745 56.7777 23.2337 56.6015 21.7475C55.3502 11.06 46.2765 3 35.5002 3C25.4415 3 16.684 10.1438 14.679 19.985C14.1227 22.7125 12.7927 25.1888 10.834 27.1488C8.9777 29.005 8.5177 31.8313 9.6927 34.18C9.9102 34.6175 10.3527 34.8713 10.8115 34.8713Z" fill="#EA6C92"/>
<path id="Vector_2" d="M19.25 61.75C18.5588 61.75 18 62.31 18 63V76.75C18 77.44 18.5588 78 19.25 78C19.9412 78 20.5 77.44 20.5 76.75V63C20.5 62.31 19.9412 61.75 19.25 61.75Z" fill="#EA6C92"/>
<path id="Vector_3" d="M30.5763 27.9237C30.8201 28.1674 31.1401 28.2899 31.4601 28.2899C31.7801 28.2899 32.1001 28.1674 32.3438 27.9237C32.8326 27.4349 32.8326 26.6449 32.3438 26.1562C30.6376 24.4512 27.8638 24.4512 26.1576 26.1562C25.6688 26.6449 25.6688 27.4349 26.1576 27.9237C26.6463 28.4124 27.4363 28.4124 27.9251 27.9237C28.6538 27.1924 29.8463 27.1924 30.5763 27.9237Z" fill="#EA6C92"/>
<path id="Vector_4" d="M40.4241 27.9237C41.1541 27.1924 42.3454 27.1924 43.0754 27.9237C43.3191 28.1674 43.6391 28.2899 43.9591 28.2899C44.2791 28.2899 44.5991 28.1674 44.8429 27.9237C45.3316 27.4349 45.3316 26.6449 44.8429 26.1562C43.1366 24.4512 40.3629 24.4512 38.6566 26.1562C38.1679 26.6449 38.1679 27.4349 38.6566 27.9237C39.1454 28.4124 39.9366 28.4124 40.4241 27.9237Z" fill="#EA6C92"/>
<path id="Vector_5" d="M42.5716 38.8212C43.0603 38.3337 43.0603 37.5424 42.5716 37.0537C42.0828 36.5649 41.2928 36.5649 40.8041 37.0537C37.8791 39.9774 33.1216 39.9774 30.1966 37.0537C29.7078 36.5649 28.9178 36.5649 28.4291 37.0537C27.9403 37.5424 27.9403 38.3337 28.4291 38.8212C30.3791 40.7712 32.9391 41.7449 35.5003 41.7449C38.0616 41.7449 40.6228 40.7699 42.5716 38.8212Z" fill="#EA6C92"/>
<path id="Vector_6" d="M31.7913 34.5713C31.8838 34.9175 32.1201 35.2075 32.4413 35.3688L34.9413 36.6188C35.1201 36.7075 35.3113 36.75 35.4988 36.75C35.9576 36.75 36.3988 36.4975 36.6188 36.0588C36.9276 35.4413 36.6776 34.69 36.0601 34.3813L34.8263 33.765L36.5413 31.1925C36.9251 30.6188 36.7701 29.8413 36.1951 29.4588C35.6176 29.075 34.8438 29.23 34.4613 29.805L31.9613 33.555C31.7613 33.855 31.7001 34.2238 31.7913 34.5713Z" fill="#EA6C92"/>
<path id="Vector_7" d="M37.4951 10.4812C37.0126 9.98747 36.2213 9.97747 35.7276 10.4587C35.2338 10.94 35.2238 11.7325 35.7051 12.2262C38.5026 15.0962 42.5001 17.0512 46.9551 17.7325C47.0201 17.7425 47.0838 17.7462 47.1451 17.7462C47.7526 17.7462 48.2851 17.3037 48.3788 16.685C48.4838 16.0025 48.0151 15.365 47.3313 15.26C43.4101 14.6637 39.9163 12.965 37.4951 10.4812Z" fill="#EA6C92"/>
<path id="Vector_8" d="M26.9598 11.0562L26.0098 12.4812C25.1161 13.8212 23.8823 14.9112 22.4411 15.6325C21.8236 15.9412 21.5736 16.6925 21.8823 17.31C22.1011 17.7475 22.5423 18 23.0011 18C23.1886 18 23.3798 17.9575 23.5586 17.8687C25.3886 16.9537 26.9561 15.57 28.0898 13.8687L29.0398 12.4437C29.4236 11.87 29.2686 11.0925 28.6936 10.71C28.1161 10.325 27.3423 10.4825 26.9598 11.0562Z" fill="#EA6C92"/>
<path id="Vector_9" d="M29.25 66.75C29.9404 66.75 30.5 66.1904 30.5 65.5C30.5 64.8096 29.9404 64.25 29.25 64.25C28.5596 64.25 28 64.8096 28 65.5C28 66.1904 28.5596 66.75 29.25 66.75Z" fill="#EA6C92"/>
<path id="Vector_10" d="M29.25 73C29.9404 73 30.5 72.4404 30.5 71.75C30.5 71.0596 29.9404 70.5 29.25 70.5C28.5596 70.5 28 71.0596 28 71.75C28 72.4404 28.5596 73 29.25 73Z" fill="#EA6C92"/>
<path id="Vector_11" d="M65.5 58H64.5925C65.205 57.4612 65.7537 56.8525 66.22 56.1812C70.2288 54.8087 73 51.0187 73 46.75C73 43.5475 71.9912 40.4837 70.0837 37.8875C69.6737 37.3325 68.8913 37.21 68.3375 37.6212C67.7812 38.03 67.6613 38.8125 68.07 39.3687C69.6587 41.5325 70.5 44.085 70.5 46.75C70.5 49.0037 69.4587 51.0725 67.8037 52.4687C67.9312 51.8312 68 51.1737 68 50.5V45.5C68 44.9037 67.58 44.3912 66.995 44.275L66.2275 44.1212C63.125 43.5 60.5325 41.5212 59.1175 38.6912C58.6925 37.8437 57.3062 37.8437 56.8812 38.6912C55.5537 41.3487 52.8812 43 49.91 43H49.25C48.5588 43 48 43.56 48 44.25C48 44.94 48.5588 45.5 49.25 45.5H49.91C53.1113 45.5 56.0475 44.05 57.9738 41.61C59.7825 44.105 62.4325 45.85 65.5 46.5225V50.5C65.5 54.6362 62.1362 58 58 58C53.8638 58 50.5 54.6362 50.5 50.5V49.25C50.5 48.56 49.9412 48 49.25 48C48.5588 48 48 48.56 48 49.25V50.5C48 51.1737 48.0688 51.8312 48.1963 52.4687C46.5413 51.0725 45.5 49.0037 45.5 46.75C45.5 39.8575 51.1075 34.25 58 34.25C60.3988 34.25 62.7363 34.94 64.76 36.2475C65.3375 36.62 66.1138 36.4537 66.4875 35.875C66.8625 35.295 66.695 34.5212 66.115 34.1462C63.6863 32.5787 60.88 31.75 58 31.75C57.1263 31.75 56.2738 31.8412 55.44 31.985L54.9163 30.675C54.66 30.0337 53.9275 29.7237 53.2913 29.9775C52.65 30.2337 52.3375 30.9612 52.5938 31.6025L53.0025 32.6237C52.1075 32.9412 51.2513 33.3387 50.4438 33.8137C50.46 33.5425 50.5 33.2687 50.5 33V21.75C50.5 21.06 49.9412 20.5 49.25 20.5C43.135 20.5 37.3863 18.1187 33.0638 13.7962L32.635 13.3675C32.3612 13.095 31.9762 12.9612 31.5987 13.01C31.2162 13.0575 30.8775 13.2775 30.6787 13.6075L30.2075 14.3925C28.3038 17.565 25.1313 19.8012 21.505 20.5262C20.9213 20.6412 20.5 21.1537 20.5 21.75V33C20.5 38.0037 22.9725 42.4325 26.75 45.1587V45.5H21.75C21.3112 45.5 20.8788 45.525 20.4513 45.5662C19.0425 44.1925 18.4288 42.2337 18.8162 40.2962C19.1325 38.7162 18.9837 37.0912 18.3825 35.5887L18.335 35.4712C17.44 33.2325 17.7037 30.7 19.04 28.6937C19.4237 28.12 19.2688 27.3425 18.6938 26.96C18.1175 26.575 17.3425 26.7325 16.96 27.3062C15.1663 29.9962 14.8125 33.3962 16.015 36.4037L16.0625 36.5212C16.48 37.5662 16.5837 38.7025 16.3638 39.805C15.9162 42.0412 16.4087 44.2937 17.6687 46.1175C15.5575 46.775 13.6675 47.9325 12.1262 49.4437C11.3025 48.7675 10.8225 47.7762 10.8112 46.7087C10.8 45.6262 11.2713 44.6075 12.1038 43.9137C13.9837 42.3475 14.7413 39.8212 14.0375 37.48C13.8375 36.82 13.1412 36.4425 12.48 36.6437C11.8187 36.8425 11.4437 37.54 11.6425 38.2012C12.0587 39.5812 11.6112 41.07 10.5025 41.9937C9.0925 43.1687 8.2925 44.8975 8.31125 46.7337C8.32875 48.5312 9.1325 50.2037 10.5112 51.3512C8.935 53.59 8 56.31 8 59.25V76.75C8 77.44 8.55875 78 9.25 78C9.94125 78 10.5 77.44 10.5 76.75V59.25C10.5 53.0475 15.5463 48 21.75 48H21.7575C21.5163 48.3487 21.345 48.7437 21.2725 49.1675C21.1375 49.9575 21.335 50.7787 21.8162 51.4212L23.8787 54.1712C23.9775 54.3012 23.9925 54.4737 23.9188 54.62C23.5638 55.3312 23.5125 56.1687 23.7812 56.9187C24.05 57.6675 24.6213 58.2825 25.3487 58.6062L34.25 62.5625V76.75C34.25 77.44 34.8088 78 35.5 78C36.1912 78 36.75 77.44 36.75 76.75V62.5625L45.6512 58.6062C46.3787 58.2825 46.95 57.6675 47.2188 56.9175C47.4613 56.2437 47.4313 55.5037 47.1663 54.8437C47.9525 55.4137 48.8337 55.8575 49.78 56.1812C50.2463 56.8537 50.795 57.4612 51.4075 58H50.5C47.0537 58 44.25 60.8037 44.25 64.25V66.75C44.25 67.44 44.8088 68 45.5 68H49.25V76.75C49.25 77.44 49.8088 78 50.5 78C51.1912 78 51.75 77.44 51.75 76.75V66.75C51.75 66.06 51.1912 65.5 50.5 65.5H46.75V64.25C46.75 62.1825 48.4325 60.5 50.5 60.5H53C53 63.2575 55.2425 65.5 58 65.5C60.7575 65.5 63 63.2575 63 60.5H65.5C67.5675 60.5 69.25 62.1825 69.25 64.25V65.5H65.5C64.8088 65.5 64.25 66.06 64.25 66.75V76.75C64.25 77.44 64.8088 78 65.5 78C66.1912 78 66.75 77.44 66.75 76.75V68H69.25V76.75C69.25 77.44 69.8088 78 70.5 78C71.1912 78 71.75 77.44 71.75 76.75V64.25C71.75 60.8037 68.9463 58 65.5 58ZM29.25 46.6187C31.155 47.4962 33.2675 48 35.5 48C37.6787 48 39.8025 47.5125 41.75 46.6125V50.1212L35.5 59.4962L29.25 50.1212V46.6187ZM23 33V22.74C26.68 21.7462 29.8938 19.4287 31.9963 16.24C36.3988 20.325 42.01 22.6825 48 22.97V33C48 33.9687 47.86 34.9587 47.6188 35.9487C45.7775 37.7187 44.385 39.9487 43.6338 42.4562C41.3587 44.415 38.4888 45.5 35.5 45.5C28.6075 45.5 23 39.8925 23 33ZM26.1338 56.0737C26.11 56.0087 26.0825 55.88 26.155 55.7362C26.6537 54.7362 26.5475 53.5612 25.8775 52.6687L23.8162 49.92C23.72 49.79 23.725 49.6575 23.7375 49.5887C23.7487 49.5212 23.7887 49.3937 23.9212 49.3037L25.8787 48H26.75V50.5C26.75 50.7462 26.8237 50.9887 26.96 51.1937L32.07 58.8575L26.3638 56.3212C26.2175 56.2562 26.1562 56.1387 26.1338 56.0737ZM44.8662 56.0737C44.8425 56.1387 44.7825 56.2562 44.635 56.3212L38.93 58.8575L44.0387 51.1937C44.0463 51.1837 44.0488 51.17 44.055 51.16C44.34 51.7337 44.665 52.2862 45.0525 52.795C44.4587 53.6725 44.3675 54.7837 44.845 55.7375C44.9175 55.88 44.89 56.01 44.8662 56.0737ZM58 63C56.6213 63 55.5 61.8787 55.5 60.5V60.1712C56.3013 60.3787 57.135 60.5 58 60.5C58.865 60.5 59.6987 60.3787 60.5 60.1712V60.5C60.5 61.8787 59.3787 63 58 63Z" fill="#EA6C92"/>
<path id="Vector_12" d="M45.5 70.5C44.8088 70.5 44.25 71.06 44.25 71.75V76.75C44.25 77.44 44.8088 78 45.5 78C46.1912 78 46.75 77.44 46.75 76.75V71.75C46.75 71.06 46.1912 70.5 45.5 70.5Z" fill="#EA6C92"/>
<path id="Vector_13" d="M61.75 48C62.4404 48 63 47.4404 63 46.75C63 46.0596 62.4404 45.5 61.75 45.5C61.0596 45.5 60.5 46.0596 60.5 46.75C60.5 47.4404 61.0596 48 61.75 48Z" fill="#EA6C92"/>
<path id="Vector_14" d="M54.25 48C54.9404 48 55.5 47.4404 55.5 46.75C55.5 46.0596 54.9404 45.5 54.25 45.5C53.5596 45.5 53 46.0596 53 46.75C53 47.4404 53.5596 48 54.25 48Z" fill="#EA6C92"/>
<path id="Vector_15" d="M56.2327 52.2675C55.7439 51.7788 54.9539 51.78 54.4652 52.2675C53.9764 52.7563 53.9764 53.5463 54.4652 54.0363C55.4089 54.98 56.6652 55.5 58.0002 55.5C59.3352 55.5 60.5914 54.98 61.5352 54.035C62.0239 53.5463 62.0239 52.755 61.5352 52.2663C61.0464 51.7788 60.2564 51.7788 59.7677 52.2663C58.8227 53.2125 57.1777 53.2125 56.2327 52.2675Z" fill="#EA6C92"/>
</g>
</g>
</svg>
