<svg width="80" height="81" viewBox="0 0 80 81" fill="none" xmlns="http://www.w3.org/2000/svg">
<g id="AdobeStock_440919940 1">
<g id="Dance">
<g id="Group">
<g id="Group_2">
<path id="Vector" d="M66.25 9.25C66.25 5.80375 63.4462 3 60 3C56.5538 3 53.75 5.80375 53.75 9.25C53.75 12.6962 56.5538 15.5 60 15.5C63.4462 15.5 66.25 12.6962 66.25 9.25ZM60 13C57.9325 13 56.25 11.3175 56.25 9.25C56.25 7.1825 57.9325 5.5 60 5.5C62.0675 5.5 63.75 7.1825 63.75 9.25C63.75 11.3175 62.0675 13 60 13Z" fill="#EA6C92"/>
<path id="Vector_2" d="M73.75 15.5H60H51.25V8C51.25 5.9325 49.5675 4.25 47.5 4.25C45.4325 4.25 43.75 5.9325 43.75 8V19.25C43.75 21.3175 45.4325 23 47.5 23H51.25V28.835L46.9975 34.5225C46.515 35.1663 46.25 35.9637 46.25 36.7687V50.5C46.25 51.1912 46.8088 51.75 47.5 51.75H52.5C53.1912 51.75 53.75 51.1912 53.75 50.5V38.05C53.75 37.735 53.8675 37.435 54.08 37.2025L56.7975 34.25H60V50.5C60 51.1912 60.5588 51.75 61.25 51.75H66.25C66.9412 51.75 67.5 51.1912 67.5 50.5V23H70V28C70 30.0675 71.6825 31.75 73.75 31.75C75.8175 31.75 77.5 30.0675 77.5 28V19.25C77.5 17.1825 75.8175 15.5 73.75 15.5ZM75 28C75 28.69 74.44 29.25 73.75 29.25C73.06 29.25 72.5 28.69 72.5 28V21.75C72.5 21.0588 71.9412 20.5 71.25 20.5H66.25C65.5588 20.5 65 21.0588 65 21.75V49.25H62.5V33C62.5 32.3088 61.9412 31.75 61.25 31.75H56.25C55.9012 31.75 55.5662 31.8962 55.3312 32.1537L52.2412 35.51C51.6012 36.2037 51.25 37.1063 51.25 38.05V49.25H48.75V36.7687C48.75 36.5012 48.8375 36.235 48.9988 36.02L53.5012 29.9988C53.6625 29.7825 53.75 29.52 53.75 29.25V21.75C53.75 21.0588 53.1912 20.5 52.5 20.5H47.5C46.81 20.5 46.25 19.94 46.25 19.25V8C46.25 7.31 46.81 6.75 47.5 6.75C48.19 6.75 48.75 7.31 48.75 8V16.75C48.75 17.4412 49.3088 18 50 18H73.75C74.44 18 75 18.56 75 19.25V28Z" fill="#EA6C92"/>
<path id="Vector_3" d="M31.25 33C31.25 29.5538 28.4462 26.75 25 26.75C21.5538 26.75 18.75 29.5538 18.75 33C18.75 36.4462 21.5538 39.25 25 39.25C28.4462 39.25 31.25 36.4462 31.25 33ZM25 36.75C22.9325 36.75 21.25 35.0675 21.25 33C21.25 30.9325 22.9325 29.25 25 29.25C27.0675 29.25 28.75 30.9325 28.75 33C28.75 35.0675 27.0675 36.75 25 36.75Z" fill="#EA6C92"/>
<path id="Vector_4" d="M38.4237 28.1188C37.105 27.7901 35.7725 28.1601 34.865 29.0913C34.145 29.7926 33.75 30.7351 33.75 31.7501V39.2501H25H13.75C10.3038 39.2501 7.5 42.0538 7.5 45.5001V51.7501C7.5 53.8176 9.1825 55.5001 11.25 55.5001H17.5V59.2126C17.5 59.3288 17.5162 59.4438 17.5475 59.5538L19.9038 67.8363L15.165 76.1301C14.9437 76.5176 14.945 76.9913 15.1688 77.3776C15.3925 77.7638 15.805 78.0001 16.25 78.0001H21.25C21.6975 78.0001 22.1125 77.7601 22.335 77.3701L27.335 68.6201C27.5025 68.3288 27.5438 67.9801 27.4525 67.6563L25.4075 60.5001H27.8487L29.9738 66.8763L28.7588 76.5951C28.7138 76.9501 28.825 77.3076 29.0613 77.5776C29.3 77.8463 29.6413 78.0001 30 78.0001H35C35.63 78.0001 36.1625 77.5301 36.24 76.9051L37.49 66.9051C37.5113 66.7426 37.4988 66.5788 37.4562 66.4213L33.75 52.8326V46.7501H37.5C39.5675 46.7501 41.25 45.0676 41.25 43.0001V31.8876C41.25 30.0888 40.0875 28.5401 38.4237 28.1188ZM38.75 43.0001C38.75 43.6901 38.19 44.2501 37.5 44.2501H32.5C31.8088 44.2501 31.25 44.8088 31.25 45.5001V53.0001C31.25 53.1113 31.265 53.2226 31.2938 53.3288L34.9788 66.8413L33.8963 75.5001H31.4162L32.49 66.9051C32.5138 66.7201 32.495 66.5313 32.435 66.3551L29.935 58.8551C29.765 58.3438 29.2887 58.0001 28.75 58.0001H23.75C23.3588 58.0001 22.9888 58.1838 22.7513 58.4963C22.5163 58.8101 22.44 59.2151 22.5475 59.5926L24.9038 67.8376L20.525 75.5001H18.405L22.3362 68.6201C22.5037 68.3288 22.545 67.9813 22.4537 67.6576L20 59.0376V55.5001C21.015 55.5001 21.9575 55.1051 22.6338 54.4088C23.355 53.7076 23.75 52.7651 23.75 51.7501C23.75 49.6826 22.0675 48.0001 20 48.0001V45.5001C20 44.8088 19.4412 44.2501 18.75 44.2501H15C13.6213 44.2501 12.5 45.3713 12.5 46.7501V49.2501C12.5 49.9413 13.0588 50.5001 13.75 50.5001H20C20.69 50.5001 21.25 51.0601 21.25 51.7501C21.25 52.0838 21.1213 52.3926 20.8663 52.6413C20.6425 52.8713 20.3337 53.0001 20 53.0001H11.25C10.56 53.0001 10 52.4401 10 51.7501V45.5001C10 43.4326 11.6825 41.7501 13.75 41.7501H35C35.6912 41.7501 36.25 41.1913 36.25 40.5001V31.7501C36.25 31.4163 36.3787 31.1076 36.6325 30.8601C36.9362 30.5463 37.36 30.4288 37.8113 30.5426C38.3563 30.6801 38.75 31.2463 38.75 31.8876V43.0001ZM17.5 48.0001H15V46.7501H17.5V48.0001Z" fill="#EA6C92"/>
<path id="Vector_5" d="M11.3387 22.2138C11.53 22.6888 11.9888 23 12.5 23C13.0112 23 13.47 22.6888 13.6613 22.2138L15.9625 16.4613L21.715 14.16C22.1887 13.97 22.5 13.5112 22.5 13C22.5 12.4888 22.1888 12.03 21.7138 11.8387L15.9625 9.5375L13.6613 3.785C13.47 3.31125 13.0112 3 12.5 3C11.9888 3 11.53 3.31125 11.3387 3.78625L9.0375 9.5375L3.28625 11.8387C2.81125 12.03 2.5 12.4888 2.5 13C2.5 13.5112 2.81125 13.97 3.28625 14.1613L9.0375 16.4625L11.3387 22.2138ZM10.4638 11.6613C10.7825 11.5337 11.0337 11.2825 11.1613 10.9638L12.5 7.615L13.8387 10.9638C13.9663 11.2825 14.2175 11.5337 14.5362 11.6613L17.885 13L14.5362 14.3387C14.2175 14.4663 13.9663 14.7175 13.8387 15.0362L12.5 18.385L11.1613 15.0362C11.0337 14.7175 10.7825 14.4663 10.4638 14.3387L7.115 13L10.4638 11.6613Z" fill="#EA6C92"/>
<path id="Vector_6" d="M66.7137 66.8387L60.9625 64.5375L58.6613 58.785C58.47 58.3112 58.0112 58 57.5 58C56.9888 58 56.53 58.3113 56.3387 58.7863L54.0375 64.5375L48.285 66.8387C47.8112 67.03 47.5 67.4888 47.5 68C47.5 68.5112 47.8113 68.97 48.2863 69.1613L54.0387 71.4625L56.34 77.215C56.53 77.6888 56.9888 78 57.5 78C58.0112 78 58.47 77.6887 58.6613 77.2137L60.9625 71.4613L66.715 69.16C67.1888 68.97 67.5 68.5112 67.5 68C67.5 67.4888 67.1887 67.03 66.7137 66.8387ZM59.5363 69.3387C59.2175 69.4662 58.9662 69.7175 58.8387 70.0363L57.5 73.385L56.1613 70.0363C56.0338 69.7175 55.7825 69.4662 55.4637 69.3387L52.115 68L55.4637 66.6613C55.7825 66.5338 56.0338 66.2825 56.1613 65.9637L57.5 62.615L58.8387 65.9637C58.9662 66.2825 59.2175 66.5338 59.5363 66.6613L62.885 68L59.5363 69.3387Z" fill="#EA6C92"/>
</g>
<g id="Group_3">
<path id="Vector_7" d="M33.7502 21.5349C33.4302 21.5349 33.1102 21.4124 32.8664 21.1687L29.3314 17.6337C28.8427 17.1449 28.8427 16.3549 29.3314 15.8662L32.8664 12.3312C33.3552 11.8424 34.1452 11.8424 34.6339 12.3312L38.1689 15.8662C38.6577 16.3549 38.6577 17.1449 38.1689 17.6337L34.6339 21.1687C34.3902 21.4124 34.0702 21.5349 33.7502 21.5349ZM31.9827 16.7499L33.7502 18.5174L35.5177 16.7499L33.7502 14.9824L31.9827 16.7499Z" fill="#EA6C92"/>
</g>
<g id="Group_4">
<path id="Vector_8" d="M72.5002 64.0349C72.1802 64.0349 71.8602 63.9124 71.6164 63.6687L68.0814 60.1337C67.5927 59.6449 67.5927 58.8549 68.0814 58.3662L71.6164 54.8312C72.1052 54.3424 72.8952 54.3424 73.3839 54.8312L76.9189 58.3662C77.4077 58.8549 77.4077 59.6449 76.9189 60.1337L73.3839 63.6687C73.1402 63.9124 72.8202 64.0349 72.5002 64.0349ZM70.7327 59.2499L72.5002 61.0174L74.2677 59.2499L72.5002 57.4824L70.7327 59.2499Z" fill="#EA6C92"/>
</g>
</g>
</g>
</g>
</svg>
