<svg width="80" height="81" viewBox="0 0 80 81" fill="none" xmlns="http://www.w3.org/2000/svg">
<g id="AdobeStock_439128159 1">
<g id="Group">
<path id="Vector" d="M35 71.625L33.75 60.625L35.5 55.625L36 60.25C36.25 62.875 37.75 65 40.125 66.25L47.625 70C48 72.375 49.75 74.5 52.125 75.125L53.5 75.5C53.625 75.5 53.75 75.5 53.75 75.5C54 75.5 54.25 75.375 54.5 75.25C54.75 75 55 74.75 55 74.375L56.25 64.375C56.375 63.75 55.875 63.125 55.25 63L50.375 61.75L45 58.75L46.25 45.5V37L48.75 38.625V46.625C48.75 48.5 50.125 50.125 51.875 50.5C53 50.625 54.125 50.375 54.875 49.625C55.625 48.875 56.25 47.875 56.25 46.75V44.25C56.25 43.5 55.75 43 55 43C54.25 43 53.75 43.5 53.75 44.25V46.75C53.75 47.125 53.625 47.5 53.25 47.75C53.125 48 52.75 48 52.375 48C51.75 47.875 51.375 47.25 51.375 46.625V38C51.375 37.625 51.125 37.25 50.875 37L48.75 35.625L46.625 34.25L48.5 30.125L50.5 31.5C52.625 32.875 53.875 35.25 53.875 37.75V39.25C53.875 40 54.375 40.5 55.125 40.5C55.875 40.5 56.375 40 56.375 39.25V37.625C56.375 34.25 54.75 31.125 51.875 29.25L46.375 25.625C44.875 24.625 43.25 24.125 41.5 24.125H40.625C41.5 23.125 42.125 21.875 42.375 20.5C42.625 20.375 42.75 20.25 43 20.125L45.25 22.375C46.25 23.375 47.625 24.125 49.125 24.5C49.625 24.625 50.125 24.625 50.625 24.625C53.25 24.625 55.75 23.25 57.125 21L58.625 18.625C58.875 18.25 58.875 17.625 58.5 17.25C58.125 16.875 57.625 16.625 57.25 16.75L54.75 17.375C53.75 17.625 52.75 17.25 52.125 16.375C51.25 15.125 49.75 14.25 48.125 14.25H46.875C46.875 14 46.875 13.75 46.875 13.5C46.875 11.5 46.25 9.625 45.125 8C44.75 7.375 44 7.25 43.375 7.625C42.75 8 42.625 8.75 43 9.375C43.875 10.625 44.25 12 44.25 13.5C44.25 15.125 43.5 16.5 42.375 17.625C42.125 15.125 40 13 37.375 13H35.375C34.5 13 33.625 12.75 32.875 12.25L30.625 10.75C30.5 10.5 30.125 10.5 29.75 10.5C29.375 10.625 29.125 10.875 29 11.125C28.25 12.5 27.875 14 27.75 15.625C27.25 14.875 27 14 27 13.125C27 8.875 30.75 5.5 35.5 5.5H35.75C37.25 5.5 38.625 5.875 39.875 6.5C40.5 6.75 41.25 6.5 41.5 5.875C41.75 5.25 41.5 4.5 40.875 4.25C39.25 3.5 37.375 3 35.625 3H35.375C29.375 3 24.375 7.625 24.375 13.125C24.375 15.5 25.5 17.75 27.5 19.25C27.5 21.125 28.25 22.875 29.5 24.25C27 24.375 24.875 25.875 23.875 28.125L20.75 35.875L15.25 31.125C13.75 29.75 11.375 29.875 9.875 31.375C9.125 32.125 8.75 33.125 8.75 34.25C8.75 35.375 9.25 36.375 10 37.125L17.25 43.75C18.625 45 20.5 45.625 22.25 45.375C24.125 45.125 25.75 44.125 26.75 42.5L27.5 41.25V45.5L24.25 57.625C23.875 59 23.875 60.375 24.375 61.75C24.5 62.25 25 62.625 25.625 62.625C25.75 62.625 25.875 62.625 26 62.625C26.625 62.375 27 61.75 26.875 61.125C26.625 60.25 26.625 59.25 26.875 58.375L29.875 47H40C40.75 47 41.25 46.5 41.25 45.75C41.25 45 40.75 44.5 40 44.5H30V34.5C30 34.375 30 34.25 29.875 34.125L27.5 27.375C28.125 27 28.875 26.75 29.625 26.75H30.625V27.375C30.625 29.75 32.625 31.75 35 31.75C37.375 31.75 39.375 29.75 39.375 27.375V26.75H41.5C42.75 26.75 43.875 27.125 45 27.75L46.375 28.625L44.5 32.75L43.25 31.875C42.625 31.5 41.875 31.625 41.5 32.25C41.125 32.875 41.25 33.625 41.875 34L43.875 35.25V45.25L42.625 59.25C42.625 59.75 42.875 60.25 43.25 60.5L48.75 63.625L48 67.375L41.25 64C39.75 63.25 38.75 61.75 38.5 60L37.875 54.125C37.75 53.5 37.25 53 36.625 53H34.625C34.125 53 33.625 53.375 33.5 53.875L31.375 60.125C31.375 60.25 31.25 60.5 31.375 60.625L32.5 70.5H29.875L28.25 65.125C28 64.5 27.375 64.125 26.75 64.25C26.125 64.5 25.75 65.125 25.875 65.75L27.375 70.625C24.5 71.5 22.5 73.875 22.5 76.75C22.5 77.5 23 78 23.75 78H33.75C34.5 78 35 77.5 35 76.75V71.75V71.625ZM46.125 16.75H48C48.75 16.75 49.5 17.125 50 17.75C51.125 19.375 53 20.125 54.875 19.875C53.75 21.625 51.625 22.5 49.625 22.125C48.625 21.875 47.75 21.5 47 20.75L45 18.625C45.5 18 45.875 17.375 46.125 16.75ZM30 17C30 15.875 30.25 14.625 30.625 13.625L31.625 14.375C32.75 15.125 34.125 15.5 35.5 15.5H37.5C38.875 15.5 40 16.625 40 18V19.25C40 22 37.75 24.25 35 24.25C33.875 24.25 33 23.875 32.125 23.375C33.625 23.25 35 22.5 36 21.25C36.375 20.75 36.25 19.875 35.75 19.5C35.25 19.125 34.375 19.25 34 19.75C33.25 20.75 31.875 21.125 30.625 20.625L30.375 20.5C30.25 20.5 30.25 20.5 30.125 20.5C30 20.125 29.875 19.625 29.875 19.25V17H30ZM24.625 41C24 42 23.125 42.625 22 42.75C20.875 42.875 19.75 42.5 19 41.75L11.75 35.125C11.375 35 11.25 34.625 11.25 34.25C11.25 33.875 11.375 33.5 11.625 33.25C12.125 32.75 13 32.75 13.625 33.125L20.5 39C20.75 39.25 21.25 39.25 21.625 39.25C22 39.125 22.375 38.875 22.5 38.5L25.875 30L27.625 34.5V36.375L24.625 41ZM35 29.25C34 29.25 33.125 28.375 33.125 27.375V26.5C33.75 26.625 34.375 26.75 35 26.75C35.625 26.75 36.25 26.625 36.875 26.5V27.375C36.875 28.375 36.125 29.25 35 29.25ZM32.5 75.5H25.25C25.75 74 27.125 73 28.75 73H32.5V75.5ZM52.75 72.75C51.25 72.375 50.125 71 50.125 69.375L51.125 64.625L53.75 65.25L52.75 72.75Z" fill="#98E88C"/>
<path id="Vector_2" d="M55 26.75C55 27.5 55.5 28 56.25 28H71.25C72 28 72.5 27.5 72.5 26.75C72.5 26 72 25.5 71.25 25.5H56.25C55.5 25.5 55 26 55 26.75Z" fill="#98E88C"/>
<path id="Vector_3" d="M68.75 36.75H61.25C60.5 36.75 60 37.25 60 38C60 38.75 60.5 39.25 61.25 39.25H68.75C69.5 39.25 70 38.75 70 38C70 37.25 69.5 36.75 68.75 36.75Z" fill="#98E88C"/>
<path id="Vector_4" d="M52.5 53C51.75 53 51.25 53.5 51.25 54.25C51.25 55 51.75 55.5 52.5 55.5H65C65.75 55.5 66.25 55 66.25 54.25C66.25 53.5 65.75 53 65 53H52.5Z" fill="#98E88C"/>
<path id="Vector_5" d="M70 46.75C70 46 69.5 45.5 68.75 45.5H62.5C61.75 45.5 61.25 46 61.25 46.75C61.25 47.5 61.75 48 62.5 48H68.75C69.5 48 70 47.5 70 46.75Z" fill="#98E88C"/>
<path id="Vector_6" d="M72.5 63H62.5C61.75 63 61.25 63.5 61.25 64.25C61.25 65 61.75 65.5 62.5 65.5H72.5C73.25 65.5 73.75 65 73.75 64.25C73.75 63.5 73.25 63 72.5 63Z" fill="#98E88C"/>
</g>
</g>
</svg>
