<svg width="22" height="25" viewBox="0 0 22 25" fill="none" xmlns="http://www.w3.org/2000/svg">
<path d="M19.4838 8.0638C15.2375 2.75295 13.4615 0.598907 13.4615 0.598907C13.3321 0.441923 13.1879 0.475485 13.1411 0.673485L12.6647 2.68944L11.7463 6.57561L9.10435 17.7548C8.22779 16.9347 6.958 16.4256 5.55011 16.4406C2.93373 16.4685 0.831949 18.2953 0.855668 20.5207C0.879386 22.7461 3.01965 24.5276 5.63607 24.4997C7.69876 24.4777 9.44129 23.3376 10.0749 21.7656L10.0877 21.7686L10.1095 21.6765C10.2114 21.403 10.2801 21.1173 10.3113 20.8225L13.4885 7.37881C14.8682 7.89655 16.9708 9.05548 18.6502 11.5916C20.0859 13.7597 18.1822 17.2325 17.3157 18.6118C17.0793 18.9881 17.3073 18.9508 17.4991 18.8071C20.2189 16.7691 23.019 12.4852 19.4838 8.0638Z" fill="#F0A573"/>
</svg>
