<?xml version="1.0" encoding="UTF-8"?>
<svg id="_レイヤー_2" data-name="レイヤー 2" xmlns="http://www.w3.org/2000/svg" viewBox="0 0 26 14.43">
  <defs>
    <style>
      .cls-1 {
        fill: #ea6c92;
        stroke-width: 0px;
      }
    </style>
  </defs>
  <g id="_レイヤー_1-2" data-name="レイヤー 1">
    <g id="_ç_ã_ã_ã_ã_ã_ã_ã_ã_1" data-name="ç´ãã¶ã¨ã®ã¢ã¤ã³ã³ 1">
      <g id="Group">
        <path id="Vector" class="cls-1" d="M16.89,9.37l4.51-5.98h-3.07l-2.45,4.82,1.01,1.16Z"/>
        <path id="Vector_2" data-name="Vector 2" class="cls-1" d="M17.53,10.11l1.11,1.28h4.72l-3.64-4.19-2.19,2.91Z"/>
        <path id="Vector_3" data-name="Vector 3" class="cls-1" d="M16.95,4.01L13.47,0v5.43l1.74,2,1.74-3.43Z"/>
        <path id="Vector_4" data-name="Vector 4" class="cls-1" d="M17.37,11.39l-4.37-5.03-4.37,5.03h8.73Z"/>
        <path id="Vector_5" data-name="Vector 5" class="cls-1" d="M12.53,5.43V0l-3.5,4.03,1.74,3.43,1.76-2.03Z"/>
        <path id="Vector_6" data-name="Vector 6" class="cls-1" d="M10.1,8.23l-2.46-4.84h-3.07l4.52,6,1.01-1.16Z"/>
        <path id="Vector_7" data-name="Vector 7" class="cls-1" d="M8.45,10.13l-2.19-2.91-3.62,4.17h4.72l1.09-1.26Z"/>
        <path id="Vector_8" data-name="Vector 8" class="cls-1" d="M24.21,12.37H1.79l-1.79,2.06h26l-1.79-2.06Z"/>
      </g>
    </g>
  </g>
</svg>