<svg width="81" height="81" viewBox="0 0 81 81" fill="none" xmlns="http://www.w3.org/2000/svg">
<g id="AdobeStock_452309793 1">
<path id="Vector" d="M78 44.25C78 40.75 75.25 38 71.75 38H69.375C67.75 38 66.375 39 65.75 40.5H64.625C66.75 38.625 68 36 68 33V32.875C70.875 32.25 73 29.75 73 26.75C73 25.625 72.5 24.625 71.75 24C71.625 16.5 65.5 10.5 58 10.5C50.5 10.5 44.375 16.5 44.25 24C43.5 24.625 43 25.625 43 26.75C43 29.75 45.125 32.25 48 32.875V33C48 35.375 48.75 37.5 50.125 39.125L49.5 39C46.125 38.25 42.5 38.5 39.25 39.625C37.5 40.25 35.625 40.5 33.75 40.5H30.875C33 38.625 34.25 36 34.25 33V32.875C37.125 32.25 39.25 29.75 39.25 26.75C39.25 25.375 38.625 24.25 37.5 23.625C38.625 22 39.25 20 39.25 18V11.75C39.25 11 38.75 10.5 38 10.5H21.75C14.875 10.5 9.25 16.125 9.25 23V26.75C9.25 29.75 11.375 32.25 14.25 32.875V33C14.25 36 15.625 38.625 17.625 40.5H15.5C15.375 40.5 15.375 40.5 15.25 40.5C14.75 39 13.25 38 11.625 38H9.25C5.75 38 3 40.75 3 44.25C3 45.75 3.875 47 5.125 47.625C4.5 48.875 4.25 50.375 4.25 51.75V76.75C4.25 77.5 4.75 78 5.5 78H38C38.75 78 39.25 77.5 39.25 76.75V58.5C41.5 59.5 43 61.875 43 64.375V76.75C43 77.5 43.5 78 44.25 78H75.5C76.25 78 76.75 77.5 76.75 76.75V49.25C76.75 48.625 76.625 47.875 76.5 47.25C77.375 46.5 78 45.5 78 44.25ZM68 25.5H69.25C70 25.5 70.5 26 70.5 26.75C70.5 28.375 69.5 29.75 68 30.25V25.5ZM48 30.25C46.5 29.75 45.5 28.375 45.5 26.75C45.5 26 46 25.5 46.75 25.5H48V30.25ZM34.25 25.5H35.5C36.25 25.5 36.75 26 36.75 26.75C36.75 28.375 35.75 29.75 34.25 30.25V25.5ZM10.5 44.25C10.5 45 10 45.5 9.25 45.5H6.875H6.75C6 45.5 5.5 45 5.5 44.25C5.5 42.125 7.125 40.5 9.25 40.5H11.625C12.375 40.5 13 41.125 13 41.875C13 42.5 12.5 43 11.75 43C11 43 10.5 43.5 10.5 44.25ZM14.25 75.5H11.75V55.5C11.75 54.75 12.25 54.25 13 54.25C13.75 54.25 14.25 54.75 14.25 55.5V75.5ZM14.25 30.25C12.75 29.75 11.75 28.375 11.75 26.75C11.75 26 12.25 25.5 13 25.5H14.25V30.25ZM24.25 45.5C22.375 45.5 20.875 44.125 20.5 42.25C21.75 42.75 23 43 24.25 43C25.5 43 26.75 42.75 28 42.25C27.625 44.125 26.125 45.5 24.25 45.5ZM24.25 40.5C20.125 40.5 16.75 37.125 16.75 33V31.75V25.375C19.625 25 22.375 23.625 24.25 21.25C26.125 23.5 28.875 25 31.75 25.375V31.75V33C31.75 37.125 28.375 40.5 24.25 40.5ZM50.5 31.75V24.875L54.125 22.125C56.625 24.25 59.875 25.5 63.25 25.5H65.5V31.75V33C65.5 37.125 62.125 40.5 58 40.5C53.875 40.5 50.5 37.125 50.5 33V31.75ZM61.75 42.25C61.5 44.125 60 45.5 58 45.5C56 45.5 54.625 44.125 54.25 42.25C55.5 42.75 56.75 43 58 43C59.25 43 60.5 42.75 61.75 42.25ZM74.25 75.5H69.25V56.75C69.25 56 68.75 55.5 68 55.5C67.25 55.5 66.75 56 66.75 56.75V75.5H45.5V64.375C45.5 60.5 42.875 57 39.25 55.75V50.5C42.125 50.375 44.75 48.625 46 46.125C47 44.25 48.875 43.125 51 43.125H51.875C52.5 46 55 48.125 58 48.125C61 48.125 63.5 46 64.125 43.125H65.625C66 44.25 66.875 45.125 68.125 45.5C68.625 47 70 48.125 71.75 48.125H74.125C74.25 48.5 74.25 49 74.25 49.375V75.5ZM74.25 45.5H71.75C71 45.5 70.5 45 70.5 44.25C70.5 43.5 69.875 43 69.125 43C68.5 43 68 42.5 68 41.875C68 41.125 68.625 40.5 69.375 40.5H71.75C73.875 40.5 75.5 42.125 75.5 44.25C75.5 45 75 45.5 74.25 45.5Z" fill="#F0A573"/>
<path id="Vector_2" d="M54.25 29.25C54.9404 29.25 55.5 28.6904 55.5 28C55.5 27.3096 54.9404 26.75 54.25 26.75C53.5596 26.75 53 27.3096 53 28C53 28.6904 53.5596 29.25 54.25 29.25Z" fill="#F0A573"/>
<path id="Vector_3" d="M61.75 29.25C62.4404 29.25 63 28.6904 63 28C63 27.3096 62.4404 26.75 61.75 26.75C61.0596 26.75 60.5 27.3096 60.5 28C60.5 28.6904 61.0596 29.25 61.75 29.25Z" fill="#F0A573"/>
<path id="Vector_4" d="M54.625 33.375C54.125 33.875 54.125 34.625 54.625 35.125C55.5 36 56.75 36.5 58 36.5C59.25 36.5 60.5 36 61.375 35.125C61.875 34.625 61.875 33.875 61.375 33.375C60.875 32.875 60.125 32.875 59.625 33.375C58.75 34.25 57.25 34.25 56.375 33.375C55.875 32.875 55.125 32.875 54.625 33.375Z" fill="#F0A573"/>
<path id="Vector_5" d="M20.5 29.25C21.1904 29.25 21.75 28.6904 21.75 28C21.75 27.3096 21.1904 26.75 20.5 26.75C19.8096 26.75 19.25 27.3096 19.25 28C19.25 28.6904 19.8096 29.25 20.5 29.25Z" fill="#F0A573"/>
<path id="Vector_6" d="M28 29.25C28.6904 29.25 29.25 28.6904 29.25 28C29.25 27.3096 28.6904 26.75 28 26.75C27.3096 26.75 26.75 27.3096 26.75 28C26.75 28.6904 27.3096 29.25 28 29.25Z" fill="#F0A573"/>
<path id="Vector_7" d="M25.875 33.375C25 34.25 23.5 34.25 22.625 33.375C22.125 32.875 21.375 32.875 20.875 33.375C20.375 33.875 20.375 34.625 20.875 35.125C21.75 36 23 36.5 24.25 36.5C25.5 36.5 26.75 36 27.625 35.125C28.125 34.625 28.125 33.875 27.625 33.375C27.125 32.875 26.375 32.875 25.875 33.375Z" fill="#F0A573"/>
</g>
</svg>
