<svg width="99" height="81" viewBox="0 0 99 81" fill="none" xmlns="http://www.w3.org/2000/svg">
<g id="Group 1">
<path id="Vector" d="M12.4971 9.7219C12.4971 14.7939 16.6469 18.867 21.719 18.867C26.791 18.867 30.864 14.7171 30.864 9.64505C30.864 4.57301 26.7142 0.5 21.719 0.5C16.5701 0.5 12.4971 4.64985 12.4971 9.7219ZM27.7901 9.7219C27.7901 13.1033 25.0235 15.793 21.6421 15.793C18.2608 15.793 15.571 13.0264 15.571 9.64505C15.571 6.26369 18.3376 3.57397 21.6421 3.57397C25.0235 3.57397 27.7901 6.34054 27.7901 9.7219Z" fill="#F0A573"/>
<path id="Vector_2" d="M68.0596 9.7219C68.0596 14.7939 72.2094 18.867 77.2815 18.867C82.3535 18.867 86.4265 14.7171 86.4265 9.64505C86.4265 4.57301 82.2767 0.5 77.2815 0.5C72.2094 0.5 68.0596 4.64985 68.0596 9.7219ZM83.3526 9.7219C83.3526 13.1033 80.586 15.793 77.2046 15.793C73.8233 15.793 71.1335 13.0264 71.1335 9.64505C71.1335 6.26369 73.9001 3.57397 77.2046 3.57397C80.6628 3.57397 83.3526 6.34054 83.3526 9.7219Z" fill="#F0A573"/>
<path id="Vector_3" d="M87.3481 22.5558C86.8101 21.7873 85.8111 21.2493 84.8889 21.2493H70.4413C69.3654 21.2493 68.3663 21.7873 67.8284 22.7095L60.4509 32.623C60.2203 32.9304 59.8361 33.161 59.4518 33.2378L49.3078 35.0053L39.4711 33.2378C39.0868 33.161 38.7026 32.9304 38.472 32.5462L31.0945 22.6326C30.5566 21.7104 29.5575 21.1725 28.4816 21.1725H14.034C13.0349 21.1725 12.1128 21.6336 11.5748 22.4789L0.892775 37.4645C0.124283 38.5404 0.124283 40.0005 0.892775 41.0764L9.49988 52.8343C10.4989 54.2176 12.4201 54.525 13.7266 53.526L15.571 52.1427C16.9543 51.1437 17.2616 49.1456 16.1858 47.8391L14.7256 45.9948V32.0851C14.7256 31.2397 14.034 30.5481 13.1886 30.5481C12.7275 30.5481 12.2665 30.7786 11.9591 31.1629L7.34811 37.4645C6.57961 38.5404 6.57961 40.0005 7.34811 41.0764L11.9591 47.378L13.6497 49.6067L11.8054 50.99L3.35195 39.232L14.034 24.3233H28.4816C28.4816 24.4001 28.5585 24.4001 28.5585 24.477L35.936 34.3905C36.6276 35.3896 37.7035 36.0812 38.8563 36.2349L44.9273 37.3108C44.7736 37.7719 44.6968 38.3098 44.7736 38.8478L44.9273 39.5394L36.6276 37.9256C36.2434 37.8487 35.8591 37.6182 35.6286 37.234L31.4019 31.7008C30.8639 31.0092 29.9418 30.9323 29.2501 31.3934C28.8659 31.7008 28.6353 32.1619 28.6353 32.623V76.965C28.6353 77.0418 28.5585 77.1955 28.4048 77.1955H23.3327V52.6038C23.3327 51.7585 22.6411 51.0668 21.7957 51.0668C20.9504 51.0668 20.2588 51.7585 20.2588 52.6038V77.1955H14.8793C14.8025 77.1187 14.8025 77.0418 14.8025 76.965V56.3694C13.9571 56.8305 12.9581 57.061 11.9591 57.061C11.8822 57.061 11.8054 57.061 11.7285 57.061V76.965C11.6517 78.7325 13.0349 80.1926 14.8025 80.2695H28.4816C30.326 80.2695 31.7093 78.7325 31.7861 76.965V37.3108L33.2463 39.232C33.9379 40.2311 35.0138 40.9227 36.1665 41.0764L46.7717 43.1513C47.3865 43.5356 48.0782 43.6124 48.7698 43.5356L62.7564 41.1533C63.9091 40.9227 64.985 40.3079 65.6766 39.3089L67.1367 37.3877V77.1955C67.1367 79.0399 68.5969 80.5 70.4413 80.5H84.1204C85.888 80.4232 87.2712 78.9631 87.1944 77.1955V57.2916C87.1175 57.2916 87.0407 57.2916 86.9638 57.2916C85.9648 57.2916 85.0426 57.061 84.1204 56.5999V77.1955C84.1204 77.2724 84.1204 77.3492 84.0436 77.4261H78.6641V52.8343C78.6641 51.989 77.9725 51.2974 77.1271 51.2974C76.2818 51.2974 75.5902 51.989 75.5902 52.8343V77.4261H70.4413C70.3644 77.4261 70.2876 77.2724 70.2107 77.1955V32.7767C70.2107 31.9314 69.5191 31.2397 68.6737 31.2397C68.2126 31.2397 67.7515 31.4703 67.4442 31.8545L63.1406 37.4645C62.91 37.7719 62.5258 38.0025 62.1416 38.0793L48.3087 40.4616L47.9245 38.3867L59.9898 36.3118C61.1425 36.0812 62.2184 35.4664 62.91 34.4674L70.2876 24.477C70.2876 24.4001 70.3644 24.4001 70.3644 24.3233H84.8121L95.5709 39.232L86.9638 50.99L85.0426 49.6835L86.8101 47.4549C86.8101 47.4549 86.8101 47.4549 86.887 47.378L91.4979 41.0764C92.2664 40.0005 92.2664 38.5404 91.4979 37.4645L86.887 31.1629C86.4259 30.4712 85.4268 30.3175 84.7352 30.8555C84.351 31.1629 84.1204 31.624 84.1204 32.0851V45.9948L82.6603 47.8391C81.6612 49.2224 81.9686 51.1437 83.3519 52.1427L85.1963 53.526C86.5796 54.525 88.5008 54.2176 89.4999 52.8343L98.107 40.9996C98.8755 39.9237 98.8755 38.4635 98.107 37.3877L87.3481 22.5558ZM11.7285 41.7681L9.96098 39.3089L11.7285 36.8497V41.7681ZM87.1944 36.8497L88.9619 39.3089L87.1944 41.7681V36.8497Z" fill="#F0A573"/>
</g>
</svg>
