<svg width="35" height="30" viewBox="0 0 35 30" fill="none" xmlns="http://www.w3.org/2000/svg">
<g id="item3 1" clip-path="url(#clip0_16_2661)">
<g id="1">
<g id="Group">
<path id="Vector" d="M12.293 6.48161C12.2591 8.89873 12.1729 11.5083 10.9243 13.6544C10.7827 13.8977 10.6364 14.1132 10.4625 14.3365C10.3716 14.4535 10.2762 14.5674 10.1761 14.6783C10.1253 14.7352 10.0745 14.7906 10.0221 14.8445C10.0021 14.8645 9.98211 14.8846 9.96364 14.9061C9.83739 15.0354 9.99905 14.8738 9.92515 14.9446C9.71731 15.1432 9.49715 15.3295 9.26467 15.5019C9.23542 15.5235 9.20463 15.5466 9.17538 15.5681C9.18307 15.562 9.25082 15.5158 9.19231 15.5558C9.13381 15.5958 9.07069 15.639 9.00756 15.679C8.88286 15.759 8.75662 15.836 8.62883 15.9099C8.57187 15.9422 8.51644 15.973 8.45948 16.0038C8.42715 16.0208 8.39482 16.0392 8.36095 16.0562C8.3825 16.0454 8.48103 15.9961 8.3671 16.0516C8.2424 16.1131 8.11616 16.1732 7.98837 16.2301C7.86059 16.2871 7.73126 16.341 7.6004 16.3918C7.53112 16.4195 7.4603 16.4457 7.38948 16.4719C7.3787 16.4749 7.28941 16.5073 7.36485 16.4811C7.45106 16.4503 7.30326 16.5026 7.28633 16.5073C7.00767 16.6027 6.72439 16.6859 6.43803 16.7613C6.29793 16.7982 6.15937 16.8321 6.01773 16.8644C5.95152 16.8798 5.88532 16.8952 5.82066 16.9091C5.79295 16.9153 5.7637 16.9214 5.73598 16.9276C5.5497 16.9676 5.85299 16.906 5.66516 16.943C4.3473 17.2016 3.00941 17.3171 1.67153 17.4095C1.39748 17.4279 1.01567 17.6127 0.897126 17.8744C0.769342 18.1561 1.09419 18.2039 1.29125 18.1916C3.83462 18.0376 6.8029 17.8913 9.05067 19.434C11.0752 20.8242 11.9404 23.2306 12.2745 25.5707C12.4731 26.9609 12.5162 28.3696 12.5255 29.7722L13.7525 29.4289C13.7125 27.2088 13.7002 24.8533 14.51 22.7487C14.6978 22.2622 14.9565 21.7341 15.2274 21.3353C15.5461 20.8642 15.8894 20.484 16.2789 20.156C16.5499 19.9282 16.7039 19.8189 17.0072 19.6326C17.138 19.551 17.272 19.474 17.409 19.4001C17.4475 19.3786 17.4875 19.3585 17.526 19.337C17.5275 19.337 17.6245 19.2862 17.566 19.3154C17.5014 19.3493 17.623 19.2877 17.6368 19.28C17.6861 19.2554 17.7369 19.2308 17.7862 19.2077C18.0772 19.0691 18.3727 18.9429 18.6714 18.8228C18.8269 18.7612 18.9824 18.7011 19.1395 18.6426C19.1502 18.638 19.2873 18.5888 19.2257 18.6103C19.1718 18.6303 19.2826 18.5903 19.278 18.5918C19.3796 18.5564 19.4812 18.521 19.5828 18.4872C21.0932 17.9853 22.5634 17.6958 24.1538 17.5788C24.414 17.5603 24.7573 17.3925 24.8944 17.1647C25.0206 16.9553 24.9113 16.8167 24.6757 16.7905C23.2609 16.6366 21.8445 16.4965 20.4312 16.3241C19.3966 16.1994 18.3697 16.0269 17.372 15.6543C16.4498 15.3095 15.5661 14.7522 15.0165 13.9146C14.3745 12.9339 14.2529 11.7639 14.2036 10.6215C14.1466 9.28208 14.1728 7.88261 13.6232 6.62941C13.5154 6.38308 13.0659 6.50932 12.8919 6.59092C12.7179 6.67251 12.3115 6.90191 12.4223 7.15132C13.403 9.38215 12.4608 12.0333 13.6694 14.1948C14.7856 16.1917 17.2042 16.7675 19.3011 17.0569C20.8653 17.2724 22.4418 17.411 24.0106 17.5834L24.5326 16.7952C23.0284 16.906 21.5335 17.1862 20.0924 17.6265C18.6514 18.0668 17.2581 18.598 16.048 19.4432C14.9919 20.1807 14.1482 21.1429 13.5924 22.3084C13.0859 23.3676 12.8149 24.533 12.6702 25.6939C12.5024 27.0441 12.4993 28.4097 12.5255 29.7676C12.5347 30.2695 13.7556 29.8568 13.7525 29.4242C13.734 26.904 13.6432 24.2344 12.6255 21.8881C12.1406 20.7703 11.4139 19.7465 10.4486 18.9937C9.32318 18.1177 7.95758 17.6727 6.56273 17.4633C4.94619 17.2216 3.29731 17.3063 1.67307 17.4048L1.29279 18.1869C3.80075 18.016 6.42879 17.7682 8.70427 16.6104C9.87126 16.0161 10.932 15.2048 11.6926 14.1271C12.4531 13.0494 12.8996 11.8239 13.1582 10.543C13.4492 9.09425 13.5016 7.60857 13.5231 6.1352C13.5308 5.641 12.3022 6.04129 12.2961 6.47853L12.293 6.48161Z" fill="#FFF6A3"/>
<path id="Vector_2" d="M29.2959 0.184738C29.2543 1.71661 29.5345 3.28542 29.1774 4.79574C29.0357 5.39463 28.7801 5.97505 28.3922 6.45693C27.9765 6.97269 27.3791 7.296 26.7602 7.50384C26.4015 7.62392 26.0305 7.70706 25.661 7.79174C25.3469 7.86256 24.922 7.97956 24.6326 7.80867L24.9574 8.90023C25.6718 8.84942 26.3861 8.89561 27.0835 9.06034C27.3807 9.12962 27.684 9.2143 27.9611 9.34054C28.0766 9.39289 28.192 9.46063 28.2998 9.53145C28.3814 9.58379 28.2521 9.49296 28.3306 9.55146C28.3537 9.56994 28.3768 9.58841 28.3999 9.60689C28.4307 9.63306 28.4599 9.65923 28.4876 9.6854C28.4399 9.64076 28.4722 9.67155 28.4984 9.7008C28.5815 9.79317 28.5246 9.72697 28.5076 9.70388C28.5323 9.73621 28.5523 9.77162 28.5754 9.80395C28.58 9.81011 28.6293 9.89786 28.5939 9.83166C28.5554 9.76084 28.6123 9.87323 28.62 9.89017C28.6324 9.91788 28.6447 9.94559 28.657 9.9733C28.6462 9.94867 28.6247 9.87631 28.6647 9.99332C28.6909 10.0703 28.7139 10.1488 28.734 10.2273C28.7925 10.4536 28.8279 10.7831 28.854 11.0695C28.9187 11.8069 28.9726 12.5475 29.0326 13.2849C29.1019 14.1409 29.1697 14.9969 29.2389 15.8529C29.262 16.15 29.4837 16.4841 29.7408 16.6319C29.9795 16.769 30.1457 16.6458 30.1304 16.381C30.0488 14.9815 29.9702 13.5543 30.3551 12.1903C30.6892 11.0048 31.4051 9.99332 32.4813 9.38057C33.1079 9.02339 33.7945 8.79246 34.4842 8.59385C34.7491 8.51687 34.669 8.18279 34.5751 7.99188C34.4565 7.75017 34.2425 7.45457 33.9469 7.43918C33.3634 7.40838 32.7753 7.37144 32.2088 7.21594C31.9363 7.1405 31.6992 7.05275 31.4636 6.90957C31.4451 6.89879 31.285 6.78948 31.3389 6.82951C31.2758 6.78178 31.2188 6.72944 31.1603 6.67863C31.108 6.62782 31.1034 6.62321 31.1465 6.66631C31.1203 6.63706 31.0941 6.60781 31.0679 6.57702C31.0418 6.54623 31.0171 6.51698 30.994 6.48464C31.0341 6.53853 31.0387 6.54469 31.011 6.50466C30.8986 6.31529 30.7877 6.12131 30.7138 5.89653C30.6661 5.75335 30.6246 5.60709 30.5876 5.45929C30.5476 5.29456 30.5368 5.23914 30.5106 5.09442C30.3767 4.35234 30.3105 3.5995 30.3012 2.84511C30.2982 2.55413 30.0441 2.20773 29.7993 2.06609C29.5546 1.92445 29.4068 2.05685 29.4098 2.31704C29.4252 3.57486 29.5592 4.90351 30.0411 6.07666C30.5229 7.24981 31.4282 8.06116 32.6275 8.36446C33.2326 8.51687 33.8623 8.55844 34.4827 8.59231L33.9454 7.4361C32.6383 7.81329 31.3497 8.29518 30.4644 9.38057C29.5792 10.466 29.2651 11.8331 29.1881 13.1648C29.1373 14.0593 29.1866 14.9569 29.2374 15.8514L30.1273 16.3794C29.9949 14.7336 29.8917 13.0832 29.7285 11.4405C29.6531 10.683 29.4776 9.9225 29.0219 9.29589C28.5661 8.66929 27.8749 8.24745 27.1143 8.02267C26.246 7.76556 25.3223 7.67473 24.4201 7.73939C24.203 7.75479 24.2277 8.05192 24.2723 8.19202C24.3508 8.44143 24.5155 8.697 24.7449 8.83095C25.4177 9.22661 26.2229 8.95257 26.9204 8.76474C27.6178 8.57692 28.3321 8.31365 28.871 7.80097C29.9287 6.7941 30.2335 5.28378 30.2489 3.87816C30.2597 2.90053 30.1611 1.92599 30.1873 0.948363C30.195 0.640449 30.0349 0.330996 29.8009 0.132392C29.6716 0.0215434 29.3051 -0.135492 29.2974 0.17704L29.2959 0.184738Z" fill="#FFF6A3"/>
<path id="Vector_3" d="M27.9597 6.52158C27.7118 6.80332 27.4732 7.09276 27.2438 7.3899C26.919 7.81174 28.0875 8.20741 28.3908 7.94414C28.9943 7.42069 29.5747 6.84489 30.323 6.5339L29.2622 5.92577C28.6294 6.61087 27.8997 7.19591 27.233 7.84715C26.8728 8.19971 28.0182 8.62309 28.2938 8.45528C29.0682 7.98417 29.6856 7.28059 30.4923 6.86336L29.4315 6.25523C28.7464 7.06813 27.8581 7.66548 27.0237 8.31056C26.7973 8.48607 27.2007 8.77243 27.3347 8.83401C27.5871 8.94948 27.9258 9.03261 28.1706 8.8648C28.5802 8.58306 28.9727 8.27976 29.37 7.98109C29.6794 7.74861 30.0073 7.46533 30.3984 7.38682L29.4546 6.74636C28.8835 7.39759 28.1845 7.93028 27.4424 8.37368L28.5032 8.98181C29.3222 8.44604 30.1736 7.96415 31.0265 7.48381L30.052 6.8218C29.6317 7.07582 29.2606 7.3899 28.8696 7.68549C28.4785 7.98109 28.0521 8.28746 27.658 8.60769C27.4578 8.77089 27.7811 9.02338 27.8997 9.09112C28.1414 9.22968 28.4462 9.30358 28.7187 9.21582C29.6055 8.92792 30.2675 8.21664 31.1328 7.8841L30.072 7.27597C29.5147 7.85946 28.8326 8.29824 28.2276 8.82631C28.0336 8.99566 28.3431 9.23738 28.4693 9.30974C28.6679 9.42366 29.0651 9.56838 29.2884 9.43444C30.1628 8.90329 31.0481 8.38753 32.0042 8.01496L30.9434 7.40683C30.5123 7.67933 30.0366 7.98417 29.6301 8.23512C29.2668 8.45989 28.8788 8.64926 28.6618 9.03415C28.5617 9.2112 28.9127 9.4329 29.022 9.48217C29.2406 9.58224 29.5378 9.66384 29.7718 9.56684C30.7048 9.17579 31.5392 8.59076 32.4676 8.19047L31.493 7.52846C30.5 8.08424 29.4947 8.64464 28.6464 9.41135C28.4555 9.58378 28.7587 9.82087 28.8881 9.89477C29.1144 10.0241 29.4516 10.1257 29.7071 10.0195C30.6678 9.61457 31.5254 9.01722 32.4306 8.50916C32.6769 8.3706 32.5353 8.13505 32.3444 8.01034C32.1273 7.8687 31.7147 7.71013 31.4561 7.84715C30.6293 8.2813 29.8518 8.80476 29.1452 9.41443C28.9497 9.58224 29.2622 9.82703 29.3869 9.89785C29.5917 10.0149 29.9765 10.1519 30.2059 10.0226C30.9711 9.58686 31.6824 9.0634 32.4506 8.63079L31.3899 8.02266C30.557 8.74779 29.5485 9.24661 28.7664 10.0318C28.5678 10.2319 28.9189 10.4829 29.0774 10.5552C29.3376 10.6753 29.6594 10.7462 29.9134 10.586C30.5293 10.1965 31.0835 9.7131 31.7193 9.35438L30.6586 8.74625C30.112 9.22352 29.4608 9.58994 29.0343 10.1904C28.8896 10.3936 29.1052 10.5753 29.276 10.6738C29.5193 10.8139 29.8211 10.8847 30.0951 10.7985C30.4877 10.6753 30.811 10.4167 31.1343 10.1734L29.9873 9.61919C29.6348 10.0472 29.2376 10.4321 28.8419 10.8185L29.9889 11.3728C30.5754 10.703 31.3391 10.2273 31.9703 9.60533C32.172 9.40673 31.8163 9.1527 31.6593 9.08188C31.4191 8.97103 31.0558 8.8725 30.8233 9.05109C30.4015 9.37286 29.9658 9.67923 29.5824 10.0503C29.3992 10.2273 29.6886 10.4567 29.8241 10.5337C30.0258 10.6492 30.4169 10.7893 30.6432 10.6584C31.5962 10.1026 32.4599 9.42212 33.2635 8.66774C33.342 8.59384 33.3236 8.49069 33.2789 8.40755C33.0526 7.99187 32.4491 7.77171 31.9995 7.89179C31.8179 7.94106 31.6885 8.05345 31.5546 8.17815C31.4207 8.30286 31.2097 8.38753 31.0435 8.47991C30.3183 8.88328 29.6086 9.3082 28.9219 9.77161C28.8357 9.83011 28.8681 9.96251 28.9065 10.0318C28.9712 10.1442 29.119 10.2427 29.2329 10.2951C29.487 10.4121 29.8211 10.4921 30.0689 10.3258C30.5477 10.0025 31.0358 9.69925 31.5377 9.41289C31.7932 9.26663 32.0503 9.12345 32.3075 8.98181C32.4306 8.91407 32.5723 8.85402 32.6769 8.75857C32.7247 8.71546 32.7724 8.6662 32.8186 8.62155C32.9541 8.48761 33.0249 8.75703 32.4599 8.55689L32.1597 8.41217C32.135 8.39831 32.0488 8.27669 32.1011 8.37214L32.1165 8.11195C31.3652 8.81707 30.5616 9.47447 29.6686 9.9933L30.7294 10.6014C31.1127 10.2319 31.5469 9.92556 31.9703 9.60225L30.8233 9.04801C30.1905 9.66999 29.4285 10.1457 28.8419 10.8154C28.5078 11.1972 29.6856 11.6653 29.9889 11.3697C30.3845 10.9832 30.7817 10.5984 31.1343 10.1704C31.3114 9.95635 31.0004 9.72696 30.8233 9.6469C30.5816 9.53605 30.2213 9.43906 29.9873 9.61611C29.7133 9.82395 29.4531 10.0287 29.1221 10.1334L30.1828 10.7415C30.6093 10.1411 31.2605 9.77468 31.8071 9.29742C32.0011 9.12807 31.6916 8.88635 31.5654 8.81399C31.3606 8.69699 30.9757 8.55997 30.7463 8.68929C30.0489 9.08188 29.4408 9.60225 28.7664 10.0287L29.9134 10.583C30.6955 9.79778 31.7039 9.29896 32.5368 8.57382C32.7308 8.40447 32.4214 8.16276 32.2951 8.0904C32.0904 7.97339 31.7055 7.83637 31.4761 7.96569C30.7094 8.39831 29.9981 8.92176 29.2314 9.35746L30.2922 9.96559C30.9496 9.39903 31.6624 8.90945 32.4306 8.50762L31.4561 7.84561C30.5508 8.3552 29.6933 8.95256 28.7326 9.35592L29.7933 9.96405C30.5939 9.24199 31.5315 8.71238 32.466 8.18893C32.7124 8.05037 32.5707 7.81482 32.3798 7.69011C32.1458 7.53769 31.7671 7.40683 31.4915 7.52692C30.5631 7.9272 29.7287 8.51378 28.7957 8.90329L29.9057 9.43598C30.0735 9.13884 30.4923 8.96949 30.7694 8.79244C31.2082 8.51378 31.6501 8.2382 32.0888 7.96107C32.3105 7.82097 31.9441 7.53307 31.8471 7.47765C31.6162 7.34525 31.2883 7.25287 31.0281 7.35295C30.072 7.72398 29.1867 8.24128 28.3123 8.77243L29.373 9.38056C29.9781 8.85248 30.6601 8.41371 31.2174 7.83021C31.3929 7.647 31.1189 7.42838 30.9757 7.34679C30.7433 7.21438 30.4184 7.12201 30.1567 7.22208C29.2914 7.55617 28.6294 8.26745 27.7426 8.55381L28.8034 9.16194C29.1791 8.85864 29.5701 8.57536 29.955 8.28438C30.3091 8.01804 30.6432 7.7132 31.0235 7.48381C31.5423 7.16974 30.4061 6.62011 30.0489 6.8218C29.1375 7.33601 28.2291 7.85484 27.3531 8.42756C27.1345 8.57074 27.4948 8.85402 27.5948 8.91099C27.795 9.02645 28.1891 9.16963 28.4139 9.03569C29.216 8.55689 29.9796 8.00726 30.5985 7.3006C30.7402 7.13895 30.5647 6.9465 30.4261 6.85567C30.2136 6.7171 29.9119 6.6078 29.6563 6.66014C29.1436 6.76483 28.731 7.04041 28.3184 7.34987C27.9058 7.65932 27.4624 8.00418 27.019 8.30902L28.166 8.86326C29.0005 8.21818 29.8888 7.62083 30.5739 6.80794C30.9172 6.40149 29.7856 6.05817 29.5131 6.19981C28.6987 6.62165 28.0921 7.31754 27.3146 7.79172L28.3754 8.39985C29.042 7.74861 29.7702 7.16358 30.4045 6.47847C30.577 6.29218 30.3091 6.07818 30.1628 5.99505C29.935 5.86418 29.5994 5.76411 29.3438 5.87034C28.5309 6.20751 27.8935 6.82026 27.2377 7.38836L28.3846 7.9426C28.614 7.64546 28.8527 7.35602 29.1005 7.07428C29.43 6.70171 28.2415 6.19365 27.9536 6.52004L27.9597 6.52158Z" fill="#FFF6A3"/>
<path id="Vector_4" d="M12.4098 9.14502C12.3389 9.33593 12.2927 9.52837 12.2558 9.72852C12.2188 9.92866 12.5822 10.1581 12.7192 10.2196C12.8208 10.2658 12.927 10.3028 13.0364 10.3243C13.1149 10.3397 13.3258 10.3551 13.392 10.2797C13.5798 10.0718 13.7446 9.8563 13.8739 9.60843C13.9863 9.39289 13.646 9.15272 13.5028 9.07112C13.3489 8.98337 12.9147 8.78938 12.7546 8.96797C12.3928 9.37288 12.0803 9.81011 11.9063 10.3289C11.7631 10.7554 12.7161 11.2034 13.0256 10.9679C13.335 10.7323 13.4982 10.3551 13.8 10.1088L12.6807 9.46987C12.4021 9.89017 12.051 10.2735 11.9079 10.7677C11.8324 11.0295 12.1496 11.2542 12.3543 11.3481C12.5729 11.4482 12.907 11.5575 13.0856 11.3389C13.2642 11.1203 13.4505 10.8909 13.6322 10.6661L12.4544 10.0949C12.2681 10.3644 12.0926 10.6399 11.9079 10.9109C11.7431 11.1511 11.5892 11.3666 11.5553 11.6653C11.5322 11.8716 11.8694 12.0887 12.0187 12.1564C12.2081 12.2426 12.499 12.3458 12.6915 12.2165C13.1026 11.9393 13.3889 11.5329 13.723 11.1757L12.6037 10.5368C12.1973 11.0941 11.7062 11.6068 11.4629 12.2626C11.369 12.5167 11.7185 12.7553 11.9094 12.8431C12.1311 12.9447 12.459 13.0509 12.6407 12.8338C13.0979 12.2888 13.6214 11.77 13.9093 11.1095C14.0078 10.8847 13.6937 10.6615 13.5383 10.5722C13.3828 10.4829 12.9594 10.2951 12.79 10.469C12.5083 10.7585 12.2404 11.0618 12.0033 11.3897C11.8632 11.5837 12.2573 11.8608 12.3743 11.927C12.5268 12.0132 12.9655 12.2088 13.1226 12.0302C13.4859 11.6129 13.8415 11.1649 13.9324 10.6045C13.9663 10.4028 13.6091 10.1765 13.469 10.1134C13.3674 10.0672 13.2611 10.0303 13.1518 10.0087C13.0718 9.99332 12.8655 9.97947 12.7962 10.0534C12.3097 10.5737 11.7385 11.108 11.5507 11.8192C11.4875 12.061 11.737 12.2519 11.9217 12.3566C12.1065 12.4612 12.4821 12.6229 12.6699 12.4597C13.1164 12.0733 13.5213 11.6453 13.9278 11.2188L12.8685 10.5106C12.2481 11.1742 11.6276 11.8747 11.2643 12.7184C11.1673 12.9431 11.4783 13.1664 11.6353 13.2557C11.8155 13.3588 12.1911 13.5189 12.3836 13.3588C12.8531 12.9678 13.2427 12.4828 13.7738 12.1687L12.6545 11.5298C12.2235 12.0563 11.7708 12.5629 11.312 13.0632C10.9518 13.4573 10.4437 13.8161 10.2266 14.3149C10.1281 14.5397 10.4422 14.7629 10.5977 14.8522C10.7717 14.9507 11.1596 15.1201 11.3459 14.9553C11.8047 14.5489 12.2265 14.1009 12.6792 13.6883C13.1318 13.2757 13.5952 12.9308 14.0263 12.5198C14.4173 12.1472 13.3042 11.6145 12.9671 11.8116C12.1326 12.3011 11.3952 12.9277 10.6315 13.5159C10.2343 13.8222 11.3382 14.4488 11.6908 14.2241C12.4836 13.7191 13.1626 13.0601 13.9385 12.5305L12.8793 11.8223C12.3743 12.3227 11.8062 12.7507 11.2643 13.2079C10.9826 13.445 10.7101 13.6914 10.4329 13.9346C10.3175 14.0362 10.1835 14.1055 10.0758 14.2164C9.968 14.3272 9.87562 14.4581 9.81404 14.6059C9.72013 14.8322 10.0265 15.0523 10.1851 15.1432C10.359 15.2417 10.7486 15.4111 10.9333 15.2463C11.7139 14.552 12.5514 13.9285 13.4382 13.3773L12.379 12.6691C11.7031 13.1602 11.0226 13.6483 10.2975 14.0655L11.3567 14.7737C11.7339 14.4088 12.1511 14.0932 12.5683 13.7745C12.9563 13.4789 13.3258 13.1479 13.7723 12.9401L12.713 12.2319C12.2142 12.7876 11.6046 13.2218 11.0241 13.6867L12.1434 14.3257C12.1157 14.3595 12.2004 14.2764 12.1988 14.2795C12.2358 14.2487 12.2727 14.2194 12.3112 14.1902C12.3805 14.1378 12.4544 14.0901 12.5268 14.0439C12.6684 13.9531 12.8177 13.8715 12.9563 13.7745C13.158 13.6344 13.3735 13.4897 13.5598 13.3311C13.7322 13.1848 13.82 13.0309 14.0555 12.9785L13.0887 12.2288C12.031 13.2203 10.8825 14.107 9.80326 15.0754C9.41683 15.4218 10.5222 16.0146 10.8625 15.7836C11.3906 15.4249 11.8832 15.0185 12.4082 14.6567C12.6699 14.4765 12.9394 14.3087 13.2042 14.1348C13.4397 13.9808 13.5814 13.8038 13.8739 13.7653L12.907 13.0155C12.3158 13.5543 11.6292 13.9685 11.001 14.4596C10.3729 14.9507 9.8048 15.5142 9.12739 15.9407L10.2467 16.5796C10.339 16.4472 10.4761 16.4056 10.61 16.3286C10.7778 16.2316 10.9364 16.1162 11.0996 16.013C11.4491 15.7929 11.8062 15.585 12.1603 15.371C12.8685 14.943 13.5706 14.5027 14.3019 14.1147L13.2427 13.4065C12.282 14.0147 11.2735 14.5397 10.3298 15.177C9.86177 15.4927 9.3999 15.819 8.93033 16.1331C8.70401 16.2855 8.47616 16.4364 8.24984 16.5873C8.13437 16.6643 8.01737 16.7397 7.89728 16.8074C7.84801 16.8352 7.79567 16.8613 7.74486 16.886C7.65711 16.9291 7.5986 16.9121 7.74486 16.9352L8.50849 17.6188C8.63319 17.3678 8.86567 17.2154 9.07043 17.0338C9.15203 16.9614 9.23516 16.889 9.32138 16.8228C9.37218 16.7844 9.42607 16.7489 9.47995 16.7135C9.48919 16.7074 9.54616 16.6643 9.5169 16.692C9.49689 16.6997 9.49689 16.7012 9.5169 16.6935C9.63391 16.6596 9.5323 16.6473 9.21669 16.655L8.6686 15.9407C7.99889 16.4672 7.28145 16.9475 6.49165 17.2724L7.44619 17.6619C7.4739 17.6973 7.49237 17.7373 7.50161 17.7805C7.48775 17.8313 7.48775 17.8374 7.50161 17.8005C7.49699 17.7974 7.53856 17.745 7.53394 17.7512C7.60168 17.6835 7.68328 17.6296 7.76488 17.5788C7.84647 17.528 7.93731 17.4787 8.0266 17.434C8.06663 17.414 8.10666 17.3956 8.14823 17.3771C8.0497 17.4217 8.13899 17.3817 8.16054 17.374L7.13519 16.6935C7.07361 16.9552 6.72105 17.0415 6.53014 17.22C6.15603 17.5665 7.25836 18.1915 7.58937 17.9283C8.00659 17.5957 8.40996 17.1985 8.90724 16.9876L7.88188 16.3071C7.62786 16.6489 7.22603 16.8752 6.84114 17.0399L7.86649 17.7204C7.98657 17.3047 8.5362 17.1184 8.87029 16.9075C9.0966 16.7659 9.30752 16.6027 9.53384 16.461C9.76016 16.3194 10.0219 16.1839 10.239 16.1824L9.33523 15.4865C8.64397 16.2855 7.80029 16.9414 6.95968 17.5742L8.07895 18.2131C8.33606 17.8882 8.79793 17.7066 9.14125 17.4879C9.56771 17.2154 9.99417 16.9383 10.4761 16.772L9.4507 16.0915C9.25364 16.3918 8.95958 16.5996 8.67168 16.8059C8.36223 17.0276 8.07125 17.2539 7.83878 17.5588C7.77719 17.6388 7.86803 17.7928 7.9096 17.8513C7.98811 17.956 8.09742 18.0329 8.20827 18.0961C8.40688 18.21 8.73942 18.3409 8.9565 18.1992C9.67548 17.7281 10.3252 17.1538 11.0811 16.7397L9.96184 16.1008C9.48919 16.6581 8.83949 17.0384 8.28833 17.511C7.90806 17.8359 9.01039 18.4871 9.34755 18.2192C9.86793 17.8066 10.3945 17.4002 10.961 17.0507L9.84175 16.4118C9.66778 16.6889 9.40759 16.8767 9.15357 17.0753C8.85181 17.3124 8.56083 17.5618 8.25138 17.7897L9.37064 18.4286C9.80172 17.9313 10.3313 17.5295 10.7732 17.043C10.9164 16.886 10.804 16.7012 10.6639 16.5796C10.456 16.3979 10.2005 16.2978 9.92797 16.2794C9.47226 16.2486 9.01193 16.6242 8.6686 16.8798C8.20981 17.2231 7.78027 17.6219 7.28761 17.9159L8.40688 18.5549C8.80101 18.0945 9.31984 17.7235 9.8048 17.3648C10.2898 17.0061 10.8302 16.635 11.3459 16.2732C11.8617 15.9114 12.4174 15.5419 12.9625 15.1894C13.4105 14.8999 13.9493 14.6567 14.2942 14.2394C14.3573 14.1625 14.2634 14.0024 14.2234 13.9469C14.1448 13.8422 14.0355 13.7653 13.9247 13.7021C13.723 13.5867 13.3966 13.4604 13.1765 13.599C12.4775 14.0408 11.8293 14.5566 11.1627 15.0446C10.4961 15.5327 9.82328 16.0392 9.21515 16.615C9.01347 16.8059 9.28289 17.0707 9.4507 17.1769C9.62621 17.2893 10.0711 17.5079 10.2744 17.3232C10.8486 16.8013 11.4737 16.3425 12.1111 15.9006C12.6653 15.5173 13.2042 15.0354 13.8646 14.8476L12.8978 14.0978C12.2204 14.7198 11.4829 15.2663 10.7547 15.8267C10.0265 16.3871 9.26903 17.0045 8.5208 17.5865L9.58003 18.2947C10.2821 17.7343 11.038 17.2493 11.7662 16.7258C12.1265 16.4672 12.4852 16.2086 12.8485 15.9545C13.0317 15.8267 13.2119 15.7005 13.3843 15.5573C13.5198 15.4449 13.6568 15.3756 13.8262 15.3341L12.8593 14.5843C11.7601 15.3418 10.7162 16.1731 9.72321 17.0646C9.33985 17.4094 10.4437 18.0145 10.7824 17.7728C11.3598 17.3602 11.9356 16.9445 12.5237 16.5473C12.807 16.3564 13.0949 16.1685 13.3797 15.9807C13.4474 15.9361 13.5321 15.8945 13.5937 15.8391C13.6506 15.7883 13.6814 15.7174 13.7338 15.6635C13.763 15.6328 13.8677 15.5835 13.8816 15.5512C13.86 15.602 13.5721 15.488 13.7353 15.545L13.1872 14.8306C12.1111 15.7051 10.9395 16.4533 9.85869 17.3217C9.47534 17.6296 10.5746 18.2977 10.9179 18.0299C11.4968 17.5772 12.0864 17.1477 12.6961 16.7366C13.2719 16.3487 13.86 15.9638 14.5174 15.7313L13.5506 14.9815C12.1773 16.2347 10.5053 17.1184 9.19667 18.4486C8.83488 18.8166 9.93413 19.4293 10.2559 19.1568C11.0611 18.4763 11.9371 17.8913 12.81 17.3032C13.6291 16.752 14.4466 16.167 15.3673 15.7929L14.325 15.2001C14.325 15.2679 14.3404 15.214 14.325 15.2402C14.3157 15.2556 14.2849 15.3048 14.3157 15.271C14.2695 15.3218 14.2449 15.3125 14.1679 15.3264C13.9524 15.3649 13.7446 15.505 13.5413 15.6328C13.1549 15.8775 12.79 16.1531 12.4267 16.4303C11.6723 17.0045 10.9533 17.6234 10.1882 18.1823L11.3074 18.8212C11.4044 18.618 11.6153 18.464 11.8247 18.3039C12.0556 18.1269 12.2958 17.9652 12.5375 17.8035C12.8285 17.6096 13.1026 17.3894 13.3812 17.1785C13.4659 17.1138 13.5459 17.043 13.6383 16.9937C13.7415 16.9368 13.8462 16.8998 13.9432 16.829C14.0971 16.7151 14.2234 16.558 14.3096 16.3871C14.4189 16.1701 14.0833 15.933 13.9385 15.8498C13.723 15.7267 13.4259 15.6204 13.1903 15.7467C12.0787 16.3425 11.0796 17.1277 9.93567 17.6681L11.0457 18.1207C11.0595 18.1407 11.0626 18.1607 11.0549 18.1823C11.0472 18.2085 11.0503 18.2038 11.0611 18.1684C11.0749 18.1592 11.1042 18.0914 11.1165 18.076C11.1334 18.053 11.212 17.9806 11.2551 17.9452C11.3675 17.8513 11.4875 17.7681 11.6061 17.6835L10.5469 16.9753C10.0481 17.3909 9.53692 17.7912 9.02886 18.1946L10.1481 18.8335C10.2236 18.5779 10.5315 18.424 10.7255 18.2608C11.0164 18.0175 11.3197 17.7897 11.6384 17.5849C11.8786 17.431 11.5353 17.1077 11.4029 17.023C11.175 16.8767 10.8394 16.7382 10.5792 16.8767C10.008 17.1816 9.48765 17.5726 8.9057 17.8559L10.025 18.4948C10.0619 18.3516 10.1435 18.2315 10.2497 18.1299C10.3082 18.0745 10.3729 18.0222 10.4391 17.9744C10.4668 17.9544 10.4961 17.9359 10.5253 17.9175C10.5222 17.919 10.6392 17.8559 10.5931 17.8759L9.62621 17.1261C9.49381 17.2662 9.34755 17.3956 9.20283 17.5218C9.11046 17.6019 9.01808 17.6819 8.91955 17.7558C8.87798 17.7866 8.83488 17.8159 8.79177 17.8451C8.69939 17.9082 8.81486 17.8374 8.87952 17.839L9.17666 17.8898L9.16742 17.8867L9.6062 18.1361L9.5985 18.1299L9.76631 18.5256C10.0742 18.1299 10.493 17.839 10.8964 17.5511C11.2997 17.2632 11.7231 16.9475 12.1927 16.7551L11.2258 16.0053C10.9487 16.2963 10.6239 16.5334 10.299 16.769L11.3582 17.4772C12.185 16.8105 13.178 16.3656 13.9201 15.5927C14.2865 15.2109 13.1949 14.649 12.8608 14.8845C12.6114 15.06 12.3466 15.2078 12.088 15.3649C11.8678 15.4988 12.1511 15.7929 12.2604 15.8775C12.4498 16.0253 12.8054 16.207 13.0548 16.1131C13.5706 15.9222 14.0171 15.6251 14.4451 15.2833L13.3858 14.5751C13.2119 14.7413 13.0317 14.8999 12.8377 15.0416L13.957 15.6805C14.2095 15.3541 14.5159 15.0739 14.7268 14.7167C14.8069 14.5797 14.6467 14.4011 14.559 14.321C14.3973 14.1732 14.1803 14.0686 13.9647 14.0331C13.7646 13.9993 13.586 14.0162 13.4059 14.1117C13.295 14.1702 13.1995 14.2533 13.0856 14.3041L14.1448 15.0123C14.385 14.7506 14.8161 14.5597 14.9085 14.1902C14.97 13.9469 14.7237 13.7591 14.5374 13.6529C14.3096 13.5236 14.0371 13.4373 13.7892 13.5497C13.5136 13.6744 13.2904 13.8653 13.0471 14.0408C12.8224 14.2025 12.6037 14.3457 12.4359 14.572C12.3143 14.7352 12.6268 15 12.73 15.0662C12.927 15.1909 13.2226 15.3279 13.4613 15.254C13.5644 15.2217 13.6645 15.1709 13.7646 15.1262C13.9201 15.057 13.9432 15.0446 14.0848 14.9846C14.2187 14.9276 14.3558 14.8722 14.4943 14.8291C14.5482 14.8122 14.6036 14.8029 14.656 14.786C14.7484 14.7567 14.559 14.7891 14.6421 14.786H14.6652C14.5359 14.7829 14.4127 14.7521 14.2957 14.6921L14.0186 14.5073L13.8862 14.3334L13.937 14.0778C13.666 14.378 13.3689 14.6505 13.1103 14.963C13.0471 15.04 13.141 15.2001 13.1811 15.2556C13.2596 15.3603 13.3689 15.4372 13.4797 15.5004C13.6984 15.6251 13.9893 15.7251 14.228 15.6035C14.4666 15.4819 14.6883 15.3156 14.9362 15.2078L13.9693 14.4581C13.5244 14.8922 13.0056 15.2432 12.5545 15.6712C12.3728 15.8452 12.5806 16.07 12.7269 16.1839C12.9286 16.341 13.2581 16.4965 13.5213 16.4195C14.2172 16.2163 14.7791 15.7482 15.4088 15.4095L14.2896 14.7706C14.2341 14.9369 14.1294 14.9507 14.0001 15.0508C13.8262 15.1847 13.663 15.3387 13.4951 15.4803C13.1611 15.7621 12.8239 16.0407 12.4867 16.3179C11.8247 16.8613 11.1596 17.4033 10.55 18.0052C10.1681 18.3824 11.272 18.9228 11.6092 18.7134C12.7053 18.0299 13.6676 17.1615 14.7422 16.4472L13.683 15.739C13.2642 16.1947 12.7762 16.5734 12.302 16.9691C11.7985 17.3894 11.3028 17.8189 10.7809 18.2162L11.8401 18.9244C12.8716 17.9529 14.0725 17.1908 15.2857 16.4672L14.1664 15.8283C13.7122 16.4333 12.9948 16.8367 12.379 17.2555C11.6492 17.7512 10.8994 18.267 10.2774 18.8966C10.0835 19.0937 10.3406 19.3477 10.513 19.4586C10.7362 19.6018 11.0796 19.748 11.3367 19.6048C11.7231 19.3878 12.0449 19.0922 12.4036 18.8351C12.7946 18.5533 13.1934 18.2808 13.5952 18.016C13.997 17.7512 14.385 17.4926 14.7761 17.2277C14.8684 17.1646 14.9624 17.1015 15.0547 17.0384C15.1656 16.9629 15.221 16.8829 15.3103 16.7874C15.3626 16.732 15.4335 16.675 15.5012 16.6396C15.5058 16.6381 15.5397 16.6227 15.5489 16.6196C15.5566 16.6165 15.6752 16.5981 15.6336 16.6011L14.7884 15.8375C14.034 16.4056 13.2411 16.9214 12.4883 17.4926C12.1372 17.7589 11.8016 18.0422 11.4737 18.3362C11.1704 18.6072 10.8502 18.892 10.4684 19.046L11.4937 19.7265C11.603 19.5679 11.7416 19.4786 11.9017 19.377C12.0941 19.2569 12.2666 19.0906 12.4452 18.949C12.8085 18.6626 13.1795 18.387 13.546 18.1053C14.2187 17.5911 14.9115 17.0584 15.709 16.7536L14.7422 16.0038C13.9308 16.5457 13.0933 17.0476 12.302 17.6188C11.5106 18.19 10.7208 18.8104 9.93259 19.4093L11.0426 19.8619C11.0672 19.9512 11.0642 19.8635 11.098 19.8034C11.1288 19.748 11.1689 19.7003 11.2104 19.6526C11.3182 19.5325 11.4383 19.4232 11.5461 19.3031C11.8832 18.9244 12.2327 18.5564 12.5545 18.1623C12.6176 18.0853 12.5237 17.9252 12.4836 17.8697C12.4051 17.7651 12.2958 17.6881 12.185 17.625C11.9648 17.4987 11.6785 17.4017 11.4367 17.5218C10.8964 17.7897 10.4868 18.2408 10.0126 18.6026L11.1319 19.2415C11.1843 19.0598 11.3983 18.9551 11.5384 18.8443C11.9371 18.5271 10.8671 17.9667 10.5715 18.0945C10.2574 18.23 9.98493 18.4579 9.6647 18.5749L10.6901 19.2554C11.0211 18.8735 11.466 18.5333 11.9371 18.3455L10.9118 17.665C10.6777 18.1684 10.202 18.4887 9.85407 18.9059C9.79095 18.9829 9.88486 19.1445 9.92489 19.1984C10.0034 19.3031 10.1127 19.3801 10.2236 19.4432C10.4268 19.5587 10.7501 19.6849 10.9718 19.5463C12.5791 18.5364 14.1217 17.4264 15.746 16.4426L14.6868 15.7344C13.1487 16.9044 11.5691 18.0391 10.2451 19.4555C9.88332 19.8419 10.9703 20.4023 11.3043 20.1637C13.138 18.8551 14.9254 17.4633 16.9438 16.4441L15.8846 15.7359C14.482 16.7012 13.1087 17.7081 11.7524 18.735C11.5276 18.9059 11.8417 19.203 11.9879 19.2969C12.2004 19.4324 12.5668 19.5971 12.8116 19.4432C13.9986 18.6934 15.1286 17.8528 16.3741 17.2016L15.3149 16.4934C14.619 17.043 13.9108 17.5757 13.1888 18.0899C12.5237 18.5626 11.8078 18.9829 11.2258 19.5633C10.8532 19.9343 11.951 20.5101 12.285 20.2715C13.8138 19.1815 15.3519 18.0853 17.0546 17.2786L15.9954 16.5704C15.1471 17.2047 14.248 17.7681 13.3735 18.3655C12.9455 18.658 12.5237 18.9582 12.1188 19.28C11.9587 19.4062 11.8139 19.5433 11.6631 19.6787C11.5845 19.748 11.5029 19.8204 11.4121 19.8712C11.406 19.8743 11.3244 19.9174 11.3259 19.9097C11.3274 19.9004 11.4568 19.9297 11.4583 19.9297L12.0834 20.487C12.0202 20.2376 12.3728 20.0482 12.5483 19.8943C12.8839 19.5987 13.2365 19.3246 13.6122 19.0845L12.5529 18.3763C11.9294 19.009 11.2197 19.5448 10.4699 20.0174L11.5892 20.6564C11.817 20.3515 12.0972 20.0944 12.4144 19.885C12.6792 19.7111 12.9055 19.4309 13.2149 19.397L12.3697 18.6334C12.0202 18.9906 11.5999 19.2631 11.2828 19.6556C11.2197 19.7326 11.3136 19.8927 11.3536 19.9482C11.4321 20.0529 11.5414 20.1298 11.6523 20.193C11.8432 20.3023 12.1927 20.4454 12.4005 20.2961C12.9717 19.8835 13.5629 19.5001 14.1418 19.0968C14.3111 18.9782 14.4743 18.852 14.6483 18.7411C14.7453 18.6796 14.8438 18.6164 14.9485 18.5703C14.9023 18.5903 15.0316 18.5456 15.0409 18.5395C15.0932 18.5287 15.0871 18.5271 15.0193 18.5364C15.1225 18.5348 15.0609 18.521 14.8361 18.4979L14.288 17.7835C13.3612 18.6288 12.2358 19.2199 11.4183 20.1868C11.3536 20.2622 11.4506 20.4254 11.4891 20.4793C11.5676 20.584 11.6769 20.661 11.7878 20.7241C11.9694 20.8273 12.3405 20.9843 12.536 20.8273C13.5506 20.0082 14.5513 19.1568 15.7275 18.5718L14.6083 17.9329C14.2742 18.3686 13.7584 18.6334 13.315 18.9397C12.7777 19.3092 12.2481 19.6911 11.7554 20.1191C11.3675 20.4562 12.4729 21.0597 12.8147 20.8273C13.3012 20.4978 13.7523 20.1252 14.2511 19.8096C14.7499 19.494 15.2964 19.1645 15.8214 18.8428L14.7022 18.2038C14.365 18.658 13.8215 18.9505 13.3704 19.2769C12.8762 19.6341 12.3897 19.9867 11.9987 20.4608C11.9356 20.5378 12.0295 20.6979 12.0695 20.7534C12.148 20.858 12.2573 20.935 12.3682 20.9981C12.5745 21.1152 12.8916 21.2368 13.1164 21.1013C13.9693 20.5871 14.7699 19.9928 15.6074 19.4555L14.5482 18.7473C13.6075 19.4447 12.5483 19.9805 11.7893 20.8965C11.66 21.052 11.9879 21.3292 12.0834 21.3907C12.2696 21.5093 12.5883 21.6663 12.8147 21.5786C13.3597 21.3661 13.8292 21.012 14.2957 20.6641C14.4528 20.5471 14.6036 20.4239 14.7653 20.3146C14.8546 20.2545 14.95 20.1914 15.0486 20.1468C15.0039 20.1668 15.1117 20.1268 15.1102 20.1268C15.1348 20.1191 15.1579 20.1144 15.1825 20.1098C15.0978 20.1314 15.0116 20.1221 14.9269 20.0836L14.3789 19.3693C13.9909 19.8019 13.5413 20.176 13.0795 20.527C12.7254 20.7965 12.2974 21.012 12.0695 21.4108C11.9494 21.6201 12.3051 21.8711 12.4405 21.9481C12.6592 22.0728 12.9501 22.1728 13.1888 22.0512C13.9586 21.6555 14.6206 21.0936 15.3257 20.5994L14.2064 19.9605C13.957 20.3115 13.529 20.5455 13.2057 20.8257C12.7885 21.186 12.3713 21.5447 11.9479 21.8973C11.5661 22.2159 12.6669 22.8703 13.0071 22.6055C13.646 22.1082 14.2926 21.6217 14.9362 21.1306L13.8169 20.4916C13.432 21.0459 12.8239 21.3984 12.3066 21.8141C12.088 21.9896 12.3897 22.2791 12.5422 22.3761C12.7639 22.5177 13.1118 22.6686 13.3658 22.5223C13.9062 22.2113 14.4066 21.8049 14.9931 21.5816L14.0263 20.8319C13.5167 21.3877 12.9024 21.8249 12.3312 22.3129C11.9479 22.6409 13.0502 23.2752 13.3905 23.0211C13.7984 22.7178 14.1633 22.3622 14.5421 22.0235C14.9208 21.6848 13.8138 21.0428 13.4828 21.3153C13.0702 21.6571 12.6638 22.0066 12.3051 22.4053C12.1219 22.6101 12.3589 22.8518 12.5406 22.9673C12.7777 23.1181 13.0949 23.2428 13.3643 23.1135C13.7707 22.918 14.0663 22.5623 14.4682 22.3607L13.3489 21.7217C13.1272 21.9835 12.8624 22.2082 12.6284 22.4592C12.459 22.6424 12.6422 22.8502 12.8008 22.9719C13.0163 23.1397 13.3181 23.2644 13.5952 23.2074C13.8415 23.1566 14.0109 23.0042 14.1679 22.821C14.2326 22.7456 14.1356 22.5824 14.0971 22.5285C14.0186 22.4238 13.9093 22.3468 13.7984 22.2837C13.6275 22.1867 13.2319 22.0143 13.0502 22.1805C12.7977 22.413 12.516 22.6347 12.3528 22.9442C12.2404 23.1597 12.5822 23.3999 12.7238 23.4815C12.9055 23.5862 13.2765 23.7417 13.4721 23.5846C13.743 23.3675 14.0094 23.1443 14.2988 22.9534L13.1626 22.4022C13.1611 22.5716 13.0333 22.7302 12.9363 22.8626C12.8224 23.0181 12.6946 23.1643 12.6099 23.3398C12.5037 23.56 12.8316 23.7925 12.9809 23.8771C13.1888 23.9957 13.5028 24.1142 13.7292 23.9803C13.8708 23.8956 13.9601 23.7524 14.1064 23.6739L12.9871 23.035C12.8778 23.2659 12.6915 23.4399 12.556 23.6539C12.4205 23.8679 12.8008 24.1189 12.927 24.1912C13.1303 24.3067 13.4536 24.4329 13.6753 24.2944C13.9663 24.1127 14.171 23.834 14.3727 23.5615L13.1949 22.9903C13.118 23.3814 12.8793 23.7247 12.5283 23.9141L13.5752 24.262C13.5383 24.2097 13.509 24.1081 13.5028 23.9895C13.4951 23.854 13.509 23.717 13.5352 23.5862C13.5921 23.3013 13.6968 23.0288 13.7738 22.7502L12.6669 22.47C12.6068 22.3761 12.6422 22.45 12.6438 22.5192C12.6438 22.5854 12.6376 22.6516 12.6299 22.7163C12.6099 22.8656 12.5729 23.0119 12.5483 23.1597C12.4867 23.5292 12.5129 23.9048 12.399 24.2666L13.569 24.65C13.412 24.1404 13.5352 23.5554 13.5506 23.0335C13.5675 22.4561 13.566 21.8973 13.4151 21.3369C13.3289 21.0182 12.2712 20.5286 12.2281 21.0413C12.1804 21.6248 12.2573 22.2267 12.1234 22.8025L13.2935 23.1859C12.9702 22.6301 13.1087 21.9203 13.0641 21.3061L11.8524 20.9119C11.8817 21.1891 11.9371 21.4631 11.9402 21.7433L13.1272 22.0389C13.0471 21.7695 12.984 21.4939 12.8793 21.2322C12.7654 20.9443 11.7508 20.4008 11.6923 20.9366C11.6615 21.2168 11.7893 21.4816 11.971 21.6879C12.2065 21.9542 12.6638 22.2129 13.0179 22.0358C13.5644 21.7633 13.8723 21.2245 13.9986 20.644C14.0679 20.3223 13.646 20.0744 13.3905 19.999C13.0333 19.8943 12.5452 19.8358 12.2466 20.1221C12.148 20.2176 12.0079 20.2468 11.9079 20.35C11.8016 20.4593 11.7601 20.5825 11.7662 20.7364C11.7724 20.935 12.0064 21.1013 12.1542 21.1844C12.3189 21.2783 12.6145 21.4077 12.8085 21.3292C13.3704 21.1028 13.8262 20.6964 14.3773 20.4547L13.352 19.7742C13.2011 20.0359 12.9763 20.2407 12.7808 20.4685C12.6484 20.621 12.9825 20.9027 13.0748 20.9627C13.2534 21.0767 13.5891 21.246 13.8061 21.1506C14.5251 20.8319 15.0978 20.3161 15.7306 19.8619C16.3634 19.4078 16.9253 18.8843 17.6289 18.6272L16.662 17.8774C16.134 18.2238 15.5905 18.5456 15.0624 18.892C14.5344 19.2384 14.0417 19.6249 13.5136 19.9682L14.5728 20.6764C15.1225 20.2592 15.6906 19.8727 16.254 19.4755C16.4249 19.3539 16.5881 19.2215 16.7621 19.1045C16.8576 19.0398 16.9561 18.9752 17.0608 18.9244C17.107 18.9028 17.1116 18.9105 17.1716 18.8828C17.2255 18.872 17.224 18.8689 17.1639 18.8766C17.187 18.8751 17.2101 18.8751 17.2332 18.8766L16.388 18.113C15.5274 18.8658 14.5821 19.514 13.6999 20.2422C13.3119 20.564 14.4143 21.1937 14.7591 20.9504C15.6644 20.3146 16.4834 19.5694 17.3333 18.8628L16.2741 18.1546C15.4027 19.1353 14.3712 19.9512 13.4135 20.8427L14.4728 21.5509C15.4027 20.6086 16.3741 19.7049 17.4641 18.9505L16.4049 18.2423C15.5782 18.9274 14.6837 19.5217 13.7892 20.1129L14.9254 20.6641C14.93 20.701 14.8823 20.7457 14.9285 20.6933C14.947 20.6718 14.9639 20.6456 14.9808 20.6225C14.9346 20.6841 14.9839 20.621 15.0193 20.584C15.0547 20.5471 15.0901 20.5132 15.1271 20.4778C15.3149 20.2992 15.512 20.1329 15.7106 19.9666C15.9846 19.7388 16.2633 19.4632 16.5712 19.2815L16.3572 19.3385C16.0554 19.106 15.7537 18.8751 15.4535 18.6426C15.4658 18.6288 15.5397 18.5533 15.4889 18.5949C15.1086 18.9074 16.2094 19.5787 16.5481 19.3031C17.1439 18.8197 17.7844 18.3917 18.3417 17.8605C18.7266 17.4926 17.6212 16.9383 17.2825 17.1523C16.1032 17.9005 14.9808 18.735 13.8277 19.5232L14.8869 20.2314C15.4319 19.6972 16.0293 19.2261 16.6359 18.7627C17.1532 18.367 17.7536 18.0391 18.1539 17.5156C18.2155 17.4356 18.1246 17.2816 18.0831 17.2231C18.0045 17.1184 17.8952 17.0415 17.7844 16.9783C17.5827 16.8629 17.2563 16.7351 17.0361 16.8752C16.4111 17.2724 15.7937 17.6804 15.1687 18.0776C14.7006 18.3747 14.1664 18.5887 13.8108 19.0306C13.7476 19.1091 13.84 19.2677 13.8816 19.3231C13.9601 19.4278 14.0694 19.5048 14.1803 19.5679C14.3712 19.6772 14.7206 19.8204 14.9285 19.671C15.5043 19.2554 16.0477 18.7981 16.5912 18.3424C17.03 17.9744 17.5581 17.685 17.8844 17.2C18.0184 17.0014 17.6366 16.732 17.5134 16.6627C17.2917 16.5365 17.0069 16.441 16.7652 16.5596C15.8645 17.003 15.0193 17.5449 14.1448 18.0345L15.2041 18.7427C15.9215 18.1453 16.7128 17.6465 17.4811 17.1154C17.692 16.9691 17.4287 16.6951 17.3087 16.6027C17.0993 16.441 16.7852 16.2994 16.5142 16.3671C15.9107 16.5165 15.3534 16.8105 14.7391 16.9183L15.706 17.6681C16.1586 17.3678 16.6374 17.1677 17.1639 17.0415L16.1386 16.361C15.9769 16.8644 15.3965 17.12 14.9839 17.394C14.793 17.5187 14.6021 17.6465 14.4297 17.7958C14.2572 17.9452 14.0602 18.1269 14.1649 18.3716C14.2434 18.5518 14.4327 18.6811 14.6021 18.7642C14.7484 18.8351 15.0162 18.9382 15.181 18.8658C15.7968 18.5933 16.4003 18.2962 17.0069 18.0037C17.5627 17.7358 18.1169 17.4171 18.7174 17.2662L17.7505 16.5165C17.2009 16.889 16.6282 17.2447 16.0508 17.5726C15.8645 17.6788 15.6767 17.7805 15.4997 17.9021C15.3457 18.0083 15.124 18.1592 15.0763 18.3501C15.0239 18.5579 15.2087 18.7396 15.3703 18.8443C15.5505 18.9598 15.8815 19.126 16.1016 19.0321C17.3025 18.5148 18.4618 17.899 19.6904 17.4433L18.7235 16.6935C17.5627 17.2493 16.4142 17.8467 15.3811 18.6211C15.1548 18.7904 15.4704 19.0891 15.6167 19.183C15.8584 19.337 16.1663 19.454 16.4403 19.3293C17.1024 19.0275 17.7597 18.7134 18.4233 18.4148C19.0053 18.1546 19.6349 17.9683 20.1615 17.6003C20.3724 17.4541 20.1091 17.18 19.989 17.0876C19.7797 16.926 19.4656 16.7844 19.1946 16.8521C17.9199 17.1677 16.7144 17.7296 15.572 18.367C15.4042 18.4609 15.5535 18.6934 15.6336 18.7796C15.7876 18.9459 16.0477 19.0999 16.2771 19.1199C16.5065 19.1399 16.7175 19.146 16.9376 19.0891C17.1208 19.0398 17.284 18.9397 17.4611 18.8782C17.8506 18.7411 18.237 18.5949 18.6204 18.4409C19.4102 18.1222 20.1907 17.7851 20.9851 17.4818L20.0183 16.732C19.0345 17.2108 17.9891 17.5618 17.0469 18.1269C16.8591 18.2392 17.0562 18.504 17.1562 18.5903C17.3502 18.7596 17.6289 18.8997 17.8921 18.8905C18.5634 18.8689 19.1746 18.6241 19.7966 18.3947C20.4186 18.1653 21.0806 17.9252 21.7072 17.6465C21.8011 17.6049 21.7873 17.4618 21.758 17.3909C21.7149 17.2847 21.6225 17.2016 21.5348 17.1338C21.3423 16.9845 20.9928 16.8074 20.7403 16.8983C20.3031 17.0553 19.8628 17.2 19.4225 17.3494C19.15 17.4417 19.2762 17.7127 19.4379 17.8544C19.658 18.0468 19.9967 18.2069 20.2954 18.1392C20.8527 18.0145 21.3777 17.7882 21.8842 17.5295C22.1167 17.411 21.8088 17.0907 21.7118 17.0168C21.5255 16.8721 21.1637 16.6843 20.9174 16.7813C19.1869 17.4602 17.5334 18.3147 15.8137 19.0183L16.7806 19.768C17.401 19.3477 18.0615 18.9921 18.742 18.6796C19.3578 18.3978 20.0414 18.2439 20.6064 17.8574C20.8173 17.7127 20.5525 17.4371 20.434 17.3448C20.2292 17.1862 19.9059 17.0353 19.6396 17.1092C18.6188 17.3894 17.6551 17.8313 16.699 18.2762C16.4619 18.387 16.7821 18.7196 16.8714 18.7889C17.0731 18.9459 17.4026 19.1014 17.6658 19.0244C18.1847 18.872 18.6527 18.5933 19.13 18.3439C19.6072 18.0945 20.1199 17.8236 20.5879 17.5141C20.7188 17.4279 20.6557 17.2493 20.5756 17.1538C19.9736 16.4487 19.053 16.6766 18.3001 16.9445C17.4549 17.2447 16.622 17.5772 15.7783 17.879L16.7452 18.6288C17.1562 18.2654 17.6781 18.0437 18.1585 17.7882C18.5711 17.5695 19.0176 17.3586 19.2716 16.946C19.3794 16.772 19.093 16.5257 18.9775 16.4518C18.7805 16.3256 18.4849 16.1916 18.2462 16.264C17.4872 16.498 16.7329 16.752 15.9738 16.9876L16.9407 17.7373C17.3287 17.5079 17.7105 17.2678 18.0661 16.9891C18.2339 16.8567 18.0769 16.6258 17.9568 16.5257C17.6858 16.2994 17.341 16.1393 16.9807 16.1593C16.7375 16.1731 16.5219 16.2701 16.3049 16.3702C16.214 16.4118 16.1771 16.4303 16.1324 16.4487C16.0431 16.4841 15.9538 16.5211 15.8645 16.5596C15.7598 16.6058 15.6552 16.652 15.5474 16.6904C15.495 16.7089 15.4427 16.7258 15.3888 16.7382C15.3642 16.7443 15.338 16.7505 15.3134 16.7536C15.3534 16.7459 15.3472 16.7428 15.2949 16.7459L16.1401 17.5095C16.5296 17.2124 17.1978 17.0599 17.2763 16.498C17.3025 16.3132 17.0069 16.1177 16.8883 16.05C16.6974 15.9407 16.4557 15.8545 16.234 15.9053C15.6382 16.0407 15.1409 16.3841 14.6329 16.7028L15.6921 17.411C15.9877 17.1 16.351 16.8552 16.5666 16.4749C16.6436 16.3394 16.4896 16.1577 16.3988 16.0792C16.0739 15.8021 15.669 15.6697 15.2487 15.7451C15.1409 15.7652 15.0363 15.799 14.93 15.8314C14.8792 15.8468 14.8284 15.8652 14.7776 15.8791C14.7484 15.8868 14.5821 15.9145 14.7176 15.9022L15.5628 16.6658C15.8107 16.4764 16.1139 16.3548 16.2741 16.0715C16.3757 15.8914 16.1016 15.6559 15.98 15.5773C15.7768 15.4465 15.495 15.3264 15.2487 15.3895C14.8469 15.4927 14.5097 15.7313 14.1418 15.9145L15.201 16.6227C15.4335 16.458 15.8815 16.3717 15.9508 16.0469C16.0293 15.682 15.4889 15.3941 15.1871 15.3633C14.8053 15.3248 14.3434 15.2971 14.0386 15.5758C13.8523 15.7451 14.0679 15.9776 14.211 16.0885C14.425 16.2547 14.7299 16.3841 15.0055 16.324C15.1994 16.2825 15.3596 16.1639 15.5443 16.1008L14.5775 15.351C14.3819 15.485 14.1726 15.5927 13.9663 15.7067C13.783 15.8083 13.6199 15.9699 13.4274 16.0515L14.2849 16.3363C14.3588 16.3918 14.4019 16.4626 14.4158 16.5457C14.4143 16.5272 14.4127 16.5088 14.4158 16.4903C14.4204 16.4518 14.4204 16.4503 14.4143 16.4826C14.4204 16.4595 14.4266 16.4349 14.4327 16.4118C14.4651 16.3055 14.5051 16.2024 14.5405 16.0992C14.6144 15.8852 14.6898 15.6528 14.5913 15.4342C14.4928 15.2155 14.2172 15.0431 13.9924 14.9769C13.8077 14.9215 13.5536 14.8738 13.4228 15.0508C13.2242 15.3202 13.0487 15.585 12.75 15.7528L13.8862 16.304C13.8646 16.187 13.86 16.09 13.9093 15.9807C13.9632 15.8606 14.0432 15.759 14.0925 15.6343C14.191 15.3849 14.2418 15.1155 14.2603 14.8476C14.2742 14.6428 13.9539 14.4211 13.7969 14.3565C13.5259 14.2441 13.255 14.1563 12.9625 14.241L13.9878 14.9215C14.0679 14.7552 14.0171 14.5935 13.897 14.4596C13.7492 14.2949 13.5721 14.1748 13.3612 14.1055C13.2211 14.0609 12.9809 14.0054 12.8501 14.1117C12.1265 14.7029 11.8509 15.5896 11.3474 16.3456C11.2905 16.4303 11.3721 16.575 11.4183 16.6381C11.5076 16.7582 11.6584 16.8644 11.7924 16.926C11.9894 17.0168 12.3697 17.1492 12.5237 16.9168C12.9886 16.2193 13.2396 15.3649 13.9077 14.8199L12.8608 14.4719L12.8085 14.3503C12.7177 14.5366 12.9717 14.7598 13.1026 14.8445C13.3012 14.9723 13.5921 15.1016 13.8338 15.0323L13.763 15.0246L13.4459 14.9199L13.509 14.9461L13.0456 14.455C13.0287 14.7075 12.9732 14.9569 12.8593 15.1863C12.7361 15.4342 12.6161 15.6204 12.6699 15.9114C12.7454 16.3163 13.4382 16.6673 13.8061 16.4626C14.151 16.2701 14.3665 15.9345 14.5959 15.6251L13.4259 15.2417C13.4474 15.291 13.4212 15.2386 13.4243 15.2217C13.4212 15.2448 13.4259 15.2756 13.4243 15.3002C13.4212 15.3572 13.4182 15.3464 13.3982 15.4126C13.3612 15.5327 13.3135 15.6497 13.275 15.7698C13.1749 16.0715 13.1703 16.3379 13.4413 16.5596C13.6368 16.7197 14.0294 16.9583 14.2988 16.8444C14.5436 16.7412 14.7376 16.5796 14.9654 16.4487C15.1933 16.3179 15.4211 16.207 15.6351 16.0592C15.8491 15.9114 15.5813 15.6389 15.4627 15.5465C15.2672 15.3957 14.9239 15.2232 14.6683 15.311C14.4835 15.3741 14.3204 15.4927 14.1294 15.5342L15.0963 16.284C15.1656 16.2209 15.2456 16.1762 15.3165 16.1639C15.3226 16.1639 15.4088 16.1577 15.4427 16.1577C15.4689 16.1577 15.495 16.1577 15.5228 16.1593C15.4673 16.1531 15.4719 16.1531 15.5335 16.1593L14.7699 15.4757C14.7622 15.5111 14.753 15.5388 14.7345 15.5681C14.753 15.5388 14.7314 15.5712 14.7191 15.582C14.6621 15.6358 14.5882 15.6743 14.519 15.7113C14.3927 15.779 14.2572 15.8314 14.1387 15.9145C13.9077 16.0777 14.2341 16.3871 14.3742 16.4764C14.6083 16.6258 14.9316 16.7551 15.1979 16.6227C15.5043 16.4703 15.7829 16.2686 16.117 16.1808L15.0917 15.5004C14.9716 15.7128 14.6883 15.8144 14.4989 15.9591C14.3265 16.09 14.4928 16.3225 14.6083 16.4226C14.7945 16.5857 15.0871 16.7459 15.3442 16.7228C15.512 16.7074 15.6629 16.6658 15.8214 16.615C15.8907 16.5934 15.9585 16.5734 16.0277 16.555C16.0493 16.5488 16.0724 16.5442 16.0939 16.5396H16.0585C16.0724 16.5396 16.0847 16.5396 16.0986 16.5396C16.0447 16.5365 15.9923 16.5272 15.94 16.5134L15.6274 16.361L15.552 16.2994L15.3842 15.9037C15.1994 16.2286 14.8808 16.4364 14.6267 16.7043C14.2542 17.0969 15.3488 17.6234 15.6859 17.4125C16.1401 17.1292 16.5712 16.8198 17.1008 16.6981L16.0585 16.1054C16.0662 16.05 16.0277 16.1593 16.017 16.1778C15.9954 16.2116 15.9862 16.2178 15.9415 16.2578C15.8538 16.3348 15.7537 16.3979 15.6552 16.458C15.4627 16.5734 15.2549 16.6673 15.0763 16.8028C14.8977 16.9383 15.0701 17.1662 15.1856 17.2662C15.3888 17.4433 15.6505 17.5572 15.9215 17.5665C16.2972 17.5803 16.6282 17.3879 16.9653 17.2539C17.107 17.197 17.2424 17.1292 17.3826 17.0692C17.4195 17.0522 17.5011 17.0199 17.5581 17.003C17.5873 16.9937 17.6166 16.9876 17.6458 16.9799C17.6951 16.9706 17.7028 16.9691 17.6689 16.9753C17.4703 17.0153 17.2856 16.9398 17.1131 16.7474L17.0038 16.284C16.6482 16.5627 16.2679 16.8028 15.8784 17.0322C15.6552 17.1631 15.9446 17.4618 16.0508 17.5449C16.251 17.7004 16.5851 17.862 16.8452 17.7805C17.6042 17.5464 18.3586 17.2924 19.1176 17.0569L18.0923 16.3764C17.8706 16.7351 17.4103 16.9137 17.0531 17.1061C16.5866 17.3571 16.0832 17.5695 15.6829 17.9221C15.2826 18.2747 16.3603 18.775 16.6497 18.6719C17.4334 18.3917 18.2155 18.0991 18.9929 17.8035C19.2085 17.7219 19.4271 17.6465 19.6488 17.5849C19.7797 17.5495 19.9105 17.5218 20.0429 17.4972C20.1522 17.4772 19.9536 17.4926 20.0568 17.4972C20.0753 17.4972 20.0999 17.4972 20.1184 17.4941C20.2123 17.4772 20.0029 17.4725 20.086 17.4895C19.8782 17.4494 19.6765 17.3294 19.5379 17.1692L19.5256 16.809C19.0776 17.1046 18.6065 17.3571 18.1308 17.6049C17.6935 17.8343 17.2671 18.0961 16.7898 18.2362L17.7567 18.9859C18.6527 18.5687 19.5549 18.1638 20.511 17.9021L19.5441 17.1523C18.9852 17.5357 18.2924 17.6942 17.6797 17.9744C16.9992 18.287 16.3387 18.6411 15.7183 19.0629C15.5058 19.2076 15.7722 19.4848 15.8907 19.5756C16.0755 19.7188 16.4419 19.9112 16.6851 19.8111C18.4048 19.1076 20.0583 18.2531 21.7888 17.5742L20.8219 16.8244C20.3739 17.0538 19.9121 17.2416 19.4194 17.3525L20.2923 18.1438C20.7326 17.996 21.173 17.8497 21.6102 17.6927L20.6434 16.9429C20.0814 17.1939 19.4979 17.3956 18.9206 17.608C18.3863 17.8051 17.8352 18.0545 17.2578 18.073L18.1031 18.8366C19.0453 18.2716 20.0906 17.9206 21.0744 17.4417C21.31 17.3278 20.9944 17.0014 20.902 16.9291C20.7142 16.7828 20.3555 16.5981 20.1076 16.6935C19.3578 16.9783 18.6188 17.294 17.8768 17.5972C17.5165 17.745 17.1532 17.8836 16.7883 18.016C16.5974 18.0853 16.4065 18.1453 16.2263 18.2362C16.1617 18.2685 16.1001 18.2947 16.0293 18.3085C16.0293 18.3085 15.8661 18.3208 15.9246 18.3255L16.6282 19.0783C17.7151 18.4733 18.8528 17.9467 20.0645 17.6465L19.0976 16.8967C18.5726 17.2616 17.9383 17.451 17.3595 17.7112C16.6944 18.0083 16.0385 18.3239 15.3765 18.6257L16.4357 19.3339C17.4688 18.5595 18.6173 17.9621 19.7781 17.4063C20.0137 17.2939 19.6981 16.9645 19.6057 16.8937C19.4163 16.7459 19.0607 16.5642 18.8113 16.6581C17.5827 17.1138 16.4249 17.7296 15.2225 18.2469L16.2479 18.9274C16.2848 18.7781 16.4342 18.6934 16.5912 18.5887C16.7652 18.4717 16.9499 18.3732 17.1316 18.2685C17.6982 17.9436 18.2632 17.5942 18.8036 17.2277C19.016 17.083 18.7497 16.8059 18.6311 16.7151C18.4233 16.5534 18.1077 16.4118 17.8367 16.4795C17.2178 16.635 16.6466 16.9599 16.0739 17.2339C15.4827 17.5172 14.8977 17.8128 14.2988 18.0776L15.3165 18.5718C15.3195 18.581 15.3457 18.6965 15.3211 18.6965C15.3211 18.6965 15.3349 18.6611 15.338 18.658C15.3503 18.6426 15.3611 18.6226 15.3734 18.6057C15.4011 18.5656 15.3365 18.6457 15.375 18.6057C15.4504 18.5287 15.5351 18.4609 15.6213 18.3947C15.7845 18.2716 15.9569 18.1607 16.1263 18.0468C16.5635 17.7543 17.1347 17.4741 17.3087 16.9383C17.3733 16.7366 17.1655 16.5411 17.0146 16.4441C16.8083 16.3117 16.5327 16.1978 16.2833 16.2563C15.6952 16.3964 15.1409 16.6319 14.6375 16.966C14.4235 17.1077 14.6945 17.3894 14.8099 17.4787C15.0301 17.6496 15.3226 17.7651 15.6044 17.7143C16.2186 17.6065 16.776 17.3109 17.3795 17.1631L16.4126 16.4133C15.6444 16.9429 14.8546 17.4417 14.1356 18.0406C13.9201 18.2192 14.2157 18.5025 14.3712 18.6026C14.5944 18.7458 14.9377 18.892 15.1948 18.7488C16.0693 18.2593 16.9161 17.7173 17.8152 17.2739L16.6959 16.635C16.4003 17.0753 15.8661 17.3509 15.4658 17.6865C14.9408 18.1269 14.4143 18.5672 13.8585 18.969L14.9777 19.6079C15.1255 19.4232 15.3626 19.2923 15.5628 19.1738C15.803 19.0321 16.0462 18.8997 16.2802 18.7504C16.8837 18.3655 17.4811 17.9729 18.0846 17.5895L16.9653 16.9506C16.7821 17.1908 16.5219 17.3725 16.2771 17.5464C16.0185 17.7296 15.7598 17.9129 15.5089 18.1053C14.9223 18.5533 14.3434 19.0136 13.8154 19.5309C13.4382 19.9004 14.5374 20.4685 14.8746 20.2391C16.0277 19.4509 17.1501 18.6164 18.3294 17.8682L17.2702 17.16C16.7144 17.6912 16.0724 18.1192 15.4766 18.6026L16.5358 19.3108C16.5697 19.2831 16.5851 19.2631 16.6189 19.2215C16.7344 19.0845 16.4634 18.8351 16.388 18.7766C16.2156 18.6426 15.9431 18.5025 15.7152 18.5256C15.5135 18.5472 15.4057 18.6518 15.2533 18.7719C15.0409 18.9382 14.8315 19.1076 14.6252 19.28C14.4189 19.4524 14.2095 19.6295 14.0155 19.8188C13.9047 19.9266 13.6814 20.099 13.703 20.2792C13.7292 20.5039 13.9786 20.6841 14.1664 20.7703C14.3542 20.8565 14.6452 20.9581 14.8392 20.8303C15.7337 20.2391 16.6282 19.6449 17.4549 18.9598C17.8444 18.6365 16.7406 18.0129 16.3957 18.2516C15.3057 19.0059 14.3342 19.9112 13.4043 20.8519C13.2103 21.049 13.4674 21.303 13.6399 21.4138C13.8123 21.5247 14.2634 21.7464 14.4635 21.5601C15.4211 20.6687 16.4527 19.8527 17.324 18.872C17.6705 18.4825 16.5881 17.8959 16.2648 18.1638C15.415 18.8705 14.5959 19.6156 13.6907 20.2515L14.7499 20.9597C15.6305 20.2314 16.5774 19.5848 17.438 18.8304C17.5996 18.6888 17.4534 18.4763 17.3287 18.367C17.1224 18.1869 16.8653 18.0822 16.5928 18.0668C16.077 18.0391 15.629 18.4517 15.241 18.735C14.6652 19.1553 14.0709 19.5463 13.5013 19.9774C13.1056 20.2776 14.2064 20.9166 14.5605 20.6856C15.0871 20.3423 15.5828 19.9543 16.1093 19.6095C16.6359 19.2646 17.1809 18.9413 17.7089 18.5949C17.9245 18.4548 17.652 18.1715 17.5365 18.0822C17.3456 17.9344 16.993 17.7543 16.7421 17.8467C15.9939 18.1192 15.395 18.6411 14.7545 19.0952C14.1556 19.5202 13.5983 20.0698 12.9193 20.37L13.9447 21.0505C14.1418 20.8226 14.3635 20.6194 14.5159 20.3561C14.619 20.1776 14.3419 19.9389 14.2218 19.8619C14.0417 19.748 13.7091 19.5787 13.4905 19.6741C12.9409 19.9158 12.4775 20.3238 11.9217 20.5486L12.964 21.1413C12.9594 20.9889 13.0671 21.0182 13.2011 20.9289C13.2688 20.8827 13.3166 20.8057 13.3951 20.7688C13.4951 20.7195 13.5306 20.7626 13.4166 20.7287L12.8085 20.0836C12.693 20.6179 12.4513 21.0874 11.9463 21.3384L12.9932 21.6863C12.8993 21.5801 12.8732 21.5108 12.8916 21.3415L11.7046 21.0459C11.8093 21.3076 11.8724 21.5816 11.9525 21.8526C12.0264 22.1051 12.4051 22.2744 12.6299 22.3299C12.7916 22.3699 13.1426 22.4038 13.1395 22.1482C13.1364 21.868 13.081 21.5955 13.0517 21.3168C13.0225 21.0382 12.6699 20.8319 12.4267 20.7595C12.2743 20.7149 11.8186 20.6333 11.8401 20.9227C11.8894 21.6094 11.757 22.3776 12.1203 23.0011C12.2481 23.2213 12.4744 23.386 12.7192 23.4584C12.8424 23.4953 13.2427 23.5862 13.2888 23.3845C13.4382 22.7425 13.3751 22.0974 13.4274 21.4462L12.2404 21.1506C12.382 21.6771 12.3405 22.2498 12.322 22.7871C12.302 23.3583 12.2235 23.9064 12.3959 24.4637C12.4636 24.6823 12.7946 24.8625 12.9948 24.921C13.1287 24.961 13.5028 25.0472 13.5644 24.8471C13.6984 24.4175 13.6722 23.9772 13.7507 23.54C13.82 23.152 13.9139 22.821 13.6876 22.4669C13.566 22.2744 13.2811 22.1451 13.0733 22.0943C12.9594 22.0666 12.6299 22.0127 12.5806 22.1882C12.3867 22.8841 12.0557 23.6247 12.5252 24.2851C12.7223 24.5638 13.2473 24.8086 13.5721 24.6331C13.9616 24.4237 14.2726 24.008 14.3573 23.5738C14.4096 23.3044 14.1325 23.095 13.9108 22.9934C13.7014 22.898 13.3458 22.7763 13.1795 23.0027C13.0133 23.229 12.8454 23.4445 12.5991 23.5985L13.7184 24.2374C13.8554 24.0249 14.0417 23.8494 14.1495 23.6185C14.2572 23.3876 13.9278 23.1674 13.7784 23.0812C13.5629 22.958 13.2657 22.8533 13.0302 22.978C12.8839 23.0565 12.7946 23.1997 12.653 23.2844L13.7723 23.9233C13.957 23.54 14.3542 23.2675 14.3588 22.8087C14.3604 22.5931 14.0617 22.393 13.8954 22.3176C13.7061 22.2298 13.4166 22.1297 13.2226 22.2575C12.9332 22.45 12.6669 22.6717 12.3959 22.8887L13.5152 23.5277C13.6506 23.269 13.8816 23.0935 14.094 22.9011L12.9748 22.2621C12.907 22.3422 12.8085 22.4084 12.7069 22.4299L13.6737 23.1797C13.9493 22.8826 14.2495 22.6147 14.5113 22.3052C14.5759 22.2298 14.4789 22.0666 14.4404 22.0127C14.3619 21.908 14.2526 21.8311 14.1418 21.7679C13.9216 21.6417 13.6337 21.5447 13.3935 21.6648C12.9917 21.8665 12.6961 22.2236 12.2897 22.4176L13.3489 23.1258C13.7076 22.7271 14.1141 22.3776 14.5267 22.0358L13.4674 21.3276C13.0887 21.6679 12.7238 22.022 12.3158 22.3253L13.3751 23.0335C13.9462 22.5454 14.5605 22.1082 15.0701 21.5524C15.4258 21.1644 14.4127 20.6856 14.1033 20.8026C13.4459 21.052 12.8932 21.4785 12.2881 21.8264L13.3473 22.5346C13.9185 22.0758 14.5513 21.6879 14.9762 21.0767C15.1132 20.8796 14.7253 20.6071 14.6052 20.5394C14.4189 20.4331 14.0586 20.2823 13.8569 20.4362C13.2119 20.9258 12.5668 21.4138 11.9279 21.9111L12.9871 22.6193C13.4289 22.2514 13.8646 21.8757 14.3003 21.4985C14.6591 21.1875 15.084 20.9381 15.3626 20.5455C15.5012 20.35 15.1102 20.0759 14.9916 20.0082C14.7976 19.8974 14.4543 19.7573 14.2434 19.9051C13.5383 20.3993 12.8762 20.9627 12.1065 21.3569L13.2257 21.9958C13.4289 21.6417 13.86 21.4477 14.1741 21.2044C14.6144 20.8627 15.0455 20.507 15.4181 20.0898C15.689 19.788 15.1102 19.4432 14.87 19.3754C14.5436 19.2846 14.2695 19.3031 13.9693 19.4509C13.7523 19.5571 13.5567 19.7049 13.3658 19.8527C12.9209 20.1945 12.4467 20.5932 11.9217 20.7995L12.9471 21.48C13.6568 20.6225 14.7068 20.1191 15.5874 19.4663C15.8137 19.2985 15.4966 18.9967 15.3519 18.9043C15.1409 18.7704 14.7714 18.6026 14.5282 18.7581C13.6907 19.2954 12.8901 19.8897 12.0372 20.4039L13.1564 21.0428C13.5306 20.5886 14.0417 20.2622 14.5128 19.9205C14.9839 19.5787 15.5027 19.2692 15.8599 18.7843C16.0016 18.5918 15.6028 18.3116 15.4889 18.2469C15.2841 18.1299 14.9639 18.0068 14.7407 18.1438C14.2172 18.464 13.6907 18.7827 13.1703 19.1106C12.6499 19.4386 12.2204 19.7973 11.7339 20.1283L12.7931 20.8365C13.2996 20.3946 13.8477 20.0005 14.4035 19.6218C14.8946 19.2877 15.3981 18.9936 15.7645 18.5133C15.826 18.4332 15.7352 18.2793 15.6936 18.2208C15.6151 18.1161 15.5058 18.0391 15.395 17.976C15.1748 17.8497 14.8885 17.7527 14.6467 17.8728C13.4721 18.4563 12.4713 19.3092 11.4552 20.1283L12.5745 20.7672C13.3473 19.8558 14.4512 19.3 15.3272 18.501C15.6336 18.2223 14.987 17.8467 14.7791 17.7866C14.4297 17.6881 14.1479 17.7296 13.8292 17.8913C13.5952 18.0098 13.3812 18.1684 13.1703 18.3208C12.5637 18.7596 11.9279 19.1584 11.3197 19.5971L12.439 20.2361C12.7146 19.8958 13.1026 19.6618 13.4074 19.3508C13.76 18.9906 12.8347 18.5564 12.5622 18.5872C12.3143 18.6149 12.0957 18.6657 11.8724 18.7812C11.6846 18.8782 11.5599 19.0429 11.3859 19.1537C10.9949 19.4016 10.6654 19.7249 10.3898 20.0944C10.3298 20.1745 10.4176 20.3284 10.4607 20.3869C10.5392 20.4916 10.6485 20.5686 10.7593 20.6317C10.961 20.7472 11.2874 20.8734 11.5076 20.7349C12.2573 20.2622 12.9686 19.7265 13.5906 19.0937C13.9663 18.7119 12.8685 18.17 12.5314 18.3855C12.0326 18.7057 11.5445 19.0829 11.1165 19.494C10.9333 19.6695 10.7763 19.8866 10.8625 20.1529C11.0118 20.6117 11.737 20.835 12.1788 20.7118C12.4344 20.641 12.6299 20.467 12.8193 20.2899C13.0317 20.0913 13.2627 19.9143 13.4951 19.7388C14.0309 19.3354 14.5898 18.9613 15.1486 18.5903C15.786 18.1669 16.4249 17.7466 17.0377 17.2878C17.264 17.1184 16.9484 16.8198 16.8021 16.7258C16.5635 16.5734 16.2494 16.4518 15.9785 16.5796C14.2757 17.3848 12.7377 18.4825 11.2089 19.5725L12.2681 20.2807C12.8501 19.7018 13.566 19.2815 14.2311 18.8073C14.9531 18.2931 15.6613 17.7604 16.3572 17.2108C16.5774 17.0368 16.2725 16.7459 16.1216 16.6489C15.8923 16.5026 15.5612 16.3656 15.298 16.5026C14.0509 17.1538 12.9209 17.9945 11.7354 18.7442L12.7946 19.4524C14.1525 18.4255 15.5243 17.4187 16.9268 16.4533C17.1609 16.2932 16.8298 15.9807 16.6913 15.8914C16.4588 15.7421 16.1324 15.6112 15.8676 15.7451C13.8492 16.7643 12.0618 18.1561 10.2282 19.4647L11.2874 20.1729C12.613 18.7565 14.1926 17.6219 15.7291 16.4518C15.9538 16.2809 15.6413 15.9838 15.4935 15.8899C15.278 15.7513 14.9192 15.5927 14.6698 15.7436C13.0456 16.7274 11.5029 17.8374 9.89564 18.8474L11.0149 19.4863C11.3659 19.0645 11.8355 18.7565 12.0726 18.2454C12.1603 18.056 11.9109 17.8374 11.7785 17.7512C11.5938 17.6342 11.272 17.4741 11.0472 17.5634C10.4329 17.8097 9.92797 18.1946 9.49535 18.6934C9.36295 18.8458 9.69703 19.1276 9.78941 19.1876C9.97877 19.3092 10.2898 19.4586 10.5207 19.3754C10.8486 19.2569 11.1119 19.0337 11.4275 18.8951L10.4607 18.1453C10.279 18.29 10.0049 18.4425 9.93567 18.678C9.8125 19.1045 10.7378 19.5602 11.0549 19.3169C11.5291 18.9551 11.9386 18.504 12.479 18.2362L11.3598 17.5972C11.0365 17.9914 10.6931 18.3824 10.3375 18.7458C10.0773 19.0121 9.75554 19.2631 9.86485 19.671C9.91873 19.8712 10.2189 20.0298 10.3837 20.096C10.5484 20.1622 10.8178 20.2422 10.9764 20.1221C11.7647 19.5232 12.5437 18.912 13.3458 18.3316C14.1479 17.7512 14.9747 17.2585 15.786 16.7166C16 16.5734 15.7306 16.2948 15.6136 16.2039C15.4258 16.0577 15.067 15.8729 14.8192 15.9684C13.9493 16.3009 13.2026 16.8429 12.4698 17.4033C12.0926 17.6912 11.7123 17.976 11.3398 18.27C11.1535 18.4163 10.9749 18.5856 10.7701 18.7042C10.5777 18.815 10.4237 18.9782 10.299 19.1599C10.1835 19.3277 10.4853 19.5848 10.5931 19.6541C10.7778 19.7727 11.0996 19.9312 11.3244 19.8419C12.1634 19.5063 12.77 18.7889 13.4751 18.2485C14.2434 17.6604 15.0578 17.1323 15.8307 16.5503C16.0031 16.4195 15.8368 16.187 15.7214 16.0869C15.5305 15.9207 15.2456 15.7713 14.9854 15.7867C14.7699 15.799 14.5636 15.8452 14.3804 15.9653C14.2926 16.0223 14.2218 16.0977 14.1556 16.1778C14.0833 16.2624 14.0094 16.3179 13.917 16.3794C13.4936 16.6673 13.0702 16.9522 12.6438 17.2339C12.2173 17.5156 11.8201 17.782 11.4183 18.0699C11.0164 18.3578 10.6793 18.6703 10.2621 18.9043L11.3213 19.6125C11.9556 18.9705 12.7223 18.4455 13.4674 17.9421C14.1294 17.4941 14.8407 17.0569 15.3288 16.4087C15.3888 16.3286 15.3011 16.1747 15.2579 16.1162C15.1794 16.0115 15.0701 15.9345 14.9593 15.8714C14.753 15.7528 14.4374 15.6343 14.211 15.7682C12.9994 16.4918 11.797 17.2539 10.7655 18.2254C10.3898 18.5779 11.4906 19.1861 11.8247 18.9336C12.3482 18.5364 12.8439 18.1084 13.3458 17.6865C13.8185 17.2909 14.3065 16.9106 14.7268 16.4564C15.0901 16.0623 14.0047 15.525 13.6676 15.7482C12.593 16.461 11.6307 17.3309 10.5346 18.0145L11.5938 18.7227C12.2204 18.1022 12.904 17.548 13.586 16.9891C13.9247 16.712 14.2618 16.4318 14.5959 16.1501C14.7607 16.0115 14.9285 15.8283 15.104 15.719C15.2595 15.622 15.3904 15.5358 15.4535 15.351C15.532 15.1155 15.2549 14.9122 15.0824 14.8137C14.8669 14.6905 14.5698 14.5843 14.3342 14.7106C13.7692 15.0154 13.2581 15.4542 12.6345 15.6374L13.6014 16.3871C14.0525 15.9591 14.5698 15.6081 15.0162 15.174C15.3857 14.8137 14.3511 14.2918 14.0494 14.4242C13.7476 14.5566 13.4582 14.749 13.1549 14.903L14.2742 15.5419C14.4928 15.2771 14.753 15.0477 14.9824 14.7937C15.0501 14.7198 15.0871 14.6382 15.0332 14.5381C14.7253 13.9654 14.0294 13.89 13.4797 14.0886C13.2765 14.1625 13.0795 14.2518 12.8824 14.3395C12.8377 14.3595 12.7931 14.3795 12.7485 14.3996C12.7284 14.4088 12.6345 14.4488 12.7269 14.4103C12.6761 14.4319 12.6253 14.4565 12.5729 14.4719L13.5983 15.1524C13.7338 14.9707 13.957 14.8584 14.1356 14.726C14.3619 14.5581 14.5759 14.3842 14.8346 14.2672L13.7153 13.6282C13.6368 13.9408 13.2734 14.0917 13.0687 14.3133C12.8824 14.5166 13.1241 14.7598 13.3042 14.8753C13.546 15.0292 13.8539 15.1463 14.1279 15.0215C14.1956 14.9908 14.2542 14.9507 14.3157 14.9092C14.4358 14.8291 14.4682 14.8691 14.2942 14.8399L13.5306 14.1563C13.3212 14.5135 13.0133 14.7937 12.7608 15.1201C12.6992 15.2001 12.79 15.3556 12.8316 15.4126C12.9101 15.5173 13.0194 15.5943 13.1303 15.6574C13.3212 15.7667 13.6722 15.9114 13.8785 15.7605C14.0725 15.6189 14.2526 15.4603 14.4266 15.2941C14.7976 14.9384 13.6968 14.321 13.3674 14.5859C12.9994 14.8814 12.6099 15.1678 12.165 15.3341L13.1318 16.0838C13.3905 15.9253 13.6568 15.7775 13.9047 15.6035L12.8454 14.8953C12.1034 15.6682 11.1104 16.1131 10.2836 16.7797C9.89718 17.0923 10.9964 17.7404 11.3428 17.4879C11.6677 17.2524 11.991 17.0168 12.2696 16.7243C12.6299 16.3471 11.6092 15.8498 11.3028 15.9745C10.7624 16.1947 10.2913 16.5165 9.81866 16.8521C9.34601 17.1877 8.91955 17.5126 8.57007 17.9621C8.47924 18.0807 8.65936 18.2947 8.73788 18.3578C9.01654 18.5779 9.41221 18.7719 9.76015 18.598C9.87408 18.541 9.97569 18.4609 10.0742 18.3793C10.279 18.2115 10.4838 18.0345 10.6654 17.842C11.0195 17.4648 10.0065 16.9599 9.69857 17.0923C9.34601 17.2447 8.92725 17.5341 8.82564 17.9283C8.76406 18.17 9.01039 18.3593 9.19667 18.4656C9.41837 18.5918 9.70165 18.6857 9.9449 18.5687C10.5269 18.2854 11.0472 17.8944 11.6184 17.5895L10.5592 16.8813C10.2205 17.1 9.9018 17.3432 9.59234 17.6019C9.3691 17.7897 9.0381 17.9698 8.95034 18.2654C8.87952 18.504 9.14279 18.7011 9.32138 18.8027C9.49997 18.9043 9.871 19.0614 10.0696 18.9059C10.5792 18.5041 11.0888 18.1022 11.5876 17.6865C11.9756 17.3648 10.8733 16.7335 10.5284 16.9783C10.222 17.1954 9.72013 17.4879 9.86639 17.9283C9.93259 18.1315 10.2082 18.2824 10.3852 18.3532C10.5777 18.4317 10.784 18.4717 10.978 18.3793C12.1203 17.8405 13.121 17.0538 14.2326 16.458L13.1133 15.819C13.0379 15.9699 12.9424 16.0792 12.7993 16.1701C12.7084 16.227 12.6053 16.2563 12.516 16.3132C12.4098 16.381 12.3128 16.4672 12.2111 16.5426C11.9433 16.7443 11.68 16.9506 11.4029 17.1369C11.1612 17.2986 10.9194 17.4618 10.6901 17.6419C10.4791 17.8082 10.2282 18.0052 10.1096 18.2531C10.0049 18.4733 10.3313 18.7057 10.4807 18.7904C10.6716 18.8997 11.0226 19.0444 11.2289 18.8936C12.4929 17.9698 13.6414 16.8783 15.0024 16.0915L14.7884 16.1485C15.1348 16.1193 15.5258 16.0176 15.5197 15.5989C15.5135 15.2371 14.7915 14.8799 14.4774 15.0062C13.509 15.3987 12.6515 15.9792 11.7893 16.5611C10.9271 17.1431 10.0003 17.7574 9.1782 18.4532L10.2374 19.1614C11.5445 17.8313 13.218 16.9475 14.5913 15.6943C14.9839 15.3356 13.9154 14.8414 13.6245 14.9446C12.9209 15.194 12.2881 15.582 11.6723 15.9961C11.0565 16.4102 10.4345 16.8613 9.83713 17.3278L10.8964 18.036C11.9771 17.1677 13.1472 16.4179 14.2249 15.545C14.5574 15.2756 13.8569 14.8953 13.6768 14.8306C13.3258 14.7059 12.9086 14.6967 12.633 14.9815C12.5714 15.0462 12.5221 15.1216 12.4529 15.177C12.3774 15.2371 12.2897 15.2848 12.2096 15.3387C12.0372 15.4526 11.8632 15.5666 11.6908 15.682C11.0164 16.1285 10.3621 16.6011 9.70473 17.0707L10.764 17.7789C11.7554 16.886 12.8008 16.0561 13.9001 15.2987C14.111 15.154 13.8462 14.8784 13.7276 14.786C13.5167 14.6228 13.2057 14.4858 12.9332 14.5504C12.516 14.649 12.2312 14.9323 11.8894 15.1693C11.506 15.4372 11.1242 15.7082 10.7455 15.9807C9.99879 16.5195 9.22131 17.0184 8.49925 17.5926C8.1159 17.899 9.21361 18.5687 9.55847 18.3008C10.3067 17.7189 11.0411 17.1184 11.7924 16.5411C12.5437 15.9638 13.2581 15.4342 13.9355 14.8122C14.1217 14.6413 13.9062 14.4103 13.763 14.2995C13.5598 14.1425 13.2334 13.9885 12.9686 14.0639C12.2543 14.2656 11.68 14.746 11.0826 15.1616C10.4268 15.6174 9.78171 16.0854 9.19052 16.6212L10.2497 17.3294C10.8579 16.752 11.523 16.2532 12.1973 15.759C12.8716 15.2648 13.5105 14.7552 14.211 14.3133L13.0918 13.6744C12.9378 13.8607 12.6884 13.9823 12.4852 14.104C12.2373 14.2518 11.9971 14.4103 11.7554 14.5689C11.212 14.9215 10.6747 15.2848 10.145 15.6559C9.13355 16.3641 8.01737 17.0445 7.20601 17.9914C7.14135 18.0668 7.23834 18.23 7.27683 18.2839C7.35535 18.3886 7.46466 18.4656 7.57551 18.5287C7.78181 18.6472 8.09742 18.7658 8.32374 18.6318C8.79485 18.3516 9.20745 17.9714 9.64469 17.6404C9.8125 17.5126 9.98339 17.3879 10.162 17.277C10.2482 17.2231 10.3375 17.1692 10.4314 17.1292C10.3698 17.1554 10.5022 17.1107 10.5115 17.1061C10.5761 17.0707 10.4237 17.0984 10.5346 17.1061L9.68933 16.3425C9.20591 16.8736 8.63935 17.3201 8.16824 17.8636C8.10358 17.939 8.20057 18.1038 8.23906 18.1561C8.31758 18.2608 8.42689 18.3378 8.53774 18.4009C8.72711 18.5087 9.08121 18.6549 9.28597 18.504C9.61082 18.2639 9.91873 18.0006 10.2374 17.7527C10.5222 17.531 10.7994 17.3016 10.9949 16.9907C11.1227 16.7874 10.7516 16.5257 10.6239 16.4533C10.4191 16.3363 10.0989 16.2132 9.87562 16.3502C9.30906 16.6997 8.78407 17.1061 8.26216 17.5187L9.32138 18.2269C9.92489 17.7112 10.5946 17.2909 11.1119 16.6812C11.1766 16.6058 11.0796 16.4426 11.0411 16.3887C10.9626 16.284 10.8532 16.207 10.7424 16.1439C10.5284 16.0223 10.2282 15.913 9.99417 16.0407C9.2367 16.4549 8.58854 17.0276 7.86957 17.5003L8.98883 18.1392C9.20283 17.859 9.51075 17.6619 9.79403 17.4587C10.1019 17.2354 10.3914 16.9922 10.6023 16.672C10.7147 16.5011 10.4191 16.2501 10.3082 16.1778C10.1158 16.0546 9.80942 15.9099 9.57695 15.9899C9.0304 16.1793 8.54082 16.478 8.05585 16.789C7.64325 17.0522 7.186 17.2601 6.87655 17.6511C6.81496 17.7296 6.9058 17.8867 6.94737 17.9436C7.02588 18.0483 7.13519 18.1253 7.24604 18.1884C7.43387 18.2962 7.79105 18.444 7.99427 18.2916C8.88722 17.6188 9.754 16.9168 10.4868 16.0685C10.6038 15.933 10.3283 15.6805 10.2559 15.6235C10.0696 15.4788 9.82174 15.3695 9.58311 15.3726C8.89492 15.3818 8.36685 15.836 7.81722 16.1901C7.42617 16.4426 6.80573 16.6658 6.66409 17.1585C6.54708 17.5634 7.36767 17.9775 7.68944 17.839C8.21135 17.6157 8.69016 17.3509 9.03502 16.8875C9.15664 16.7243 8.84411 16.4595 8.74096 16.3933C8.55929 16.2778 8.22983 16.1131 8.00967 16.2055C7.43387 16.4503 6.98893 16.8459 6.50397 17.2293L7.56319 17.9375C7.79259 17.725 8.20673 17.6142 8.28679 17.2755C8.33606 17.0661 8.15593 16.886 7.99273 16.7813C7.80798 16.6627 7.48621 16.5042 7.26144 16.5934C6.85037 16.7566 5.97436 17.1261 6.38542 17.685C6.55016 17.9082 7.04744 18.1946 7.33996 18.0745C8.19903 17.7204 8.97498 17.2324 9.70319 16.6596C10.0357 16.3979 9.33677 16.0038 9.15511 15.9453C8.71325 15.8052 8.3961 15.9807 8.07125 16.2624C7.79567 16.5011 7.47236 16.7243 7.30763 17.0569C7.23681 17.2016 7.38152 17.3648 7.47544 17.4525C7.63555 17.6003 7.85571 17.7081 8.06971 17.7404C8.67322 17.8343 9.21977 17.3432 9.69241 17.0322C10.1959 16.7012 10.6885 16.3548 11.1858 16.0161C11.6831 15.6774 12.185 15.3495 12.7038 15.0462C13.2226 14.7429 13.7661 14.4473 14.2819 14.1209C14.522 13.9685 14.1787 13.6436 14.0463 13.559C13.8185 13.4127 13.4844 13.2741 13.2226 13.4127C12.4698 13.813 11.7493 14.2702 11.018 14.7075C10.6639 14.9199 10.3082 15.1293 9.95876 15.3495C9.78941 15.4572 9.62621 15.582 9.44454 15.6666C9.27673 15.7451 9.15511 15.8622 9.04888 16.013C8.91185 16.2101 9.29982 16.4826 9.41991 16.5503C9.62313 16.6658 9.94644 16.7921 10.1681 16.6535C10.8456 16.2286 11.4137 15.6635 12.0418 15.1724C12.6699 14.6813 13.3566 14.2672 13.9478 13.7283C14.1341 13.559 13.9185 13.3265 13.7753 13.2156C13.5475 13.0386 13.2688 12.9416 12.9809 12.9801C12.6792 13.0201 12.4744 13.1679 12.2481 13.3527C11.9864 13.5651 11.6677 13.7252 11.3875 13.9146C10.8394 14.2841 10.3298 14.709 9.78325 15.0816L10.8425 15.7898C11.9217 14.8214 13.0702 13.9346 14.1279 12.9431C14.3111 12.7707 14.1017 12.5428 13.9555 12.4305C13.7415 12.2642 13.4366 12.1333 13.1611 12.1949C12.8855 12.2565 12.7084 12.3874 12.5252 12.5813C12.342 12.7753 12.0895 12.9262 11.8755 13.074C11.5538 13.2972 11.2012 13.4573 10.9441 13.7622C10.8794 13.8376 10.9749 14.0008 11.0149 14.0547C11.0934 14.1594 11.2027 14.2364 11.3136 14.2995C11.4968 14.4042 11.8647 14.5597 12.0618 14.4026C12.6422 13.9377 13.2519 13.5035 13.7507 12.9478C13.9339 12.743 13.6968 12.5028 13.5152 12.3858C13.2765 12.2334 12.964 12.1133 12.6915 12.2396C12.245 12.4474 11.8755 12.7784 11.4876 13.074C11.0703 13.3911 10.6531 13.7068 10.2759 14.0732C9.89872 14.4396 10.998 14.9754 11.3351 14.7814C12.0603 14.3642 12.7392 13.8761 13.4166 13.385C13.6445 13.2187 13.3243 12.9154 13.1811 12.823C12.9671 12.686 12.6037 12.5244 12.3574 12.6768C11.4706 13.228 10.6331 13.853 9.85253 14.5458L10.9718 15.1847C11.0934 14.8922 11.329 14.7752 11.5584 14.5751C11.8247 14.3411 12.088 14.1055 12.3589 13.8777C12.8855 13.4373 13.432 13.0201 13.9201 12.5367C14.2957 12.1641 13.1965 11.5991 12.8608 11.8285C12.0849 12.3581 11.406 13.0155 10.6131 13.522L11.6723 14.2302C12.4359 13.6406 13.1734 13.014 14.0078 12.5259L12.9486 11.8177C12.5175 12.2288 12.0403 12.586 11.6015 12.9862C11.1627 13.3865 10.7285 13.8469 10.2682 14.2533L11.3875 14.8922C11.4922 14.6536 11.6708 14.4688 11.854 14.2887C12.0603 14.0855 12.2589 13.8823 12.4544 13.6683C12.9209 13.1587 13.3781 12.6414 13.8154 12.1071C13.8785 12.0302 13.7846 11.8701 13.7446 11.8146C13.666 11.7099 13.5567 11.633 13.4459 11.5698C13.238 11.4513 12.924 11.3327 12.6976 11.4667C12.1665 11.7808 11.777 12.2657 11.3074 12.6568L12.4267 13.2957C12.7669 12.5059 13.332 11.847 13.9124 11.225C14.1002 11.0233 13.8554 10.777 13.6768 10.663C13.5152 10.5599 13.0379 10.3213 12.8531 10.5168C12.4467 10.9432 12.0418 11.3712 11.5953 11.7577L12.7146 12.3966C12.8886 11.7361 13.3905 11.2496 13.8415 10.7662L12.7053 10.215C12.6391 10.6215 12.3097 11.0264 12.0464 11.3281L13.1657 11.967C13.3674 11.6868 13.5937 11.4297 13.8338 11.1819L12.7146 10.5429C12.4267 11.205 11.9032 11.7223 11.446 12.2673L12.6238 12.8384C12.867 12.1826 13.3581 11.6699 13.7646 11.1126C13.9062 10.9186 13.509 10.6415 13.3935 10.5753C13.235 10.4844 12.81 10.2966 12.6453 10.4721C12.3097 10.8293 12.0233 11.2342 11.6138 11.5129L12.75 12.064C12.7746 11.8362 12.9763 11.6237 13.0979 11.4421C13.2704 11.1849 13.4366 10.9248 13.6137 10.6707C13.6722 10.5876 13.5875 10.4398 13.5429 10.3782C13.4536 10.2581 13.3027 10.1519 13.1688 10.0903C12.9501 9.99024 12.6145 9.8794 12.4375 10.0996C12.2604 10.3197 12.0741 10.5491 11.8909 10.7723L13.0687 11.3435C13.2119 10.8493 13.5629 10.466 13.8415 10.0457C13.9739 9.84553 13.5937 9.57918 13.4705 9.50836C13.2904 9.40521 12.9163 9.24663 12.7223 9.40521C12.419 9.65308 12.2589 10.0287 11.9479 10.2643L13.0671 10.9032C13.2196 10.449 13.4782 10.0349 13.7984 9.67925L12.6792 9.04033C12.5791 9.23278 12.4606 9.41445 12.3143 9.5761L13.4505 10.1273C13.4767 9.9887 13.5213 9.85322 13.5706 9.72082C13.6645 9.46679 13.315 9.22816 13.1241 9.1404C12.9763 9.07266 12.4867 8.89561 12.3928 9.14964L12.4098 9.14502Z" fill="#FFF6A3"/>
</g>
</g>
</g>
<defs>
<clipPath id="clip0_16_2661">
<rect width="34.1322" height="30" fill="white" transform="translate(0.868164)"/>
</clipPath>
</defs>
</svg>
