<svg width="35" height="30" viewBox="0 0 35 30" fill="none" xmlns="http://www.w3.org/2000/svg">
<g id="item3 2" clip-path="url(#clip0_16_2674)">
<g id="1">
<g id="Group">
<path id="Vector" d="M22.708 6.48161C22.7418 8.89873 22.8281 11.5083 24.0767 13.6544C24.2183 13.8977 24.3646 14.1132 24.5385 14.3365C24.6294 14.4535 24.7248 14.5674 24.8249 14.6783C24.8757 14.7352 24.9265 14.7906 24.9788 14.8445C24.9989 14.8645 25.0189 14.8846 25.0373 14.9061C25.1636 15.0354 25.0019 14.8738 25.0758 14.9446C25.2837 15.1432 25.5038 15.3295 25.7363 15.5019C25.7656 15.5235 25.7963 15.5466 25.8256 15.5681C25.8179 15.562 25.7502 15.5158 25.8087 15.5558C25.8672 15.5958 25.9303 15.639 25.9934 15.679C26.1181 15.759 26.2444 15.836 26.3721 15.9099C26.4291 15.9422 26.4845 15.973 26.5415 16.0038C26.5738 16.0208 26.6062 16.0392 26.64 16.0562C26.6185 16.0454 26.5199 15.9961 26.6339 16.0516C26.7586 16.1131 26.8848 16.1732 27.0126 16.2301C27.1404 16.2871 27.2697 16.341 27.4006 16.3918C27.4699 16.4195 27.5407 16.4457 27.6115 16.4719C27.6223 16.4749 27.7116 16.5073 27.6361 16.4811C27.5499 16.4503 27.6977 16.5026 27.7146 16.5073C27.9933 16.6027 28.2766 16.6859 28.5629 16.7613C28.7031 16.7982 28.8416 16.8321 28.9833 16.8644C29.0495 16.8798 29.1157 16.8952 29.1803 16.9091C29.208 16.9153 29.2373 16.9214 29.265 16.9276C29.4513 16.9676 29.148 16.906 29.3358 16.943C30.6537 17.2016 31.9916 17.3171 33.3294 17.4095C33.6035 17.4279 33.9853 17.6127 34.1039 17.8744C34.2316 18.1561 33.9068 18.2039 33.7097 18.1916C31.1664 18.0376 28.1981 17.8913 25.9503 19.434C23.9258 20.8242 23.0605 23.2306 22.7265 25.5707C22.5278 26.9609 22.4847 28.3696 22.4755 29.7722L21.2485 29.4289C21.2885 27.2088 21.3008 24.8533 20.491 22.7487C20.3032 22.2622 20.0445 21.7341 19.7736 21.3353C19.4549 20.8642 19.1115 20.484 18.722 20.156C18.4511 19.9282 18.2971 19.8189 17.9938 19.6326C17.863 19.551 17.729 19.474 17.592 19.4001C17.5535 19.3786 17.5135 19.3585 17.475 19.337C17.4734 19.337 17.3765 19.2862 17.435 19.3154C17.4996 19.3493 17.378 19.2877 17.3641 19.28C17.3149 19.2554 17.2641 19.2308 17.2148 19.2077C16.9238 19.0691 16.6282 18.9429 16.3295 18.8228C16.1741 18.7612 16.0186 18.7011 15.8615 18.6426C15.8507 18.638 15.7137 18.5888 15.7753 18.6103C15.8292 18.6303 15.7183 18.5903 15.723 18.5918C15.6213 18.5564 15.5197 18.521 15.4181 18.4872C13.9078 17.9853 12.4375 17.6958 10.8472 17.5788C10.587 17.5603 10.2436 17.3925 10.1066 17.1647C9.98038 16.9553 10.0897 16.8167 10.3252 16.7905C11.7401 16.6366 13.1565 16.4965 14.5698 16.3241C15.6044 16.1994 16.6313 16.0269 17.6289 15.6543C18.5511 15.3095 19.4349 14.7522 19.9845 13.9146C20.6265 12.9339 20.7481 11.7639 20.7974 10.6215C20.8543 9.28208 20.8282 7.88261 21.3778 6.62941C21.4856 6.38308 21.9351 6.50932 22.1091 6.59092C22.2831 6.67251 22.6895 6.90191 22.5787 7.15132C21.5979 9.38215 22.5402 12.0333 21.3316 14.1948C20.2154 16.1917 17.7968 16.7675 15.6999 17.0569C14.1357 17.2724 12.5592 17.411 10.9903 17.5834L10.4684 16.7952C11.9726 16.906 13.4675 17.1862 14.9085 17.6265C16.3496 18.0668 17.7429 18.598 18.953 19.4432C20.0091 20.1807 20.8528 21.1429 21.4086 22.3084C21.9151 23.3676 22.1861 24.533 22.3308 25.6939C22.4986 27.0441 22.5017 28.4097 22.4755 29.7676C22.4663 30.2695 21.2454 29.8568 21.2485 29.4242C21.2669 26.904 21.3578 24.2344 22.3754 21.8881C22.8604 20.7703 23.5871 19.7465 24.5524 18.9937C25.6778 18.1177 27.0434 17.6727 28.4382 17.4633C30.0548 17.2216 31.7037 17.3063 33.3279 17.4048L33.7082 18.1869C31.2002 18.016 28.5722 17.7682 26.2967 16.6104C25.1297 16.0161 24.069 15.2048 23.3084 14.1271C22.5479 13.0494 22.1014 11.8239 21.8427 10.543C21.5518 9.09425 21.4994 7.60857 21.4779 6.1352C21.4702 5.641 22.6987 6.04129 22.7049 6.47853L22.708 6.48161Z" fill="#FFF6A3"/>
<path id="Vector_2" d="M5.70507 0.184738C5.74664 1.71661 5.46644 3.28542 5.82362 4.79574C5.96526 5.39463 6.22083 5.97505 6.6088 6.45693C7.02448 6.97269 7.62183 7.296 8.24074 7.50384C8.59946 7.62392 8.97049 7.70706 9.33999 7.79174C9.65406 7.86256 10.079 7.97956 10.3684 7.80867L10.0436 8.90023C9.32921 8.84942 8.61485 8.89561 7.91743 9.06034C7.62029 9.12962 7.317 9.2143 7.03988 9.34054C6.92441 9.39289 6.80894 9.46063 6.70117 9.53145C6.61958 9.58379 6.7489 9.49296 6.67038 9.55146C6.64729 9.56994 6.62419 9.58841 6.6011 9.60689C6.57031 9.63306 6.54106 9.65923 6.51334 9.6854C6.56107 9.64076 6.52874 9.67155 6.50257 9.7008C6.41943 9.79317 6.47639 9.72697 6.49333 9.70388C6.4687 9.73621 6.44868 9.77162 6.42559 9.80395C6.42097 9.81011 6.3717 9.89786 6.40711 9.83166C6.4456 9.76084 6.38864 9.87323 6.38094 9.89017C6.36863 9.91788 6.35631 9.94559 6.34399 9.9733C6.35477 9.94867 6.37632 9.87631 6.33629 9.99332C6.31012 10.0703 6.28703 10.1488 6.26701 10.2273C6.20851 10.4536 6.1731 10.7831 6.14693 11.0695C6.08227 11.8069 6.02838 12.5475 5.96834 13.2849C5.89906 14.1409 5.83132 14.9969 5.76204 15.8529C5.73894 16.15 5.51725 16.4841 5.26014 16.6319C5.0215 16.769 4.85523 16.6458 4.87063 16.381C4.95222 14.9815 5.03074 13.5543 4.64585 12.1903C4.31176 11.0048 3.59587 9.99332 2.51971 9.38057C1.8931 9.02339 1.20646 8.79246 0.516729 8.59385C0.251924 8.51687 0.331982 8.18279 0.425896 7.99188C0.544442 7.75017 0.758443 7.45457 1.05404 7.43918C1.63754 7.40838 2.22565 7.37144 2.79221 7.21594C3.06471 7.1405 3.30181 7.05275 3.53736 6.90957C3.55584 6.89879 3.71595 6.78948 3.66207 6.82951C3.72519 6.78178 3.78215 6.72944 3.84066 6.67863C3.893 6.62782 3.89762 6.62321 3.85451 6.66631C3.88068 6.63706 3.90686 6.60781 3.93303 6.57702C3.9592 6.54623 3.98384 6.51698 4.00693 6.48464C3.9669 6.53853 3.96228 6.54469 3.99 6.50466C4.10238 6.31529 4.21323 6.12131 4.28713 5.89653C4.33486 5.75335 4.37643 5.60709 4.41338 5.45929C4.4534 5.29456 4.46418 5.23914 4.49035 5.09442C4.6243 4.35235 4.6905 3.5995 4.69974 2.84511C4.70281 2.55413 4.95684 2.20773 5.20163 2.06609C5.44642 1.92445 5.59422 2.05685 5.59114 2.31704C5.57575 3.57486 5.4418 4.90351 4.95992 6.07666C4.47804 7.24981 3.57277 8.06116 2.37345 8.36446C1.7684 8.51687 1.13872 8.55844 0.518271 8.59231L1.05558 7.4361C2.36267 7.81329 3.65129 8.29518 4.53654 9.38057C5.42179 10.466 5.73586 11.8331 5.81284 13.1648C5.86365 14.0593 5.81438 14.9569 5.76357 15.8514L4.8737 16.3794C5.00611 14.7336 5.10926 13.0832 5.27245 11.4405C5.34789 10.683 5.5234 9.9225 5.97912 9.29589C6.43483 8.66929 7.12609 8.24745 7.88664 8.02267C8.75495 7.76556 9.67869 7.67473 10.5809 7.73939C10.798 7.75479 10.7733 8.05192 10.7287 8.19202C10.6502 8.44143 10.4854 8.697 10.256 8.83095C9.58324 9.22661 8.77805 8.95257 8.08062 8.76474C7.3832 8.57692 6.66884 8.31365 6.12999 7.80097C5.07231 6.7941 4.76748 5.28378 4.75208 3.87816C4.7413 2.90053 4.83983 1.92599 4.81366 0.948363C4.80596 0.640449 4.96608 0.330996 5.20009 0.132392C5.32942 0.0215434 5.69583 -0.135492 5.70353 0.17704L5.70507 0.184738Z" fill="#FFF6A3"/>
<path id="Vector_3" d="M7.04126 6.52158C7.28913 6.80332 7.52776 7.09276 7.75716 7.3899C8.08201 7.81174 6.91348 8.20741 6.61018 7.94414C6.00667 7.42069 5.42626 6.84489 4.67803 6.5339L5.73879 5.92577C6.37155 6.61087 7.10131 7.19591 7.76794 7.84715C8.1282 8.19971 6.98276 8.62309 6.70718 8.45528C5.93277 7.98417 5.31541 7.28059 4.50867 6.86336L5.56944 6.25523C6.25454 7.06813 7.14287 7.66548 7.97732 8.31056C8.20364 8.48607 7.80027 8.77243 7.66633 8.83401C7.41384 8.94948 7.07513 9.03261 6.83034 8.8648C6.42082 8.58306 6.02823 8.27976 5.63102 7.98109C5.32157 7.74861 4.99364 7.46533 4.60259 7.38682L5.54634 6.74636C6.11752 7.39759 6.81649 7.93028 7.55856 8.37368L6.4978 8.98181C5.67875 8.44604 4.82737 7.96415 3.97444 7.48381L4.94899 6.8218C5.36929 7.07582 5.74033 7.3899 6.13138 7.68549C6.52243 7.98109 6.94889 8.28746 7.34302 8.60769C7.54316 8.77089 7.21985 9.02338 7.10131 9.09112C6.85959 9.22968 6.55476 9.30358 6.28226 9.21582C5.39547 8.92792 4.73345 8.21664 3.86821 7.8841L4.92898 7.27597C5.4863 7.85946 6.16833 8.29824 6.77338 8.82631C6.96736 8.99566 6.65791 9.23738 6.53167 9.30974C6.33306 9.42366 5.93585 9.56838 5.71262 9.43444C4.83814 8.90329 3.95289 8.38753 2.99682 8.01496L4.05758 7.40683C4.48866 7.67933 4.96439 7.98417 5.37083 8.23512C5.73417 8.45989 6.12214 8.64926 6.33922 9.03415C6.43929 9.2112 6.08827 9.4329 5.97896 9.48217C5.76034 9.58224 5.46321 9.66384 5.22919 9.56684C4.29621 9.17579 3.46177 8.59076 2.53341 8.19047L3.50796 7.52846C4.50098 8.08424 5.50632 8.64464 6.35462 9.41135C6.54552 9.58378 6.24223 9.82087 6.1129 9.89477C5.88659 10.0241 5.54942 10.1257 5.29385 10.0195C4.33316 9.61457 3.47563 9.01722 2.57036 8.50916C2.32403 8.3706 2.46567 8.13505 2.65658 8.01034C2.87365 7.8687 3.28626 7.71013 3.54491 7.84715C4.37165 8.2813 5.14913 8.80476 5.8558 9.41443C6.05132 9.58224 5.73879 9.82703 5.61408 9.89785C5.40932 10.0149 5.02443 10.1519 4.79503 10.0226C4.02987 9.58686 3.31859 9.0634 2.55035 8.63079L3.61111 8.02266C4.44401 8.74779 5.45243 9.24661 6.23453 10.0318C6.43313 10.2319 6.08211 10.4829 5.92354 10.5552C5.66335 10.6753 5.34158 10.7462 5.08755 10.586C4.47172 10.1965 3.91748 9.7131 3.28164 9.35438L4.3424 8.74625C4.88895 9.22352 5.54019 9.58994 5.96665 10.1904C6.11136 10.3936 5.89582 10.5753 5.72493 10.6738C5.48168 10.8139 5.17993 10.8847 4.90588 10.7985C4.51329 10.6753 4.18998 10.4167 3.86668 10.1734L5.01365 9.61919C5.36621 10.0472 5.76342 10.4321 6.15909 10.8185L5.01211 11.3728C4.42554 10.703 3.66191 10.2273 3.03069 9.60533C2.82901 9.40673 3.18465 9.1527 3.34168 9.08188C3.58186 8.97103 3.94519 8.8725 4.17767 9.05109C4.59951 9.37286 5.03521 9.67923 5.41856 10.0503C5.60177 10.2273 5.31233 10.4567 5.17685 10.5337C4.97516 10.6492 4.58411 10.7893 4.3578 10.6584C3.40481 10.1026 2.54111 9.42212 1.73745 8.66774C1.65894 8.59384 1.67741 8.49069 1.72206 8.40755C1.94837 7.99187 2.55188 7.77171 3.00144 7.89179C3.18311 7.94106 3.31243 8.05345 3.44637 8.17815C3.58031 8.30286 3.79124 8.38753 3.95751 8.47991C4.68265 8.88328 5.39239 9.3082 6.07903 9.77161C6.16525 9.83011 6.13292 9.96251 6.09443 10.0318C6.02977 10.1442 5.88197 10.2427 5.76804 10.2951C5.51401 10.4121 5.17993 10.4921 4.93206 10.3258C4.45325 10.0025 3.96521 9.69925 3.46331 9.41289C3.20774 9.26663 2.95063 9.12345 2.69352 8.98181C2.57036 8.91407 2.42872 8.85402 2.32403 8.75857C2.2763 8.71546 2.22858 8.6662 2.18239 8.62155C2.04691 8.48761 1.97609 8.75703 2.54111 8.55689L2.84132 8.41217C2.86596 8.39831 2.95217 8.27669 2.89983 8.37214L2.88443 8.11195C3.63574 8.81707 4.43939 9.47447 5.33234 9.9933L4.27158 10.6014C3.88823 10.2319 3.45407 9.92556 3.03069 9.60225L4.17767 9.04801C4.81043 9.66999 5.57252 10.1457 6.15909 10.8154C6.49318 11.1972 5.31541 11.6653 5.01211 11.3697C4.61645 10.9832 4.21924 10.5984 3.86668 10.1704C3.68963 9.95635 4.00062 9.72696 4.17767 9.6469C4.41938 9.53605 4.77964 9.43906 5.01365 9.61611C5.2877 9.82395 5.54788 10.0287 5.87889 10.1334L4.81813 10.7415C4.39167 10.1411 3.74043 9.77468 3.19388 9.29742C2.9999 9.12807 3.30935 8.88635 3.4356 8.81399C3.64036 8.69699 4.02525 8.55997 4.25465 8.68929C4.95207 9.08188 5.5602 9.60225 6.23453 10.0287L5.08755 10.583C4.30545 9.79778 3.29704 9.29896 2.46413 8.57382C2.27014 8.40447 2.5796 8.16276 2.70584 8.0904C2.9106 7.97339 3.2955 7.83637 3.52489 7.96569C4.2916 8.39831 5.00288 8.92176 5.76958 9.35746L4.70882 9.96559C4.05142 9.39903 3.3386 8.90945 2.57036 8.50762L3.54491 7.84561C4.45017 8.3552 5.30771 8.95256 6.2684 9.35592L5.20764 9.96405C4.40706 9.24199 3.46947 8.71238 2.53495 8.18893C2.28862 8.05037 2.43026 7.81482 2.62117 7.69011C2.85518 7.53769 3.23391 7.40683 3.5095 7.52692C4.43785 7.9272 5.2723 8.51378 6.20528 8.90329L5.09525 9.43598C4.92744 9.13884 4.50867 8.96949 4.23155 8.79244C3.79278 8.51378 3.35092 8.2382 2.91214 7.96107C2.69045 7.82097 3.05686 7.53307 3.15386 7.47765C3.38479 7.34525 3.71272 7.25287 3.97291 7.35295C4.92898 7.72398 5.81423 8.24128 6.6887 8.77243L5.62794 9.38056C5.02289 8.85248 4.34086 8.41371 3.78354 7.83021C3.60803 7.647 3.88207 7.42838 4.02525 7.34679C4.25773 7.21438 4.58257 7.12201 4.8443 7.22208C5.70954 7.55617 6.37155 8.26745 7.25834 8.55381L6.19758 9.16194C5.82193 8.85864 5.43088 8.57536 5.04598 8.28438C4.69188 8.01804 4.3578 7.7132 3.97752 7.48381C3.45869 7.16974 4.59489 6.62011 4.95207 6.8218C5.86349 7.33601 6.77184 7.85484 7.64785 8.42756C7.86647 8.57074 7.50621 8.85402 7.40614 8.91099C7.206 9.02645 6.81187 9.16963 6.58709 9.03569C5.78498 8.55689 5.02135 8.00726 4.40244 7.3006C4.2608 7.13895 4.43631 6.9465 4.57488 6.85567C4.78734 6.7171 5.08909 6.6078 5.34466 6.66014C5.85733 6.76483 6.26994 7.04041 6.68254 7.34987C7.09515 7.65932 7.53854 8.00418 7.98194 8.30902L6.83496 8.86326C6.00052 8.21818 5.11219 7.62083 4.42708 6.80794C4.08375 6.40149 5.21534 6.05817 5.48784 6.19981C6.30227 6.62165 6.90886 7.31754 7.68634 7.79172L6.62558 8.39985C5.95895 7.74861 5.23073 7.16358 4.59643 6.47847C4.424 6.29218 4.69188 6.07818 4.83814 5.99505C5.066 5.86418 5.40162 5.76411 5.65719 5.87034C6.47008 6.20751 7.10746 6.82026 7.76332 7.38836L6.61634 7.9426C6.38695 7.64546 6.14831 7.35602 5.90044 7.07428C5.57098 6.70171 6.75952 6.19365 7.04742 6.52004L7.04126 6.52158Z" fill="#FFF6A3"/>
<path id="Vector_4" d="M22.5912 9.14502C22.662 9.33593 22.7082 9.52837 22.7452 9.72852C22.7821 9.92866 22.4188 10.1581 22.2818 10.2196C22.1802 10.2658 22.0739 10.3028 21.9646 10.3243C21.8861 10.3397 21.6752 10.3551 21.609 10.2797C21.4212 10.0718 21.2564 9.8563 21.1271 9.60843C21.0147 9.39289 21.355 9.15272 21.4981 9.07112C21.6521 8.98337 22.0862 8.78938 22.2464 8.96797C22.6082 9.37288 22.9207 9.81011 23.0947 10.3289C23.2378 10.7554 22.2849 11.2034 21.9754 10.9679C21.6659 10.7323 21.5028 10.3551 21.201 10.1088L22.3203 9.46987C22.5989 9.89017 22.9499 10.2735 23.0931 10.7677C23.1686 11.0295 22.8514 11.2542 22.6467 11.3481C22.428 11.4482 22.0939 11.5575 21.9154 11.3389C21.7368 11.1203 21.5505 10.8909 21.3688 10.6661L22.5466 10.0949C22.7329 10.3644 22.9084 10.6399 23.0931 10.9109C23.2579 11.1511 23.4118 11.3666 23.4457 11.6653C23.4688 11.8716 23.1316 12.0887 22.9823 12.1564C22.7929 12.2426 22.5019 12.3458 22.3095 12.2165C21.8984 11.9393 21.6121 11.5329 21.278 11.1757L22.3972 10.5368C22.8037 11.0941 23.2948 11.6068 23.5381 12.2626C23.632 12.5167 23.2825 12.7553 23.0916 12.8431C22.8699 12.9447 22.542 13.0509 22.3603 12.8338C21.903 12.2888 21.3796 11.77 21.0917 11.1095C20.9932 10.8847 21.3072 10.6615 21.4627 10.5722C21.6182 10.4829 22.0416 10.2951 22.211 10.469C22.4927 10.7585 22.7606 11.0618 22.9977 11.3897C23.1378 11.5837 22.7436 11.8608 22.6266 11.927C22.4742 12.0132 22.0354 12.2088 21.8784 12.0302C21.5151 11.6129 21.1594 11.1649 21.0686 10.6045C21.0347 10.4028 21.3919 10.1765 21.532 10.1134C21.6336 10.0672 21.7398 10.0303 21.8492 10.0087C21.9292 9.99332 22.1355 9.97947 22.2048 10.0534C22.6913 10.5737 23.2625 11.108 23.4503 11.8192C23.5134 12.061 23.264 12.2519 23.0793 12.3566C22.8945 12.4612 22.5189 12.6229 22.331 12.4597C21.8846 12.0733 21.4797 11.6453 21.0732 11.2188L22.1324 10.5106C22.7529 11.1742 23.3733 11.8747 23.7367 12.7184C23.8337 12.9431 23.5227 13.1664 23.3656 13.2557C23.1855 13.3588 22.8098 13.5189 22.6174 13.3588C22.1478 12.9678 21.7583 12.4828 21.2272 12.1687L22.3464 11.5298C22.7775 12.0563 23.2301 12.5629 23.6889 13.0632C24.0492 13.4573 24.5573 13.8161 24.7743 14.3149C24.8729 14.5397 24.5588 14.7629 24.4033 14.8522C24.2293 14.9507 23.8414 15.1201 23.6551 14.9553C23.1963 14.5489 22.7744 14.1009 22.3218 13.6883C21.8692 13.2757 21.4058 12.9308 20.9747 12.5198C20.5836 12.1472 21.6967 11.6145 22.0339 11.8116C22.8683 12.3011 23.6058 12.9277 24.3694 13.5159C24.7666 13.8222 23.6628 14.4488 23.3102 14.2241C22.5173 13.7191 21.8384 13.0601 21.0624 12.5305L22.1217 11.8223C22.6266 12.3227 23.1947 12.7507 23.7367 13.2079C24.0184 13.445 24.2909 13.6914 24.568 13.9346C24.6835 14.0362 24.8174 14.1055 24.9252 14.2164C25.033 14.3272 25.1254 14.4581 25.1869 14.6059C25.2808 14.8322 24.9745 15.0523 24.8159 15.1432C24.6419 15.2417 24.2524 15.4111 24.0677 15.2463C23.2871 14.552 22.4496 13.9285 21.5628 13.3773L22.622 12.6691C23.2979 13.1602 23.9784 13.6483 24.7035 14.0655L23.6443 14.7737C23.2671 14.4088 22.8499 14.0932 22.4327 13.7745C22.0447 13.4789 21.6752 13.1479 21.2287 12.9401L22.2879 12.2319C22.7868 12.7876 23.3964 13.2218 23.9768 13.6867L22.8576 14.3257C22.8853 14.3595 22.8006 14.2764 22.8021 14.2795C22.7652 14.2487 22.7282 14.2194 22.6898 14.1902C22.6205 14.1378 22.5466 14.0901 22.4742 14.0439C22.3326 13.9531 22.1832 13.8715 22.0447 13.7745C21.843 13.6344 21.6275 13.4897 21.4412 13.3311C21.2687 13.1848 21.181 13.0309 20.9454 12.9785L21.9123 12.2288C22.97 13.2203 24.1185 14.107 25.1977 15.0754C25.5841 15.4218 24.4787 16.0146 24.1385 15.7836C23.6104 15.4249 23.1178 15.0185 22.5928 14.6567C22.331 14.4765 22.0616 14.3087 21.7968 14.1348C21.5613 13.9808 21.4196 13.8038 21.1271 13.7653L22.0939 13.0155C22.6851 13.5543 23.3718 13.9685 23.9999 14.4596C24.6281 14.9507 25.1962 15.5142 25.8736 15.9407L24.7543 16.5796C24.6619 16.4472 24.5249 16.4056 24.391 16.3286C24.2232 16.2316 24.0646 16.1162 23.9014 16.013C23.5519 15.7929 23.1947 15.585 22.8406 15.371C22.1324 14.943 21.4304 14.5027 20.6991 14.1147L21.7583 13.4065C22.719 14.0147 23.7274 14.5397 24.6712 15.177C25.1392 15.4927 25.6011 15.819 26.0706 16.1331C26.297 16.2855 26.5248 16.4364 26.7511 16.5873C26.8666 16.6643 26.9836 16.7397 27.1037 16.8074C27.153 16.8352 27.2053 16.8613 27.2561 16.886C27.3439 16.9291 27.4024 16.9121 27.2561 16.9352L26.4925 17.6188C26.3678 17.3678 26.1353 17.2154 25.9305 17.0338C25.849 16.9614 25.7658 16.889 25.6796 16.8228C25.6288 16.7844 25.5749 16.7489 25.521 16.7135C25.5118 16.7074 25.4548 16.6643 25.4841 16.692C25.5041 16.6997 25.5041 16.7012 25.4841 16.6935C25.3671 16.6596 25.4687 16.6473 25.7843 16.655L26.3324 15.9407C27.0021 16.4672 27.7195 16.9475 28.5093 17.2724L27.5548 17.6619C27.5271 17.6973 27.5086 17.7373 27.4994 17.7805C27.5132 17.8313 27.5132 17.8374 27.4994 17.8005C27.504 17.7974 27.4624 17.745 27.467 17.7512C27.3993 17.6835 27.3177 17.6296 27.2361 17.5788C27.1545 17.528 27.0637 17.4787 26.9744 17.434C26.9343 17.414 26.8943 17.3956 26.8527 17.3771C26.9513 17.4217 26.862 17.3817 26.8404 17.374L27.8658 16.6935C27.9274 16.9552 28.2799 17.0415 28.4708 17.22C28.8449 17.5665 27.7426 18.1915 27.4116 17.9283C26.9944 17.5957 26.591 17.1985 26.0937 16.9876L27.1191 16.3071C27.3731 16.6489 27.7749 16.8752 28.1598 17.0399L27.1345 17.7204C27.0144 17.3047 26.4648 17.1184 26.1307 16.9075C25.9044 16.7659 25.6935 16.6027 25.4671 16.461C25.2408 16.3194 24.9791 16.1839 24.762 16.1824L25.6657 15.4865C26.357 16.2855 27.2007 16.9414 28.0413 17.5742L26.922 18.2131C26.6649 17.8882 26.2031 17.7066 25.8597 17.4879C25.4333 17.2154 25.0068 16.9383 24.5249 16.772L25.5503 16.0915C25.7473 16.3918 26.0414 16.5996 26.3293 16.8059C26.6387 17.0276 26.9297 17.2539 27.1622 17.5588C27.2238 17.6388 27.1329 17.7928 27.0914 17.8513C27.0129 17.956 26.9036 18.0329 26.7927 18.0961C26.5941 18.21 26.2616 18.3409 26.0445 18.1992C25.3255 17.7281 24.6758 17.1538 23.9199 16.7397L25.0391 16.1008C25.5118 16.6581 26.1615 17.0384 26.7126 17.511C27.0929 17.8359 25.9906 18.4871 25.6534 18.2192C25.1331 17.8066 24.6065 17.4002 24.04 17.0507L25.1592 16.4118C25.3332 16.6889 25.5934 16.8767 25.8474 17.0753C26.1492 17.3124 26.4401 17.5618 26.7496 17.7897L25.6303 18.4286C25.1993 17.9313 24.6696 17.5295 24.2278 17.043C24.0846 16.886 24.197 16.7012 24.3371 16.5796C24.5449 16.3979 24.8005 16.2978 25.073 16.2794C25.5287 16.2486 25.9891 16.6242 26.3324 16.8798C26.7912 17.2231 27.2207 17.6219 27.7134 17.9159L26.5941 18.5549C26.2 18.0945 25.6811 17.7235 25.1962 17.3648C24.7112 17.0061 24.1708 16.635 23.6551 16.2732C23.1393 15.9114 22.5835 15.5419 22.0385 15.1894C21.5905 14.8999 21.0517 14.6567 20.7068 14.2394C20.6437 14.1625 20.7376 14.0024 20.7776 13.9469C20.8561 13.8422 20.9654 13.7653 21.0763 13.7021C21.278 13.5867 21.6044 13.4604 21.8245 13.599C22.5235 14.0408 23.1716 14.5566 23.8383 15.0446C24.5049 15.5327 25.1777 16.0392 25.7858 16.615C25.9875 16.8059 25.7181 17.0707 25.5503 17.1769C25.3748 17.2893 24.9298 17.5079 24.7266 17.3232C24.1523 16.8013 23.5273 16.3425 22.8899 15.9006C22.3357 15.5173 21.7968 15.0354 21.1363 14.8476L22.1032 14.0978C22.7806 14.7198 23.518 15.2663 24.2463 15.8267C24.9745 16.3871 25.7319 17.0045 26.4802 17.5865L25.421 18.2947C24.7189 17.7343 23.963 17.2493 23.2348 16.7258C22.8745 16.4672 22.5158 16.2086 22.1524 15.9545C21.9692 15.8267 21.7891 15.7005 21.6167 15.5573C21.4812 15.4449 21.3442 15.3756 21.1748 15.3341L22.1417 14.5843C23.2409 15.3418 24.2848 16.1731 25.2778 17.0646C25.6611 17.4094 24.5573 18.0145 24.2185 17.7728C23.6412 17.3602 23.0654 16.9445 22.4773 16.5473C22.194 16.3564 21.9061 16.1685 21.6213 15.9807C21.5536 15.9361 21.4689 15.8945 21.4073 15.8391C21.3503 15.7883 21.3195 15.7174 21.2672 15.6635C21.2379 15.6328 21.1333 15.5835 21.1194 15.5512C21.141 15.602 21.4289 15.488 21.2657 15.545L21.8137 14.8306C22.8899 15.7051 24.0615 16.4533 25.1423 17.3217C25.5256 17.6296 24.4264 18.2977 24.0831 18.0299C23.5042 17.5772 22.9145 17.1477 22.3049 16.7366C21.7291 16.3487 21.141 15.9638 20.4836 15.7313L21.4504 14.9815C22.8237 16.2347 24.4957 17.1184 25.8043 18.4486C26.1661 18.8166 25.0669 19.4293 24.7451 19.1568C23.9399 18.4763 23.0639 17.8913 22.1909 17.3032C21.3719 16.752 20.5544 16.167 19.6337 15.7929L20.676 15.2001C20.676 15.2679 20.6606 15.214 20.676 15.2402C20.6852 15.2556 20.716 15.3048 20.6852 15.271C20.7314 15.3218 20.7561 15.3125 20.833 15.3264C21.0486 15.3649 21.2564 15.505 21.4596 15.6328C21.8461 15.8775 22.211 16.1531 22.5743 16.4303C23.3287 17.0045 24.0477 17.6234 24.8128 18.1823L23.6936 18.8212C23.5966 18.618 23.3856 18.464 23.1763 18.3039C22.9453 18.1269 22.7052 17.9652 22.4634 17.8035C22.1725 17.6096 21.8984 17.3894 21.6198 17.1785C21.5351 17.1138 21.455 17.043 21.3627 16.9937C21.2595 16.9368 21.1548 16.8998 21.0578 16.829C20.9039 16.7151 20.7776 16.558 20.6914 16.3871C20.5821 16.1701 20.9177 15.933 21.0624 15.8498C21.278 15.7267 21.5751 15.6204 21.8107 15.7467C22.9222 16.3425 23.9214 17.1277 25.0653 17.6681L23.9553 18.1207C23.9414 18.1407 23.9383 18.1607 23.946 18.1823C23.9537 18.2085 23.9507 18.2038 23.9399 18.1684C23.926 18.1592 23.8968 18.0914 23.8845 18.076C23.8675 18.053 23.789 17.9806 23.7459 17.9452C23.6335 17.8513 23.5134 17.7681 23.3949 17.6835L24.4541 16.9753C24.9529 17.3909 25.4641 17.7912 25.9721 18.1946L24.8529 18.8335C24.7774 18.5779 24.4695 18.424 24.2755 18.2608C23.9845 18.0175 23.6812 17.7897 23.3625 17.5849C23.1224 17.431 23.4657 17.1077 23.5981 17.023C23.826 16.8767 24.1616 16.7382 24.4218 16.8767C24.993 17.1816 25.5133 17.5726 26.0953 17.8559L24.976 18.4948C24.9391 18.3516 24.8575 18.2315 24.7512 18.1299C24.6927 18.0745 24.6281 18.0222 24.5619 17.9744C24.5342 17.9544 24.5049 17.9359 24.4757 17.9175C24.4787 17.919 24.3617 17.8559 24.4079 17.8759L25.3748 17.1261C25.5072 17.2662 25.6534 17.3956 25.7981 17.5218C25.8905 17.6019 25.9829 17.6819 26.0814 17.7558C26.123 17.7866 26.1661 17.8159 26.2092 17.8451C26.3016 17.9082 26.1861 17.8374 26.1215 17.839L25.8243 17.8898L25.8336 17.8867L25.3948 18.1361L25.4025 18.1299L25.2347 18.5256C24.9267 18.1299 24.508 17.839 24.1046 17.5511C23.7013 17.2632 23.2779 16.9475 22.8083 16.7551L23.7752 16.0053C24.0523 16.2963 24.3771 16.5334 24.702 16.769L23.6428 17.4772C22.816 16.8105 21.823 16.3656 21.0809 15.5927C20.7145 15.2109 21.806 14.649 22.1401 14.8845C22.3895 15.06 22.6543 15.2078 22.913 15.3649C23.1332 15.4988 22.8499 15.7929 22.7406 15.8775C22.5512 16.0253 22.1956 16.207 21.9461 16.1131C21.4304 15.9222 20.9839 15.6251 20.5559 15.2833L21.6151 14.5751C21.7891 14.7413 21.9692 14.8999 22.1632 15.0416L21.044 15.6805C20.7915 15.3541 20.4851 15.0739 20.2742 14.7167C20.1941 14.5797 20.3542 14.4011 20.442 14.321C20.6036 14.1732 20.8207 14.0686 21.0363 14.0331C21.2364 13.9993 21.415 14.0162 21.5951 14.1117C21.706 14.1702 21.8014 14.2533 21.9154 14.3041L20.8561 15.0123C20.616 14.7506 20.1849 14.5597 20.0925 14.1902C20.0309 13.9469 20.2773 13.7591 20.4635 13.6529C20.6914 13.5236 20.9639 13.4373 21.2118 13.5497C21.4874 13.6744 21.7106 13.8653 21.9538 14.0408C22.1786 14.2025 22.3972 14.3457 22.5651 14.572C22.6867 14.7352 22.3741 15 22.271 15.0662C22.0739 15.1909 21.7783 15.3279 21.5397 15.254C21.4366 15.2217 21.3365 15.1709 21.2364 15.1262C21.0809 15.057 21.0578 15.0446 20.9162 14.9846C20.7822 14.9276 20.6452 14.8722 20.5067 14.8291C20.4528 14.8122 20.3973 14.8029 20.345 14.786C20.2526 14.7567 20.442 14.7891 20.3589 14.786L20.3358 14.786C20.4651 14.7829 20.5882 14.7521 20.7053 14.6921L20.9824 14.5073L21.1148 14.3334L21.064 14.0778C21.3349 14.378 21.6321 14.6505 21.8907 14.963C21.9538 15.04 21.8599 15.2001 21.8199 15.2556C21.7414 15.3603 21.6321 15.4372 21.5212 15.5004C21.3026 15.6251 21.0116 15.7251 20.773 15.6035C20.5344 15.4819 20.3127 15.3156 20.0648 15.2078L21.0316 14.4581C21.4766 14.8922 21.9954 15.2432 22.4465 15.6712C22.6282 15.8452 22.4203 16.07 22.2741 16.1839C22.0724 16.341 21.7429 16.4965 21.4797 16.4195C20.7838 16.2163 20.2218 15.7482 19.5922 15.4095L20.7114 14.7706C20.7668 14.9369 20.8715 14.9507 21.0009 15.0508C21.1748 15.1847 21.338 15.3387 21.5058 15.4803C21.8399 15.7621 22.1771 16.0407 22.5142 16.3179C23.1763 16.8613 23.8414 17.4033 24.451 18.0052C24.8328 18.3824 23.729 18.9228 23.3918 18.7134C22.2956 18.0299 21.3334 17.1615 20.2588 16.4472L21.318 15.739C21.7368 16.1947 22.2248 16.5734 22.699 16.9691C23.2024 17.3894 23.6982 17.8189 24.2201 18.2162L23.1609 18.9244C22.1294 17.9529 20.9285 17.1908 19.7153 16.4672L20.8346 15.8283C21.2888 16.4333 22.0062 16.8367 22.622 17.2555C23.3518 17.7512 24.1015 18.267 24.7235 18.8966C24.9175 19.0937 24.6604 19.3477 24.488 19.4586C24.2647 19.6018 23.9214 19.748 23.6643 19.6048C23.2779 19.3878 22.9561 19.0922 22.5974 18.8351C22.2063 18.5533 21.8076 18.2808 21.4058 18.016C21.0039 17.7512 20.616 17.4926 20.2249 17.2277C20.1325 17.1646 20.0386 17.1015 19.9462 17.0384C19.8354 16.9629 19.78 16.8829 19.6907 16.7874C19.6383 16.732 19.5675 16.675 19.4998 16.6396C19.4952 16.6381 19.4613 16.6227 19.452 16.6196C19.4444 16.6165 19.3258 16.5981 19.3674 16.6011L20.2126 15.8375C20.967 16.4056 21.7599 16.9214 22.5127 17.4926C22.8637 17.7589 23.1994 18.0422 23.5273 18.3362C23.8306 18.6072 24.1508 18.892 24.5326 19.046L23.5073 19.7265C23.398 19.5679 23.2594 19.4786 23.0993 19.377C22.9068 19.2569 22.7344 19.0906 22.5558 18.949C22.1925 18.6626 21.8214 18.387 21.455 18.1053C20.7822 17.5911 20.0894 17.0584 19.2919 16.7536L20.2588 16.0038C21.0701 16.5457 21.9077 17.0476 22.699 17.6188C23.4903 18.19 24.2801 18.8104 25.0684 19.4093L23.9584 19.8619C23.9337 19.9512 23.9368 19.8635 23.9029 19.8034C23.8721 19.748 23.8321 19.7003 23.7905 19.6526C23.6828 19.5325 23.5627 19.4232 23.4549 19.3031C23.1178 18.9244 22.7683 18.5564 22.4465 18.1623C22.3834 18.0853 22.4773 17.9252 22.5173 17.8697C22.5958 17.7651 22.7052 17.6881 22.816 17.625C23.0362 17.4987 23.3225 17.4017 23.5642 17.5218C24.1046 17.7897 24.5141 18.2408 24.9883 18.6026L23.8691 19.2415C23.8167 19.0598 23.6027 18.9551 23.4626 18.8443C23.0639 18.5271 24.1339 17.9667 24.4295 18.0945C24.7435 18.23 25.016 18.4579 25.3363 18.5749L24.3109 19.2554C23.9799 18.8735 23.535 18.5333 23.0639 18.3455L24.0892 17.665C24.3232 18.1684 24.799 18.4887 25.1469 18.9059C25.21 18.9829 25.1161 19.1445 25.0761 19.1984C24.9976 19.3031 24.8883 19.3801 24.7774 19.4432C24.5742 19.5587 24.2509 19.6849 24.0292 19.5463C22.4219 18.5364 20.8792 17.4264 19.255 16.4426L20.3142 15.7344C21.8522 16.9044 23.4318 18.0391 24.7559 19.4555C25.1177 19.8419 24.0307 20.4023 23.6966 20.1637C21.863 18.8551 20.0756 17.4633 18.0572 16.4441L19.1164 15.7359C20.519 16.7012 21.8923 17.7081 23.2486 18.735C23.4734 18.9059 23.1593 19.203 23.0131 19.2969C22.8006 19.4324 22.4342 19.5971 22.1894 19.4432C21.0024 18.6934 19.8724 17.8528 18.6268 17.2016L19.6861 16.4934C20.3819 17.043 21.0901 17.5757 21.8122 18.0899C22.4773 18.5626 23.1932 18.9829 23.7752 19.5633C24.1477 19.9343 23.05 20.5101 22.7159 20.2715C21.1871 19.1815 19.6491 18.0853 17.9464 17.2786L19.0056 16.5704C19.8539 17.2047 20.753 17.7681 21.6275 18.3655C22.0555 18.658 22.4773 18.9582 22.8822 19.28C23.0423 19.4062 23.187 19.5433 23.3379 19.6787C23.4164 19.748 23.498 19.8204 23.5889 19.8712C23.595 19.8743 23.6766 19.9174 23.6751 19.9097C23.6735 19.9004 23.5442 19.9297 23.5427 19.9297L22.9176 20.487C22.9807 20.2376 22.6282 20.0482 22.4527 19.8943C22.117 19.5987 21.7645 19.3246 21.3888 19.0845L22.448 18.3763C23.0716 19.009 23.7813 19.5448 24.5311 20.0174L23.4118 20.6564C23.184 20.3515 22.9038 20.0944 22.5866 19.885C22.3218 19.7111 22.0955 19.4309 21.786 19.397L22.6313 18.6334C22.9807 18.9906 23.401 19.2631 23.7182 19.6556C23.7813 19.7326 23.6874 19.8927 23.6474 19.9482C23.5689 20.0529 23.4595 20.1298 23.3487 20.193C23.1578 20.3023 22.8083 20.4454 22.6005 20.2961C22.0293 19.8835 21.4381 19.5001 20.8592 19.0968C20.6899 18.9782 20.5267 18.852 20.3527 18.7411C20.2557 18.6796 20.1572 18.6164 20.0525 18.5703C20.0987 18.5903 19.9693 18.5456 19.9601 18.5395C19.9078 18.5287 19.9139 18.5271 19.9817 18.5364C19.8785 18.5348 19.9401 18.521 20.1649 18.4979L20.713 17.7835C21.6398 18.6288 22.7652 19.2199 23.5827 20.1868C23.6474 20.2622 23.5504 20.4254 23.5119 20.4793C23.4334 20.584 23.3241 20.661 23.2132 20.7241C23.0315 20.8273 22.6605 20.9843 22.465 20.8273C21.4504 20.0082 20.4497 19.1568 19.2735 18.5718L20.3927 17.9329C20.7268 18.3686 21.2426 18.6334 21.686 18.9397C22.2233 19.3092 22.7529 19.6911 23.2455 20.1191C23.6335 20.4562 22.5281 21.0597 22.1863 20.8273C21.6998 20.4978 21.2487 20.1252 20.7499 19.8096C20.2511 19.494 19.7045 19.1645 19.1795 18.8428L20.2988 18.2038C20.636 18.658 21.1794 18.9505 21.6305 19.2769C22.1247 19.6341 22.6112 19.9867 23.0023 20.4608C23.0654 20.5378 22.9715 20.6979 22.9315 20.7534C22.853 20.858 22.7436 20.935 22.6328 20.9981C22.4265 21.1152 22.1093 21.2368 21.8846 21.1013C21.0316 20.5871 20.2311 19.9928 19.3935 19.4555L20.4528 18.7473C21.3934 19.4447 22.4527 19.9805 23.2117 20.8965C23.341 21.052 23.0131 21.3292 22.9176 21.3907C22.7313 21.5093 22.4126 21.6663 22.1863 21.5786C21.6413 21.3661 21.1717 21.012 20.7053 20.6641C20.5482 20.5471 20.3973 20.4239 20.2357 20.3146C20.1464 20.2545 20.0509 20.1914 19.9524 20.1468C19.9971 20.1668 19.8893 20.1268 19.8908 20.1268C19.8662 20.1191 19.8431 20.1144 19.8185 20.1098C19.9031 20.1314 19.9894 20.1221 20.074 20.0836L20.6221 19.3693C21.0101 19.8019 21.4596 20.176 21.9215 20.527C22.2756 20.7965 22.7036 21.012 22.9315 21.4108C23.0516 21.6201 22.6959 21.8711 22.5604 21.9481C22.3418 22.0728 22.0508 22.1728 21.8122 22.0512C21.0424 21.6555 20.3804 21.0936 19.6753 20.5994L20.7946 19.9605C21.044 20.3115 21.472 20.5455 21.7953 20.8257C22.2125 21.186 22.6297 21.5447 23.0531 21.8973C23.4349 22.2159 22.3341 22.8703 21.9939 22.6055C21.355 22.1082 20.7083 21.6217 20.0648 21.1306L21.1841 20.4916C21.569 21.0459 22.1771 21.3984 22.6944 21.8141C22.913 21.9896 22.6112 22.2791 22.4588 22.3761C22.2371 22.5177 21.8892 22.6686 21.6352 22.5223C21.0948 22.2113 20.5944 21.8049 20.0078 21.5816L20.9747 20.8319C21.4843 21.3877 22.0986 21.8249 22.6697 22.3129C23.0531 22.6409 21.9508 23.2752 21.6105 23.0211C21.2025 22.7178 20.8377 22.3622 20.4589 22.0235C20.0802 21.6848 21.1871 21.0428 21.5181 21.3153C21.9308 21.6571 22.3372 22.0066 22.6959 22.4053C22.8791 22.6101 22.642 22.8518 22.4604 22.9673C22.2233 23.1181 21.9061 23.2428 21.6367 23.1135C21.2302 22.918 20.9347 22.5623 20.5328 22.3607L21.6521 21.7217C21.8738 21.9835 22.1386 22.2082 22.3726 22.4592C22.542 22.6424 22.3588 22.8502 22.2002 22.9719C21.9846 23.1397 21.6829 23.2644 21.4058 23.2074C21.1594 23.1566 20.9901 23.0042 20.833 22.821C20.7684 22.7456 20.8654 22.5824 20.9039 22.5285C20.9824 22.4238 21.0917 22.3468 21.2025 22.2837C21.3734 22.1867 21.7691 22.0143 21.9508 22.1805C22.2033 22.413 22.485 22.6347 22.6482 22.9442C22.7606 23.1597 22.4188 23.3999 22.2772 23.4815C22.0955 23.5862 21.7244 23.7417 21.5289 23.5846C21.258 23.3675 20.9916 23.1443 20.7022 22.9534L21.8384 22.4022C21.8399 22.5716 21.9677 22.7302 22.0647 22.8626C22.1786 23.0181 22.3064 23.1643 22.3911 23.3398C22.4973 23.56 22.1694 23.7925 22.02 23.8771C21.8122 23.9957 21.4981 24.1142 21.2718 23.9803C21.1302 23.8956 21.0409 23.7524 20.8946 23.6739L22.0139 23.035C22.1232 23.2659 22.3095 23.4399 22.445 23.6539C22.5804 23.8679 22.2002 24.1189 22.0739 24.1912C21.8707 24.3067 21.5474 24.4329 21.3257 24.2944C21.0347 24.1127 20.83 23.834 20.6283 23.5615L21.806 22.9903C21.883 23.3814 22.1217 23.7247 22.4727 23.9141L21.4258 24.262C21.4627 24.2097 21.492 24.1081 21.4981 23.9895C21.5058 23.854 21.492 23.717 21.4658 23.5862C21.4088 23.3013 21.3041 23.0288 21.2272 22.7502L22.3341 22.47C22.3942 22.3761 22.3588 22.45 22.3572 22.5192C22.3572 22.5854 22.3634 22.6516 22.3711 22.7163C22.3911 22.8656 22.428 23.0119 22.4527 23.1597C22.5142 23.5292 22.4881 23.9048 22.602 24.2666L21.4319 24.65C21.589 24.1404 21.4658 23.5554 21.4504 23.0335C21.4335 22.4561 21.435 21.8973 21.5859 21.3369C21.6721 21.0182 22.7298 20.5286 22.7729 21.0413C22.8206 21.6248 22.7436 22.2267 22.8776 22.8025L21.7075 23.1859C22.0308 22.6301 21.8923 21.9203 21.9369 21.3061L23.1486 20.9119C23.1193 21.1891 23.0639 21.4631 23.0608 21.7433L21.8738 22.0389C21.9538 21.7695 22.017 21.4939 22.1217 21.2322C22.2356 20.9443 23.2502 20.4008 23.3087 20.9366C23.3395 21.2168 23.2117 21.4816 23.03 21.6879C22.7944 21.9542 22.3372 22.2129 21.9831 22.0358C21.4366 21.7633 21.1286 21.2245 21.0024 20.644C20.9331 20.3223 21.355 20.0744 21.6105 19.999C21.9677 19.8943 22.4557 19.8358 22.7544 20.1221C22.853 20.2176 22.9931 20.2468 23.0931 20.35C23.1994 20.4593 23.2409 20.5825 23.2348 20.7364C23.2286 20.935 22.9946 21.1013 22.8468 21.1844C22.6821 21.2783 22.3865 21.4077 22.1925 21.3292C21.6305 21.1028 21.1748 20.6964 20.6237 20.4547L21.649 19.7742C21.7999 20.0359 22.0247 20.2407 22.2202 20.4685C22.3526 20.621 22.0185 20.9027 21.9261 20.9627C21.7475 21.0767 21.4119 21.246 21.1948 21.1506C20.4759 20.8319 19.9031 20.3161 19.2704 19.8619C18.6376 19.4078 18.0757 18.8843 17.3721 18.6272L18.3389 17.8774C18.867 18.2238 19.4105 18.5456 19.9386 18.892C20.4666 19.2384 20.9593 19.6249 21.4874 19.9682L20.4281 20.6764C19.8785 20.2592 19.3104 19.8727 18.7469 19.4755C18.576 19.3539 18.4128 19.2215 18.2389 19.1045C18.1434 19.0398 18.0449 18.9752 17.9402 18.9244C17.894 18.9028 17.8894 18.9105 17.8293 18.8828C17.7755 18.872 17.777 18.8689 17.837 18.8766C17.814 18.8751 17.7909 18.8751 17.7678 18.8766L18.613 18.113C19.4736 18.8658 20.4189 19.514 21.3011 20.2422C21.689 20.564 20.5867 21.1937 20.2418 20.9504C19.3366 20.3146 18.5175 19.5694 17.6677 18.8628L18.7269 18.1546C19.5983 19.1353 20.6298 19.9512 21.5874 20.8427L20.5282 21.5509C19.5983 20.6086 18.6268 19.7049 17.5368 18.9505L18.5961 18.2423C19.4228 18.9274 20.3173 19.5217 21.2118 20.1129L20.0756 20.6641C20.071 20.701 20.1187 20.7457 20.0725 20.6933C20.054 20.6718 20.0371 20.6456 20.0202 20.6225C20.0663 20.6841 20.0171 20.621 19.9817 20.584C19.9463 20.5471 19.9108 20.5132 19.8739 20.4778C19.6861 20.2992 19.489 20.1329 19.2904 19.9666C19.0164 19.7388 18.7377 19.4632 18.4298 19.2815L18.6438 19.3385C18.9455 19.106 19.2473 18.8751 19.5475 18.6426C19.5352 18.6288 19.4613 18.5533 19.5121 18.5949C19.8924 18.9074 18.7916 19.5787 18.4529 19.3031C17.8571 18.8197 17.2166 18.3917 16.6593 17.8605C16.2744 17.4926 17.3798 16.9383 17.7185 17.1523C18.8978 17.9005 20.0201 18.735 21.1733 19.5232L20.1141 20.2314C19.5691 19.6972 18.9717 19.2261 18.3651 18.7627C17.8478 18.367 17.2474 18.0391 16.8471 17.5156C16.7855 17.4356 16.8764 17.2816 16.9179 17.2231C16.9964 17.1184 17.1058 17.0415 17.2166 16.9783C17.4183 16.8629 17.7447 16.7351 17.9648 16.8752C18.5899 17.2724 19.2073 17.6804 19.8323 18.0776C20.3004 18.3747 20.8346 18.5887 21.1902 19.0306C21.2533 19.1091 21.161 19.2677 21.1194 19.3231C21.0409 19.4278 20.9316 19.5048 20.8207 19.5679C20.6298 19.6772 20.2803 19.8204 20.0725 19.671C19.4967 19.2554 18.9532 18.7981 18.4098 18.3424C17.971 17.9744 17.4429 17.685 17.1165 17.2C16.9826 17.0014 17.3644 16.732 17.4876 16.6627C17.7093 16.5365 17.9941 16.441 18.2358 16.5596C19.1364 17.003 19.9817 17.5449 20.8561 18.0345L19.7969 18.7427C19.0795 18.1453 18.2881 17.6465 17.5199 17.1154C17.309 16.9691 17.5722 16.6951 17.6923 16.6027C17.9017 16.441 18.2158 16.2994 18.4867 16.3671C19.0903 16.5165 19.6476 16.8105 20.2619 16.9183L19.295 17.6681C18.8424 17.3678 18.3636 17.1677 17.837 17.0415L18.8624 16.361C19.024 16.8644 19.6045 17.12 20.0171 17.394C20.208 17.5187 20.3989 17.6465 20.5713 17.7958C20.7437 17.9452 20.9408 18.1269 20.8361 18.3716C20.7576 18.5518 20.5682 18.6811 20.3989 18.7642C20.2526 18.8351 19.9847 18.9382 19.82 18.8658C19.2042 18.5933 18.6007 18.2962 17.9941 18.0037C17.4383 17.7358 16.8841 17.4171 16.2836 17.2662L17.2505 16.5165C17.8001 16.889 18.3728 17.2447 18.9502 17.5726C19.1364 17.6788 19.3243 17.7805 19.5013 17.9021C19.6553 18.0083 19.877 18.1592 19.9247 18.3501C19.977 18.5579 19.7923 18.7396 19.6306 18.8443C19.4505 18.9598 19.1195 19.126 18.8993 19.0321C17.6985 18.5148 16.5392 17.899 15.3106 17.4433L16.2775 16.6935C17.4383 17.2493 18.5868 17.8467 19.6199 18.6211C19.8462 18.7904 19.5306 19.0891 19.3843 19.183C19.1426 19.337 18.8347 19.454 18.5606 19.3293C17.8986 19.0275 17.2412 18.7134 16.5777 18.4148C15.9957 18.1546 15.366 17.9683 14.8395 17.6003C14.6286 17.4541 14.8919 17.18 15.0119 17.0876C15.2213 16.926 15.5354 16.7844 15.8064 16.8521C17.0811 17.1677 18.2866 17.7296 19.429 18.367C19.5968 18.4609 19.4474 18.6934 19.3674 18.7796C19.2134 18.9459 18.9532 19.0999 18.7238 19.1199C18.4944 19.1399 18.2835 19.146 18.0634 19.0891C17.8802 19.0398 17.717 18.9397 17.5399 18.8782C17.1504 18.7411 16.764 18.5949 16.3806 18.4409C15.5908 18.1222 14.8103 17.7851 14.0158 17.4818L14.9827 16.732C15.9665 17.2108 17.0118 17.5618 17.9541 18.1269C18.1419 18.2392 17.9448 18.504 17.8447 18.5903C17.6508 18.7596 17.3721 18.8997 17.1088 18.8905C16.4376 18.8689 15.8264 18.6241 15.2044 18.3947C14.5824 18.1653 13.9204 17.9252 13.2938 17.6465C13.1999 17.6049 13.2137 17.4618 13.243 17.3909C13.2861 17.2847 13.3785 17.2016 13.4662 17.1338C13.6587 16.9845 14.0081 16.8074 14.2606 16.8983C14.6979 17.0553 15.1382 17.2 15.5785 17.3494C15.851 17.4417 15.7248 17.7127 15.5631 17.8544C15.3429 18.0468 15.0042 18.2069 14.7056 18.1392C14.1482 18.0145 13.6233 17.7882 13.1167 17.5295C12.8843 17.411 13.1922 17.0907 13.2892 17.0168C13.4755 16.8721 13.8372 16.6843 14.0836 16.7813C15.8141 17.4602 17.4675 18.3147 19.1872 19.0183L18.2204 19.768C17.6 19.3477 16.9395 18.9921 16.259 18.6796C15.6432 18.3978 14.9596 18.2439 14.3946 17.8574C14.1837 17.7127 14.4485 17.4371 14.567 17.3448C14.7718 17.1862 15.0951 17.0353 15.3614 17.1092C16.3822 17.3894 17.3459 17.8313 18.302 18.2762C18.5391 18.387 18.2189 18.7196 18.1296 18.7889C17.9279 18.9459 17.5984 19.1014 17.3351 19.0244C16.8163 18.872 16.3483 18.5933 15.871 18.3439C15.3938 18.0945 14.8811 17.8236 14.413 17.5141C14.2822 17.4279 14.3453 17.2493 14.4254 17.1538C15.0273 16.4487 15.948 16.6766 16.7008 16.9445C17.5461 17.2447 18.379 17.5772 19.2227 17.879L18.2558 18.6288C17.8447 18.2654 17.3228 18.0437 16.8425 17.7882C16.4299 17.5695 15.9834 17.3586 15.7294 16.946C15.6216 16.772 15.908 16.5257 16.0234 16.4518C16.2205 16.3256 16.5161 16.1916 16.7547 16.264C17.5137 16.498 18.2681 16.752 19.0271 16.9876L18.0603 17.7373C17.6723 17.5079 17.2905 17.2678 16.9349 16.9891C16.767 16.8567 16.9241 16.6258 17.0442 16.5257C17.3151 16.2994 17.66 16.1393 18.0203 16.1593C18.2635 16.1731 18.479 16.2701 18.6961 16.3702C18.787 16.4118 18.8239 16.4303 18.8686 16.4487C18.9578 16.4841 19.0471 16.5211 19.1364 16.5596C19.2411 16.6058 19.3458 16.652 19.4536 16.6904C19.5059 16.7089 19.5583 16.7258 19.6122 16.7382C19.6368 16.7443 19.663 16.7505 19.6876 16.7536C19.6476 16.7459 19.6537 16.7428 19.7061 16.7459L18.8609 17.5095C18.4713 17.2124 17.8032 17.0599 17.7247 16.498C17.6985 16.3132 17.9941 16.1177 18.1126 16.05C18.3035 15.9407 18.5452 15.8545 18.7669 15.9053C19.3628 16.0407 19.86 16.3841 20.3681 16.7028L19.3089 17.411C19.0133 17.1 18.6499 16.8552 18.4344 16.4749C18.3574 16.3394 18.5114 16.1577 18.6022 16.0792C18.9271 15.8021 19.332 15.6697 19.7523 15.7451C19.86 15.7652 19.9647 15.799 20.071 15.8314C20.1218 15.8468 20.1726 15.8652 20.2234 15.8791C20.2526 15.8868 20.4189 15.9145 20.2834 15.9022L19.4382 16.6658C19.1903 16.4764 18.887 16.3548 18.7269 16.0715C18.6253 15.8914 18.8993 15.6559 19.021 15.5773C19.2242 15.4465 19.5059 15.3264 19.7523 15.3895C20.1541 15.4927 20.4913 15.7313 20.8592 15.9145L19.8 16.6227C19.5675 16.458 19.1195 16.3717 19.0502 16.0469C18.9717 15.682 19.5121 15.3941 19.8138 15.3633C20.1957 15.3248 20.6575 15.2971 20.9624 15.5758C21.1487 15.7451 20.9331 15.9776 20.7899 16.0885C20.5759 16.2547 20.2711 16.3841 19.9955 16.324C19.8015 16.2825 19.6414 16.1639 19.4567 16.1008L20.4235 15.351C20.619 15.485 20.8284 15.5927 21.0347 15.7067C21.2179 15.8083 21.3811 15.9699 21.5736 16.0515L20.716 16.3363C20.6421 16.3918 20.599 16.4626 20.5852 16.5457C20.5867 16.5272 20.5883 16.5088 20.5852 16.4903C20.5806 16.4518 20.5806 16.4503 20.5867 16.4826C20.5806 16.4595 20.5744 16.4349 20.5682 16.4118C20.5359 16.3055 20.4959 16.2024 20.4605 16.0992C20.3866 15.8852 20.3111 15.6528 20.4097 15.4342C20.5082 15.2155 20.7838 15.0431 21.0086 14.9769C21.1933 14.9215 21.4473 14.8738 21.5782 15.0508C21.7768 15.3202 21.9523 15.585 22.251 15.7528L21.1148 16.304C21.1363 16.187 21.141 16.09 21.0917 15.9807C21.0378 15.8606 20.9577 15.759 20.9085 15.6343C20.8099 15.3849 20.7591 15.1155 20.7407 14.8476C20.7268 14.6428 21.047 14.4211 21.2041 14.3565C21.475 14.2441 21.746 14.1563 22.0385 14.241L21.0132 14.9215C20.9331 14.7552 20.9839 14.5935 21.104 14.4596C21.2518 14.2949 21.4289 14.1748 21.6398 14.1055C21.7799 14.0609 22.02 14.0054 22.1509 14.1117C22.8745 14.7029 23.1501 15.5896 23.6535 16.3456C23.7105 16.4303 23.6289 16.575 23.5827 16.6381C23.4934 16.7582 23.3425 16.8644 23.2086 16.926C23.0115 17.0168 22.6313 17.1492 22.4773 16.9168C22.0123 16.2193 21.7614 15.3649 21.0932 14.8199L22.1401 14.4719L22.1925 14.3503C22.2833 14.5366 22.0293 14.7598 21.8984 14.8445C21.6998 14.9723 21.4088 15.1016 21.1671 15.0323L21.2379 15.0246L21.5551 14.9199L21.492 14.9461L21.9554 14.455C21.9723 14.7075 22.0277 14.9569 22.1417 15.1863C22.2648 15.4342 22.3849 15.6204 22.331 15.9114C22.2556 16.3163 21.5628 16.6673 21.1948 16.4626C20.85 16.2701 20.6344 15.9345 20.405 15.6251L21.5751 15.2417C21.5536 15.291 21.5797 15.2386 21.5767 15.2217C21.5797 15.2448 21.5751 15.2756 21.5767 15.3002C21.5797 15.3572 21.5828 15.3464 21.6028 15.4126C21.6398 15.5327 21.6875 15.6497 21.726 15.7698C21.8261 16.0715 21.8307 16.3379 21.5597 16.5596C21.3642 16.7197 20.9716 16.9583 20.7022 16.8444C20.4574 16.7412 20.2634 16.5796 20.0355 16.4487C19.8077 16.3179 19.5798 16.207 19.3658 16.0592C19.1518 15.9114 19.4197 15.6389 19.5383 15.5465C19.7338 15.3957 20.0771 15.2232 20.3327 15.311C20.5174 15.3741 20.6806 15.4927 20.8715 15.5342L19.9047 16.284C19.8354 16.2209 19.7553 16.1762 19.6845 16.1639C19.6784 16.1639 19.5921 16.1577 19.5583 16.1577C19.5321 16.1577 19.5059 16.1577 19.4782 16.1593C19.5336 16.1531 19.529 16.1531 19.4674 16.1593L20.2311 15.4757C20.2388 15.5111 20.248 15.5388 20.2665 15.5681C20.248 15.5388 20.2696 15.5712 20.2819 15.582C20.3388 15.6358 20.4127 15.6743 20.482 15.7113C20.6083 15.779 20.7437 15.8314 20.8623 15.9145C21.0932 16.0777 20.7668 16.3871 20.6267 16.4764C20.3927 16.6258 20.0694 16.7551 19.8031 16.6227C19.4967 16.4703 19.218 16.2686 18.8839 16.1808L19.9093 15.5004C20.0294 15.7128 20.3127 15.8144 20.502 15.9591C20.6745 16.09 20.5082 16.3225 20.3927 16.4226C20.2064 16.5857 19.9139 16.7459 19.6568 16.7228C19.489 16.7074 19.3381 16.6658 19.1795 16.615C19.1103 16.5934 19.0425 16.5734 18.9732 16.555C18.9517 16.5488 18.9286 16.5442 18.907 16.5396L18.9425 16.5396C18.9286 16.5396 18.9163 16.5396 18.9024 16.5396C18.9563 16.5365 19.0087 16.5272 19.061 16.5134L19.3735 16.361L19.449 16.2994L19.6168 15.9037C19.8015 16.2286 20.1202 16.4364 20.3742 16.7043C20.7468 17.0969 19.6522 17.6234 19.315 17.4125C18.8609 17.1292 18.4298 16.8198 17.9002 16.6981L18.9425 16.1054C18.9348 16.05 18.9732 16.1593 18.984 16.1778C19.0056 16.2116 19.0148 16.2178 19.0595 16.2578C19.1472 16.3348 19.2473 16.3979 19.3458 16.458C19.5383 16.5734 19.7461 16.6673 19.9247 16.8028C20.1033 16.9383 19.9309 17.1662 19.8154 17.2662C19.6122 17.4433 19.3504 17.5572 19.0795 17.5665C18.7038 17.5803 18.3728 17.3879 18.0356 17.2539C17.894 17.197 17.7585 17.1292 17.6184 17.0692C17.5815 17.0522 17.4999 17.0199 17.4429 17.003C17.4137 16.9937 17.3844 16.9876 17.3552 16.9799C17.3059 16.9706 17.2982 16.9691 17.3321 16.9753C17.5307 17.0153 17.7154 16.9398 17.8879 16.7474L17.9972 16.284C18.3528 16.5627 18.7331 16.8028 19.1226 17.0322C19.3458 17.1631 19.0564 17.4618 18.9502 17.5449C18.75 17.7004 18.4159 17.862 18.1557 17.7805C17.3967 17.5464 16.6423 17.2924 15.8833 17.0569L16.9087 16.3764C17.1304 16.7351 17.5907 16.9137 17.9479 17.1061C18.4144 17.3571 18.9178 17.5695 19.3181 17.9221C19.7184 18.2747 18.6407 18.775 18.3513 18.6719C17.5676 18.3917 16.7855 18.0991 16.008 17.8035C15.7925 17.7219 15.5739 17.6465 15.3522 17.5849C15.2213 17.5495 15.0905 17.5218 14.9581 17.4972C14.8487 17.4772 15.0473 17.4926 14.9442 17.4972C14.9257 17.4972 14.9011 17.4972 14.8826 17.4941C14.7887 17.4772 14.9981 17.4725 14.9149 17.4895C15.1228 17.4494 15.3245 17.3294 15.463 17.1692L15.4753 16.809C15.9234 17.1046 16.3945 17.3571 16.8702 17.6049C17.3074 17.8343 17.7339 18.0961 18.2112 18.2362L17.2443 18.9859C16.3483 18.5687 15.4461 18.1638 14.49 17.9021L15.4569 17.1523C16.0157 17.5357 16.7085 17.6942 17.3213 17.9744C18.0018 18.287 18.6623 18.6411 19.2827 19.0629C19.4952 19.2076 19.2288 19.4848 19.1103 19.5756C18.9255 19.7188 18.5591 19.9112 18.3159 19.8111C16.5962 19.1076 14.9427 18.2531 13.2122 17.5742L14.179 16.8244C14.627 17.0538 15.0889 17.2416 15.5816 17.3525L14.7086 18.1438C14.2683 17.996 13.828 17.8497 13.3908 17.6927L14.3576 16.9429C14.9196 17.1939 15.5031 17.3956 16.0804 17.608C16.6146 17.8051 17.1658 18.0545 17.7431 18.073L16.8979 18.8366C15.9557 18.2716 14.9103 17.9206 13.9265 17.4417C13.691 17.3278 14.0066 17.0014 14.099 16.9291C14.2868 16.7828 14.6455 16.5981 14.8934 16.6935C15.6432 16.9783 16.3822 17.294 17.1242 17.5972C17.4845 17.745 17.8478 17.8836 18.2127 18.016C18.4036 18.0853 18.5945 18.1453 18.7746 18.2362C18.8393 18.2685 18.9009 18.2947 18.9717 18.3085C18.9717 18.3085 19.1349 18.3208 19.0764 18.3255L18.3728 19.0783C17.2859 18.4733 16.1481 17.9467 14.9365 17.6465L15.9033 16.8967C16.4283 17.2616 17.0626 17.451 17.6415 17.7112C18.3066 18.0083 18.9625 18.3239 19.6245 18.6257L18.5653 19.3339C17.5322 18.5595 16.3837 17.9621 15.2229 17.4063C14.9873 17.2939 15.3029 16.9645 15.3953 16.8937C15.5847 16.7459 15.9403 16.5642 16.1897 16.6581C17.4183 17.1138 18.576 17.7296 19.7784 18.2469L18.7531 18.9274C18.7161 18.7781 18.5668 18.6934 18.4098 18.5887C18.2358 18.4717 18.051 18.3732 17.8694 18.2685C17.3028 17.9436 16.7378 17.5942 16.1974 17.2277C15.9849 17.083 16.2513 16.8059 16.3698 16.7151C16.5777 16.5534 16.8933 16.4118 17.1643 16.4795C17.7832 16.635 18.3543 16.9599 18.9271 17.2339C19.5183 17.5172 20.1033 17.8128 20.7022 18.0776L19.6845 18.5718C19.6814 18.581 19.6553 18.6965 19.6799 18.6965C19.6799 18.6965 19.666 18.6611 19.663 18.658C19.6507 18.6426 19.6399 18.6226 19.6276 18.6057C19.5998 18.5656 19.6645 18.6457 19.626 18.6057C19.5506 18.5287 19.4659 18.4609 19.3797 18.3947C19.2165 18.2716 19.0441 18.1607 18.8747 18.0468C18.4375 17.7543 17.8663 17.4741 17.6923 16.9383C17.6277 16.7366 17.8355 16.5411 17.9864 16.4441C18.1927 16.3117 18.4683 16.1978 18.7177 16.2563C19.3058 16.3964 19.86 16.6319 20.3635 16.966C20.5775 17.1077 20.3065 17.3894 20.191 17.4787C19.9709 17.6496 19.6784 17.7651 19.3966 17.7143C18.7823 17.6065 18.225 17.3109 17.6215 17.1631L18.5884 16.4133C19.3566 16.9429 20.1464 17.4417 20.8654 18.0406C21.0809 18.2192 20.7853 18.5025 20.6298 18.6026C20.4066 18.7458 20.0633 18.892 19.8062 18.7488C18.9317 18.2593 18.0849 17.7173 17.1858 17.2739L18.3051 16.635C18.6007 17.0753 19.1349 17.3509 19.5352 17.6865C20.0602 18.1269 20.5867 18.5672 21.1425 18.969L20.0232 19.6079C19.8754 19.4232 19.6383 19.2923 19.4382 19.1738C19.198 19.0321 18.9548 18.8997 18.7208 18.7504C18.1172 18.3655 17.5199 17.9729 16.9164 17.5895L18.0356 16.9506C18.2189 17.1908 18.479 17.3725 18.7238 17.5464C18.9825 17.7296 19.2411 17.9129 19.4921 18.1053C20.0787 18.5533 20.6575 19.0136 21.1856 19.5309C21.5628 19.9004 20.4635 20.4685 20.1264 20.2391C18.9732 19.4509 17.8509 18.6164 16.6716 17.8682L17.7308 17.16C18.2866 17.6912 18.9286 18.1192 19.5244 18.6026L18.4652 19.3108C18.4313 19.2831 18.4159 19.2631 18.3821 19.2215C18.2666 19.0845 18.5375 18.8351 18.613 18.7766C18.7854 18.6426 19.0579 18.5025 19.2858 18.5256C19.4875 18.5472 19.5952 18.6518 19.7476 18.7719C19.9601 18.9382 20.1695 19.1076 20.3758 19.28C20.5821 19.4524 20.7915 19.6295 20.9855 19.8188C21.0963 19.9266 21.3195 20.099 21.298 20.2792C21.2718 20.5039 21.0224 20.6841 20.8346 20.7703C20.6468 20.8565 20.3558 20.9581 20.1618 20.8303C19.2673 20.2391 18.3728 19.6449 17.5461 18.9598C17.1566 18.6365 18.2604 18.0129 18.6053 18.2516C19.6953 19.0059 20.6668 19.9112 21.5967 20.8519C21.7907 21.049 21.5335 21.303 21.3611 21.4138C21.1887 21.5247 20.7376 21.7464 20.5374 21.5601C19.5798 20.6687 18.5483 19.8527 17.6769 18.872C17.3305 18.4825 18.4128 17.8959 18.7362 18.1638C19.586 18.8705 20.405 19.6156 21.3103 20.2515L20.2511 20.9597C19.3705 20.2314 18.4236 19.5848 17.563 18.8304C17.4013 18.6888 17.5476 18.4763 17.6723 18.367C17.8786 18.1869 18.1357 18.0822 18.4082 18.0668C18.924 18.0391 19.372 18.4517 19.76 18.735C20.3358 19.1553 20.93 19.5463 21.4997 19.9774C21.8953 20.2776 20.7946 20.9166 20.4405 20.6856C19.9139 20.3423 19.4182 19.9543 18.8916 19.6095C18.3651 19.2646 17.8201 18.9413 17.292 18.5949C17.0765 18.4548 17.349 18.1715 17.4645 18.0822C17.6554 17.9344 18.0079 17.7543 18.2589 17.8467C19.0071 18.1192 19.606 18.6411 20.2465 19.0952C20.8454 19.5202 21.4027 20.0698 22.0816 20.37L21.0563 21.0505C20.8592 20.8226 20.6375 20.6194 20.4851 20.3561C20.3819 20.1776 20.6591 19.9389 20.7792 19.8619C20.9593 19.748 21.2918 19.5787 21.5105 19.6741C22.0601 19.9158 22.5235 20.3238 23.0793 20.5486L22.037 21.1413C22.0416 20.9889 21.9338 21.0182 21.7999 20.9289C21.7321 20.8827 21.6844 20.8057 21.6059 20.7688C21.5058 20.7195 21.4704 20.7626 21.5843 20.7287L22.1925 20.0836C22.3079 20.6179 22.5497 21.0874 23.0546 21.3384L22.0077 21.6863C22.1016 21.5801 22.1278 21.5108 22.1093 21.3415L23.2963 21.0459C23.1917 21.3076 23.1285 21.5816 23.0485 21.8526C22.9746 22.1051 22.5958 22.2744 22.3711 22.3299C22.2094 22.3699 21.8584 22.4038 21.8615 22.1482C21.8646 21.868 21.92 21.5955 21.9492 21.3168C21.9785 21.0382 22.331 20.8319 22.5743 20.7595C22.7267 20.7149 23.1824 20.6333 23.1609 20.9227C23.1116 21.6094 23.244 22.3776 22.8807 23.0011C22.7529 23.2213 22.5266 23.386 22.2818 23.4584C22.1586 23.4953 21.7583 23.5862 21.7121 23.3845C21.5628 22.7425 21.6259 22.0974 21.5736 21.4462L22.7606 21.1506C22.6189 21.6771 22.6605 22.2498 22.679 22.7871C22.699 23.3583 22.7775 23.9064 22.6051 24.4637C22.5373 24.6823 22.2063 24.8625 22.0062 24.921C21.8722 24.961 21.4981 25.0472 21.4366 24.8471C21.3026 24.4175 21.3288 23.9772 21.2503 23.54C21.181 23.152 21.0871 22.821 21.3134 22.4669C21.435 22.2744 21.7198 22.1451 21.9277 22.0943C22.0416 22.0666 22.3711 22.0127 22.4203 22.1882C22.6143 22.8841 22.9453 23.6247 22.4758 24.2851C22.2787 24.5638 21.7537 24.8086 21.4289 24.6331C21.0393 24.4237 20.7283 24.008 20.6437 23.5738C20.5913 23.3044 20.8685 23.095 21.0901 22.9934C21.2995 22.898 21.6552 22.7763 21.8214 23.0027C21.9877 23.229 22.1555 23.4445 22.4019 23.5985L21.2826 24.2374C21.1456 24.0249 20.9593 23.8494 20.8515 23.6185C20.7437 23.3876 21.0732 23.1674 21.2226 23.0812C21.4381 22.958 21.7352 22.8533 21.9708 22.978C22.117 23.0565 22.2063 23.1997 22.348 23.2844L21.2287 23.9233C21.044 23.54 20.6468 23.2675 20.6421 22.8087C20.6406 22.5931 20.9393 22.393 21.1055 22.3176C21.2949 22.2298 21.5843 22.1297 21.7783 22.2575C22.0678 22.45 22.3341 22.6717 22.6051 22.8887L21.4858 23.5277C21.3503 23.269 21.1194 23.0935 20.9069 22.9011L22.0262 22.2621C22.0939 22.3422 22.1925 22.4084 22.2941 22.4299L21.3272 23.1797C21.0517 22.8826 20.7514 22.6147 20.4897 22.3052C20.4251 22.2298 20.522 22.0666 20.5605 22.0127C20.6391 21.908 20.7484 21.8311 20.8592 21.7679C21.0794 21.6417 21.3673 21.5447 21.6074 21.6648C22.0093 21.8665 22.3049 22.2236 22.7113 22.4176L21.6521 23.1258C21.2934 22.7271 20.8869 22.3776 20.4743 22.0358L21.5335 21.3276C21.9123 21.6679 22.2772 22.022 22.6851 22.3253L21.6259 23.0335C21.0547 22.5454 20.4405 22.1082 19.9309 21.5524C19.5752 21.1644 20.5882 20.6856 20.8977 20.8026C21.5551 21.052 22.1078 21.4785 22.7129 21.8264L21.6536 22.5346C21.0825 22.0758 20.4497 21.6879 20.0248 21.0767C19.8877 20.8796 20.2757 20.6071 20.3958 20.5394C20.5821 20.4331 20.9423 20.2823 21.144 20.4362C21.7891 20.9258 22.4342 21.4138 23.0731 21.9111L22.0139 22.6193C21.572 22.2514 21.1363 21.8757 20.7006 21.4985C20.3419 21.1875 19.917 20.9381 19.6383 20.5455C19.4998 20.35 19.8908 20.0759 20.0094 20.0082C20.2034 19.8974 20.5467 19.7573 20.7576 19.9051C21.4627 20.3993 22.1247 20.9627 22.8945 21.3569L21.7753 21.9958C21.572 21.6417 21.141 21.4477 20.8269 21.2044C20.3866 20.8627 19.9555 20.507 19.5829 20.0898C19.3119 19.788 19.8908 19.4432 20.131 19.3754C20.4574 19.2846 20.7314 19.3031 21.0316 19.4509C21.2487 19.5571 21.4442 19.7049 21.6352 19.8527C22.0801 20.1945 22.5543 20.5932 23.0793 20.7995L22.0539 21.48C21.3442 20.6225 20.2942 20.1191 19.4136 19.4663C19.1872 19.2985 19.5044 18.9967 19.6491 18.9043C19.86 18.7704 20.2295 18.6026 20.4728 18.7581C21.3103 19.2954 22.1109 19.8897 22.9638 20.4039L21.8445 21.0428C21.4704 20.5886 20.9593 20.2622 20.4882 19.9205C20.0171 19.5787 19.4982 19.2692 19.1411 18.7843C18.9994 18.5918 19.3982 18.3116 19.5121 18.2469C19.7169 18.1299 20.0371 18.0068 20.2603 18.1438C20.7838 18.464 21.3103 18.7827 21.8307 19.1106C22.3511 19.4386 22.7806 19.7973 23.2671 20.1283L22.2079 20.8365C21.7014 20.3946 21.1533 20.0005 20.5975 19.6218C20.1064 19.2877 19.6029 18.9936 19.2365 18.5133C19.1749 18.4332 19.2658 18.2793 19.3073 18.2208C19.3858 18.1161 19.4952 18.0391 19.606 17.976C19.8262 17.8497 20.1125 17.7527 20.3542 17.8728C21.5289 18.4563 22.5296 19.3092 23.5458 20.1283L22.4265 20.7672C21.6536 19.8558 20.5498 19.3 19.6737 18.501C19.3674 18.2223 20.014 17.8467 20.2218 17.7866C20.5713 17.6881 20.8531 17.7296 21.1717 17.8913C21.4058 18.0098 21.6198 18.1684 21.8307 18.3208C22.4373 18.7596 23.0731 19.1584 23.6812 19.5971L22.562 20.2361C22.2864 19.8958 21.8984 19.6618 21.5936 19.3508C21.241 18.9906 22.1663 18.5564 22.4388 18.5872C22.6867 18.6149 22.9053 18.6657 23.1285 18.7812C23.3164 18.8782 23.4411 19.0429 23.615 19.1537C24.0061 19.4016 24.3356 19.7249 24.6111 20.0944C24.6712 20.1745 24.5834 20.3284 24.5403 20.3869C24.4618 20.4916 24.3525 20.5686 24.2416 20.6317C24.04 20.7472 23.7136 20.8734 23.4934 20.7349C22.7436 20.2622 22.0324 19.7265 21.4104 19.0937C21.0347 18.7119 22.1324 18.17 22.4696 18.3855C22.9684 18.7057 23.4565 19.0829 23.8845 19.494C24.0677 19.6695 24.2247 19.8866 24.1385 20.1529C23.9892 20.6117 23.264 20.835 22.8222 20.7118C22.5666 20.641 22.3711 20.467 22.1817 20.2899C21.9692 20.0913 21.7383 19.9143 21.5058 19.7388C20.9701 19.3354 20.4112 18.9613 19.8523 18.5903C19.215 18.1669 18.576 17.7466 17.9633 17.2878C17.737 17.1184 18.0526 16.8198 18.1988 16.7258C18.4375 16.5734 18.7515 16.4518 19.0225 16.5796C20.7253 17.3848 22.2633 18.4825 23.7921 19.5725L22.7329 20.2807C22.1509 19.7018 21.435 19.2815 20.7699 18.8073C20.0479 18.2931 19.3397 17.7604 18.6438 17.2108C18.4236 17.0368 18.7285 16.7459 18.8793 16.6489C19.1087 16.5026 19.4397 16.3656 19.703 16.5026C20.95 17.1538 22.0801 17.9945 23.2656 18.7442L22.2063 19.4524C20.8484 18.4255 19.4767 17.4187 18.0741 16.4533C17.8401 16.2932 18.1711 15.9807 18.3097 15.8914C18.5422 15.7421 18.8686 15.6112 19.1334 15.7451C21.1517 16.7643 22.9392 18.1561 24.7728 19.4647L23.7136 20.1729C22.388 18.7565 20.8084 17.6219 19.2719 16.4518C19.0471 16.2809 19.3597 15.9838 19.5075 15.8899C19.723 15.7513 20.0817 15.5927 20.3311 15.7436C21.9554 16.7274 23.498 17.8374 25.1053 18.8474L23.9861 19.4863C23.6351 19.0645 23.1655 18.7565 22.9284 18.2454C22.8406 18.056 23.09 17.8374 23.2224 17.7512C23.4072 17.6342 23.729 17.4741 23.9537 17.5634C24.568 17.8097 25.073 18.1946 25.5056 18.6934C25.638 18.8458 25.3039 19.1276 25.2116 19.1876C25.0222 19.3092 24.7112 19.4586 24.4803 19.3754C24.1523 19.2569 23.8891 19.0337 23.5735 18.8951L24.5403 18.1453C24.722 18.29 24.996 18.4425 25.0653 18.678C25.1885 19.1045 24.2632 19.5602 23.946 19.3169C23.4719 18.9551 23.0623 18.504 22.5219 18.2362L23.6412 17.5972C23.9645 17.9914 24.3078 18.3824 24.6635 18.7458C24.9237 19.0121 25.2454 19.2631 25.1361 19.671C25.0822 19.8712 24.782 20.0298 24.6173 20.096C24.4526 20.1622 24.1831 20.2422 24.0246 20.1221C23.2363 19.5232 22.4573 18.912 21.6552 18.3316C20.8531 17.7512 20.0263 17.2585 19.215 16.7166C19.001 16.5734 19.2704 16.2948 19.3874 16.2039C19.5752 16.0577 19.9339 15.8729 20.1818 15.9684C21.0517 16.3009 21.7983 16.8429 22.5312 17.4033C22.9084 17.6912 23.2887 17.976 23.6612 18.27C23.8475 18.4163 24.0261 18.5856 24.2309 18.7042C24.4233 18.815 24.5773 18.9782 24.702 19.1599C24.8174 19.3277 24.5157 19.5848 24.4079 19.6541C24.2232 19.7727 23.9014 19.9312 23.6766 19.8419C22.8376 19.5063 22.231 18.7889 21.5258 18.2485C20.7576 17.6604 19.9432 17.1323 19.1703 16.5503C18.9979 16.4195 19.1642 16.187 19.2796 16.0869C19.4705 15.9207 19.7553 15.7713 20.0155 15.7867C20.2311 15.799 20.4374 15.8452 20.6206 15.9653C20.7083 16.0223 20.7792 16.0977 20.8454 16.1778C20.9177 16.2624 20.9916 16.3179 21.084 16.3794C21.5074 16.6673 21.9308 16.9522 22.3572 17.2339C22.7837 17.5156 23.1809 17.782 23.5827 18.0699C23.9845 18.3578 24.3217 18.6703 24.7389 18.9043L23.6797 19.6125C23.0454 18.9705 22.2787 18.4455 21.5335 17.9421C20.8715 17.4941 20.1602 17.0569 19.6722 16.4087C19.6122 16.3286 19.6999 16.1747 19.743 16.1162C19.8215 16.0115 19.9309 15.9345 20.0417 15.8714C20.248 15.7528 20.5636 15.6343 20.7899 15.7682C22.0016 16.4918 23.204 17.2539 24.2355 18.2254C24.6111 18.5779 23.5103 19.1861 23.1763 18.9336C22.6528 18.5364 22.1571 18.1084 21.6552 17.6865C21.1825 17.2909 20.6945 16.9106 20.2742 16.4564C19.9108 16.0623 20.9962 15.525 21.3334 15.7482C22.408 16.461 23.3702 17.3309 24.4664 18.0145L23.4072 18.7227C22.7806 18.1022 22.097 17.548 21.415 16.9891C21.0763 16.712 20.7391 16.4318 20.405 16.1501C20.2403 16.0115 20.0725 15.8283 19.897 15.719C19.7415 15.622 19.6106 15.5358 19.5475 15.351C19.469 15.1155 19.7461 14.9122 19.9185 14.8137C20.1341 14.6905 20.4312 14.5843 20.6668 14.7106C21.2318 15.0154 21.7429 15.4542 22.3664 15.6374L21.3996 16.3871C20.9485 15.9591 20.4312 15.6081 19.9847 15.174C19.6152 14.8137 20.6498 14.2918 20.9516 14.4242C21.2533 14.5566 21.5428 14.749 21.8461 14.903L20.7268 15.5419C20.5082 15.2771 20.248 15.0477 20.0186 14.7937C19.9509 14.7198 19.9139 14.6382 19.9678 14.5381C20.2757 13.9654 20.9716 13.89 21.5212 14.0886C21.7245 14.1625 21.9215 14.2518 22.1186 14.3395C22.1632 14.3595 22.2079 14.3795 22.2525 14.3996C22.2725 14.4088 22.3664 14.4488 22.2741 14.4103C22.3249 14.4319 22.3757 14.4565 22.428 14.4719L21.4027 15.1524C21.2672 14.9707 21.044 14.8584 20.8654 14.726C20.6391 14.5581 20.4251 14.3842 20.1664 14.2672L21.2857 13.6282C21.3642 13.9408 21.7275 14.0917 21.9323 14.3133C22.1186 14.5166 21.8769 14.7598 21.6967 14.8753C21.455 15.0292 21.1471 15.1463 20.8731 15.0215C20.8053 14.9908 20.7468 14.9507 20.6852 14.9092C20.5652 14.8291 20.5328 14.8691 20.7068 14.8399L21.4704 14.1563C21.6798 14.5135 21.9877 14.7937 22.2402 15.1201C22.3018 15.2001 22.211 15.3556 22.1694 15.4126C22.0909 15.5173 21.9816 15.5943 21.8707 15.6574C21.6798 15.7667 21.3288 15.9114 21.1225 15.7605C20.9285 15.6189 20.7484 15.4603 20.5744 15.2941C20.2034 14.9384 21.3041 14.321 21.6336 14.5859C22.0016 14.8814 22.3911 15.1678 22.836 15.3341L21.8692 16.0838C21.6105 15.9253 21.3442 15.7775 21.0963 15.6035L22.1555 14.8953C22.8976 15.6682 23.8906 16.1131 24.7174 16.7797C25.1038 17.0923 24.0045 17.7404 23.6581 17.4879C23.3333 17.2524 23.01 17.0168 22.7313 16.7243C22.3711 16.3471 23.3918 15.8498 23.6982 15.9745C24.2386 16.1947 24.7097 16.5165 25.1823 16.8521C25.655 17.1877 26.0814 17.5126 26.4309 17.9621C26.5217 18.0807 26.3416 18.2947 26.2631 18.3578C25.9844 18.5779 25.5888 18.7719 25.2408 18.598C25.1269 18.541 25.0253 18.4609 24.9267 18.3793C24.722 18.2115 24.5172 18.0345 24.3356 17.842C23.9815 17.4648 24.9945 16.9599 25.3024 17.0923C25.655 17.2447 26.0737 17.5341 26.1753 17.9283C26.2369 18.17 25.9906 18.3593 25.8043 18.4656C25.5826 18.5918 25.2993 18.6857 25.0561 18.5687C24.4741 18.2854 23.9537 17.8944 23.3826 17.5895L24.4418 16.8813C24.7805 17.1 25.0992 17.3432 25.4086 17.6019C25.6319 17.7897 25.9629 17.9698 26.0506 18.2654C26.1215 18.504 25.8582 18.7011 25.6796 18.8027C25.501 18.9043 25.13 19.0614 24.9314 18.9059C24.4218 18.5041 23.9122 18.1022 23.4134 17.6865C23.0254 17.3648 24.1277 16.7335 24.4726 16.9783C24.779 17.1954 25.2808 17.4879 25.1346 17.9283C25.0684 18.1315 24.7928 18.2824 24.6158 18.3532C24.4233 18.4317 24.217 18.4717 24.023 18.3793C22.8807 17.8405 21.8799 17.0538 20.7684 16.458L21.8876 15.819C21.9631 15.9699 22.0585 16.0792 22.2017 16.1701C22.2926 16.227 22.3957 16.2563 22.485 16.3132C22.5912 16.381 22.6882 16.4672 22.7898 16.5426C23.0577 16.7443 23.321 16.9506 23.5981 17.1369C23.8398 17.2986 24.0815 17.4618 24.3109 17.6419C24.5218 17.8082 24.7728 18.0052 24.8913 18.2531C24.996 18.4733 24.6696 18.7057 24.5203 18.7904C24.3294 18.8997 23.9784 19.0444 23.7721 18.8936C22.5081 17.9698 21.3596 16.8783 19.9986 16.0915L20.2126 16.1485C19.8662 16.1193 19.4751 16.0176 19.4813 15.5989C19.4875 15.2371 20.2095 14.8799 20.5236 15.0062C21.492 15.3987 22.3495 15.9792 23.2117 16.5611C24.0738 17.1431 25.0006 17.7574 25.8228 18.4532L24.7636 19.1614C23.4565 17.8313 21.783 16.9475 20.4097 15.6943C20.0171 15.3356 21.0855 14.8414 21.3765 14.9446C22.0801 15.194 22.7129 15.582 23.3287 15.9961C23.9445 16.4102 24.5665 16.8613 25.1638 17.3278L24.1046 18.036C23.0238 17.1677 21.8538 16.4179 20.7761 15.545C20.4435 15.2756 21.144 14.8953 21.3242 14.8306C21.6752 14.7059 22.0924 14.6967 22.368 14.9815C22.4296 15.0462 22.4788 15.1216 22.5481 15.177C22.6236 15.2371 22.7113 15.2848 22.7914 15.3387C22.9638 15.4526 23.1378 15.5666 23.3102 15.682C23.9845 16.1285 24.6389 16.6011 25.2962 17.0707L24.237 17.7789C23.2455 16.886 22.2002 16.0561 21.1009 15.2987C20.89 15.154 21.1548 14.8784 21.2734 14.786C21.4843 14.6228 21.7953 14.4858 22.0678 14.5504C22.485 14.649 22.7698 14.9323 23.1116 15.1693C23.495 15.4372 23.8768 15.7082 24.2555 15.9807C25.0022 16.5195 25.7797 17.0184 26.5017 17.5926C26.8851 17.899 25.7874 18.5687 25.4425 18.3008C24.6943 17.7189 23.9599 17.1184 23.2086 16.5411C22.4573 15.9638 21.7429 15.4342 21.0655 14.8122C20.8792 14.6413 21.0948 14.4103 21.2379 14.2995C21.4412 14.1425 21.7676 13.9885 22.0324 14.0639C22.7467 14.2656 23.321 14.746 23.9183 15.1616C24.5742 15.6174 25.2193 16.0854 25.8105 16.6212L24.7512 17.3294C24.1431 16.752 23.478 16.2532 22.8037 15.759C22.1294 15.2648 21.4904 14.7552 20.7899 14.3133L21.9092 13.6744C22.0632 13.8607 22.3126 13.9823 22.5158 14.104C22.7637 14.2518 23.0038 14.4103 23.2455 14.5689C23.789 14.9215 24.3263 15.2848 24.8559 15.6559C25.8674 16.3641 26.9836 17.0445 27.795 17.9914C27.8596 18.0668 27.7626 18.23 27.7241 18.2839C27.6456 18.3886 27.5363 18.4656 27.4255 18.5287C27.2192 18.6472 26.9036 18.7658 26.6772 18.6318C26.2061 18.3516 25.7935 17.9714 25.3563 17.6404C25.1885 17.5126 25.0176 17.3879 24.839 17.277C24.7528 17.2231 24.6635 17.1692 24.5696 17.1292C24.6312 17.1554 24.4988 17.1107 24.4895 17.1061C24.4249 17.0707 24.5773 17.0984 24.4664 17.1061L25.3116 16.3425C25.7951 16.8736 26.3616 17.3201 26.8327 17.8636C26.8974 17.939 26.8004 18.1038 26.7619 18.1561C26.6834 18.2608 26.5741 18.3378 26.4632 18.4009C26.2739 18.5087 25.9198 18.6549 25.715 18.504C25.3902 18.2639 25.0822 18.0006 24.7636 17.7527C24.4787 17.531 24.2016 17.3016 24.0061 16.9907C23.8783 16.7874 24.2493 16.5257 24.3771 16.4533C24.5819 16.3363 24.9021 16.2132 25.1254 16.3502C25.6919 16.6997 26.2169 17.1061 26.7388 17.5187L25.6796 18.2269C25.0761 17.7112 24.4064 17.2909 23.8891 16.6812C23.8244 16.6058 23.9214 16.4426 23.9599 16.3887C24.0384 16.284 24.1477 16.207 24.2586 16.1439C24.4726 16.0223 24.7728 15.913 25.0068 16.0407C25.7643 16.4549 26.4124 17.0276 27.1314 17.5003L26.0121 18.1392C25.7981 17.859 25.4902 17.6619 25.207 17.4587C24.899 17.2354 24.6096 16.9922 24.3987 16.672C24.2863 16.5011 24.5819 16.2501 24.6927 16.1778C24.8852 16.0546 25.1916 15.9099 25.424 15.9899C25.9706 16.1793 26.4602 16.478 26.9451 16.789C27.3577 17.0522 27.815 17.2601 28.1244 17.6511C28.186 17.7296 28.0952 17.8867 28.0536 17.9436C27.9751 18.0483 27.8658 18.1253 27.7549 18.1884C27.5671 18.2962 27.2099 18.444 27.0067 18.2916C26.1138 17.6188 25.247 16.9168 24.5141 16.0685C24.3971 15.933 24.6727 15.6805 24.7451 15.6235C24.9314 15.4788 25.1792 15.3695 25.4179 15.3726C26.1061 15.3818 26.6341 15.836 27.1838 16.1901C27.5748 16.4426 28.1953 16.6658 28.3369 17.1585C28.4539 17.5634 27.6333 17.9775 27.3115 17.839C26.7896 17.6157 26.3108 17.3509 25.966 16.8875C25.8443 16.7243 26.1569 16.4595 26.26 16.3933C26.4417 16.2778 26.7712 16.1131 26.9913 16.2055C27.5671 16.4503 28.012 16.8459 28.497 17.2293L27.4378 17.9375C27.2084 17.725 26.7942 17.6142 26.7142 17.2755C26.6649 17.0661 26.8451 16.886 27.0082 16.7813C27.193 16.6627 27.5148 16.5042 27.7395 16.5934C28.1506 16.7566 29.0266 17.1261 28.6156 17.685C28.4508 17.9082 27.9535 18.1946 27.661 18.0745C26.8019 17.7204 26.026 17.2324 25.2978 16.6596C24.9652 16.3979 25.6642 16.0038 25.8459 15.9453C26.2877 15.8052 26.6049 15.9807 26.9297 16.2624C27.2053 16.5011 27.5286 16.7243 27.6934 17.0569C27.7642 17.2016 27.6195 17.3648 27.5255 17.4525C27.3654 17.6003 27.1453 17.7081 26.9313 17.7404C26.3278 17.8343 25.7812 17.3432 25.3086 17.0322C24.8051 16.7012 24.3125 16.3548 23.8152 16.0161C23.3179 15.6774 22.816 15.3495 22.2972 15.0462C21.7783 14.7429 21.2349 14.4473 20.7191 14.1209C20.4789 13.9685 20.8223 13.6436 20.9547 13.559C21.1825 13.4127 21.5166 13.2741 21.7783 13.4127C22.5312 13.813 23.2517 14.2702 23.983 14.7075C24.3371 14.9199 24.6927 15.1293 25.0422 15.3495C25.2116 15.4572 25.3748 15.582 25.5564 15.6666C25.7242 15.7451 25.8459 15.8622 25.9521 16.013C26.0891 16.2101 25.7012 16.4826 25.5811 16.5503C25.3778 16.6658 25.0545 16.7921 24.8328 16.6535C24.1554 16.2286 23.5873 15.6635 22.9592 15.1724C22.331 14.6813 21.6444 14.2672 21.0532 13.7283C20.8669 13.559 21.0825 13.3265 21.2256 13.2156C21.4535 13.0386 21.7321 12.9416 22.02 12.9801C22.3218 13.0201 22.5266 13.1679 22.7529 13.3527C23.0146 13.5651 23.3333 13.7252 23.6135 13.9146C24.1616 14.2841 24.6712 14.709 25.2177 15.0816L24.1585 15.7898C23.0793 14.8214 21.9308 13.9346 20.8731 12.9431C20.6899 12.7707 20.8992 12.5428 21.0455 12.4305C21.2595 12.2642 21.5643 12.1333 21.8399 12.1949C22.1155 12.2565 22.2926 12.3874 22.4758 12.5813C22.659 12.7753 22.9115 12.9262 23.1255 13.074C23.4472 13.2972 23.7998 13.4573 24.0569 13.7622C24.1216 13.8376 24.0261 14.0008 23.9861 14.0547C23.9076 14.1594 23.7982 14.2364 23.6874 14.2995C23.5042 14.4042 23.1362 14.5597 22.9392 14.4026C22.3588 13.9377 21.7491 13.5035 21.2503 12.9478C21.0671 12.743 21.3041 12.5028 21.4858 12.3858C21.7245 12.2334 22.037 12.1133 22.3095 12.2396C22.756 12.4474 23.1255 12.7784 23.5134 13.074C23.9306 13.3911 24.3479 13.7068 24.7251 14.0732C25.1023 14.4396 24.003 14.9754 23.6658 14.7814C22.9407 14.3642 22.2618 13.8761 21.5843 13.385C21.3565 13.2187 21.6767 12.9154 21.8199 12.823C22.0339 12.686 22.3972 12.5244 22.6436 12.6768C23.5304 13.228 24.3679 13.853 25.1484 14.5458L24.0292 15.1847C23.9076 14.8922 23.672 14.7752 23.4426 14.5751C23.1763 14.3411 22.913 14.1055 22.642 13.8777C22.1155 13.4373 21.569 13.0201 21.0809 12.5367C20.7053 12.1641 21.8045 11.5991 22.1401 11.8285C22.9161 12.3581 23.595 13.0155 24.3879 13.522L23.3287 14.2302C22.5651 13.6406 21.8276 13.014 20.9932 12.5259L22.0524 11.8177C22.4835 12.2288 22.9607 12.586 23.3995 12.9862C23.8383 13.3865 24.2724 13.8469 24.7328 14.2533L23.6135 14.8922C23.5088 14.6536 23.3302 14.4688 23.147 14.2887C22.9407 14.0855 22.7421 13.8823 22.5466 13.6683C22.0801 13.1587 21.6228 12.6414 21.1856 12.1071C21.1225 12.0302 21.2164 11.8701 21.2564 11.8146C21.3349 11.7099 21.4442 11.633 21.5551 11.5698C21.7629 11.4513 22.077 11.3327 22.3033 11.4667C22.8345 11.7808 23.224 12.2657 23.6936 12.6568L22.5743 13.2957C22.234 12.5059 21.669 11.847 21.0886 11.225C20.9008 11.0233 21.1456 10.777 21.3242 10.663C21.4858 10.5599 21.9631 10.3213 22.1478 10.5168C22.5543 10.9432 22.9592 11.3712 23.4057 11.7577L22.2864 12.3966C22.1124 11.7361 21.6105 11.2496 21.1594 10.7662L22.2956 10.215C22.3618 10.6215 22.6913 11.0264 22.9546 11.3281L21.8353 11.967C21.6336 11.6868 21.4073 11.4297 21.1671 11.1819L22.2864 10.5429C22.5743 11.205 23.0977 11.7223 23.555 12.2673L22.3772 12.8384C22.134 12.1826 21.6429 11.6699 21.2364 11.1126C21.0948 10.9186 21.492 10.6415 21.6074 10.5753C21.766 10.4844 22.1909 10.2966 22.3557 10.4721C22.6913 10.8293 22.9777 11.2342 23.3872 11.5129L22.251 12.064C22.2263 11.8362 22.0247 11.6237 21.903 11.4421C21.7306 11.1849 21.5643 10.9248 21.3873 10.6707C21.3288 10.5876 21.4135 10.4398 21.4581 10.3782C21.5474 10.2581 21.6983 10.1519 21.8322 10.0903C22.0508 9.99024 22.3865 9.8794 22.5635 10.0996C22.7406 10.3197 22.9269 10.5491 23.1101 10.7723L21.9323 11.3435C21.7891 10.8493 21.4381 10.466 21.1594 10.0457C21.027 9.84553 21.4073 9.57918 21.5305 9.50836C21.7106 9.40521 22.0847 9.24663 22.2787 9.40521C22.582 9.65308 22.7421 10.0287 23.0531 10.2643L21.9338 10.9032C21.7814 10.449 21.5228 10.0349 21.2025 9.67925L22.3218 9.04033C22.4219 9.23278 22.5404 9.41445 22.6867 9.5761L21.5505 10.1273C21.5243 9.9887 21.4797 9.85322 21.4304 9.72082C21.3365 9.46679 21.686 9.22816 21.8769 9.1404C22.0247 9.07266 22.5142 8.89561 22.6082 9.14964L22.5912 9.14502Z" fill="#FFF6A3"/>
</g>
</g>
</g>
<defs>
<clipPath id="clip0_16_2674">
<rect width="34.1322" height="30" fill="white" transform="matrix(-1 4.32454e-09 4.32454e-09 1 34.1328 0)"/>
</clipPath>
</defs>
</svg>
