<svg width="58" height="51" viewBox="0 0 58 51" fill="none" xmlns="http://www.w3.org/2000/svg">
<path d="M38.1949 11.3768C38.2514 15.4053 38.3951 19.7546 40.4761 23.3315C40.7121 23.7369 40.9559 24.0962 41.2458 24.4682C41.3972 24.6632 41.5563 24.8531 41.7231 25.0379C41.8078 25.1328 41.8925 25.2252 41.9797 25.315C42.0131 25.3483 42.0464 25.3817 42.0772 25.4176C42.2876 25.6332 42.0182 25.3637 42.1414 25.4818C42.4878 25.8128 42.8547 26.1233 43.2421 26.4106C43.2909 26.4466 43.3422 26.4851 43.391 26.521C43.3781 26.5107 43.2652 26.4337 43.3627 26.5005C43.4603 26.5672 43.5655 26.639 43.6707 26.7057C43.8785 26.8392 44.0889 26.9675 44.3019 27.0906C44.3968 27.1445 44.4892 27.1958 44.5841 27.2471C44.638 27.2754 44.6919 27.3062 44.7484 27.3344C44.7124 27.3164 44.5482 27.2343 44.7381 27.3267C44.9459 27.4293 45.1563 27.5294 45.3693 27.6243C45.5823 27.7193 45.7978 27.8091 46.0159 27.8938C46.1314 27.94 46.2494 27.9836 46.3675 28.0272C46.3854 28.0323 46.5343 28.0862 46.4085 28.0426C46.2648 27.9913 46.5112 28.0785 46.5394 28.0862C47.0038 28.2453 47.476 28.3839 47.9532 28.5096C48.1867 28.5712 48.4177 28.6276 48.6537 28.6815C48.7641 28.7072 48.8744 28.7328 48.9822 28.7559C49.0284 28.7662 49.0771 28.7764 49.1233 28.7867C49.4338 28.8534 48.9283 28.7508 49.2413 28.8124C51.4378 29.2435 53.6676 29.4359 55.8974 29.5899C56.3541 29.6206 56.9905 29.9286 57.1881 30.3648C57.401 30.8343 56.8596 30.9139 56.5312 30.8934C52.2922 30.6368 47.3451 30.393 43.5988 32.9641C40.2246 35.2811 38.7825 39.2917 38.2257 43.1919C37.8947 45.509 37.8229 47.8568 37.8075 50.1944L35.7624 49.6222C35.8291 45.9221 35.8497 41.9962 34.5 38.4885C34.1869 37.6777 33.7558 36.7976 33.3042 36.133C32.7731 35.3478 32.2009 34.714 31.5517 34.1675C31.1001 33.7877 30.8435 33.6056 30.338 33.2951C30.1199 33.1591 29.8967 33.0308 29.6683 32.9076C29.6041 32.8717 29.5374 32.8383 29.4733 32.8024C29.4707 32.8024 29.3091 32.7177 29.4066 32.7665C29.5143 32.8229 29.3116 32.7203 29.2885 32.7075C29.2064 32.6664 29.1218 32.6254 29.0396 32.5869C28.5547 32.3559 28.062 32.1455 27.5642 31.9454C27.3051 31.8428 27.0459 31.7427 26.7842 31.6452C26.7662 31.6375 26.5378 31.5554 26.6405 31.5913C26.7303 31.6246 26.5455 31.5579 26.5532 31.5605C26.3839 31.5015 26.2145 31.4425 26.0452 31.386C23.528 30.5495 21.0775 30.0671 18.4269 29.8721C17.9932 29.8413 17.421 29.5616 17.1927 29.1819C16.9823 28.8329 17.1644 28.602 17.557 28.5583C19.9151 28.3017 22.2758 28.0682 24.6313 27.7809C26.3557 27.573 28.0671 27.2856 29.7299 26.6647C31.2669 26.0899 32.7397 25.161 33.6558 23.7652C34.7258 22.1307 34.9285 20.1805 35.0106 18.2766C35.1055 16.0442 35.0619 13.7118 35.978 11.6231C36.1576 11.2126 36.9068 11.423 37.1968 11.559C37.4867 11.695 38.1641 12.0773 37.9794 12.493C36.3449 16.211 37.9152 20.6296 35.901 24.2322C34.0407 27.5602 30.0096 28.5199 26.5148 29.0023C23.9078 29.3615 21.2802 29.5924 18.6655 29.8798L17.7957 28.566C20.3026 28.7508 22.7941 29.2178 25.1959 29.9517C27.5976 30.6855 29.9198 31.5708 31.9366 32.9795C33.6968 34.2086 35.103 35.8123 36.0293 37.7547C36.8735 39.5201 37.3251 41.4625 37.5663 43.3972C37.846 45.6475 37.8511 47.9235 37.8075 50.1867C37.7921 51.0232 35.7573 50.3355 35.7624 49.6145C35.7932 45.414 35.9446 40.9647 37.6407 37.0542C38.449 35.1913 39.6601 33.485 41.2689 32.2302C43.1446 30.7702 45.4206 30.0286 47.7454 29.6797C50.4396 29.2768 53.1878 29.4179 55.8948 29.5822L56.5286 30.8857C52.3487 30.6008 47.9686 30.1877 44.1762 28.2581C42.2312 27.2677 40.4632 25.9154 39.1957 24.1193C37.9281 22.3231 37.184 20.2806 36.7529 18.1457C36.2679 15.7312 36.1807 13.255 36.1447 10.7994C36.1319 9.97577 38.1795 10.6429 38.1898 11.3716L38.1949 11.3768Z" fill="#FFDD43"/>
<path d="M9.85644 0.882074C9.92572 3.43519 9.45871 6.04989 10.054 8.56708C10.2901 9.56523 10.716 10.5326 11.3626 11.3357C12.0554 12.1953 13.051 12.7342 14.0825 13.0806C14.6804 13.2807 15.2988 13.4193 15.9146 13.5604C16.4381 13.6784 17.1463 13.8735 17.6287 13.5886L17.0873 15.4079C15.8967 15.3232 14.7061 15.4002 13.5437 15.6747C13.0485 15.7902 12.543 15.9313 12.0811 16.1417C11.8887 16.229 11.6962 16.3419 11.5166 16.4599C11.3806 16.5472 11.5961 16.3958 11.4653 16.4933C11.4268 16.5241 11.3883 16.5549 11.3498 16.5857C11.2985 16.6293 11.2497 16.6729 11.2036 16.7165C11.2831 16.6421 11.2292 16.6934 11.1856 16.7422C11.047 16.8961 11.142 16.7858 11.1702 16.7473C11.1291 16.8012 11.0958 16.8602 11.0573 16.9141C11.0496 16.9244 10.9675 17.0706 11.0265 16.9603C11.0907 16.8422 10.9957 17.0296 10.9829 17.0578C10.9624 17.104 10.9418 17.1502 10.9213 17.1963C10.9393 17.1553 10.9752 17.0347 10.9085 17.2297C10.8649 17.358 10.8264 17.4889 10.793 17.6197C10.6955 17.9969 10.6365 18.546 10.5929 19.0233C10.4851 20.2524 10.3953 21.4866 10.2952 22.7157C10.1797 24.1424 10.0668 25.569 9.95137 26.9957C9.91289 27.4909 9.54339 28.0477 9.11488 28.2941C8.71716 28.5224 8.44003 28.3172 8.46569 27.8758C8.60169 25.5434 8.73255 23.1647 8.09106 20.8913C7.53425 18.9155 6.34109 17.2297 4.5475 16.2085C3.50316 15.6132 2.35874 15.2283 1.2092 14.8973C0.767856 14.769 0.901286 14.2122 1.05781 13.894C1.25539 13.4911 1.61205 12.9985 2.10472 12.9728C3.07721 12.9215 4.0574 12.8599 5.00167 12.6007C5.45584 12.475 5.851 12.3288 6.24359 12.0901C6.27438 12.0722 6.54123 11.89 6.45143 11.9567C6.55663 11.8771 6.65157 11.7899 6.74908 11.7052C6.83632 11.6206 6.84402 11.6129 6.77217 11.6847C6.81579 11.6359 6.85941 11.5872 6.90303 11.5359C6.94665 11.4846 6.98771 11.4358 7.0262 11.3819C6.95948 11.4717 6.95179 11.482 6.99797 11.4153C7.18529 11.0997 7.37003 10.7764 7.4932 10.4017C7.57274 10.1631 7.64203 9.91933 7.70361 9.673C7.77032 9.39844 7.78828 9.30607 7.83191 9.06487C8.05514 7.82809 8.16548 6.57334 8.18087 5.31603C8.18601 4.83106 8.60939 4.25372 9.01737 4.01766C9.42536 3.78159 9.67169 4.00226 9.66655 4.43591C9.6409 6.53228 9.41766 8.74669 8.61452 10.7019C7.81138 12.6572 6.3026 14.0094 4.30373 14.5149C3.29532 14.769 2.24584 14.8382 1.21177 14.8947L2.10728 12.9677C4.28577 13.5963 6.43346 14.3995 7.90888 16.2085C9.3843 18.0175 9.90775 20.296 10.0361 22.5156C10.1207 24.0064 10.0386 25.5023 9.95394 26.9931L8.47082 27.8732C8.69149 25.1302 8.86341 22.3796 9.1354 19.6417C9.26113 18.3792 9.55365 17.1117 10.3132 16.0673C11.0727 15.023 12.2248 14.3199 13.4924 13.9453C14.9396 13.5168 16.4791 13.3654 17.9828 13.4732C18.3446 13.4988 18.3035 13.9941 18.2291 14.2276C18.0982 14.6432 17.8237 15.0692 17.4414 15.2924C16.3201 15.9519 14.9781 15.4951 13.8157 15.1821C12.6533 14.869 11.4627 14.4303 10.5646 13.5758C8.80183 11.8977 8.29378 9.38048 8.26812 7.03777C8.25015 5.4084 8.41437 3.78416 8.37075 2.15478C8.35792 1.64159 8.62478 1.12584 9.01481 0.794832C9.23035 0.610084 9.84104 0.348357 9.85387 0.869244L9.85644 0.882074Z" fill="#FFDD43"/>
<path d="M12.0841 11.4435C12.4972 11.9131 12.8949 12.3955 13.2772 12.8907C13.8186 13.5938 11.8711 14.2532 11.3656 13.8145C10.3598 12.942 9.39239 11.9824 8.14534 11.464L9.91328 10.4505C10.9679 11.5923 12.1841 12.5674 13.2952 13.6528C13.8956 14.2404 11.9866 14.946 11.5273 14.6663C10.2366 13.8812 9.20765 12.7085 7.86309 12.0132L9.63103 10.9996C10.7729 12.3544 12.2534 13.35 13.6442 14.4251C14.0214 14.7177 13.3491 15.1949 13.1258 15.2976C12.705 15.49 12.1405 15.6286 11.7325 15.3489C11.05 14.8793 10.3957 14.3738 9.73366 13.876C9.21791 13.4886 8.67136 13.0164 8.01961 12.8856L9.59254 11.8181C10.5445 12.9035 11.7094 13.7914 12.9462 14.5303L11.1783 15.5439C9.81321 14.6509 8.39424 13.8478 6.97271 13.0472L8.59695 11.9439C9.29745 12.3673 9.91585 12.8907 10.5676 13.3834C11.2193 13.876 11.9301 14.3867 12.587 14.9204C12.9206 15.1924 12.3817 15.6132 12.1841 15.7261C11.7813 15.957 11.2732 16.0802 10.8191 15.9339C9.34108 15.4541 8.23772 14.2686 6.79566 13.7144L8.56359 12.7008C9.49246 13.6733 10.6292 14.4046 11.6376 15.2847C11.9609 15.567 11.4452 15.9698 11.2347 16.0904C10.9037 16.2803 10.2417 16.5215 9.86966 16.2983C8.4122 15.413 6.93678 14.5534 5.34333 13.9325L7.11127 12.9189C7.82973 13.3731 8.62261 13.8812 9.30002 14.2994C9.90558 14.674 10.5522 14.9897 10.914 15.6311C11.0808 15.9262 10.4958 16.2957 10.3136 16.3778C9.94921 16.5446 9.45397 16.6806 9.06395 16.519C7.50899 15.8672 6.11825 14.8921 4.57098 14.225L6.19523 13.1216C7.85026 14.048 9.52582 14.982 10.9397 16.2598C11.2578 16.5472 10.7523 16.9423 10.5368 17.0655C10.1596 17.281 9.59767 17.4504 9.17172 17.2733C7.57057 16.5985 6.14134 15.6029 4.63257 14.7562C4.22202 14.5252 4.45808 14.1326 4.77626 13.9248C5.13806 13.6887 5.82573 13.4244 6.25681 13.6528C7.63472 14.3764 8.93052 15.2488 10.1083 16.2649C10.4342 16.5446 9.91328 16.9526 9.70544 17.0706C9.36417 17.2656 8.72268 17.494 8.34036 17.2785C7.06508 16.5523 5.87961 15.6799 4.59921 14.9589L6.36714 13.9453C7.75532 15.1539 9.43601 15.9852 10.7395 17.2939C11.0705 17.6274 10.4855 18.0457 10.2212 18.1663C9.78755 18.3664 9.25127 18.4845 8.82788 18.2176C7.80151 17.5684 6.87777 16.7627 5.81803 16.1649L7.58597 15.1513C8.49688 15.9468 9.58227 16.5574 10.293 17.5582C10.5342 17.8969 10.175 18.1997 9.89019 18.3639C9.48477 18.5974 8.98184 18.7154 8.52511 18.5717C7.87079 18.3664 7.33194 17.9354 6.79309 17.5299L8.70472 16.6062C9.29232 17.3195 9.95434 17.961 10.6138 18.6051L8.70216 19.5288C7.72453 18.4126 6.45182 17.6197 5.39978 16.5831C5.06364 16.2521 5.65638 15.8287 5.9181 15.7107C6.31839 15.5259 6.92395 15.3617 7.31141 15.6594C8.01448 16.1956 8.74064 16.7063 9.37957 17.3247C9.68491 17.6197 9.20251 18.0021 8.97671 18.1304C8.64057 18.3228 7.98882 18.5563 7.61163 18.3382C6.02331 17.4119 4.58381 16.2778 3.24439 15.0204C3.11353 14.8973 3.14432 14.7254 3.21873 14.5868C3.59592 13.894 4.60177 13.5271 5.35103 13.7272C5.65381 13.8093 5.86935 13.9966 6.09259 14.2045C6.31582 14.4123 6.66736 14.5534 6.94448 14.7074C8.15304 15.3797 9.33594 16.0879 10.4804 16.8602C10.624 16.9577 10.5702 17.1784 10.506 17.2939C10.3982 17.4812 10.1519 17.6454 9.96203 17.7326C9.53865 17.9277 8.98184 18.0611 8.56873 17.784C7.77072 17.2451 6.95731 16.7396 6.12081 16.2624C5.69486 16.0186 5.26635 15.78 4.83784 15.5439C4.63256 15.431 4.3965 15.3309 4.22201 15.1718C4.14247 15.1 4.06293 15.0179 3.98595 14.9435C3.76014 14.7202 3.64211 15.1693 4.58381 14.8357L5.08417 14.5945C5.12523 14.5714 5.26892 14.3687 5.18168 14.5278L5.15602 14.0941C6.4082 15.2693 7.74762 16.365 9.23587 17.2297L7.46793 18.2433C6.82901 17.6274 6.10542 17.1168 5.39978 16.578L7.31141 15.6542C8.36601 16.6909 9.63616 17.4838 10.6138 18.5999C11.1706 19.2363 9.20765 20.0163 8.70216 19.5237C8.04271 18.8796 7.38069 18.2381 6.79309 17.5248C6.49801 17.1681 7.01633 16.7858 7.31141 16.6524C7.71426 16.4676 8.3147 16.306 8.70472 16.6011C9.16146 16.9475 9.5951 17.2887 10.1468 17.4632L8.37884 18.4768C7.66808 17.4761 6.58268 16.8654 5.67177 16.0699C5.34846 15.7877 5.86422 15.3848 6.07463 15.2642C6.4159 15.0692 7.05738 14.8408 7.43971 15.0564C8.60208 15.7107 9.61563 16.578 10.7395 17.2887L8.82788 18.2125C7.52438 16.9038 5.84369 16.0725 4.45552 14.8639C4.13221 14.5817 4.64796 14.1788 4.85837 14.0582C5.19964 13.8632 5.84113 13.6348 6.22345 13.8504C7.50129 14.5714 8.68676 15.4438 9.9646 16.17L8.19666 17.1835C7.10101 16.2393 5.91297 15.4233 4.63257 14.7536L6.25681 13.6502C7.76559 14.4996 9.19481 15.4951 10.796 16.1674L9.02803 17.181C7.69374 15.9775 6.13108 15.0949 4.57355 14.2224C4.163 13.9915 4.39907 13.5989 4.71724 13.3911C5.10727 13.137 5.73849 12.9189 6.19779 13.1191C7.74506 13.7862 9.1358 14.7639 10.6908 15.413L8.84072 16.3009C8.56103 15.8056 7.86309 15.5234 7.40122 15.2283C6.66993 14.7639 5.9335 14.3045 5.20221 13.8427C4.83271 13.6092 5.4434 13.1293 5.60506 13.037C5.98995 12.8163 6.5365 12.6623 6.97014 12.8291C8.56359 13.4475 10.039 14.3097 11.4965 15.1949L9.72853 16.2085C8.72012 15.3284 7.5834 14.5971 6.65453 13.6246C6.36201 13.3192 6.81875 12.9549 7.05738 12.8189C7.44484 12.5982 7.98625 12.4442 8.42246 12.611C9.86453 13.1678 10.9679 14.3533 12.4459 14.8306L10.6779 15.8441C10.0518 15.3386 9.40009 14.8665 8.75861 14.3815C8.16844 13.9376 7.61163 13.4296 6.97784 13.0472C6.11312 12.5238 8.00678 11.6077 8.60208 11.9439C10.1211 12.8009 11.635 13.6656 13.0951 14.6202C13.4594 14.8588 12.859 15.3309 12.6922 15.4259C12.3586 15.6183 11.7017 15.8569 11.3271 15.6337C9.99026 14.8357 8.71755 13.9197 7.68604 12.7419C7.44997 12.4725 7.74249 12.1517 7.97342 12.0003C8.32752 11.7694 8.83045 11.5872 9.2564 11.6745C10.1109 11.8489 10.7985 12.3082 11.4862 12.824C12.1739 13.3398 12.9129 13.9145 13.6519 14.4226L11.7402 15.3463C10.3495 14.2712 8.86894 13.2756 7.7271 11.9208C7.15489 11.2434 9.04086 10.6712 9.49503 10.9072C10.8524 11.6103 11.8634 12.7701 13.1592 13.5604L11.3913 14.574C10.2802 13.4886 9.06652 12.5135 8.00935 11.3717C7.72196 11.0612 8.16844 10.7045 8.4122 10.566C8.79196 10.3479 9.35134 10.1811 9.77728 10.3581C11.1321 10.9201 12.1944 11.9413 13.2875 12.8881L11.3759 13.8119C10.9935 13.3167 10.5958 12.8343 10.1827 12.3647C9.63359 11.7437 11.6145 10.897 12.0943 11.441L12.0841 11.4435Z" fill="#FFDD43"/>
<path d="M37.9997 15.8159C38.1177 16.1341 38.1947 16.4548 38.2563 16.7884C38.3179 17.122 37.7123 17.5043 37.4839 17.607C37.3146 17.6839 37.1375 17.7455 36.9554 17.7814C36.8245 17.8071 36.473 17.8328 36.3626 17.707C36.0496 17.3606 35.775 17.0014 35.5595 16.5883C35.3722 16.229 35.9392 15.8288 36.1779 15.6928C36.4345 15.5465 37.1581 15.2232 37.4249 15.5208C38.0279 16.1957 38.5488 16.9244 38.8388 17.7891C39.0774 18.4999 37.4891 19.2466 36.9733 18.854C36.4576 18.4614 36.1856 17.8328 35.6827 17.4222L37.5481 16.3573C38.0125 17.0578 38.5976 17.6968 38.8362 18.5204C38.9619 18.9566 38.4333 19.3313 38.0921 19.4878C37.7277 19.6546 37.1709 19.8368 36.8732 19.4724C36.5756 19.108 36.2651 18.7257 35.9623 18.3511L37.9253 17.3991C38.2358 17.8482 38.5283 18.3075 38.8362 18.7591C39.1108 19.1593 39.3673 19.5186 39.4238 20.0164C39.4623 20.3602 38.9003 20.722 38.6514 20.8349C38.3358 20.9786 37.8509 21.1505 37.5301 20.935C36.845 20.4731 36.3678 19.7957 35.8109 19.2004L37.6764 18.1355C38.3538 19.0644 39.1723 19.9189 39.5778 21.012C39.7343 21.4353 39.1518 21.8331 38.8336 21.9793C38.4641 22.1487 37.9176 22.3257 37.6148 21.9639C36.8527 21.0556 35.9803 20.1909 35.5005 19.0901C35.3362 18.7154 35.8597 18.3434 36.1189 18.1946C36.378 18.0457 37.0837 17.7327 37.3659 18.0226C37.8355 18.505 38.282 19.0105 38.6771 19.5571C38.9106 19.8804 38.2537 20.3422 38.0587 20.4526C37.8047 20.5963 37.0734 20.9222 36.8117 20.6245C36.2061 19.9291 35.6134 19.1824 35.462 18.2484C35.4055 17.9123 36.0008 17.5351 36.2343 17.4299C36.4037 17.3529 36.5807 17.2913 36.7629 17.2554C36.8963 17.2298 37.2402 17.2067 37.3556 17.3298C38.1665 18.1971 39.1185 19.0875 39.4315 20.273C39.5367 20.6758 39.121 20.994 38.8131 21.1685C38.5052 21.343 37.8791 21.6124 37.5661 21.3404C36.8219 20.6963 36.1471 19.983 35.4697 19.2723L37.235 18.0919C38.2691 19.1978 39.3032 20.3653 39.9088 21.7715C40.0704 22.1461 39.5521 22.5182 39.2904 22.667C38.9902 22.8389 38.3641 23.1058 38.0433 22.8389C37.2607 22.1872 36.6115 21.3789 35.7263 20.8554L37.5917 19.7906C38.3102 20.6681 39.0646 21.5123 39.8292 22.3463C40.4297 23.0031 41.2764 23.601 41.6382 24.4324C41.8024 24.807 41.279 25.1791 41.0198 25.3279C40.7299 25.4921 40.0832 25.7744 39.7728 25.4998C39.0081 24.8224 38.305 24.0757 37.5507 23.388C36.7963 22.7004 36.0239 22.1256 35.3055 21.4405C34.6537 20.8195 36.5089 19.9317 37.0708 20.2601C38.4616 21.0761 39.6907 22.1204 40.9634 23.1006C41.6254 23.6113 39.7856 24.6556 39.198 24.281C37.8765 23.4393 36.745 22.3411 35.4517 21.4584L37.2171 20.2781C38.0587 21.112 39.0056 21.8254 39.9088 22.5875C40.3783 22.9826 40.8325 23.3932 41.2944 23.7986C41.4868 23.9679 41.7101 24.0834 41.8897 24.2681C42.0693 24.4529 42.2232 24.671 42.3259 24.9173C42.4824 25.2945 41.9718 25.6615 41.7075 25.8128C41.4175 25.9771 40.7684 26.2593 40.4604 25.9848C39.1595 24.8275 37.7636 23.7883 36.2856 22.8697L38.051 21.6894C39.1775 22.5079 40.3116 23.3213 41.5202 24.0167L39.7548 25.197C39.1262 24.5889 38.4308 24.0629 37.7354 23.5317C37.0888 23.0391 36.473 22.4874 35.7288 22.141L37.4942 20.9606C38.3256 21.8869 39.3417 22.6105 40.3091 23.3855L38.4436 24.4503C38.4898 24.5068 38.3487 24.3682 38.3512 24.3733C38.2897 24.322 38.2281 24.2733 38.1639 24.2245C38.0485 24.1373 37.9253 24.0577 37.8047 23.9808C37.5686 23.8294 37.3197 23.6934 37.0888 23.5317C36.7527 23.2982 36.3934 23.057 36.0829 22.7927C35.7956 22.549 35.6493 22.2924 35.2567 22.2051L36.8681 20.9555C38.6309 22.608 40.5451 24.086 42.3438 25.6999C42.9879 26.2773 41.1455 27.2652 40.5785 26.8803C39.6984 26.2824 38.8773 25.605 38.0023 25.002C37.5661 24.7018 37.117 24.4221 36.6757 24.1321C36.2831 23.8756 36.047 23.5805 35.5595 23.5163L37.1709 22.2667C38.1562 23.1648 39.3006 23.855 40.3475 24.6736C41.3944 25.4921 42.3413 26.4312 43.4703 27.142L41.6049 28.2069C41.4509 27.9862 41.2225 27.9169 40.9993 27.7886C40.7196 27.627 40.4553 27.4345 40.1833 27.2626C39.6009 26.8957 39.0056 26.5493 38.4154 26.1926C37.235 25.4793 36.065 24.7454 34.8462 24.0988L36.6115 22.9185C38.2127 23.932 39.8934 24.807 41.4663 25.8693C42.2463 26.3953 43.0161 26.9393 43.7987 27.4627C44.1759 27.7168 44.5557 27.9682 44.9329 28.2197C45.1253 28.348 45.3203 28.4737 45.5205 28.5866C45.6026 28.6328 45.6898 28.6764 45.7745 28.7175C45.9208 28.7893 46.0183 28.7611 45.7745 28.7996L44.5018 29.9389C44.294 29.5206 43.9065 29.2666 43.5652 28.9638C43.4292 28.8432 43.2907 28.7226 43.147 28.6123C43.0623 28.5481 42.9725 28.4891 42.8827 28.4301C42.8673 28.4198 42.7724 28.348 42.8211 28.3942C42.8545 28.407 42.8545 28.4096 42.8211 28.3967C42.6261 28.3403 42.7955 28.3198 43.3215 28.3326L44.2349 27.142C45.3511 28.0196 46.5469 28.8201 47.8632 29.3615L46.2723 30.0107C46.2261 30.0697 46.1953 30.1365 46.1799 30.2083C46.203 30.293 46.203 30.3032 46.1799 30.2417C46.1876 30.2365 46.1184 30.1493 46.126 30.1596C46.0131 30.0467 45.8772 29.9568 45.7412 29.8722C45.6052 29.7875 45.4538 29.7054 45.3049 29.631C45.2382 29.5976 45.1715 29.5668 45.1022 29.536C45.2665 29.6104 45.1176 29.5437 45.0817 29.5309L46.7906 28.3967C46.8933 28.833 47.4809 28.9767 47.799 29.2743C48.4226 29.8516 46.5854 30.8934 46.0337 30.4546C45.3383 29.9004 44.666 29.2384 43.8372 28.8868L45.5461 27.7527C45.9695 28.3223 46.6392 28.6995 47.2807 28.9741L45.5718 30.1082C45.3717 29.4154 44.4556 29.105 43.8988 28.7534C43.5216 28.5173 43.1701 28.2454 42.7929 28.0093C42.4157 27.7732 41.9795 27.5474 41.6177 27.5449L43.1239 26.385C44.276 27.7168 45.6821 28.8099 47.0831 29.8645L45.2177 30.9293C44.7892 30.3879 44.0194 30.0851 43.4472 29.7208C42.7364 29.2666 42.0257 28.8047 41.2225 28.5276L42.9314 27.3935C43.2599 27.8938 43.75 28.2402 44.2298 28.5841C44.7456 28.9536 45.2305 29.3308 45.618 29.8388C45.7206 29.9722 45.5692 30.2288 45.5 30.3263C45.3691 30.5008 45.1869 30.6291 45.0022 30.7343C44.6712 30.9242 44.1169 31.1423 43.7551 30.9062C42.5568 30.1211 41.474 29.164 40.2141 28.4737L42.0796 27.4089C42.8673 28.3377 43.9501 28.9715 44.8687 29.7593C45.5025 30.3007 43.6653 31.3861 43.1034 30.9396C42.2361 30.2519 41.3585 29.5745 40.4143 28.992L42.2797 27.9272C42.5696 28.3891 43.0033 28.7021 43.4267 29.0331C43.9296 29.4283 44.4146 29.8439 44.9303 30.2237L43.0649 31.2886C42.3464 30.4598 41.4637 29.7901 40.7273 28.9792C40.4887 28.7175 40.676 28.4096 40.9095 28.2069C41.2559 27.9041 41.6818 27.7373 42.136 27.7065C42.8955 27.6552 43.6627 28.2813 44.2349 28.7072C44.9996 29.2794 45.7155 29.944 46.5366 30.4341L44.6712 31.499C44.0143 30.7318 43.1496 30.1134 42.3413 29.5155C41.533 28.9176 40.6324 28.2992 39.7728 27.6962C38.9132 27.0932 37.9869 26.4774 37.0785 25.8898C36.3318 25.4074 35.4338 25.002 34.859 24.3066C34.7538 24.1783 34.9103 23.9115 34.977 23.8191C35.1079 23.6446 35.2901 23.5163 35.4748 23.4111C35.8109 23.2187 36.3549 23.0083 36.7219 23.2392C37.8868 23.9756 38.9671 24.8352 40.0781 25.6486C41.1892 26.462 42.3105 27.3062 43.324 28.2659C43.6602 28.5841 43.2111 29.0254 42.9314 29.2025C42.6389 29.3898 41.8974 29.7541 41.5587 29.4462C40.6016 28.5764 39.5598 27.8117 38.4975 27.0753C37.5738 26.4364 36.6757 25.6332 35.5749 25.3202L37.1863 24.0706C38.3153 25.1072 39.5444 26.0181 40.7581 26.9521C41.9718 27.8861 43.2342 28.9151 44.4813 29.885L42.7159 31.0653C41.5458 30.1313 40.286 29.3231 39.0723 28.4506C38.4718 28.0196 37.874 27.5885 37.2684 27.1651C36.9631 26.9521 36.6628 26.7417 36.3755 26.5031C36.1497 26.3158 35.9213 26.2003 35.639 26.131L37.2504 24.8814C39.0825 26.1439 40.8222 27.5295 42.4773 29.0151C43.1162 29.5899 41.2764 30.5983 40.7119 30.1955C39.7497 29.5078 38.79 28.815 37.8098 28.153C37.3377 27.8348 36.8579 27.5218 36.3832 27.2087C36.2703 27.1343 36.1291 27.065 36.0265 26.9726C35.9315 26.888 35.8802 26.7699 35.793 26.6801C35.7442 26.6288 35.5697 26.5467 35.5467 26.4928C35.5826 26.5775 36.0624 26.3876 35.7904 26.4826L36.7039 25.292C38.4975 26.7494 40.4502 27.9965 42.2515 29.4437C42.8904 29.9568 41.0583 31.0705 40.4861 30.624C39.5213 29.8696 38.5385 29.1537 37.5224 28.4686C36.5628 27.822 35.5826 27.1805 34.4869 26.793L36.0983 25.5434C38.3872 27.6321 41.1738 29.105 43.3548 31.3219C43.9578 31.9352 42.1257 32.9564 41.5895 32.5023C40.2475 31.3681 38.7874 30.3931 37.3326 29.4129C35.9675 28.4943 34.605 27.5192 33.0705 26.8957L34.8077 25.9078C34.8077 26.0207 34.782 25.9309 34.8077 25.9745C34.8231 26.0002 34.8744 26.0823 34.8231 26.0258C34.9 26.1105 34.9411 26.0951 35.0694 26.1182C35.4286 26.1823 35.775 26.4158 36.1137 26.6288C36.7578 27.0368 37.3659 27.4961 37.9715 27.958C39.2288 28.9151 40.4271 29.9466 41.7024 30.878L39.8369 31.9429C39.6753 31.6042 39.3237 31.3476 38.9748 31.0807C38.5899 30.7856 38.1896 30.5162 37.7867 30.2468C37.3018 29.9235 36.845 29.5566 36.3806 29.205C36.2395 29.0973 36.106 28.9792 35.9521 28.8971C35.7802 28.8022 35.6057 28.7406 35.444 28.6226C35.1874 28.4327 34.977 28.1709 34.8333 27.8861C34.6511 27.5243 35.2105 27.1292 35.4517 26.9906C35.8109 26.7853 36.3062 26.6083 36.6988 26.8187C38.5514 27.8117 40.2167 29.1203 42.1232 30.021L40.2731 30.7754C40.25 30.8087 40.2449 30.8421 40.2577 30.878C40.2706 30.9216 40.2654 30.9139 40.2475 30.8549C40.2244 30.8395 40.1756 30.7266 40.1551 30.701C40.1269 30.6625 39.996 30.5419 39.9242 30.4829C39.7368 30.3263 39.5367 30.1878 39.3391 30.0467L41.1045 28.8663C41.9359 29.5591 42.7878 30.2263 43.6345 30.8985L41.7691 31.9634C41.6433 31.5375 41.1302 31.2809 40.8068 31.0089C40.3219 30.6035 39.8164 30.2237 39.2852 29.8824C38.885 29.6258 39.4572 29.087 39.6778 28.9459C40.0576 28.7021 40.617 28.4712 41.0506 28.7021C42.0026 29.2102 42.8699 29.8619 43.8398 30.334L41.9743 31.3989C41.9128 31.1603 41.7768 30.9601 41.5997 30.7908C41.5022 30.6984 41.3944 30.6112 41.2841 30.5316C41.2379 30.4983 41.1892 30.4675 41.1404 30.4367C41.1455 30.4392 40.9505 30.334 41.0275 30.3674L42.6389 29.1178C42.8596 29.3513 43.1034 29.5668 43.3446 29.7772C43.4985 29.9107 43.6525 30.0441 43.8167 30.1673C43.886 30.2186 43.9578 30.2673 44.0297 30.3161C44.1836 30.4213 43.9912 30.3032 43.8834 30.3058L43.3882 30.3905L43.4036 30.3854L42.6723 30.801L42.6851 30.7908L42.4054 31.4502C41.8922 30.7908 41.1943 30.3058 40.522 29.826C39.8497 29.3461 39.1441 28.8201 38.3615 28.4994L39.9729 27.2498C40.4348 27.7347 40.9762 28.1299 41.5176 28.5225L39.7522 29.7028C38.3743 28.5918 36.7193 27.8502 35.4825 26.5621C34.8718 25.9257 36.6911 24.9892 37.2479 25.3818C37.6636 25.6743 38.1049 25.9206 38.536 26.1823C38.9029 26.4056 38.4308 26.8957 38.2486 27.0368C37.933 27.2831 37.3403 27.5859 36.9246 27.4294C36.065 27.1112 35.3209 26.616 34.6075 26.0463L36.3729 24.866C36.6628 25.1431 36.9631 25.4074 37.2864 25.6435L35.4209 26.7084C35.0001 26.1644 34.4895 25.6974 34.138 25.1021C34.0045 24.8737 34.2714 24.5761 34.4176 24.4426C34.6871 24.1963 35.0489 24.0218 35.4081 23.9628C35.7417 23.9063 36.0393 23.9346 36.3395 24.0937C36.5243 24.1912 36.6834 24.3297 36.8732 24.4144L35.1079 25.5947C34.7076 25.1585 33.9891 24.8403 33.8352 24.2245C33.7325 23.8191 34.1431 23.5061 34.4536 23.329C34.8333 23.1135 35.2875 22.9698 35.7006 23.1571C36.1599 23.3649 36.532 23.6831 36.9374 23.9756C37.312 24.2451 37.6764 24.4837 37.9561 24.8609C38.1588 25.1329 37.6379 25.5742 37.466 25.6845C37.1375 25.8924 36.6449 26.1208 36.2472 25.9976C36.0752 25.9437 35.9085 25.859 35.7417 25.7846C35.4825 25.6692 35.444 25.6486 35.208 25.5486C34.9847 25.4536 34.7563 25.3612 34.5254 25.2894C34.4356 25.2612 34.3432 25.2458 34.256 25.2175C34.102 25.1688 34.4176 25.2227 34.2791 25.2175H34.2406C34.4561 25.2124 34.6614 25.1611 34.8564 25.061L35.3183 24.7531L35.539 24.4632L35.4543 24.0372C35.9059 24.5376 36.4011 24.9917 36.8322 25.5126C36.9374 25.6409 36.7809 25.9078 36.7142 26.0002C36.5833 26.1746 36.4011 26.3029 36.2164 26.4081C35.852 26.616 35.367 26.7828 34.9693 26.5801C34.5716 26.3774 34.2021 26.1002 33.789 25.9206L35.4004 24.671C36.142 25.3946 37.0067 25.9796 37.7585 26.693C38.0613 26.9829 37.7149 27.3575 37.4711 27.5474C37.135 27.8091 36.5859 28.0683 36.1471 27.94C34.9873 27.6013 34.0507 26.8213 33.0012 26.2568L34.8667 25.1919C34.9591 25.469 35.1335 25.4921 35.3491 25.6589C35.639 25.8821 35.911 26.1387 36.1907 26.3748C36.7475 26.8444 37.3095 27.3088 37.8714 27.7707C38.9748 28.6764 40.0832 29.5796 41.0994 30.5829C41.7357 31.2116 39.8959 32.1122 39.334 31.7633C37.507 30.624 35.9033 29.1768 34.1123 27.9862L35.8777 26.8059C36.5756 27.5654 37.389 28.1966 38.1793 28.8561C39.0184 29.5566 39.8446 30.2725 40.7145 30.9345L38.9491 32.1148C37.2299 30.4957 35.2285 29.2255 33.2065 28.0196L35.072 26.9547C35.8289 27.9631 37.0246 28.6354 38.051 29.3333C39.2673 30.1596 40.5169 31.0191 41.5535 32.0686C41.8768 32.3971 41.4483 32.8204 41.1609 33.0052C40.7889 33.2438 40.2167 33.4876 39.7882 33.249C39.1441 32.8872 38.6078 32.3945 38.01 31.966C37.3582 31.4964 36.6936 31.0422 36.0239 30.6009C35.3542 30.1596 34.7076 29.7285 34.0558 29.2871C33.9019 29.1819 33.7454 29.0767 33.5914 28.9715C33.4067 28.8458 33.3143 28.7124 33.1655 28.5533C33.0782 28.4609 32.9602 28.366 32.8473 28.3069C32.8396 28.3044 32.7831 28.2787 32.7677 28.2736C32.7549 28.2685 32.5573 28.2377 32.6266 28.2428L34.0353 26.9701C35.2926 27.9169 36.6141 28.7765 37.8688 29.7285C38.4539 30.1724 39.0132 30.6445 39.5598 31.1346C40.0653 31.5862 40.599 32.0609 41.2354 32.3175L39.5264 33.4517C39.3443 33.1874 39.1133 33.0385 38.8465 32.8692C38.5257 32.669 38.2383 32.3919 37.9407 32.1559C37.3351 31.6786 36.7167 31.2193 36.106 30.7497C34.9847 29.8927 33.83 29.0049 32.5009 28.4968L34.1123 27.2472C35.4645 28.1504 36.8604 28.9869 38.1793 29.9389C39.4982 30.8908 40.8145 31.9249 42.1283 32.9231L40.2783 33.6775C40.2372 33.8263 40.2423 33.68 40.1859 33.58C40.1346 33.4876 40.0679 33.408 39.9986 33.3285C39.819 33.1284 39.6188 32.9462 39.4392 32.746C38.8773 32.1148 38.2948 31.5015 37.7585 30.8447C37.6533 30.7164 37.8098 30.4495 37.8765 30.3571C38.0074 30.1826 38.1896 30.0544 38.3743 29.9491C38.7413 29.7387 39.2185 29.5771 39.6214 29.7772C40.522 30.2237 41.2046 30.9755 41.9949 31.5785L40.1294 32.6434C40.0422 32.3406 39.6855 32.1661 39.452 31.9814C38.7874 31.4528 40.5708 30.5188 41.0634 30.7318C41.5869 30.9576 42.0411 31.3373 42.5748 31.5323L40.8659 32.6665C40.3142 32.0301 39.5726 31.4631 38.7874 31.15L40.4964 30.0159C40.8864 30.8549 41.6793 31.3886 42.2592 32.084C42.3644 32.2123 42.2078 32.4817 42.1411 32.5715C42.0103 32.746 41.8281 32.8743 41.6433 32.9795C41.3046 33.172 40.7658 33.3824 40.3963 33.1514C37.7174 31.4682 35.1464 29.6181 32.4393 27.9785L34.2047 26.7982C36.768 28.7483 39.4007 30.6394 41.6074 33.0001C42.2104 33.6441 40.3989 34.5781 39.842 34.1804C36.786 31.9993 33.8069 29.6797 30.443 27.9811L32.2084 26.8007C34.5459 28.4096 36.8348 30.0877 39.0954 31.7992C39.47 32.084 38.9465 32.5792 38.7028 32.7358C38.3487 32.9616 37.738 33.2361 37.33 32.9795C35.3516 31.7299 33.4682 30.3289 31.3924 29.2435L33.1578 28.0632C34.3176 28.9792 35.4979 29.867 36.7013 30.7241C37.8098 31.5118 39.003 32.2123 39.9729 33.1797C40.5939 33.7981 38.7644 34.7577 38.2075 34.36C35.6596 32.5433 33.0962 30.7164 30.2582 29.3718L32.0236 28.1915C33.4374 29.2486 34.936 30.1878 36.3934 31.1834C37.1067 31.6709 37.8098 32.1713 38.4847 32.7075C38.7515 32.9179 38.9927 33.1463 39.2442 33.3721C39.375 33.4876 39.511 33.6082 39.6624 33.6929C39.6727 33.698 39.8087 33.7698 39.8061 33.757C39.8036 33.7416 39.588 33.7904 39.5855 33.7904L38.5437 34.7192C38.6489 34.3036 38.0613 33.9879 37.7688 33.7314C37.2094 33.2387 36.6218 32.782 35.9957 32.3817L37.7611 31.2013C38.8003 32.2559 39.9832 33.1489 41.2328 33.9366L39.3673 35.0015C38.9876 34.4934 38.5206 34.0649 37.992 33.716C37.5507 33.426 37.1735 32.959 36.6577 32.9025L38.0664 31.6298C38.6489 32.2251 39.3494 32.6793 39.878 33.3336C39.9832 33.4619 39.8267 33.7288 39.7599 33.8212C39.6291 33.9956 39.4469 34.1239 39.2621 34.2291C38.944 34.4113 38.3615 34.65 38.0151 34.4011C37.0631 33.7134 36.0778 33.0745 35.113 32.4022C34.8308 32.2046 34.5588 31.9942 34.2688 31.8095C34.1072 31.7068 33.9429 31.6016 33.7685 31.5246C33.8454 31.558 33.6299 31.4836 33.6145 31.4733C33.5273 31.4554 33.5375 31.4528 33.6504 31.4682C33.4785 31.4656 33.5811 31.4425 33.9558 31.404L34.8692 30.2134C36.4139 31.6221 38.2897 32.6075 39.6522 34.2189C39.7599 34.3446 39.5983 34.6166 39.5341 34.7064C39.4033 34.8809 39.2211 35.0092 39.0363 35.1144C38.7336 35.2863 38.1152 35.548 37.7893 35.2863C36.0983 33.9212 34.4305 32.5023 32.4701 31.5272L34.3355 30.4623C34.8923 31.1885 35.7519 31.6298 36.4909 32.1405C37.3864 32.7563 38.2691 33.3926 39.0902 34.106C39.7368 34.6679 37.8945 35.6738 37.3249 35.2863C36.514 34.7372 35.7622 34.1162 34.9308 33.5902C34.0995 33.0642 33.1886 32.5151 32.3136 31.9788L34.179 30.9139C34.7409 31.6709 35.6467 32.1584 36.3986 32.7024C37.2222 33.2977 38.0331 33.8853 38.6848 34.6756C38.79 34.8039 38.6335 35.0708 38.5668 35.1631C38.4359 35.3376 38.2537 35.4659 38.069 35.5711C37.7251 35.7661 37.1966 35.9689 36.8219 35.7431C35.4004 34.886 34.0661 33.8956 32.6702 33.0001L34.4356 31.8197C36.0034 32.9821 37.7688 33.875 39.0338 35.4018C39.2493 35.6609 38.7028 36.1228 38.5437 36.2254C38.2332 36.423 37.7021 36.6848 37.3249 36.5385C36.4165 36.1844 35.6339 35.5942 34.8564 35.0143C34.5947 34.8193 34.3432 34.614 34.0738 34.4319C33.925 34.3318 33.7659 34.2266 33.6017 34.1522C33.6761 34.1855 33.4965 34.1188 33.499 34.1188C33.458 34.106 33.4195 34.0983 33.3784 34.0906C33.5196 34.1265 33.6633 34.1111 33.8044 34.047L34.7179 32.8564C35.3645 33.5774 36.1137 34.2009 36.8835 34.786C37.4737 35.235 38.187 35.5942 38.5668 36.2588C38.7669 36.6078 38.1742 37.026 37.9484 37.1543C37.584 37.3622 37.0991 37.5289 36.7013 37.3262C35.4184 36.6668 34.315 35.7302 33.1398 34.9066L35.0052 33.8417C35.4209 34.4267 36.1343 34.8167 36.6731 35.2837C37.3685 35.8842 38.0638 36.482 38.7695 37.0696C39.4058 37.6008 37.5712 38.6913 37.0041 38.25C35.9392 37.4212 34.8615 36.6103 33.789 35.7918L35.6544 34.7269C36.2959 35.6507 37.3095 36.2383 38.1716 36.9311C38.536 37.2236 38.0331 37.706 37.779 37.8677C37.4095 38.1037 36.8296 38.3552 36.4062 38.1114C35.5056 37.5931 34.6717 36.9157 33.694 36.5436L35.3055 35.294C36.1548 36.2203 37.1786 36.949 38.1306 37.7624C38.7695 38.309 36.9323 39.3662 36.3652 38.9428C35.6852 38.4373 35.0771 37.8446 34.4459 37.2801C33.8146 36.7155 35.6596 35.6455 36.2112 36.0997C36.8989 36.6694 37.5763 37.2518 38.1742 37.9164C38.4795 38.2577 38.0844 38.6605 37.7816 38.853C37.3864 39.1044 36.8579 39.3123 36.4088 39.0967C35.7314 38.7709 35.2387 38.1781 34.569 37.842L36.4345 36.7771C36.804 37.2133 37.2453 37.588 37.6353 38.0062C37.9176 38.3116 37.6122 38.658 37.3479 38.8607C36.9887 39.1404 36.4858 39.3482 36.0239 39.2533C35.6134 39.1686 35.3311 38.9146 35.0694 38.6092C34.9616 38.4835 35.1233 38.2115 35.1874 38.1217C35.3183 37.9472 35.5005 37.8189 35.6852 37.7137C35.97 37.552 36.6295 37.2647 36.9323 37.5418C37.3531 37.9292 37.8226 38.2987 38.0946 38.8145C38.282 39.1737 37.7123 39.574 37.4762 39.71C37.1735 39.8845 36.5551 40.1436 36.2292 39.8819C35.7776 39.5201 35.3337 39.1481 34.8513 38.8299L36.745 37.9113C36.7475 38.1935 36.9605 38.4578 37.1221 38.6785C37.312 38.9377 37.525 39.1814 37.6661 39.4739C37.8432 39.8409 37.2966 40.2283 37.0477 40.3694C36.7013 40.567 36.1779 40.7646 35.8007 40.5414C35.5646 40.4002 35.4158 40.1616 35.172 40.0307L37.0375 38.9659C37.2197 39.3508 37.5301 39.6407 37.7559 39.9974C37.9817 40.3541 37.3479 40.7723 37.1375 40.8929C36.7988 41.0853 36.26 41.2958 35.8905 41.0648C35.4055 40.762 35.0643 40.2976 34.7281 39.8434L36.6911 38.8915C36.8194 39.5432 37.2171 40.1154 37.8021 40.431L36.0573 41.0109C36.1189 40.9237 36.1676 40.7543 36.1779 40.5568C36.1907 40.331 36.1676 40.1026 36.124 39.8845C36.0291 39.4098 35.8546 38.9556 35.7263 38.4912L37.5712 38.0242C37.6713 37.8677 37.6122 37.9908 37.6097 38.1063C37.6097 38.2166 37.6199 38.327 37.6328 38.4347C37.6661 38.6836 37.7277 38.9274 37.7688 39.1737C37.8714 39.7895 37.8278 40.4156 38.0177 41.0186L36.0675 41.6576C36.3293 40.8082 36.124 39.8332 36.0983 38.9633C36.0701 38.0011 36.0727 37.0696 36.3241 36.1356C36.4678 35.6045 38.2306 34.7885 38.3025 35.643C38.382 36.6155 38.2537 37.6188 38.477 38.5784L36.5268 39.2173C37.0657 38.291 36.8348 37.1081 36.9092 36.0843L38.9286 35.4274C38.8798 35.8893 38.7874 36.346 38.7823 36.813L36.804 37.3057C36.9374 36.8567 37.0426 36.3974 37.2171 35.9612C37.407 35.4813 39.0979 34.5755 39.1954 35.4685C39.2467 35.9355 39.0338 36.3768 38.731 36.7207C38.3384 37.1646 37.5763 37.5957 36.9862 37.3006C36.0752 36.8464 35.5621 35.9483 35.3516 34.981C35.2362 34.4447 35.9392 34.0316 36.3652 33.9058C36.9605 33.7313 37.7739 33.6338 38.2717 34.1111C38.4359 34.2702 38.6694 34.3189 38.8362 34.4909C39.0132 34.673 39.0825 34.8783 39.0723 35.1349C39.062 35.4659 38.672 35.7431 38.4256 35.8816C38.1511 36.0381 37.6584 36.2537 37.3351 36.1228C36.3986 35.7456 35.639 35.0682 34.7204 34.6654L36.4293 33.5312C36.6808 33.9674 37.0554 34.3087 37.3813 34.6884C37.602 34.9425 37.0452 35.412 36.8912 35.5121C36.5936 35.702 36.0342 35.9843 35.6724 35.8252C34.4741 35.294 33.5196 34.4344 32.465 33.6775C31.4104 32.9205 30.4738 32.0481 29.3011 31.6196L30.9126 30.37C31.7927 30.9473 32.6985 31.4836 33.5786 32.0609C34.4587 32.6383 35.2798 33.2823 36.1599 33.8545L34.3945 35.0349C33.4785 34.3395 32.5317 33.6954 31.5925 33.0334C31.3077 32.8307 31.0357 32.61 30.7458 32.415C30.5867 32.3072 30.4225 32.1995 30.248 32.1148C30.171 32.0789 30.1633 32.0917 30.0632 32.0455C29.9734 32.0276 29.976 32.0224 30.0761 32.0353C30.0376 32.0327 29.9991 32.0327 29.9606 32.0353L31.3693 30.7626C32.8037 32.0173 34.3792 33.0976 35.8494 34.3113C36.4961 34.8475 34.6588 35.897 34.0841 35.4916C32.5753 34.4319 31.2102 33.1899 29.7938 32.0122L31.5592 30.8318C33.0115 32.4663 34.7307 33.8263 36.3267 35.312L34.5613 36.4923C33.0115 34.9219 31.3924 33.4157 29.5757 32.1584L31.3411 30.9781C32.719 32.1199 34.2098 33.1104 35.7006 34.0957L33.8069 35.0143C33.7992 35.0759 33.8788 35.1503 33.8018 35.0631C33.771 35.0272 33.7428 34.9835 33.7146 34.945C33.7916 35.0477 33.7094 34.9425 33.6504 34.8809C33.5914 34.8193 33.5324 34.7629 33.4708 34.7038C33.1578 34.4062 32.8293 34.1291 32.4983 33.8519C32.0416 33.4722 31.5771 33.0129 31.064 32.7101L31.4206 32.805C31.9235 32.4176 32.4265 32.0327 32.9268 31.6452C32.9063 31.6221 32.7831 31.4964 32.8678 31.5657C33.5016 32.0866 31.6669 33.2053 31.1024 32.746C30.1094 31.9403 29.042 31.227 28.1131 30.3417C27.4716 29.7285 29.314 28.8047 29.8785 29.1614C31.844 30.4085 33.7146 31.7992 35.6365 33.113L33.8711 34.2933C32.9627 33.4029 31.9672 32.6177 30.9562 31.8454C30.094 31.1859 29.0933 30.6394 28.4262 29.767C28.3235 29.6335 28.4749 29.3769 28.5442 29.2794C28.6751 29.105 28.8572 28.9767 29.042 28.8714C29.3781 28.679 29.9221 28.466 30.289 28.6995C31.3308 29.3615 32.3598 30.0415 33.4015 30.7035C34.1816 31.1988 35.072 31.5554 35.6647 32.2919C35.7699 32.4227 35.6159 32.687 35.5467 32.7794C35.4158 32.9539 35.2336 33.0822 35.0489 33.1874C34.7307 33.3696 34.1482 33.6082 33.8018 33.3593C32.8421 32.6665 31.9364 31.9044 31.0306 31.1449C30.2993 30.5316 29.4192 30.0492 28.8752 29.2409C28.652 28.9099 29.2883 28.4609 29.4936 28.3454C29.8631 28.135 30.3378 27.9759 30.7406 28.1735C32.2417 28.9125 33.6504 29.8157 35.1079 30.6317L33.3425 31.812C32.1468 30.8164 30.8279 29.9851 29.5475 29.0998C29.1959 28.8561 29.6347 28.3993 29.8349 28.2454C30.1838 27.9759 30.7073 27.7399 31.1589 27.8528C32.1647 28.1017 33.0936 28.5918 34.1174 28.7714L32.506 30.021C31.7516 29.5206 30.9536 29.1871 30.0761 28.9767L31.785 27.8425C32.0544 28.6816 33.0218 29.1075 33.7094 29.5643C34.0276 29.7721 34.3458 29.9851 34.6332 30.234C34.9206 30.4829 35.249 30.7856 35.0745 31.1936C34.9437 31.4938 34.628 31.7094 34.3458 31.8479C34.102 31.966 33.6556 32.1379 33.381 32.0173C32.3546 31.5631 31.3488 31.0679 30.3378 30.5804C29.4115 30.1339 28.4877 29.6027 27.487 29.3513L29.0984 28.1017C30.0145 28.7226 30.969 29.3154 31.9312 29.8619C32.2417 30.039 32.5548 30.2083 32.8498 30.411C33.1064 30.5881 33.4759 30.8395 33.5555 31.1577C33.6427 31.5041 33.3348 31.8069 33.0654 31.9814C32.7652 32.1738 32.2135 32.4509 31.8466 32.2944C29.8451 31.4323 27.913 30.4059 25.8653 29.6464L27.4768 28.3967C29.4115 29.3231 31.3257 30.3186 33.0474 31.6093C33.4246 31.8916 32.8986 32.3894 32.6548 32.5459C32.252 32.8025 31.7388 32.9975 31.2821 32.7896C30.1787 32.2867 29.083 31.7633 27.9771 31.2655C27.0072 30.8318 25.9577 30.5214 25.0802 29.9081C24.7286 29.6643 25.1674 29.2076 25.3676 29.0536C25.7165 28.7842 26.24 28.5481 26.6916 28.661C28.8162 29.1871 30.8253 30.1236 32.7292 31.1859C33.0089 31.3425 32.76 31.7299 32.6266 31.8736C32.37 32.1507 31.9364 32.4073 31.554 32.4407C31.1717 32.474 30.8202 32.4843 30.4533 32.3894C30.1479 32.3073 29.8759 32.1405 29.5808 32.0378C28.9317 31.8095 28.2876 31.5657 27.6487 31.3091C26.3323 30.7779 25.0314 30.216 23.7074 29.7105L25.3188 28.4609C26.9584 29.2589 28.7007 29.8439 30.2711 30.7856C30.5841 30.973 30.2557 31.4143 30.0889 31.558C29.7656 31.8402 29.3011 32.0737 28.8624 32.0584C27.7436 32.0224 26.7249 31.6144 25.6883 31.2321C24.6517 30.8498 23.5483 30.4495 22.504 29.9851C22.3474 29.9158 22.3705 29.6772 22.4193 29.5591C22.4911 29.3821 22.6451 29.2435 22.7913 29.1306C23.1121 28.8817 23.6946 28.5866 24.1154 28.738C24.8441 28.9997 25.578 29.2409 26.3118 29.4898C26.766 29.6438 26.5556 30.0954 26.2862 30.3315C25.9192 30.6522 25.3547 30.9191 24.8569 30.8062C23.9281 30.5983 23.0531 30.2211 22.2089 29.7901C21.8214 29.5925 22.3346 29.0588 22.4963 28.9356C22.8067 28.6944 23.4097 28.3814 23.8203 28.543C26.7044 29.6746 29.4602 31.0987 32.3264 32.2713L30.715 33.5209C29.6809 32.8204 28.5801 32.2277 27.446 31.7068C26.4196 31.2373 25.2803 30.9807 24.3386 30.3366C23.9871 30.0954 24.4284 29.6361 24.626 29.4821C24.9673 29.2179 25.5061 28.9664 25.95 29.0896C27.6512 29.5566 29.2575 30.293 30.851 31.0345C31.2461 31.2193 30.7124 31.7735 30.5636 31.889C30.2275 32.1507 29.6783 32.4099 29.2396 32.2816C28.3748 32.0276 27.5948 31.5631 26.7993 31.1474C26.0039 30.7318 25.1494 30.2802 24.3694 29.7644C24.1513 29.6207 24.2565 29.3231 24.3899 29.164C25.3932 27.9888 26.9276 28.3685 28.1824 28.815C29.5911 29.3154 30.9793 29.8696 32.3854 30.3725L30.774 31.6221C30.0889 31.0166 29.219 30.6471 28.4185 30.2211C27.7308 29.8568 26.9867 29.5052 26.5633 28.8176C26.3837 28.5276 26.8609 28.1171 27.0534 27.9939C27.3818 27.7835 27.8745 27.5603 28.2722 27.6809C29.5372 28.0709 30.7945 28.4943 32.0595 28.8868L30.4481 30.1365C29.8015 29.7541 29.1652 29.3538 28.5724 28.8894C28.2927 28.6687 28.5545 28.2838 28.7546 28.1171C29.2062 27.7399 29.781 27.473 30.3814 27.5064C30.7868 27.5295 31.1461 27.6911 31.5079 27.8579C31.6593 27.9272 31.7208 27.958 31.7952 27.9888C31.9441 28.0478 32.0929 28.1094 32.2417 28.1735C32.4162 28.2505 32.5907 28.3275 32.7703 28.3916C32.8575 28.4224 32.9448 28.4506 33.0346 28.4712C33.0757 28.4814 33.1193 28.4917 33.1603 28.4968C33.0936 28.484 33.1039 28.4789 33.1911 28.484L31.7824 29.7567C31.1332 29.2615 30.0196 29.0074 29.8887 28.0709C29.8451 27.763 30.3378 27.4371 30.5354 27.3242C30.8535 27.142 31.2564 26.9983 31.6259 27.083C32.6189 27.3088 33.4477 27.881 34.2945 28.4121L32.5291 29.5925C32.0364 29.0742 31.4309 28.6662 31.0716 28.0324C30.9434 27.8066 31.1999 27.5038 31.3513 27.3729C31.8928 26.9111 32.5676 26.6904 33.2681 26.8161C33.4477 26.8495 33.6222 26.9059 33.7992 26.9598C33.8839 26.9855 33.9686 27.0163 34.0533 27.0394C34.102 27.0522 34.3792 27.0984 34.1533 27.0779L32.7446 28.3506C32.3315 28.035 31.826 27.8322 31.5592 27.3601C31.3898 27.0599 31.8466 26.6673 32.0493 26.5364C32.388 26.3183 32.8575 26.1182 33.2681 26.2234C33.9378 26.3953 34.4998 26.793 35.113 27.0984L33.3476 28.2787C32.9602 28.0042 32.2135 27.8605 32.098 27.3191C31.9672 26.7109 32.8678 26.2311 33.3707 26.1798C34.0071 26.1156 34.7769 26.0694 35.2849 26.5339C35.5954 26.8161 35.2362 27.2036 34.9975 27.3883C34.6409 27.6655 34.1328 27.881 33.6735 27.7809C33.3502 27.7116 33.0833 27.5141 32.7754 27.4089L34.3868 26.1592C34.7127 26.3825 35.0617 26.5621 35.4055 26.752C35.7109 26.9213 35.9829 27.1908 36.3036 27.3268L34.8744 27.8015C34.7512 27.8938 34.6794 28.0119 34.6563 28.1504C34.6588 28.1196 34.6614 28.0888 34.6563 28.058C34.6486 27.9939 34.6486 27.9913 34.6588 28.0452C34.6486 28.0067 34.6383 27.9657 34.628 27.9272C34.5742 27.7501 34.5074 27.5782 34.4484 27.4063C34.3253 27.0496 34.1995 26.6622 34.3638 26.2978C34.528 25.9334 34.9873 25.6461 35.3619 25.5357C35.6698 25.4433 36.0932 25.3638 36.3113 25.6589C36.6423 26.1079 36.9348 26.5493 37.4326 26.829L35.539 27.7476C35.5749 27.5526 35.5826 27.3909 35.5005 27.2087C35.4107 27.0086 35.2772 26.8392 35.1951 26.6314C35.0309 26.2157 34.9462 25.7667 34.9154 25.3202C34.8923 24.9789 35.4261 24.6094 35.6878 24.5016C36.1394 24.3143 36.591 24.1681 37.0785 24.3092L35.3696 25.4433C35.2362 25.1662 35.3209 24.8968 35.521 24.6736C35.7673 24.399 36.0624 24.1989 36.4139 24.0834C36.6474 24.009 37.0477 23.9166 37.2658 24.0937C38.4718 25.079 38.9311 26.557 39.7702 27.8168C39.8651 27.958 39.7291 28.1992 39.6522 28.3044C39.5033 28.5045 39.2519 28.6816 39.0286 28.7842C38.7002 28.9356 38.0664 29.1563 37.8098 28.7688C37.0349 27.6064 36.6167 26.1823 35.503 25.274L37.2479 24.6941L37.3351 24.4914C37.4865 24.8019 37.0631 25.1739 36.845 25.315C36.514 25.528 36.0291 25.7436 35.6262 25.6281L35.7442 25.6153L36.2728 25.4408L36.1676 25.4844L36.94 24.6659C36.9682 25.0867 37.0606 25.5024 37.2504 25.8847C37.4557 26.2978 37.6559 26.6083 37.5661 27.0932C37.4403 27.7681 36.2856 28.3531 35.6724 28.0119C35.0976 27.6911 34.7384 27.1317 34.3561 26.616L36.3062 25.9771C36.2703 26.0592 36.3139 25.9719 36.3087 25.9437C36.3139 25.9822 36.3062 26.0335 36.3087 26.0746C36.3139 26.1695 36.319 26.1515 36.3524 26.2619C36.4139 26.462 36.4935 26.657 36.5576 26.8572C36.7244 27.3601 36.7321 27.804 36.2805 28.1735C35.9546 28.4404 35.3003 28.8381 34.8513 28.6482C34.4433 28.4763 34.12 28.2069 33.7402 27.9888C33.3605 27.7707 32.9807 27.5859 32.624 27.3396C32.2674 27.0932 32.7139 26.6391 32.9114 26.4851C33.2373 26.2337 33.8095 25.9463 34.2355 26.0925C34.5434 26.1977 34.8154 26.3953 35.1335 26.4646L33.5221 27.7142C33.4067 27.609 33.2732 27.5346 33.1552 27.5141C33.1449 27.5141 33.0012 27.5038 32.9448 27.5038C32.9012 27.5038 32.8575 27.5038 32.8114 27.5064C32.9037 27.4961 32.896 27.4961 32.7934 27.5064L34.0661 26.3671C34.0789 26.4261 34.0943 26.4723 34.1251 26.521C34.0943 26.4723 34.1303 26.5262 34.1508 26.5441C34.2457 26.6339 34.3689 26.6981 34.4844 26.7597C34.6948 26.8726 34.9206 26.9598 35.1181 27.0984C35.503 27.3704 34.9591 27.8861 34.7256 28.035C34.3355 28.2838 33.7967 28.4994 33.3528 28.2787C32.8421 28.0247 32.3777 27.6885 31.8209 27.5423L33.5298 26.4081C33.73 26.7622 34.2021 26.9316 34.5177 27.1728C34.8051 27.3909 34.528 27.7784 34.3355 27.9451C34.0251 28.2171 33.5375 28.484 33.109 28.4455C32.8293 28.4198 32.5779 28.3506 32.3136 28.2659C32.1981 28.23 32.0852 28.1966 31.9697 28.1658C31.9338 28.1556 31.8953 28.1479 31.8594 28.1402H31.9184C31.8953 28.1402 31.8748 28.1402 31.8517 28.1402C31.9415 28.135 32.0287 28.1196 32.116 28.0965L32.6369 27.8425L32.7626 27.7399L33.0423 27.0804C33.3502 27.6218 33.8814 27.9682 34.3047 28.4147C34.9257 29.069 33.1013 29.9466 32.5394 29.595C31.7824 29.1229 31.064 28.6072 30.1813 28.4044L31.9184 27.4166C31.9056 27.3242 31.9697 27.5064 31.9877 27.5372C32.0236 27.5936 32.039 27.6039 32.1134 27.6706C32.2597 27.7989 32.4265 27.9041 32.5907 28.0042C32.9114 28.1966 33.2578 28.3531 33.5555 28.5789C33.8531 28.8047 33.5657 29.1845 33.3733 29.3513C33.0346 29.6464 32.5984 29.8362 32.1468 29.8516C31.5207 29.8747 30.969 29.554 30.4071 29.3308C30.171 29.2358 29.9452 29.1229 29.7117 29.0228C29.6501 28.9946 29.5141 28.9407 29.4192 28.9125C29.3704 28.8971 29.3217 28.8868 29.2729 28.874C29.1908 28.8586 29.178 28.8561 29.2344 28.8663C29.5654 28.933 29.8734 28.8073 30.1607 28.4866L30.3429 27.7142C30.9357 28.1786 31.5694 28.5789 32.2186 28.9613C32.5907 29.1794 32.1083 29.6772 31.9312 29.8157C31.5977 30.0749 31.0409 30.3443 30.6072 30.2083C29.3422 29.8183 28.0849 29.3949 26.8199 29.0023L28.5288 27.8682C28.8983 28.466 29.6655 28.7637 30.2608 29.0844C31.0383 29.5027 31.8774 29.8568 32.5445 30.4444C33.2116 31.032 31.4155 31.8659 30.9331 31.694C29.627 31.227 28.3235 30.7395 27.0277 30.2468C26.6685 30.1108 26.3041 29.9851 25.9346 29.8824C25.7165 29.8234 25.4984 29.7772 25.2777 29.7362C25.0956 29.7028 25.4266 29.7285 25.2547 29.7362C25.2239 29.7362 25.1828 29.7362 25.152 29.731C24.9955 29.7028 25.3445 29.6951 25.2059 29.7233C25.5523 29.6566 25.8884 29.4565 26.1194 29.1896L26.1399 28.5892C26.8866 29.0819 27.6718 29.5027 28.4646 29.9158C29.1934 30.2981 29.9041 30.7343 30.6996 30.9678L29.0882 32.2174C27.5948 31.5221 26.0912 30.8472 24.4977 30.411L26.1091 29.1614C27.0405 29.8003 28.1952 30.0646 29.2165 30.5316C30.3506 31.0525 31.4514 31.6427 32.4855 32.3457C32.8396 32.5869 32.3957 33.0488 32.1981 33.2002C31.8902 33.4388 31.2795 33.7596 30.8741 33.5928C28.0079 32.4202 25.2521 30.9961 22.368 29.8645L23.9794 28.6149C24.7261 28.9972 25.4959 29.3102 26.317 29.495L24.8621 30.8139C24.1282 30.5675 23.3943 30.3238 22.6656 30.062L24.277 28.8124C25.2136 29.2307 26.1861 29.5668 27.1483 29.9209C28.0387 30.2494 28.9573 30.665 29.9195 30.6958L28.5108 31.9685C26.9405 31.0268 25.1982 30.4418 23.5586 29.6438C23.166 29.4539 23.692 28.9099 23.8459 28.7893C24.159 28.5456 24.7569 28.2377 25.17 28.3967C26.4196 28.8714 27.6512 29.3975 28.888 29.903C29.4885 30.1493 30.094 30.3802 30.7022 30.6009C31.0203 30.7164 31.3385 30.8164 31.6387 30.9678C31.7465 31.0217 31.8491 31.0653 31.9672 31.0884C31.9672 31.0884 32.2392 31.109 32.1416 31.1167L30.969 32.3714C29.1575 31.363 27.2612 30.4854 25.2418 29.9851L26.8532 28.7355C27.7282 29.3436 28.7854 29.6592 29.7502 30.0928C30.8587 30.5881 31.9518 31.1141 33.0551 31.617L31.2898 32.7973C29.568 31.5067 27.6538 30.5111 25.7191 29.5848C25.3265 29.3975 25.8525 28.8484 26.0065 28.7303C26.3221 28.484 26.9148 28.1812 27.3305 28.3377C29.3781 29.0973 31.3077 30.1236 33.3117 30.9858L31.6028 32.1199C31.5412 31.871 31.2923 31.7299 31.0306 31.5554C30.7406 31.3604 30.4327 31.1962 30.1299 31.0217C29.1857 30.4803 28.244 29.8978 27.3433 29.2871C26.9892 29.0459 27.4331 28.5841 27.6307 28.4327C27.9771 28.1632 28.5031 27.9272 28.9547 28.0401C29.9863 28.2992 30.9382 28.8407 31.8928 29.2974C32.8781 29.7695 33.8531 30.2622 34.8513 30.7035L33.1552 31.5272C33.1501 31.5426 33.1064 31.735 33.1475 31.735C33.1475 31.735 33.1244 31.676 33.1193 31.6709C33.0987 31.6452 33.0808 31.6119 33.0603 31.5837C33.0141 31.5169 33.1218 31.6504 33.0577 31.5837C32.932 31.4554 32.7908 31.3425 32.6471 31.2321C32.3751 31.0268 32.0878 30.8421 31.8055 30.6522C31.0768 30.1647 30.1248 29.6977 29.8349 28.8047C29.7271 28.4686 30.0735 28.1427 30.325 27.9811C30.6688 27.7604 31.1281 27.5705 31.5438 27.668C32.524 27.9015 33.4477 28.2941 34.2868 28.8509C34.6434 29.087 34.1918 29.5566 33.9994 29.7054C33.6325 29.9902 33.1449 30.1826 32.6754 30.098C31.6516 29.9184 30.7227 29.4257 29.7168 29.1794L31.3282 27.9297C32.6086 28.8124 33.925 29.6438 35.1233 30.642C35.4825 30.9396 34.9898 31.4117 34.7307 31.5785C34.3586 31.8172 33.7864 32.0609 33.3579 31.8223C31.9004 31.0063 30.4892 30.1031 28.9907 29.3641L30.8561 28.2992C31.3488 29.0331 32.2392 29.4924 32.9063 30.0518C33.7813 30.7856 34.6588 31.5195 35.5851 32.1892L33.7197 33.2541C33.4734 32.9462 33.0782 32.7281 32.7446 32.5305C32.3444 32.2944 31.9389 32.0737 31.5489 31.8249C30.5431 31.1834 29.5475 30.529 28.5416 29.8901L30.4071 28.8253C30.7124 29.2255 31.1461 29.5283 31.554 29.8183C31.9851 30.1236 32.4162 30.429 32.8345 30.7497C33.8121 31.4964 34.7769 32.2636 35.657 33.1258C36.2856 33.7416 34.4536 34.6884 33.8916 34.3061C31.9697 32.9924 30.0992 31.6016 28.1336 30.3546L29.899 29.1742C30.8253 30.0595 31.8953 30.7728 32.8883 31.5785L31.123 32.7589C31.0665 32.7127 31.0409 32.6793 30.9844 32.61C30.792 32.3817 31.2436 31.966 31.3693 31.8685C31.6567 31.6452 32.1109 31.4117 32.4906 31.4502C32.8268 31.4861 33.0064 31.6606 33.2604 31.8608C33.6145 32.1379 33.9635 32.4202 34.3073 32.7075C34.6511 32.9949 35.0001 33.29 35.3234 33.6056C35.5082 33.7852 35.8802 34.0726 35.8443 34.3728C35.8007 34.7475 35.385 35.0477 35.072 35.1914C34.7589 35.3351 34.2739 35.5044 33.9506 35.2914C32.4598 34.3061 30.969 33.3157 29.5911 32.1738C28.9419 31.635 30.7817 30.5958 31.3565 30.9935C33.1732 32.2508 34.7923 33.7596 36.3421 35.3274C36.6654 35.6558 36.2369 36.0792 35.9495 36.2639C35.6621 36.4487 34.9103 36.8182 34.5767 36.5077C32.9807 35.022 31.2615 33.6621 29.8092 32.0276C29.2319 31.3784 31.0357 30.4008 31.5746 30.8472C32.991 32.025 34.3561 33.2669 35.8648 34.3266L34.0995 35.507C32.6317 34.2933 31.0537 33.2156 29.6193 31.9583C29.3499 31.7222 29.5937 31.3681 29.8015 31.1859C30.1453 30.8857 30.5739 30.7112 31.028 30.6856C31.8876 30.6394 32.6343 31.3271 33.2809 31.7992C34.2406 32.4997 35.231 33.1514 36.1804 33.8699C36.8399 34.3703 35.0052 35.4351 34.4151 35.0502C33.5375 34.478 32.7113 33.8314 31.8337 33.2567C30.9562 32.6819 30.0478 32.143 29.1677 31.5657C28.8085 31.3322 29.2627 30.8601 29.4551 30.7112C29.7733 30.4649 30.3609 30.1647 30.7791 30.3186C32.0262 30.7728 33.0243 31.6427 34.0918 32.3996C35.0899 33.1078 36.0188 34.0239 37.1504 34.5242L35.4415 35.6584C35.113 35.2786 34.7435 34.9399 34.4895 34.5011C34.3176 34.2035 34.7794 33.8058 34.9796 33.6775C35.2798 33.4876 35.834 33.2053 36.1984 33.3644C37.1144 33.7673 37.8868 34.4472 38.8131 34.8219L37.076 35.8098C37.0837 35.5557 36.904 35.6045 36.6808 35.4557C36.5679 35.3787 36.4884 35.2504 36.3575 35.1888C36.1907 35.1067 36.1317 35.1785 36.3216 35.1221L37.3351 34.047C37.5276 34.9373 37.9304 35.72 38.772 36.1382L37.0272 36.7181C37.1837 36.5411 37.2274 36.4256 37.1966 36.1433L39.1749 35.6507C39.0004 36.0869 38.8952 36.5436 38.7618 36.9952C38.6386 37.416 38.0074 37.6983 37.6328 37.7907C37.3633 37.8574 36.7783 37.9138 36.7834 37.4879C36.7886 37.0209 36.8809 36.5667 36.9297 36.1023C36.9785 35.6378 37.5661 35.294 37.9715 35.1734C38.2255 35.099 38.985 34.963 38.9491 35.4454C38.867 36.5898 39.0877 37.8702 38.4821 38.9094C38.2691 39.2764 37.8919 39.5509 37.4839 39.6715C37.2787 39.7331 36.6115 39.8845 36.5345 39.5483C36.2856 38.4783 36.3909 37.4032 36.3036 36.3178L38.282 35.8252C38.0459 36.7027 38.1152 37.6572 38.146 38.5528C38.1793 39.5047 38.3102 40.4182 38.0228 41.3471C37.9099 41.7114 37.3582 42.0117 37.0246 42.1092C36.8014 42.1759 36.1779 42.3196 36.0752 41.986C35.852 41.2701 35.8956 40.5362 35.7648 39.8075C35.6493 39.1609 35.4928 38.6092 35.87 38.019C36.0727 37.6983 36.5474 37.4828 36.8938 37.3981C37.0837 37.3519 37.6328 37.2621 37.7149 37.5546C38.0382 38.7144 38.5899 39.9486 37.8073 41.0494C37.4788 41.5139 36.6038 41.9218 36.0624 41.6293C35.4132 41.2804 34.8949 40.5876 34.7538 39.864C34.6665 39.4149 35.1284 39.066 35.4979 38.8966C35.8469 38.7375 36.4396 38.5348 36.7167 38.912C36.9938 39.2892 37.2735 39.6484 37.6841 39.905L35.8186 40.9699C35.5903 40.6158 35.2798 40.3233 35.1002 39.9384C34.9206 39.5535 35.4697 39.1865 35.7186 39.0429C36.0778 38.8376 36.573 38.6631 36.9656 38.8709C37.2094 39.0018 37.3582 39.2404 37.5943 39.3816L35.7288 40.4464C35.4209 39.8075 34.7589 39.3533 34.7512 38.5887C34.7486 38.2294 35.2464 37.8959 35.5236 37.7701C35.8392 37.6239 36.3216 37.4571 36.6449 37.6701C37.1273 37.9908 37.5712 38.3603 38.0228 38.7221L36.1574 39.787C35.9315 39.3559 35.5467 39.0634 35.1926 38.7426L37.058 37.6778C37.1709 37.8112 37.3351 37.9215 37.5045 37.9575L35.8931 39.2071C35.4338 38.7118 34.9334 38.2654 34.4972 37.7496C34.3894 37.6239 34.5511 37.3519 34.6152 37.2621C34.7461 37.0876 34.9283 36.9593 35.113 36.8541C35.4799 36.6437 35.9598 36.482 36.3601 36.6822C37.0298 37.0183 37.5224 37.6136 38.1998 37.9369L36.4345 39.1173C35.8366 38.4527 35.1592 37.8702 34.4715 37.3006L36.2369 36.1202C36.8681 36.6873 37.4762 37.2775 38.1562 37.783L36.3909 38.9633C35.4389 38.1499 34.4151 37.4212 33.5657 36.4949C32.973 35.8483 34.6614 35.0502 35.1772 35.2453C36.2728 35.6609 37.194 36.3717 38.2024 36.9516L36.437 38.1319C35.4851 37.3673 34.4305 36.7207 33.7223 35.702C33.4939 35.3736 34.1405 34.9194 34.3407 34.8065C34.6511 34.6294 35.2516 34.378 35.5877 34.6346C36.6628 35.4505 37.738 36.2639 38.8028 37.0927L37.0375 38.2731C36.301 37.6598 35.5749 37.0337 34.8487 36.4051C34.2509 35.8867 33.5427 35.4711 33.0782 34.8167C32.8473 34.4909 33.499 34.0341 33.6966 33.9212C34.0199 33.7365 34.5921 33.503 34.9437 33.7493C36.1189 34.573 37.2222 35.5121 38.5052 36.169L36.6397 37.2339C36.301 36.6437 35.5826 36.3204 35.0591 35.915C34.3253 35.3453 33.6068 34.7526 32.9858 34.0572C32.5342 33.5543 33.499 32.9795 33.8993 32.8666C34.4433 32.7152 34.9 32.746 35.4004 32.9924C35.7622 33.1694 36.0881 33.4157 36.4062 33.6621C37.1478 34.2317 37.9381 34.8963 38.8131 35.2401L37.1042 36.3743C35.9213 34.945 34.1713 34.106 32.7036 33.018C32.3264 32.7383 32.855 32.2354 33.0962 32.0814C33.4477 31.8582 34.0635 31.5785 34.469 31.8377C35.8648 32.7332 37.1991 33.7237 38.6207 34.5807L36.7552 35.6455C36.1317 34.8886 35.2798 34.3446 34.4946 33.775C33.7094 33.2053 32.8447 32.6896 32.2494 31.8813C32.0134 31.5606 32.6779 31.0936 32.8678 30.9858C33.2091 30.7908 33.7428 30.5855 34.1149 30.8139C34.9873 31.3476 35.8648 31.8787 36.7321 32.4253C37.5994 32.9718 38.3153 33.5697 39.1261 34.1214L37.3608 35.3017C36.5166 34.5653 35.6031 33.9084 34.6768 33.2772C33.8583 32.7204 33.0192 32.2303 32.4085 31.4297C32.3059 31.2963 32.4573 31.0397 32.5265 30.9422C32.6574 30.7677 32.8396 30.6394 33.0243 30.5342C33.3913 30.3238 33.8685 30.1621 34.2714 30.3623C36.2292 31.3348 37.8971 32.7563 39.5906 34.1214L37.7251 35.1862C36.437 33.6672 34.5973 32.7409 33.1372 31.4092C32.6266 30.9447 33.7043 30.3186 34.0507 30.2186C34.6332 30.0543 35.1027 30.1236 35.6339 30.3931C36.0239 30.5906 36.3806 30.8549 36.7321 31.109C37.7431 31.8402 38.8028 32.5048 39.8164 33.2361L37.9509 34.301C37.4916 33.7339 36.845 33.3439 36.337 32.8256C35.7494 32.2251 37.2915 31.5015 37.7457 31.5529C38.1588 31.599 38.5232 31.6837 38.8952 31.8762C39.2083 32.0378 39.4161 32.3124 39.7061 32.4971C40.3578 32.9102 40.9069 33.4491 41.3662 34.0649C41.4663 34.1984 41.32 34.4549 41.2482 34.5525C41.1173 34.7269 40.9351 34.8552 40.7504 34.9604C40.4143 35.1529 39.8703 35.3633 39.5033 35.1324C38.2537 34.3446 37.0683 33.4517 36.0316 32.3971C35.4055 31.7607 37.235 30.8575 37.797 31.2167C38.6284 31.7504 39.4418 32.3791 40.1551 33.0642C40.4604 33.3567 40.7222 33.7185 40.5785 34.1624C40.3296 34.9271 39.121 35.2991 38.3846 35.0939C37.9586 34.9758 37.6328 34.6859 37.3172 34.3908C36.9631 34.0598 36.5782 33.7647 36.1907 33.4722C35.2978 32.7999 34.3663 32.1764 33.4349 31.558C32.3726 30.8524 31.3077 30.1519 30.2865 29.3872C29.9093 29.105 30.4353 28.6072 30.6791 28.4506C31.0768 28.1966 31.6002 27.9939 32.0518 28.2069C34.8898 29.5489 37.4532 31.3784 40.0011 33.1951L38.2358 34.3754C37.2658 33.4106 36.0727 32.7101 34.9642 31.9198C33.7608 31.0628 32.5804 30.1749 31.4206 29.2589C31.0537 28.969 31.5617 28.484 31.8132 28.3223C32.1955 28.0786 32.7472 27.8502 33.186 28.0786C35.2644 29.164 37.1478 30.565 39.1236 31.8146L37.3582 32.9949C35.095 31.2834 32.8088 29.6053 30.4712 27.9965C30.0812 27.7296 30.6329 27.2087 30.8638 27.0599C31.2513 26.811 31.7952 26.5929 32.2366 26.8161C35.6005 28.5148 38.5796 30.8344 41.6356 33.0155L39.8703 34.1958C37.661 31.8351 35.0283 29.944 32.4675 27.9939C32.0929 27.7091 32.6138 27.2138 32.8601 27.0573C33.2193 26.8264 33.8172 26.5621 34.2329 26.8136C36.94 28.4532 39.511 30.3032 42.1899 31.9865L40.3244 33.0514C39.7394 32.3483 38.9568 31.8351 38.5616 30.9832C38.4154 30.6676 38.8311 30.3032 39.0517 30.1596C39.3596 29.9645 39.8959 29.6977 40.2706 29.8465C41.2944 30.2571 42.136 30.8985 42.857 31.7299C43.0777 31.9839 42.5209 32.4535 42.3669 32.5536C42.0513 32.7563 41.533 33.0052 41.1481 32.8666C40.6016 32.669 40.1628 32.297 39.6368 32.0661L41.2482 30.8164C41.551 31.0576 42.0077 31.3117 42.1232 31.7043C42.3284 32.415 40.7863 33.1745 40.2577 32.7691C39.4674 32.1661 38.7849 31.4143 37.8842 30.9678L39.7497 29.903C40.2885 30.5598 40.8607 31.2116 41.4535 31.8172C41.8871 32.2611 42.4234 32.6793 42.2412 33.3593C42.1514 33.6929 41.651 33.9572 41.3765 34.0675C41.1019 34.1778 40.6529 34.3113 40.3886 34.1111C39.0748 33.113 37.7765 32.0943 36.4396 31.1269C35.1027 30.1596 33.7248 29.3385 32.3726 28.4352C32.0159 28.1966 32.465 27.7322 32.66 27.5808C32.973 27.337 33.5709 27.0291 33.984 27.1882C35.4338 27.7424 36.6782 28.6456 37.8996 29.5797C38.5283 30.0595 39.1621 30.5342 39.783 31.0243C40.0935 31.268 40.3912 31.5503 40.7324 31.7479C41.0532 31.9326 41.3098 32.2046 41.5176 32.5074C41.7101 32.7871 41.2071 33.2156 41.0275 33.3311C40.7196 33.5286 40.1833 33.7929 39.8087 33.6441C38.4103 33.0847 37.3993 31.889 36.2241 30.9884C34.9437 30.0082 33.5863 29.128 32.2982 28.1581C32.0108 27.94 32.2879 27.5526 32.4804 27.3858C32.7985 27.1086 33.2732 26.8597 33.7069 26.8854C34.0661 26.9059 34.4099 26.9829 34.7153 27.1831C34.8615 27.278 34.9796 27.4037 35.0899 27.5372C35.2105 27.6783 35.3337 27.7707 35.4876 27.8733C36.1933 28.3531 36.8989 28.8278 37.6097 29.2974C38.3204 29.767 38.9825 30.2109 39.6522 30.6907C40.3219 31.1705 40.8838 31.6914 41.5792 32.0814L39.8138 33.2618C38.7567 32.1918 37.4788 31.3168 36.2369 30.4777C35.1335 29.731 33.9481 29.0023 33.1347 27.9221C33.0346 27.7886 33.1809 27.532 33.2527 27.4345C33.3836 27.26 33.5657 27.1317 33.7505 27.0265C34.0943 26.829 34.6204 26.6314 34.9975 26.8546C37.0169 28.0606 39.0209 29.3308 40.7401 30.9499C41.3662 31.5375 39.5316 32.551 38.9748 32.1302C38.1023 31.4682 37.2761 30.7549 36.4396 30.0518C35.6519 29.3923 34.8385 28.7585 34.138 28.0016C33.5324 27.3447 35.3414 26.4492 35.9033 26.8213C37.6944 28.0093 39.2981 29.4591 41.125 30.5983L39.3597 31.7787C38.3153 30.7446 37.176 29.8208 36.0393 28.8894C35.4748 28.4275 34.9129 27.9605 34.3561 27.491C34.0815 27.26 33.8018 26.9547 33.5093 26.7725C33.2501 26.6109 33.032 26.4672 32.9268 26.1592C32.796 25.7667 33.2578 25.428 33.5452 25.2637C33.9045 25.0585 34.3997 24.8814 34.7923 25.0918C35.734 25.5999 36.5859 26.3312 37.6251 26.6365L36.0137 27.8861C35.2618 27.1728 34.3997 26.5878 33.6556 25.8642C33.0397 25.2637 34.764 24.3939 35.267 24.6145C35.7699 24.8352 36.2523 25.156 36.7578 25.4126L34.8923 26.4774C34.528 26.0361 34.0943 25.6538 33.712 25.2304C33.5991 25.1072 33.5375 24.9712 33.6273 24.8044C34.1405 23.8499 35.3003 23.7242 36.2164 24.0552C36.5551 24.1783 36.8835 24.3272 37.212 24.4734C37.2864 24.5068 37.3608 24.5401 37.4352 24.5735C37.4685 24.5889 37.6251 24.6556 37.4711 24.5915C37.5558 24.6274 37.6405 24.6684 37.7277 24.6941L36.0188 25.8282C35.793 25.5255 35.4209 25.3381 35.1233 25.1175C34.7461 24.8378 34.3894 24.5478 33.9583 24.3528L35.8238 23.288C35.9546 23.8088 36.5602 24.0603 36.9015 24.4298C37.212 24.7685 36.8091 25.1739 36.5089 25.3664C36.106 25.623 35.5928 25.818 35.1361 25.6101C35.0232 25.5588 34.9257 25.4921 34.8231 25.4228C34.6229 25.2894 34.569 25.3561 34.859 25.3074L36.1317 24.1681C36.4807 24.7634 36.9938 25.2304 37.4147 25.7744C37.5173 25.9078 37.3659 26.1669 37.2966 26.2619C37.1658 26.4364 36.9836 26.5647 36.7988 26.6699C36.4807 26.8521 35.8956 27.0933 35.5518 26.8418C35.2285 26.6057 34.9283 26.3414 34.6383 26.0643C34.0199 25.4716 35.8546 24.4426 36.4037 24.884C37.0169 25.3766 37.6661 25.8539 38.4077 26.131L36.7963 27.3806C36.3652 27.1163 35.9213 26.87 35.5082 26.5801L37.2735 25.3997C38.5103 26.6878 40.1654 27.4294 41.5433 28.5404C42.1873 29.0613 40.3552 30.1416 39.7779 29.7208C39.2365 29.3282 38.6976 28.9356 38.2332 28.4481C37.6328 27.8194 39.334 26.9906 39.8446 27.1985C40.7453 27.5654 41.5304 28.1017 42.3182 28.661C43.1059 29.2204 43.8167 29.7618 44.3992 30.5111C44.5506 30.7087 44.2503 31.0653 44.1195 31.1705C43.655 31.5375 42.9956 31.8608 42.4157 31.5708C42.2258 31.4759 42.0565 31.3425 41.8922 31.2065C41.551 30.9268 41.2097 30.6317 40.9069 30.3109C40.3167 29.6823 42.0051 28.8407 42.5183 29.0613C43.1059 29.3154 43.8039 29.7978 43.9732 30.4546C44.0759 30.8575 43.6653 31.1731 43.3548 31.3502C42.9853 31.5606 42.5132 31.7171 42.1078 31.5221C41.1379 31.0499 40.2706 30.3982 39.3186 29.8901L41.084 28.7098C41.6485 29.0742 42.1796 29.4796 42.6954 29.9107C43.0674 30.2237 43.6191 30.5239 43.7654 31.0166C43.8834 31.4143 43.4446 31.7427 43.147 31.9121C42.8493 32.0814 42.2309 32.3432 41.8999 32.084C41.0506 31.4143 40.2013 30.7446 39.3699 30.0518C38.7233 29.5155 40.5605 28.4635 41.1353 28.8714C41.6459 29.2332 42.4824 29.7208 42.2386 30.4546C42.1283 30.7933 41.669 31.0448 41.3739 31.1628C41.0532 31.2937 40.7093 31.3604 40.386 31.2065C38.4821 30.3084 36.8142 28.9972 34.9616 28.0042L36.8271 26.9393C36.9528 27.1908 37.1119 27.3729 37.3505 27.5243C37.5019 27.6193 37.6738 27.668 37.8226 27.763C37.9997 27.8759 38.1614 28.0196 38.3307 28.1453C38.7772 28.4814 39.216 28.8253 39.6778 29.1357C40.0807 29.4052 40.4835 29.6772 40.8659 29.9774C41.2174 30.2545 41.6356 30.5829 41.8332 30.9961C42.0077 31.363 41.4637 31.7504 41.2148 31.8916C40.8967 32.0738 40.3116 32.3149 39.9678 32.0635C37.8611 30.5239 35.9469 28.7047 33.6786 27.3935L34.0353 27.4884C33.458 27.4397 32.8062 27.2703 32.8165 26.5724C32.8268 25.9694 34.0302 25.3741 34.5536 25.5845C36.1676 26.2388 37.5968 27.2062 39.0338 28.1761C40.4707 29.146 42.0154 30.1698 43.3856 31.3296L41.6202 32.51C39.4418 30.293 36.6526 28.8201 34.3638 26.7315C33.7094 26.1336 35.4902 25.3099 35.9752 25.4818C37.1478 25.8975 38.2024 26.5441 39.2288 27.2344C40.2552 27.9246 41.2918 28.6764 42.2874 29.4539L40.522 30.6343C38.7207 29.1871 36.7706 27.9374 34.9744 26.4826C34.4202 26.0335 35.5877 25.3997 35.8879 25.292C36.473 25.0841 37.1683 25.0687 37.6276 25.5434C37.7303 25.6512 37.8124 25.7769 37.9279 25.8693C38.0536 25.9694 38.1998 26.0489 38.3333 26.1387C38.6207 26.3286 38.9106 26.5185 39.198 26.7109C40.3219 27.455 41.4124 28.2428 42.5081 29.0254L40.7427 30.2057C39.0902 28.7175 37.3479 27.3344 35.5159 26.072C35.1643 25.8308 35.6057 25.3715 35.8033 25.2175C36.1548 24.9456 36.6731 24.7172 37.1273 24.825C37.8226 24.9892 38.2974 25.4613 38.867 25.8565C39.5059 26.3029 40.1423 26.7545 40.7735 27.2087C42.018 28.1068 43.3138 28.9382 44.5172 29.8953C45.1561 30.4059 43.3266 31.5221 42.7518 31.0756C41.5048 30.1057 40.2808 29.105 39.0286 28.1427C37.7765 27.1805 36.5859 26.2978 35.4568 25.2612C35.1464 24.9763 35.5056 24.5915 35.7442 24.4067C36.0829 24.145 36.6269 23.8884 37.0683 24.0141C38.2589 24.3503 39.216 25.1508 40.2115 25.8436C41.3046 26.6032 42.3798 27.3832 43.3651 28.2762L41.5997 29.4565C40.5862 28.4943 39.4777 27.6629 38.3538 26.8392C37.2299 26.0156 36.165 25.1662 34.9975 24.4298L36.863 23.3649C37.1196 23.6754 37.5353 23.8781 37.874 24.0808C38.2871 24.3272 38.6874 24.5915 39.0902 24.8557C39.996 25.4433 40.8915 26.0489 41.7742 26.6673C43.46 27.8476 45.3203 28.9818 46.6726 30.5598C46.7804 30.6856 46.6187 30.9576 46.5546 31.0474C46.4237 31.2219 46.2415 31.3502 46.0568 31.4554C45.7129 31.6529 45.1869 31.8505 44.8097 31.6273C44.0245 31.1603 43.3369 30.5265 42.6081 29.9748C42.3284 29.7618 42.0436 29.554 41.746 29.3692C41.6023 29.2794 41.4535 29.1896 41.2969 29.1229C41.3996 29.1665 41.1789 29.0921 41.1635 29.0844C41.0557 29.0254 41.3098 29.0716 41.125 29.0844L42.5337 27.8117C43.3394 28.697 44.2837 29.4411 45.0689 30.3469C45.1766 30.4726 45.015 30.7472 44.9508 30.8344C44.82 31.0089 44.6378 31.1372 44.4531 31.2424C44.1374 31.422 43.5473 31.6658 43.206 31.4143C42.6646 31.014 42.1514 30.5752 41.6202 30.1621C41.1455 29.7926 40.6837 29.4103 40.3578 28.892C40.1448 28.5533 40.7632 28.1171 40.9762 27.9965C41.3175 27.8015 41.8512 27.5962 42.2232 27.8245C43.1675 28.407 44.0425 29.0844 44.9124 29.7721L43.147 30.9524C42.1411 30.0928 41.0249 29.3923 40.1628 28.3762C40.055 28.2505 40.2167 27.9785 40.2808 27.8887C40.4117 27.7142 40.5939 27.5859 40.7786 27.4807C41.1353 27.278 41.6356 27.0958 42.0257 27.3088C43.2881 27.999 44.3684 28.9536 45.5667 29.7413L43.7012 30.8062C43.3446 30.3392 42.8314 30.0107 42.3592 29.672C41.8461 29.3 41.3637 28.8945 41.0121 28.3608C40.8248 28.076 41.3175 27.6578 41.5022 27.5372C41.823 27.3319 42.3336 27.0907 42.721 27.2241C43.6319 27.5397 44.4479 28.0375 45.2562 28.5558C45.9439 28.9946 46.706 29.341 47.2217 29.9928C47.3243 30.1236 47.173 30.3854 47.1037 30.4803C46.9728 30.6548 46.7906 30.7831 46.6059 30.8883C46.2928 31.0679 45.6975 31.3142 45.3588 31.0602C43.8706 29.9389 42.426 28.7688 41.2046 27.355C41.0096 27.1292 41.4689 26.7084 41.5895 26.6134C41.8999 26.3722 42.3131 26.19 42.7108 26.1952C43.8578 26.2106 44.7379 26.9675 45.6539 27.5577C46.3057 27.9785 47.3397 28.3506 47.5758 29.1717C47.7708 29.8465 46.4032 30.5367 45.8669 30.3058C44.997 29.9338 44.199 29.4924 43.6243 28.7201C43.4215 28.4481 43.9424 28.0067 44.1143 27.8964C44.4171 27.7039 44.9662 27.4294 45.3332 27.5833C46.2928 27.9913 47.0344 28.6508 47.8427 29.2897L46.0773 30.47C45.695 30.1159 45.0047 29.9312 44.8713 29.3667C44.7892 29.0177 45.0894 28.7175 45.3614 28.543C45.6693 28.3454 46.2056 28.0811 46.5802 28.23C47.2653 28.502 48.7254 29.1178 48.0402 30.0492C47.7657 30.4213 46.9369 30.8985 46.4494 30.6984C45.0176 30.1082 43.7243 29.2948 42.5106 28.3403C41.9564 27.9041 43.1213 27.2472 43.4241 27.1497C44.1605 26.9162 44.6891 27.2087 45.2305 27.6783C45.6898 28.076 46.2287 28.4481 46.5032 29.0023C46.6213 29.2435 46.3801 29.5155 46.2236 29.6618C45.9567 29.9081 45.5898 30.0877 45.2331 30.1416C44.2272 30.2981 43.3163 29.4796 42.5286 28.9613C41.6895 28.4096 40.8684 27.8322 40.0396 27.2677C39.2108 26.7032 38.3743 26.1567 37.5096 25.6512C36.6449 25.1457 35.7391 24.653 34.8795 24.1091C34.4792 23.855 35.0514 23.3136 35.2721 23.1725C35.6519 22.9287 36.2087 22.6978 36.6449 22.9287C37.8996 23.5959 39.1005 24.358 40.3193 25.0867C40.9095 25.4408 41.5022 25.7897 42.0847 26.1567C42.3669 26.3363 42.6389 26.5441 42.9417 26.6853C43.2214 26.8161 43.4241 27.0111 43.6012 27.2626C43.8295 27.591 43.1829 28.0452 42.9828 28.1581C42.6441 28.3506 42.1052 28.561 41.7357 28.33C40.6067 27.6218 39.6599 26.6801 38.613 25.8616C37.5661 25.0431 36.4216 24.3528 35.4363 23.4547C35.1258 23.1725 35.4851 22.785 35.7237 22.6003C36.1035 22.3052 36.5679 22.1435 37.0477 22.2077C37.5507 22.2744 37.8919 22.5207 38.2691 22.8287C38.7053 23.1828 39.2365 23.4496 39.7035 23.7652C40.617 24.381 41.4663 25.0892 42.3772 25.7102L40.6118 26.8905C38.8131 25.2766 36.8989 23.7986 35.1361 22.1461C34.8308 21.8587 35.1797 21.479 35.4235 21.2916C35.7802 21.0145 36.2882 20.7964 36.7475 20.8991C37.2068 21.0017 37.5019 21.2198 37.8073 21.5431C38.1126 21.8664 38.5334 22.1179 38.8901 22.3642C39.4264 22.7363 40.014 23.0031 40.4425 23.5112C40.5503 23.6369 40.3912 23.9089 40.3244 23.9987C40.1936 24.1732 40.0114 24.3015 39.8267 24.4067C39.5213 24.5812 38.908 24.8404 38.5796 24.5786C37.6122 23.8037 36.5961 23.0801 35.7648 22.1538C35.4594 21.8125 35.8546 21.4122 36.1574 21.2172C36.5551 20.9632 37.076 20.7631 37.5301 20.9735C38.2743 21.3199 38.8901 21.8716 39.5367 22.3642C40.2321 22.8928 40.9274 23.4188 41.5561 24.0295C42.1848 24.6402 40.3527 25.5332 39.7907 25.2098C38.5822 24.5145 37.4506 23.7011 36.3216 22.8825C35.9418 22.6054 36.4755 22.0999 36.7142 21.946C37.0708 21.7176 37.6764 21.4482 38.0869 21.7022C39.5649 22.6208 40.9608 23.6626 42.2617 24.8173L40.3963 25.8821C40.1936 25.3946 39.801 25.1996 39.4187 24.866C38.9748 24.476 38.536 24.0834 38.0844 23.7036C37.2068 22.9698 36.2959 22.2744 35.4825 21.4687C34.8564 20.8477 36.6885 19.906 37.2479 20.2884C38.5411 21.171 39.6727 22.2667 40.9942 23.1109L39.2288 24.2912C37.9561 23.3085 36.727 22.2641 35.3362 21.4507L37.1016 20.2704C37.8201 20.9555 38.6155 21.5508 39.3468 22.218C40.0781 22.8851 40.8017 23.6523 41.5689 24.3297L39.7035 25.3946C39.529 24.9969 39.2314 24.689 38.926 24.3887C38.5822 24.05 38.2512 23.7113 37.9253 23.3547C37.1478 22.5053 36.3857 21.6432 35.657 20.7528C35.5518 20.6245 35.7083 20.3576 35.775 20.2653C35.9059 20.0908 36.0881 19.9625 36.2728 19.8573C36.6192 19.6597 37.1427 19.4621 37.5199 19.6854C38.4051 20.2088 39.0543 21.0171 39.8369 21.6688L37.9715 22.7337C37.4044 21.4174 36.4627 20.3192 35.4953 19.2825C35.1823 18.9464 35.5903 18.5358 35.8879 18.3459C36.1574 18.174 36.9528 17.7763 37.2607 18.1022C37.9381 18.8129 38.613 19.5263 39.3571 20.1703L37.4916 21.2352C37.2017 20.1344 36.3652 19.3236 35.6134 18.5179L37.507 17.5993C37.6174 18.2767 38.1665 18.9515 38.6053 19.4544L36.7398 20.5193C36.4037 20.0523 36.0265 19.6238 35.6262 19.2107L37.4916 18.1458C37.9715 19.2492 38.8439 20.1113 39.606 21.0197L37.643 21.9716C37.2376 20.8785 36.4191 20.0241 35.7417 19.0952C35.5056 18.7719 36.1676 18.31 36.3601 18.1997C36.6244 18.0483 37.3326 17.7352 37.6071 18.0278C38.1665 18.6231 38.6438 19.2979 39.3263 19.7623L37.4326 20.681C37.3916 20.3012 37.0554 19.9471 36.8527 19.6443C36.5653 19.2158 36.2882 18.7822 35.9931 18.3588C35.8956 18.2202 36.0368 17.9739 36.1112 17.8712C36.26 17.6711 36.5115 17.4941 36.7347 17.3914C37.0991 17.2246 37.6584 17.0399 37.9535 17.4068C38.2486 17.7737 38.5591 18.1561 38.8644 18.5281L36.9015 19.4801C36.6628 18.6564 36.0778 18.0175 35.6134 17.317C35.3927 16.9834 36.0265 16.5395 36.2318 16.4215C36.532 16.2496 37.1555 15.9853 37.4788 16.2496C37.9843 16.6627 38.2512 17.2888 38.7695 17.6814L36.904 18.7462C36.65 17.9893 36.2189 17.299 35.6852 16.7063L37.5507 15.6414C37.7174 15.9622 37.915 16.265 38.1588 16.5344L36.2651 17.453C36.2215 17.2221 36.1471 16.9963 36.065 16.7756C35.9085 16.3522 36.4909 15.9545 36.8091 15.8082C37.0554 15.6953 37.8714 15.4002 38.0279 15.8236L37.9997 15.8159Z" fill="#FFDD43"/>
</svg>
