<svg width="57" height="50" viewBox="0 0 57 50" fill="none" xmlns="http://www.w3.org/2000/svg">
<g clip-path="url(#clip0_1206_20629)">
<path d="M19.0414 10.8026C18.9849 14.8311 18.8413 19.1804 16.7603 22.7573C16.5242 23.1627 16.2804 23.5219 15.9905 23.894C15.8391 24.089 15.68 24.2789 15.5132 24.4636C15.4285 24.5586 15.3439 24.651 15.2566 24.7408C15.2233 24.7741 15.1899 24.8075 15.1591 24.8434C14.9487 25.0589 15.2181 24.7895 15.095 24.9076C14.7486 25.2386 14.3816 25.549 13.9942 25.8364C13.9454 25.8724 13.8941 25.9108 13.8454 25.9468C13.8582 25.9365 13.9711 25.8595 13.8736 25.9262C13.7761 25.993 13.6709 26.0648 13.5657 26.1315C13.3578 26.2649 13.1474 26.3932 12.9344 26.5164C12.8395 26.5703 12.7471 26.6216 12.6522 26.6729C12.5983 26.7012 12.5444 26.7319 12.488 26.7602C12.5239 26.7422 12.6881 26.6601 12.4982 26.7525C12.2904 26.8551 12.08 26.9552 11.867 27.0501C11.654 27.1451 11.4385 27.2349 11.2204 27.3195C11.1049 27.3657 10.9869 27.4094 10.8689 27.453C10.8509 27.4581 10.7021 27.512 10.8278 27.4684C10.9715 27.4171 10.7252 27.5043 10.6969 27.512C10.2325 27.6711 9.76037 27.8096 9.28311 27.9354C9.0496 27.997 8.81867 28.0534 8.5826 28.1073C8.47227 28.1329 8.36193 28.1586 8.25416 28.1817C8.20797 28.192 8.15922 28.2022 8.11304 28.2125C7.80256 28.2792 8.30805 28.1766 7.995 28.2382C5.79855 28.6692 3.56875 28.8617 1.33894 29.0156C0.882202 29.0464 0.245847 29.3543 0.0482694 29.7905C-0.164704 30.2601 0.37671 30.3397 0.705151 30.3191C4.94409 30.0625 9.89124 29.8188 13.6375 32.3899C17.0117 34.7069 18.4538 38.7175 19.0106 42.6177C19.3416 44.9348 19.4135 47.2826 19.4289 49.6202L21.4739 49.048C21.4072 45.3479 21.3867 41.422 22.7364 37.9143C23.0494 37.1035 23.4805 36.2234 23.9321 35.5588C24.4632 34.7736 25.0354 34.1398 25.6846 33.5933C26.1362 33.2135 26.3928 33.0313 26.8983 32.7209C27.1164 32.5849 27.3397 32.4566 27.568 32.3334C27.6322 32.2975 27.6989 32.2641 27.763 32.2282C27.7656 32.2282 27.9273 32.1435 27.8298 32.1923C27.722 32.2487 27.9247 32.1461 27.9478 32.1333C28.0299 32.0922 28.1146 32.0511 28.1967 32.0127C28.6817 31.7817 29.1743 31.5713 29.6721 31.3712C29.9313 31.2685 30.1904 31.1685 30.4522 31.071C30.4701 31.0633 30.6985 30.9811 30.5958 31.0171C30.506 31.0504 30.6908 30.9837 30.6831 30.9863C30.8524 30.9273 31.0218 30.8682 31.1911 30.8118C33.7083 29.9753 36.1588 29.4929 38.8094 29.2979C39.2431 29.2671 39.8153 28.9874 40.0437 28.6076C40.2541 28.2587 40.0719 28.0277 39.6793 27.9841C37.3212 27.7275 34.9605 27.494 32.605 27.2066C30.8807 26.9988 29.1692 26.7114 27.5064 26.0905C25.9694 25.5157 24.4966 24.5868 23.5806 23.1909C22.5106 21.5564 22.3078 19.6063 22.2257 17.7024C22.1308 15.47 22.1744 13.1376 21.2584 11.0489C21.0788 10.6383 20.3295 10.8487 20.0395 10.9847C19.7496 11.1207 19.0722 11.5031 19.2569 11.9187C20.8914 15.6368 19.3211 20.0554 21.3354 23.6579C23.1957 26.986 27.2268 27.9456 30.7216 28.428C33.3286 28.7873 35.9561 29.0182 38.5708 29.3056L39.4407 27.9918C36.9337 28.1766 34.4422 28.6436 32.0405 29.3774C29.6387 30.1113 27.3166 30.9965 25.2997 32.4052C23.5395 33.6343 22.1334 35.238 21.2071 37.1805C20.3629 38.9458 19.9113 40.8883 19.6701 42.823C19.3904 45.0733 19.3852 47.3493 19.4289 49.6125C19.4442 50.449 21.479 49.7613 21.4739 49.0403C21.4431 44.8398 21.2917 40.3905 19.5956 36.48C18.7874 34.6171 17.5762 32.9107 15.9674 31.656C14.0917 30.196 11.8157 29.4544 9.49095 29.1054C6.79671 28.7026 4.04858 28.8437 1.34151 29.0079L0.707717 30.3114C4.88764 30.0266 9.26771 29.6135 13.0602 27.6839C15.0052 26.6935 16.7731 25.3412 18.0407 23.545C19.3083 21.7489 20.0524 19.7064 20.4835 17.5715C20.9684 15.157 21.0557 12.6808 21.0916 10.2252C21.1044 9.40155 19.0568 10.0687 19.0465 10.7974L19.0414 10.8026Z" fill="#FFDD43"/>
<path d="M47.3799 0.307855C47.3106 2.86097 47.7776 5.47567 47.1823 7.99286C46.9463 8.99101 46.5203 9.95837 45.8737 10.7615C45.1809 11.6211 44.1853 12.16 43.1538 12.5064C42.5559 12.7065 41.9375 12.8451 41.3217 12.9862C40.7982 13.1042 40.09 13.2992 39.6076 13.0144L40.1491 14.8337C41.3397 14.749 42.5303 14.826 43.6926 15.1005C44.1879 15.216 44.6933 15.3571 45.1552 15.5675C45.3477 15.6548 45.5401 15.7677 45.7197 15.8857C45.8557 15.9729 45.6402 15.8216 45.771 15.9191C45.8095 15.9499 45.848 15.9806 45.8865 16.0114C45.9378 16.0551 45.9866 16.0987 46.0328 16.1423C45.9532 16.0679 46.0071 16.1192 46.0507 16.168C46.1893 16.3219 46.0944 16.2116 46.0661 16.1731C46.1072 16.227 46.1405 16.286 46.179 16.3399C46.1867 16.3501 46.2688 16.4964 46.2098 16.3861C46.1457 16.268 46.2406 16.4553 46.2534 16.4836C46.274 16.5298 46.2945 16.5759 46.315 16.6221C46.2971 16.5811 46.2611 16.4605 46.3279 16.6555C46.3715 16.7838 46.41 16.9146 46.4433 17.0455C46.5408 17.4227 46.5998 17.9718 46.6435 18.4491C46.7512 19.6782 46.841 20.9124 46.9411 22.1415C47.0566 23.5681 47.1695 24.9948 47.285 26.4215C47.3234 26.9167 47.6929 27.4735 48.1214 27.7198C48.5192 27.9482 48.7963 27.7429 48.7706 27.3016C48.6346 24.9691 48.5038 22.5905 49.1453 20.3171C49.7021 18.3413 50.8952 16.6555 52.6888 15.6342C53.7332 15.0389 54.8776 14.6541 56.0271 14.323C56.4685 14.1947 56.335 13.6379 56.1785 13.3198C55.9809 12.9169 55.6243 12.4242 55.1316 12.3986C54.1591 12.3473 53.1789 12.2857 52.2347 12.0265C51.7805 11.9008 51.3853 11.7545 50.9927 11.5159C50.962 11.4979 50.6951 11.3158 50.7849 11.3825C50.6797 11.3029 50.5848 11.2157 50.4873 11.131C50.4 11.0463 50.3923 11.0386 50.4642 11.1105C50.4205 11.0617 50.3769 11.013 50.3333 10.9617C50.2897 10.9103 50.2486 10.8616 50.2101 10.8077C50.2768 10.8975 50.2845 10.9078 50.2384 10.8411C50.051 10.5254 49.8663 10.2021 49.7431 9.82751C49.6636 9.58888 49.5943 9.34511 49.5327 9.09878C49.466 8.82422 49.448 8.73185 49.4044 8.49065C49.1812 7.25387 49.0708 5.99912 49.0555 4.74181C49.0503 4.25684 48.6269 3.67951 48.219 3.44344C47.811 3.20737 47.5646 3.42804 47.5698 3.86169C47.5954 5.95806 47.8187 8.17248 48.6218 10.1277C49.425 12.083 50.9337 13.4352 52.9326 13.9407C53.941 14.1947 54.9905 14.264 56.0246 14.3205L55.129 12.3935C52.9506 13.0221 50.8029 13.8253 49.3274 15.6342C47.852 17.4432 47.3286 19.7218 47.2003 21.9413C47.1156 23.4321 47.1977 24.9281 47.2824 26.4189L48.7655 27.299C48.5448 24.556 48.3729 21.8053 48.1009 19.0675C47.9752 17.805 47.6827 16.5375 46.9232 15.4931C46.1636 14.4488 45.0115 13.7457 43.7439 13.3711C42.2968 12.9426 40.7572 12.7912 39.2535 12.8989C38.8917 12.9246 38.9328 13.4198 39.0072 13.6533C39.1381 14.069 39.4126 14.495 39.795 14.7182C40.9163 15.3776 42.2583 14.9209 43.4206 14.6079C44.583 14.2948 45.7736 13.856 46.6717 13.0016C48.4345 11.3235 48.9426 8.80626 48.9682 6.46356C48.9862 4.83418 48.822 3.20994 48.8656 1.58056C48.8784 1.06737 48.6115 0.55162 48.2215 0.220613C48.006 0.035865 47.3953 -0.225861 47.3825 0.295025L47.3799 0.307855Z" fill="#FFDD43"/>
<path d="M45.1523 10.8693C44.7391 11.3389 44.3414 11.8213 43.9591 12.3165C43.4177 13.0196 45.3652 13.679 45.8707 13.2402C46.8766 12.3678 47.8439 11.4081 49.091 10.8898L47.323 9.87628C46.2684 11.0181 45.0522 11.9932 43.9411 13.0786C43.3407 13.6662 45.2498 14.3718 45.7091 14.0921C46.9997 13.3069 48.0287 12.1343 49.3732 11.4389L47.6053 10.4254C46.4635 11.7802 44.9829 12.7758 43.5922 13.8509C43.215 14.1434 43.8872 14.6207 44.1105 14.7233C44.5313 14.9158 45.0958 15.0544 45.5038 14.7747C46.1863 14.3051 46.8407 13.7996 47.5027 13.3018C48.0184 12.9144 48.565 12.4422 49.2167 12.3114L47.6438 11.2439C46.6918 12.3293 45.5269 13.2171 44.2901 13.9561L46.058 14.9697C47.4231 14.0767 48.8421 13.2736 50.2636 12.473L48.6394 11.3697C47.9389 11.793 47.3205 12.3165 46.6687 12.8092C46.017 13.3018 45.3062 13.8124 44.6493 14.3462C44.3158 14.6181 44.8546 15.039 45.0522 15.1519C45.455 15.3828 45.9631 15.506 46.4173 15.3597C47.8953 14.8799 48.9986 13.6944 50.4407 13.1402L48.6727 12.1266C47.7439 13.0991 46.6072 13.8304 45.5987 14.7105C45.2754 14.9928 45.7912 15.3956 46.0016 15.5162C46.3326 15.7061 46.9946 15.9473 47.3667 15.7241C48.8241 14.8388 50.2995 13.9792 51.893 13.3583L50.1251 12.3447C49.4066 12.7989 48.6137 13.3069 47.9363 13.7252C47.3307 14.0998 46.6841 14.4154 46.3223 15.0569C46.1555 15.352 46.7406 15.7215 46.9228 15.8036C47.2871 15.9704 47.7824 16.1064 48.1724 15.9447C49.7273 15.293 51.1181 14.3179 52.6653 13.6508L51.0411 12.5474C49.3861 13.4737 47.7105 14.4077 46.2967 15.6856C45.9785 15.973 46.484 16.3681 46.6995 16.4913C47.0767 16.7068 47.6387 16.8762 48.0646 16.6991C49.6658 16.0243 51.095 15.0287 52.6038 14.1819C53.0143 13.951 52.7782 13.5584 52.4601 13.3506C52.0983 13.1145 51.4106 12.8502 50.9795 13.0786C49.6016 13.8022 48.3058 14.6746 47.128 15.6907C46.8022 15.9704 47.323 16.3784 47.5309 16.4964C47.8722 16.6914 48.5136 16.9198 48.896 16.7043C50.1712 15.9781 51.3567 15.1057 52.6371 14.3846L50.8692 13.3711C49.481 14.5797 47.8003 15.411 46.4968 16.7197C46.1658 17.0532 46.7508 17.4715 47.0151 17.5921C47.4488 17.7922 47.9851 17.9103 48.4084 17.6434C49.4348 16.9942 50.3586 16.1885 51.4183 15.5906L49.6504 14.5771C48.7394 15.3725 47.6541 15.9832 46.9433 16.9839C46.7021 17.3227 47.0613 17.6254 47.3461 17.7897C47.7516 18.0232 48.2545 18.1412 48.7112 17.9975C49.3655 17.7922 49.9044 17.3611 50.4432 16.9557L48.5316 16.032C47.944 16.7453 47.282 17.3868 46.6225 18.0309L48.5342 18.9546C49.5118 17.8384 50.7845 17.0455 51.8365 16.0089C52.1727 15.6779 51.58 15.2545 51.3182 15.1365C50.9179 14.9517 50.3124 14.7875 49.9249 15.0851C49.2218 15.6214 48.4957 16.1321 47.8568 16.7504C47.5514 17.0455 48.0338 17.4279 48.2596 17.5562C48.5958 17.7486 49.2475 17.9821 49.6247 17.764C51.213 16.8377 52.6525 15.7035 53.9919 14.4462C54.1228 14.3231 54.092 14.1511 54.0176 14.0126C53.6404 13.3198 52.6346 12.9528 51.8853 13.153C51.5825 13.2351 51.367 13.4224 51.1437 13.6303C50.9205 13.8381 50.569 13.9792 50.2918 14.1332C49.0833 14.8055 47.9004 15.5137 46.756 16.286C46.6123 16.3835 46.6662 16.6042 46.7303 16.7197C46.8381 16.907 47.0844 17.0712 47.2743 17.1584C47.6977 17.3534 48.2545 17.4869 48.6676 17.2097C49.4656 16.6709 50.279 16.1654 51.1155 15.6881C51.5415 15.4444 51.97 15.2057 52.3985 14.9697C52.6038 14.8568 52.8398 14.7567 53.0143 14.5976C53.0939 14.5258 53.1734 14.4437 53.2504 14.3692C53.4762 14.146 53.5942 14.5951 52.6525 14.2615L52.1522 14.0203C52.1111 13.9972 51.9674 13.7945 52.0546 13.9536L52.0803 13.5199C50.8281 14.6951 49.4887 15.7908 48.0005 16.6555L49.7684 17.6691C50.4073 17.0532 51.1309 16.5426 51.8365 16.0038L49.9249 15.08C48.8703 16.1167 47.6002 16.9095 46.6225 18.0257C46.0657 18.6621 48.0287 19.4421 48.5342 18.9495C49.1936 18.3054 49.8556 17.6639 50.4432 16.9506C50.7383 16.5939 50.22 16.2116 49.9249 16.0782C49.5221 15.8934 48.9216 15.7318 48.5316 16.0268C48.0749 16.3733 47.6412 16.7145 47.0895 16.889L48.8575 17.9026C49.5683 16.9018 50.6536 16.2911 51.5646 15.4957C51.8879 15.2134 51.3721 14.8106 51.1617 14.69C50.8204 14.495 50.1789 14.2666 49.7966 14.4821C48.6342 15.1365 47.6207 16.0038 46.4968 16.7145L48.4084 17.6383C49.7119 16.3296 51.3926 15.4983 52.7808 14.2897C53.1041 14.0074 52.5884 13.6046 52.378 13.484C52.0367 13.289 51.3952 13.0606 51.0129 13.2762C49.735 13.9972 48.5496 14.8696 47.2717 15.5958L49.0397 16.6093C50.1353 15.6651 51.3234 14.8491 52.6038 14.1794L50.9795 13.076C49.4707 13.9253 48.0415 14.9209 46.4404 15.5932L48.2083 16.6068C49.5426 15.4033 51.1053 14.5206 52.6628 13.6482C53.0733 13.4173 52.8373 13.0247 52.5191 12.8169C52.1291 12.5628 51.4978 12.3447 51.0385 12.5449C49.4913 13.212 48.1005 14.1896 46.5456 14.8388L48.3956 15.7266C48.6753 15.2314 49.3732 14.9492 49.8351 14.6541C50.5664 14.1896 51.3028 13.7303 52.0341 13.2685C52.4036 13.035 51.7929 12.5551 51.6313 12.4628C51.2464 12.2421 50.6998 12.0881 50.2662 12.2549C48.6727 12.8733 47.1973 13.7355 45.7399 14.6207L47.5078 15.6343C48.5162 14.7541 49.6529 14.0228 50.5818 13.0504C50.8743 12.745 50.4176 12.3806 50.1789 12.2446C49.7915 12.024 49.2501 11.87 48.8139 12.0368C47.3718 12.5936 46.2684 13.7791 44.7905 14.2563L46.5584 15.2699C47.1845 14.7644 47.8362 14.2923 48.4777 13.8073C49.0679 13.3634 49.6247 12.8553 50.2585 12.473C51.1232 11.9496 49.2295 11.0335 48.6342 11.3697C47.1152 12.2267 45.6013 13.0914 44.1413 14.0459C43.7769 14.2846 44.3773 14.7567 44.5441 14.8516C44.8777 15.0441 45.5346 15.2827 45.9092 15.0595C47.2461 14.2615 48.5188 13.3454 49.5503 12.1677C49.7864 11.8982 49.4938 11.5775 49.2629 11.4261C48.9088 11.1952 48.4059 11.013 47.9799 11.1002C47.1255 11.2747 46.4378 11.734 45.7501 12.2498C45.0625 12.7655 44.3235 13.3403 43.5845 13.8484L45.4961 14.7721C46.8868 13.697 48.3674 12.7014 49.5092 11.3466C50.0814 10.6692 48.1955 10.097 47.7413 10.333C46.3839 11.0361 45.3729 12.1959 44.0771 12.9862L45.8451 13.9998C46.9561 12.9144 48.1698 11.9393 49.227 10.7975C49.5144 10.487 49.0679 10.1303 48.8241 9.99175C48.4444 9.77364 47.885 9.60685 47.459 9.78391C46.1042 10.3458 45.0419 11.3671 43.9488 12.3139L45.8605 13.2377C46.2428 12.7424 46.6405 12.26 47.0536 11.7905C47.6027 11.1695 45.6218 10.3228 45.142 10.8667L45.1523 10.8693Z" fill="#FFDD43"/>
<path d="M19.2366 15.2417C19.1186 15.5599 19.0416 15.8806 18.98 16.2142C18.9185 16.5478 19.524 16.9301 19.7524 17.0327C19.9217 17.1097 20.0988 17.1713 20.281 17.2072C20.4118 17.2329 20.7634 17.2585 20.8737 17.1328C21.1867 16.7864 21.4613 16.4272 21.6768 16.0141C21.8642 15.6548 21.2971 15.2545 21.0584 15.1185C20.8019 14.9723 20.0783 14.649 19.8114 14.9466C19.2084 15.6215 18.6875 16.3502 18.3976 17.2149C18.1589 17.9257 19.7473 18.6724 20.263 18.2798C20.7788 17.8872 21.0508 17.2585 21.5537 16.848L19.6882 15.7831C19.2238 16.4836 18.6388 17.1225 18.4001 17.9462C18.2744 18.3824 18.803 18.757 19.1443 18.9136C19.5086 19.0804 20.0654 19.2625 20.3631 18.8982C20.6607 18.5338 20.9712 18.1515 21.274 17.7769L19.311 16.8249C19.0006 17.2739 18.708 17.7332 18.4001 18.1848C18.1256 18.5851 17.869 18.9444 17.8125 19.4422C17.774 19.786 18.336 20.1478 18.5849 20.2607C18.9005 20.4044 19.3855 20.5763 19.7062 20.3608C20.3913 19.8989 20.8686 19.2215 21.4254 18.6262L19.5599 17.5613C18.8825 18.4902 18.064 19.3446 17.6586 20.4377C17.502 20.8611 18.0845 21.2588 18.4027 21.4051C18.7722 21.5745 19.3187 21.7515 19.6215 21.3897C20.3836 20.4814 21.256 19.6166 21.7359 18.5159C21.9001 18.1412 21.3766 17.7692 21.1175 17.6203C20.8583 17.4715 20.1527 17.1585 19.8704 17.4484C19.4008 17.9308 18.9544 18.4363 18.5592 18.9829C18.3257 19.3062 18.9826 19.768 19.1776 19.8784C19.4316 20.0221 20.1629 20.3479 20.4247 20.0503C21.0302 19.3549 21.623 18.6082 21.7743 17.6742C21.8308 17.3381 21.2355 16.9609 21.002 16.8557C20.8326 16.7787 20.6556 16.7171 20.4734 16.6812C20.34 16.6555 19.9961 16.6324 19.8807 16.7556C19.0698 17.6229 18.1179 18.5133 17.8048 19.6987C17.6996 20.1016 18.1153 20.4198 18.4232 20.5943C18.7311 20.7687 19.3572 21.0382 19.6703 20.7662C20.4144 20.1221 21.0892 19.4088 21.7667 18.698L20.0013 17.5177C18.9672 18.6236 17.9331 19.7911 17.3276 21.1973C17.1659 21.5719 17.6842 21.944 17.946 22.0928C18.2462 22.2647 18.8723 22.5316 19.193 22.2647C19.9756 21.6129 20.6248 20.8047 21.5101 20.2812L19.6446 19.2164C18.9261 20.0939 18.1718 20.9381 17.4071 21.772C16.8067 22.4289 15.9599 23.0268 15.5981 23.8581C15.4339 24.2328 15.9574 24.6048 16.2165 24.7537C16.5065 24.9179 17.1531 25.2001 17.4636 24.9256C18.2282 24.2482 18.9313 23.5015 19.6857 22.8138C20.4401 22.1261 21.2124 21.5514 21.9309 20.8663C22.5826 20.2453 20.7274 19.3575 20.1655 19.6859C18.7748 20.5019 17.5457 21.5462 16.273 22.5264C15.6109 23.037 17.4507 24.0814 18.0383 23.7068C19.3598 22.8651 20.4914 21.7669 21.7846 20.8842L20.0192 19.7039C19.1776 20.5378 18.2308 21.2511 17.3276 22.0132C16.858 22.4084 16.4038 22.8189 15.942 23.2244C15.7495 23.3937 15.5263 23.5092 15.3467 23.6939C15.167 23.8787 15.0131 24.0968 14.9104 24.3431C14.7539 24.7203 15.2645 25.0872 15.5288 25.2386C15.8188 25.4028 16.468 25.6851 16.7759 25.4105C18.0768 24.2533 19.4727 23.2141 20.9507 22.2955L19.1853 21.1152C18.0589 21.9337 16.9247 22.7471 15.7162 23.4425L17.4815 24.6228C18.1102 24.0147 18.8055 23.4887 19.5009 22.9575C20.1475 22.4648 20.7634 21.9132 21.5075 21.5668L19.7421 20.3864C18.9108 21.3127 17.8946 22.0363 16.9273 22.8112L18.7927 23.8761C18.7465 23.9326 18.8877 23.794 18.8851 23.7991C18.9467 23.7478 19.0083 23.6991 19.0724 23.6503C19.1879 23.5631 19.311 23.4835 19.4316 23.4065C19.6677 23.2551 19.9166 23.1192 20.1475 22.9575C20.4837 22.724 20.8429 22.4828 21.1534 22.2185C21.4408 21.9747 21.587 21.7181 21.9796 21.6309L20.3682 20.3813C18.6054 22.0338 16.6912 23.5117 14.8925 25.1257C14.2484 25.7031 16.0908 26.6909 16.6579 26.3061C17.538 25.7082 18.3591 25.0308 19.2341 24.4278C19.6703 24.1276 20.1193 23.8479 20.5607 23.5579C20.9532 23.3013 21.1893 23.0063 21.6768 22.9421L20.0654 21.6925C19.0801 22.5906 17.9357 23.2808 16.8888 24.0993C15.8419 24.9179 14.895 25.857 13.766 26.5678L15.6315 27.6327C15.7854 27.412 16.0138 27.3427 16.237 27.2144C16.5167 27.0527 16.781 26.8603 17.053 26.6884C17.6355 26.3215 18.2308 25.975 18.8209 25.6184C20.0013 24.9051 21.1714 24.1712 22.3902 23.5246L20.6248 22.3442C19.0237 23.3578 17.343 24.2328 15.77 25.2951C14.99 25.8211 14.2202 26.3651 13.4376 26.8885C13.0604 27.1426 12.6806 27.394 12.3034 27.6455C12.111 27.7738 11.916 27.8995 11.7158 28.0124C11.6337 28.0586 11.5465 28.1022 11.4618 28.1433C11.3156 28.2151 11.218 28.1869 11.4618 28.2254L12.7345 29.3647C12.9424 28.9464 13.3298 28.6924 13.6711 28.3896C13.8071 28.269 13.9456 28.1484 14.0893 28.0381C14.174 27.9739 14.2638 27.9149 14.3536 27.8559C14.369 27.8456 14.464 27.7738 14.4152 27.82C14.3819 27.8328 14.3819 27.8354 14.4152 27.8225C14.6102 27.7661 14.4409 27.7456 13.9149 27.7584L13.0014 26.5678C11.8852 27.4453 10.6895 28.2459 9.37313 28.7873L10.964 29.4365C11.0102 29.4955 11.041 29.5622 11.0564 29.6341C11.0333 29.7188 11.0333 29.729 11.0564 29.6674C11.0487 29.6623 11.118 29.5751 11.1103 29.5853C11.2232 29.4724 11.3592 29.3826 11.4952 29.2979C11.6312 29.2133 11.7826 29.1312 11.9314 29.0567C11.9981 29.0234 12.0648 28.9926 12.1341 28.9618C11.9699 29.0362 12.1187 28.9695 12.1546 28.9567L10.4457 27.8225C10.3431 28.2587 9.75546 28.4024 9.43728 28.7001C8.81376 29.2774 10.651 30.3192 11.2027 29.8804C11.898 29.3262 12.5703 28.6642 13.3991 28.3126L11.6902 27.1785C11.2668 27.7481 10.5971 28.1253 9.9556 28.3999L11.6645 29.534C11.8647 28.8412 12.7807 28.5307 13.3375 28.1792C13.7147 27.9431 14.0662 27.6711 14.4434 27.4351C14.8206 27.199 15.2568 26.9732 15.6186 26.9706L14.1124 25.8108C12.9603 27.1426 11.5542 28.2356 10.1532 29.2903L12.0186 30.3551C12.4471 29.8137 13.2169 29.5109 13.7891 29.1466C14.4999 28.6924 15.2107 28.2305 16.0138 27.9534L14.3049 26.8192C13.9764 27.3196 13.4863 27.666 13.0065 28.0098C12.4908 28.3793 12.0058 28.7565 11.6183 29.2646C11.5157 29.398 11.6671 29.6546 11.7364 29.7521C11.8672 29.9266 12.0494 30.0549 12.2342 30.1601C12.5652 30.35 13.1194 30.5681 13.4812 30.332C14.6795 29.5468 15.7623 28.5897 17.0222 27.8995L15.1568 26.8346C14.369 27.7635 13.2862 28.3973 12.3676 29.185C11.7338 29.7265 13.571 30.8119 14.133 30.3654C15.0003 29.6777 15.8778 29.0003 16.8221 28.4178L14.9566 27.353C14.6667 27.8148 14.233 28.1279 13.8097 28.4589C13.3067 28.854 12.8218 29.2697 12.306 29.6495L14.1715 30.7144C14.8899 29.8855 15.7726 29.2158 16.509 28.405C16.7477 28.1433 16.5603 27.8354 16.3268 27.6327C15.9804 27.3299 15.5545 27.1631 15.1003 27.1323C14.3408 27.081 13.5736 27.7071 13.0014 28.133C12.2367 28.7052 11.5208 29.3698 10.6997 29.8599L12.5652 30.9248C13.2221 30.1575 14.0868 29.5391 14.895 28.9413C15.7033 28.3434 16.604 27.725 17.4636 27.122C18.3232 26.519 19.2495 25.9032 20.1578 25.3156C20.9045 24.8332 21.8026 24.4278 22.3773 23.7324C22.4825 23.6041 22.326 23.3373 22.2593 23.2449C22.1284 23.0704 21.9463 22.9421 21.7615 22.8369C21.4254 22.6445 20.8814 22.434 20.5145 22.665C19.3495 23.4014 18.2693 24.261 17.1582 25.0744C16.0472 25.8878 14.9258 26.732 13.9123 27.6917C13.5762 28.0098 14.0252 28.4512 14.3049 28.6282C14.5974 28.8156 15.339 29.1799 15.6777 28.872C16.6348 28.0021 17.6765 27.2375 18.7388 26.5011C19.6626 25.8621 20.5607 25.059 21.6614 24.746L20.05 23.4963C18.921 24.533 17.6919 25.4439 16.4782 26.3779C15.2645 27.3119 14.0021 28.3409 12.7551 29.3108L14.5204 30.4911C15.6905 29.5571 16.9504 28.7488 18.1641 27.8764C18.7645 27.4453 19.3624 27.0143 19.9679 26.5909C20.2733 26.3779 20.5735 26.1675 20.8609 25.9289C21.0867 25.7416 21.315 25.6261 21.5973 25.5568L19.9859 24.3072C18.1538 25.5696 16.4141 26.9552 14.7591 28.4409C14.1201 29.0157 15.9599 30.0241 16.5244 29.6213C17.4867 28.9336 18.4463 28.2408 19.4265 27.5788C19.8986 27.2606 20.3785 26.9475 20.8532 26.6345C20.9661 26.5601 21.1072 26.4908 21.2098 26.3984C21.3048 26.3138 21.3561 26.1957 21.4433 26.1059C21.4921 26.0546 21.6666 25.9725 21.6897 25.9186C21.6537 26.0033 21.1739 25.8134 21.4459 25.9083L20.5324 24.7177C18.7388 26.1752 16.7862 27.4222 14.9849 28.8694C14.3459 29.3826 16.178 30.4962 16.7502 30.0498C17.715 29.2954 18.6978 28.5795 19.7139 27.8944C20.6736 27.2478 21.6537 26.6063 22.7494 26.2188L21.138 24.9692C18.8492 27.0579 16.0626 28.5307 13.8815 30.7477C13.2785 31.361 15.1106 32.3822 15.6469 31.928C16.9889 30.7939 18.4489 29.8188 19.9038 28.8386C21.2689 27.92 22.6314 26.945 24.1658 26.3215L22.4287 25.3336C22.4287 25.4465 22.4543 25.3567 22.4287 25.4003C22.4133 25.4259 22.3619 25.508 22.4133 25.4516C22.3363 25.5363 22.2952 25.5209 22.1669 25.544C21.8077 25.6081 21.4613 25.8416 21.1226 26.0546C20.4785 26.4626 19.8704 26.9219 19.2649 27.3838C18.0075 28.3409 16.8092 29.3724 15.534 30.3038L17.3994 31.3687C17.5611 31.03 17.9126 30.7734 18.2616 30.5065C18.6465 30.2114 19.0467 29.942 19.4496 29.6726C19.9346 29.3493 20.3913 28.9823 20.8557 28.6308C20.9969 28.523 21.1303 28.405 21.2843 28.3229C21.4562 28.2279 21.6307 28.1664 21.7923 28.0483C22.0489 27.8585 22.2593 27.5967 22.403 27.3119C22.5852 26.9501 22.0258 26.555 21.7846 26.4164C21.4254 26.2111 20.9302 26.0341 20.5376 26.2445C18.685 27.2375 17.0197 28.5461 15.1132 29.4468L16.9632 30.2012C16.9863 30.2345 16.9914 30.2679 16.9786 30.3038C16.9658 30.3474 16.9709 30.3397 16.9889 30.2807C17.012 30.2653 17.0607 30.1524 17.0812 30.1268C17.1095 30.0883 17.2403 29.9677 17.3122 29.9086C17.4995 29.7521 17.6996 29.6136 17.8972 29.4724L16.1318 28.2921C15.3005 28.9849 14.4486 29.652 13.6018 30.3243L15.4673 31.3892C15.593 30.9632 16.1062 30.7067 16.4295 30.4347C16.9144 30.0292 17.4199 29.6495 17.9511 29.3082C18.3514 29.0516 17.7792 28.5128 17.5585 28.3716C17.1787 28.1279 16.6194 27.8969 16.1857 28.1279C15.2338 28.6359 14.3665 29.2877 13.3965 29.7598L15.262 30.8247C15.3236 30.5861 15.4596 30.3859 15.6366 30.2166C15.7341 30.1242 15.8419 30.0369 15.9522 29.9574C15.9984 29.924 16.0472 29.8932 16.0959 29.8625C16.0908 29.865 16.2858 29.7598 16.2088 29.7932L14.5974 28.5436C14.3767 28.7771 14.133 28.9926 13.8918 29.203C13.7378 29.3364 13.5839 29.4699 13.4196 29.593C13.3503 29.6444 13.2785 29.6931 13.2067 29.7419C13.0527 29.8471 13.2451 29.729 13.3529 29.7316L13.8481 29.8163L13.8327 29.8111L14.564 30.2268L14.5512 30.2166L14.8309 30.876C15.3441 30.2166 16.042 29.7316 16.7143 29.2518C17.3866 28.7719 18.0922 28.2459 18.8748 27.9252L17.2634 26.6756C16.8015 27.1605 16.2601 27.5557 15.7187 27.9483L17.4841 29.1286C18.862 28.0175 20.517 27.276 21.7538 25.9879C22.3645 25.3515 20.5453 24.415 19.9885 24.8075C19.5728 25.1001 19.1314 25.3464 18.7003 25.6081C18.3334 25.8314 18.8055 26.3215 18.9877 26.4626C19.3033 26.7089 19.8961 27.0117 20.3118 26.8552C21.1714 26.537 21.9155 26.0418 22.6288 25.4721L20.8634 24.2918C20.5735 24.5689 20.2733 24.8332 19.95 25.0693L21.8154 26.1341C22.2362 25.5902 22.7468 25.1232 23.0984 24.5279C23.2318 24.2995 22.9649 24.0018 22.8187 23.8684C22.5493 23.6221 22.1875 23.4476 21.8282 23.3886C21.4947 23.3321 21.197 23.3604 20.8968 23.5194C20.712 23.6169 20.553 23.7555 20.3631 23.8402L22.1284 25.0205C22.5287 24.5843 23.2472 24.2661 23.4012 23.6503C23.5038 23.2449 23.0932 22.9318 22.7828 22.7548C22.403 22.5393 21.9488 22.3956 21.5357 22.5829C21.0764 22.7907 20.7043 23.1089 20.2989 23.4014C19.9243 23.6708 19.5599 23.9095 19.2802 24.2867C19.0775 24.5586 19.5984 25 19.7703 25.1103C20.0988 25.3182 20.5914 25.5465 20.9892 25.4234C21.1611 25.3695 21.3279 25.2848 21.4947 25.2104C21.7538 25.0949 21.7923 25.0744 22.0284 24.9743C22.2516 24.8794 22.48 24.787 22.7109 24.7152C22.8007 24.6869 22.8931 24.6716 22.9803 24.6433C23.1343 24.5946 22.8187 24.6485 22.9572 24.6433H22.9957C22.7802 24.6382 22.5749 24.5869 22.3799 24.4868L21.918 24.1789L21.6974 23.8889L21.782 23.463C21.3304 23.9634 20.8352 24.4175 20.4041 24.9384C20.2989 25.0667 20.4555 25.3336 20.5222 25.4259C20.653 25.6004 20.8352 25.7287 21.02 25.8339C21.3843 26.0418 21.8693 26.2086 22.267 26.0058C22.6647 25.8031 23.0342 25.526 23.4473 25.3464L21.8359 24.0968C21.0944 24.8204 20.2297 25.4054 19.4778 26.1187C19.175 26.4087 19.5214 26.7833 19.7652 26.9732C20.1014 27.2349 20.6505 27.4941 21.0892 27.3658C22.249 27.0271 23.1856 26.247 24.2351 25.6825L22.3696 24.6177C22.2773 24.8948 22.1028 24.9179 21.8873 25.0847C21.5973 25.3079 21.3253 25.5645 21.0456 25.8006C20.4888 26.2701 19.9269 26.7346 19.3649 27.1964C18.2616 28.1022 17.1531 29.0054 16.137 30.0087C15.5006 30.6374 17.3404 31.538 17.9023 31.1891C19.7293 30.0498 21.333 28.6026 23.124 27.412L21.3587 26.2316C20.6607 26.9912 19.8473 27.6224 19.057 28.2818C18.2179 28.9823 17.3917 29.6982 16.5219 30.3603L18.2872 31.5406C20.0064 29.9215 22.0078 28.6513 24.0298 27.4453L22.1644 26.3805C21.4074 27.3889 20.2117 28.0612 19.1853 28.7591C17.9691 29.5853 16.7194 30.4449 15.6828 31.4944C15.3595 31.8228 15.788 32.2462 16.0754 32.431C16.4474 32.6696 17.0197 32.9134 17.4482 32.6747C18.0922 32.3129 18.6285 31.8203 19.2264 31.3918C19.8781 30.9222 20.5427 30.468 21.2124 30.0267C21.8821 29.5853 22.5287 29.1543 23.1805 28.7129C23.3344 28.6077 23.491 28.5025 23.6449 28.3973C23.8297 28.2716 23.922 28.1381 24.0709 27.9791C24.1581 27.8867 24.2761 27.7917 24.389 27.7327C24.3967 27.7302 24.4532 27.7045 24.4686 27.6994C24.4814 27.6942 24.679 27.6634 24.6097 27.6686L23.201 26.3959C21.9437 27.3427 20.6222 28.2023 19.3675 29.1543C18.7825 29.5982 18.2231 30.0703 17.6765 30.5604C17.171 31.012 16.6373 31.4867 16.001 31.7433L17.7099 32.8774C17.8921 32.6132 18.123 32.4643 18.3899 32.295C18.7106 32.0948 18.998 31.8177 19.2956 31.5816C19.9012 31.1044 20.5196 30.6451 21.1303 30.1755C22.2516 29.3185 23.4063 28.4307 24.7354 27.9226L23.124 26.673C21.7718 27.5762 20.3759 28.4127 19.057 29.3647C17.7381 30.3166 16.4218 31.3507 15.108 32.3489L16.9581 33.1032C16.9991 33.2521 16.994 33.1058 17.0504 33.0057C17.1018 32.9134 17.1685 32.8338 17.2378 32.7543C17.4174 32.5541 17.6175 32.372 17.7971 32.1718C18.3591 31.5406 18.9415 30.9273 19.4778 30.2704C19.583 30.1421 19.4265 29.8753 19.3598 29.7829C19.2289 29.6084 19.0467 29.4801 18.862 29.3749C18.4951 29.1645 18.0178 29.0029 17.615 29.203C16.7143 29.6495 16.0318 30.4013 15.2415 31.0043L17.1069 32.0692C17.1941 31.7664 17.5508 31.5919 17.7843 31.4072C18.4489 30.8786 16.6656 29.9446 16.1729 30.1575C15.6494 30.3833 15.1953 30.7631 14.6615 30.9581L16.3705 32.0923C16.9221 31.4559 17.6637 30.8888 18.4489 30.5758L16.74 29.4416C16.3499 30.2807 15.5571 30.8144 14.9772 31.5098C14.872 31.6381 15.0285 31.9075 15.0952 31.9973C15.2261 32.1718 15.4082 32.3001 15.593 32.4053C15.9317 32.5978 16.4705 32.8082 16.84 32.5772C19.5189 30.894 22.09 29.0439 24.797 27.4043L23.0317 26.2239C20.4683 28.1741 17.8356 30.0652 15.6289 32.4258C15.0259 33.0699 16.8375 34.0039 17.3943 33.6062C20.4503 31.4251 23.4294 29.1055 26.7933 27.4068L25.028 26.2265C22.6904 27.8354 20.4016 29.5135 18.141 31.225C17.7663 31.5098 18.2898 32.005 18.5336 32.1615C18.8877 32.3873 19.4984 32.6619 19.9063 32.4053C21.8847 31.1557 23.7681 29.7547 25.8439 28.6693L24.0786 27.489C22.9188 28.405 21.7384 29.2928 20.535 30.1498C19.4265 30.9376 18.2333 31.6381 17.2634 32.6055C16.6425 33.2238 18.472 34.1835 19.0288 33.7858C21.5768 31.9691 24.1401 30.1421 26.9781 28.7976L25.2127 27.6173C23.7989 28.6744 22.3004 29.6136 20.8429 30.6091C20.1296 31.0967 19.4265 31.597 18.7517 32.1333C18.4848 32.3437 18.2436 32.5721 17.9921 32.7979C17.8613 32.9134 17.7253 33.034 17.5739 33.1186C17.5636 33.1238 17.4276 33.1956 17.4302 33.1828C17.4328 33.1674 17.6483 33.2161 17.6509 33.2161L18.6926 34.145C18.5874 33.7293 19.175 33.4137 19.4676 33.1571C20.0269 32.6645 20.6145 32.2077 21.2406 31.8074L19.4753 30.6271C18.4361 31.6817 17.2532 32.5747 16.0035 33.3624L17.869 34.4273C18.2487 33.9192 18.7157 33.4907 19.2443 33.1417C19.6857 32.8518 20.0629 32.3848 20.5786 32.3283L19.1699 31.0556C18.5874 31.6509 17.8869 32.1051 17.3584 32.7594C17.2532 32.8877 17.4097 33.1546 17.4764 33.2469C17.6073 33.4214 17.7894 33.5497 17.9742 33.6549C18.2924 33.8371 18.8748 34.0757 19.2212 33.8268C20.1732 33.1392 21.1585 32.5002 22.1233 31.828C22.4056 31.6304 22.6776 31.42 22.9675 31.2352C23.1292 31.1326 23.2934 31.0274 23.4679 30.9504C23.3909 30.9838 23.6064 30.9094 23.6218 30.8991C23.7091 30.8811 23.6988 30.8786 23.5859 30.894C23.7578 30.8914 23.6552 30.8683 23.2806 30.8298L22.3671 29.6392C20.8224 31.0479 18.9467 32.0332 17.5842 33.6447C17.4764 33.7704 17.638 34.0424 17.7022 34.1322C17.8331 34.3067 18.0152 34.435 18.2 34.5402C18.5028 34.7121 19.1212 34.9738 19.447 34.7121C21.138 33.347 22.8059 31.928 24.7662 30.953L22.9008 29.8881C22.344 30.6143 21.4844 31.0556 20.7454 31.5662C19.8499 32.1821 18.9672 32.8184 18.1461 33.5318C17.4995 34.0937 19.3418 35.0996 19.9115 34.7121C20.7223 34.163 21.4741 33.542 22.3055 33.016C23.1369 32.49 24.0478 31.9409 24.9228 31.4046L23.0573 30.3397C22.4954 31.0967 21.5896 31.5842 20.8378 32.1282C20.0141 32.7235 19.2033 33.3111 18.5515 34.1014C18.4463 34.2297 18.6028 34.4966 18.6696 34.5889C18.8004 34.7634 18.9826 34.8917 19.1673 34.9969C19.5112 35.1919 20.0398 35.3946 20.4144 35.1688C21.8359 34.3118 23.1702 33.3214 24.5661 32.4258L22.8007 31.2455C21.2329 32.4079 19.4676 33.3008 18.2026 34.8276C17.987 35.0867 18.5336 35.5486 18.6926 35.6512C19.0031 35.8488 19.5343 36.1105 19.9115 35.9643C20.8198 35.6102 21.6024 35.02 22.3799 34.4401C22.6416 34.2451 22.8931 34.0398 23.1625 33.8576C23.3113 33.7576 23.4704 33.6524 23.6347 33.5779C23.5602 33.6113 23.7399 33.5446 23.7373 33.5446C23.7784 33.5318 23.8168 33.5241 23.8579 33.5164C23.7168 33.5523 23.5731 33.5369 23.4319 33.4727L22.5185 32.2821C21.8719 33.0032 21.1226 33.6267 20.3528 34.2117C19.7626 34.6608 19.0493 35.02 18.6696 35.6846C18.4694 36.0336 19.0621 36.4518 19.2879 36.5801C19.6523 36.7879 20.1373 36.9547 20.535 36.752C21.818 36.0926 22.9213 35.156 24.0965 34.3323L22.2311 33.2675C21.8154 33.8525 21.1021 34.2425 20.5632 34.7095C19.8679 35.31 19.1725 35.9078 18.4668 36.4954C17.8305 37.0266 19.6651 38.1171 20.2322 37.6758C21.2971 36.847 22.3748 36.0361 23.4473 35.2176L21.5819 34.1527C20.9404 35.0765 19.9269 35.6641 19.0647 36.3569C18.7003 36.6494 19.2033 37.1318 19.4573 37.2934C19.8268 37.5295 20.4067 37.781 20.8301 37.5372C21.7307 37.0189 22.5647 36.3415 23.5423 35.9694L21.9309 34.7198C21.0815 35.6461 20.0577 36.3748 19.1058 37.1882C18.4668 37.7348 20.3041 38.7919 20.8711 38.3686C21.5511 37.8631 22.1592 37.2703 22.7905 36.7058C23.4217 36.1413 21.5768 35.0713 21.0251 35.5255C20.3374 36.0951 19.66 36.6776 19.0621 37.3422C18.7568 37.6835 19.152 38.0863 19.4547 38.2788C19.8499 38.5302 20.3785 38.7381 20.8275 38.5225C21.5049 38.1966 21.9976 37.6039 22.6673 37.2678L20.8019 36.2029C20.4324 36.6391 19.991 37.0137 19.601 37.432C19.3187 37.7373 19.6241 38.0837 19.8884 38.2865C20.2476 38.5661 20.7505 38.774 21.2124 38.679C21.623 38.5944 21.9052 38.3403 22.1669 38.035C22.2747 37.9093 22.1131 37.6373 22.0489 37.5475C21.918 37.373 21.7359 37.2447 21.5511 37.1395C21.2663 36.9778 20.6068 36.6904 20.3041 36.9676C19.8832 37.355 19.4137 37.7245 19.1417 38.2403C18.9544 38.5995 19.524 38.9998 19.7601 39.1358C20.0629 39.3103 20.6813 39.5694 21.0071 39.3077C21.4587 38.9459 21.9026 38.5738 22.385 38.2557L20.4914 37.3371C20.4888 37.6193 20.2758 37.8836 20.1142 38.1043C19.9243 38.3634 19.7113 38.6072 19.5702 38.8997C19.3932 39.2666 19.9397 39.6541 20.1886 39.7952C20.535 39.9928 21.0584 40.1904 21.4356 39.9671C21.6717 39.826 21.8205 39.5874 22.0643 39.4565L20.1989 38.3917C20.0167 38.7765 19.7062 39.0665 19.4804 39.4232C19.2546 39.7798 19.8884 40.1981 20.0988 40.3187C20.4375 40.5111 20.9763 40.7215 21.3458 40.4906C21.8308 40.1878 22.1721 39.7234 22.5082 39.2692L20.5453 38.3172C20.417 38.969 20.0192 39.5412 19.4342 39.8568L21.179 40.4367C21.1175 40.3495 21.0687 40.1801 21.0584 39.9825C21.0456 39.7567 21.0687 39.5284 21.1123 39.3103C21.2073 38.8356 21.3818 38.3814 21.5101 37.917L19.6651 37.45C19.5651 37.2934 19.6241 37.4166 19.6267 37.5321C19.6267 37.6424 19.6164 37.7527 19.6036 37.8605C19.5702 38.1094 19.5086 38.3532 19.4676 38.5995C19.3649 39.2153 19.4085 39.8414 19.2187 40.4444L21.1688 41.0833C20.9071 40.234 21.1123 39.2589 21.138 38.3891C21.1662 37.4269 21.1637 36.4954 20.9122 35.5614C20.7685 35.0303 19.0057 34.2143 18.9338 35.0688C18.8543 36.0413 18.9826 37.0445 18.7594 38.0042L20.7095 38.6431C20.1706 37.7168 20.4016 36.5339 20.3272 35.5101L18.3078 34.8532C18.3565 35.3151 18.4489 35.7718 18.454 36.2388L20.4324 36.7315C20.2989 36.2825 20.1937 35.8231 20.0192 35.3869C19.8294 34.9071 18.1384 34.0013 18.0409 34.8943C17.9896 35.3613 18.2026 35.8026 18.5053 36.1465C18.8979 36.5904 19.66 37.0214 20.2502 36.7264C21.1611 36.2722 21.6743 35.3741 21.8847 34.4067C22.0002 33.8705 21.2971 33.4573 20.8711 33.3316C20.2758 33.1571 19.4624 33.0596 18.9646 33.5369C18.8004 33.696 18.5669 33.7447 18.4001 33.9166C18.2231 34.0988 18.1538 34.3041 18.1641 34.5607C18.1743 34.8917 18.5644 35.1688 18.8107 35.3074C19.0852 35.4639 19.5779 35.6795 19.9012 35.5486C20.8378 35.1714 21.5973 34.494 22.5159 34.0911L20.807 32.957C20.5555 33.3932 20.1809 33.7345 19.855 34.1142C19.6343 34.3683 20.1912 34.8378 20.3451 34.9379C20.6428 35.1278 21.2021 35.41 21.5639 35.2509C22.7622 34.7198 23.7168 33.8602 24.7714 33.1032C25.826 32.3463 26.7625 31.4739 27.9352 31.0454L26.3238 29.7957C25.4436 30.3731 24.5379 30.9094 23.6578 31.4867C22.7776 32.064 21.9565 32.7081 21.0764 33.2803L22.8418 34.4606C23.7578 33.7653 24.7047 33.1212 25.6438 32.4592C25.9286 32.2565 26.2006 32.0358 26.4906 31.8408C26.6496 31.733 26.8139 31.6253 26.9883 31.5406C27.0653 31.5047 27.073 31.5175 27.1731 31.4713C27.2629 31.4533 27.2603 31.4482 27.1603 31.461C27.1988 31.4585 27.2372 31.4585 27.2757 31.461L25.867 30.1883C24.4327 31.4431 22.8572 32.5233 21.3869 33.737C20.7403 34.2733 22.5775 35.3228 23.1523 34.9174C24.661 33.8576 26.0261 32.6157 27.4425 31.4379L25.6771 30.2576C24.2248 31.8921 22.5056 33.2521 20.9096 34.7378L22.675 35.9181C24.2248 34.3477 25.8439 32.8415 27.6606 31.5842L25.8953 30.4039C24.5173 31.5457 23.0265 32.5362 21.5357 33.5215L23.4294 34.4401C23.4371 34.5017 23.3575 34.5761 23.4345 34.4889C23.4653 34.4529 23.4935 34.4093 23.5218 34.3708C23.4448 34.4735 23.5269 34.3683 23.5859 34.3067C23.6449 34.2451 23.7039 34.1886 23.7655 34.1296C24.0786 33.832 24.407 33.5549 24.738 33.2777C25.1948 32.898 25.6592 32.4387 26.1724 32.1359L25.8157 32.2308C25.3128 31.8434 24.8099 31.4585 24.3095 31.071C24.33 31.0479 24.4532 30.9222 24.3685 30.9915C23.7347 31.5124 25.5694 32.6311 26.1339 32.1718C27.1269 31.3661 28.1943 30.6528 29.1232 29.7675C29.7647 29.1543 27.9224 28.2305 27.3578 28.5872C25.3923 29.8342 23.5218 31.225 21.5999 32.5387L23.3652 33.7191C24.2736 32.8287 25.2692 32.0435 26.2801 31.2712C27.1423 30.6117 28.143 30.0652 28.8102 29.1927C28.9128 29.0593 28.7614 28.8027 28.6921 28.7052C28.5613 28.5307 28.3791 28.4024 28.1943 28.2972C27.8582 28.1048 27.3142 27.8918 26.9473 28.1253C25.9055 28.7873 24.8766 29.4673 23.8348 30.1293C23.0548 30.6245 22.1644 30.9812 21.5716 31.7176C21.4664 31.8485 21.6204 32.1128 21.6897 32.2052C21.8205 32.3797 22.0027 32.5079 22.1875 32.6132C22.5056 32.7953 23.0881 33.034 23.4345 32.7851C24.3942 32.0923 25.3 31.3302 26.2057 30.5707C26.937 29.9574 27.8171 29.475 28.3611 28.6667C28.5844 28.3357 27.948 27.8867 27.7427 27.7712C27.3732 27.5608 26.8985 27.4017 26.4957 27.5993C24.9946 28.3383 23.5859 29.2415 22.1284 30.0575L23.8938 31.2378C25.0895 30.2422 26.4084 29.4109 27.6889 28.5256C28.0404 28.2818 27.6016 27.8251 27.4015 27.6711C27.0525 27.4017 26.529 27.1656 26.0774 27.2786C25.0716 27.5274 24.1427 28.0175 23.1189 28.1972L24.7303 29.4468C25.4847 28.9464 26.2827 28.6128 27.1603 28.4024L25.4513 27.2683C25.1819 28.1074 24.2146 28.5333 23.5269 28.99C23.2087 29.1979 22.8905 29.4108 22.6031 29.6597C22.3158 29.9086 21.9873 30.2114 22.1618 30.6194C22.2927 30.9196 22.6083 31.1352 22.8905 31.2737C23.1343 31.3918 23.5808 31.5637 23.8553 31.4431C24.8817 30.9889 25.8876 30.4937 26.8985 30.0062C27.8248 29.5597 28.7486 29.0285 29.7493 28.7771L28.1379 27.5274C27.2218 28.1484 26.2673 28.7411 25.3051 29.2877C24.9946 29.4647 24.6816 29.6341 24.3865 29.8368C24.1299 30.0138 23.7604 30.2653 23.6808 30.5835C23.5936 30.9299 23.9015 31.2327 24.1709 31.4072C24.4712 31.5996 25.0228 31.8767 25.3898 31.7202C27.3912 30.858 29.3234 29.8317 31.371 29.0721L29.7596 27.8225C27.8248 28.7488 25.9107 29.7444 24.1889 31.0351C23.8117 31.3173 24.3377 31.8151 24.5815 31.9717C24.9843 32.2283 25.4975 32.4233 25.9543 32.2154C27.0576 31.7125 28.1533 31.1891 29.2592 30.6913C30.2291 30.2576 31.2786 29.9471 32.1562 29.3339C32.5077 29.0901 32.0689 28.6334 31.8688 28.4794C31.5198 28.21 30.9964 27.9739 30.5447 28.0868C28.4201 28.6128 26.411 29.5494 24.5071 30.6117C24.2274 30.7682 24.4763 31.1557 24.6097 31.2994C24.8663 31.5765 25.3 31.8331 25.6823 31.8665C26.0646 31.8998 26.4161 31.9101 26.7831 31.8151C27.0884 31.733 27.3604 31.5662 27.6555 31.4636C28.3047 31.2352 28.9487 30.9915 29.5876 30.7349C30.904 30.2037 32.2049 29.6418 33.5289 29.1363L31.9175 27.8867C30.2779 28.6847 28.5356 29.2697 26.9653 30.2114C26.6522 30.3987 26.9807 30.8401 27.1474 30.9838C27.4707 31.266 27.9352 31.4995 28.374 31.4841C29.4927 31.4482 30.5114 31.0402 31.548 30.6579C32.5847 30.2756 33.688 29.8753 34.7324 29.4109C34.8889 29.3416 34.8658 29.1029 34.817 28.9849C34.7452 28.8079 34.5912 28.6693 34.445 28.5564C34.1242 28.3075 33.5418 28.0124 33.121 28.1638C32.3922 28.4255 31.6584 28.6667 30.9245 28.9156C30.4703 29.0696 30.6807 29.5212 30.9502 29.7573C31.3171 30.078 31.8816 30.3449 32.3794 30.232C33.3083 30.0241 34.1833 29.6469 35.0275 29.2158C35.4149 29.0183 34.9017 28.4845 34.7401 28.3614C34.4296 28.1202 33.8266 27.8071 33.416 27.9688C30.5319 29.1004 27.7761 30.5245 24.9099 31.6971L26.5213 32.9467C27.5554 32.2462 28.6562 31.6535 29.7904 31.1326C30.8167 30.663 31.956 30.4064 32.8977 29.7624C33.2493 29.5212 32.8079 29.0619 32.6103 28.9079C32.2691 28.6436 31.7302 28.3922 31.2863 28.5153C29.5851 28.9823 27.9788 29.7188 26.3854 30.4603C25.9902 30.6451 26.5239 31.1993 26.6727 31.3148C27.0089 31.5765 27.558 31.8357 27.9968 31.7074C28.8615 31.4533 29.6415 30.9889 30.437 30.5732C31.2324 30.1575 32.0869 29.7059 32.8669 29.1902C33.085 29.0465 32.9798 28.7488 32.8464 28.5897C31.8431 27.4145 30.3087 27.7943 29.0539 28.2408C27.6452 28.7411 26.2571 29.2954 24.8509 29.7983L26.4623 31.0479C27.1474 30.4424 28.0173 30.0729 28.8179 29.6469C29.5055 29.2826 30.2497 28.931 30.673 28.2433C30.8527 27.9534 30.3754 27.5428 30.1829 27.4197C29.8545 27.2093 29.3618 26.986 28.9641 27.1066C27.6991 27.4967 26.4418 27.92 25.1768 28.3126L26.7882 29.5622C27.4348 29.1799 28.0712 28.7796 28.6639 28.3152C28.9436 28.0945 28.6819 27.7096 28.4817 27.5428C28.0301 27.1656 27.4554 26.8988 26.8549 26.9321C26.4495 26.9552 26.0903 27.1169 25.7285 27.2837C25.5771 27.353 25.5155 27.3838 25.4411 27.4145C25.2923 27.4736 25.1434 27.5351 24.9946 27.5993C24.8201 27.6763 24.6456 27.7533 24.466 27.8174C24.3788 27.8482 24.2915 27.8764 24.2017 27.8969C24.1607 27.9072 24.1171 27.9175 24.076 27.9226C24.1427 27.9098 24.1325 27.9046 24.0452 27.9098L25.4539 29.1825C26.1031 28.6873 27.2167 28.4332 27.3476 27.4967C27.3912 27.1887 26.8985 26.8629 26.701 26.75C26.3828 26.5678 25.9799 26.4241 25.6104 26.5088C24.6174 26.7346 23.7886 27.3068 22.9419 27.8379L24.7072 29.0183C25.1999 28.4999 25.8054 28.092 26.1647 27.4582C26.293 27.2324 26.0364 26.9296 25.885 26.7987C25.3436 26.3368 24.6687 26.1162 23.9682 26.2419C23.7886 26.2753 23.6141 26.3317 23.4371 26.3856C23.3524 26.4113 23.2677 26.4421 23.1831 26.4651C23.1343 26.478 22.8572 26.5242 23.083 26.5036L24.4917 27.7763C24.9048 27.4607 25.4103 27.258 25.6771 26.7859C25.8465 26.4857 25.3898 26.0931 25.1871 25.9622C24.8484 25.7441 24.3788 25.544 23.9682 25.6492C23.2985 25.8211 22.7366 26.2188 22.1233 26.5242L23.8887 27.7045C24.2761 27.4299 25.0228 27.2862 25.1383 26.7448C25.2692 26.1367 24.3685 25.6569 23.8656 25.6056C23.2292 25.5414 22.4595 25.4952 21.9514 25.9597C21.6409 26.2419 22.0002 26.6294 22.2388 26.8141C22.5955 27.0912 23.1035 27.3068 23.5628 27.2067C23.8861 27.1374 24.153 26.9398 24.4609 26.8346L22.8495 25.585C22.5236 25.8083 22.1746 25.9879 21.8308 26.1778C21.5255 26.3471 21.2535 26.6165 20.9327 26.7525L22.362 27.2272C22.4851 27.3196 22.557 27.4376 22.5801 27.5762C22.5775 27.5454 22.5749 27.5146 22.5801 27.4838C22.5878 27.4197 22.5878 27.4171 22.5775 27.471C22.5878 27.4325 22.598 27.3915 22.6083 27.353C22.6622 27.1759 22.7289 27.004 22.7879 26.8321C22.9111 26.4754 23.0368 26.088 22.8726 25.7236C22.7084 25.3592 22.249 25.0718 21.8744 24.9615C21.5665 24.8691 21.1431 24.7896 20.925 25.0847C20.594 25.5337 20.3015 25.9751 19.8037 26.2547L21.6974 27.1733C21.6614 26.9783 21.6537 26.8167 21.7359 26.6345C21.8257 26.4344 21.9591 26.265 22.0412 26.0572C22.2054 25.6415 22.2901 25.1924 22.3209 24.746C22.344 24.4047 21.8103 24.0352 21.5485 23.9274C21.0969 23.7401 20.6453 23.5939 20.1578 23.735L21.8667 24.8691C22.0002 24.592 21.9155 24.3226 21.7153 24.0993C21.469 23.8248 21.1739 23.6246 20.8224 23.5092C20.5889 23.4348 20.1886 23.3424 19.9705 23.5194C18.7645 24.5048 18.3052 25.9827 17.4661 27.2426C17.3712 27.3838 17.5072 27.625 17.5842 27.7302C17.733 27.9303 17.9844 28.1074 18.2077 28.21C18.5361 28.3614 19.1699 28.582 19.4265 28.1946C20.2014 27.0322 20.6197 25.6081 21.7333 24.6998L19.9885 24.1199L19.9012 23.9172C19.7498 24.2276 20.1732 24.5997 20.3913 24.7408C20.7223 24.9538 21.2073 25.1693 21.6101 25.0539L21.4921 25.041L20.9635 24.8666L21.0687 24.9102L20.2964 24.0916C20.2681 24.5125 20.1758 24.9281 19.9859 25.3105C19.7806 25.7236 19.5805 26.0341 19.6703 26.519C19.796 27.1939 20.9507 27.7789 21.5639 27.4376C22.1387 27.1169 22.4979 26.5575 22.8803 26.0418L20.9302 25.4028C20.9661 25.485 20.9225 25.3977 20.9276 25.3695C20.9225 25.408 20.9302 25.4593 20.9276 25.5004C20.9225 25.5953 20.9173 25.5773 20.884 25.6877C20.8224 25.8878 20.7428 26.0828 20.6787 26.283C20.5119 26.7859 20.5042 27.2298 20.9558 27.5993C21.2817 27.8662 21.936 28.2639 22.385 28.074C22.793 27.9021 23.1163 27.6327 23.4961 27.4145C23.8759 27.1964 24.2556 27.0117 24.6123 26.7654C24.9689 26.519 24.5225 26.0649 24.3249 25.9109C23.999 25.6594 23.4268 25.3721 23.0009 25.5183C22.693 25.6235 22.421 25.8211 22.1028 25.8904L23.7142 27.14C23.8297 27.0348 23.9631 26.9604 24.0811 26.9398C24.0914 26.9398 24.2351 26.9296 24.2915 26.9296C24.3352 26.9296 24.3788 26.9296 24.425 26.9321C24.3326 26.9219 24.3403 26.9219 24.4429 26.9321L23.1702 25.7929C23.1574 25.8519 23.142 25.8981 23.1112 25.9468C23.142 25.8981 23.1061 25.952 23.0855 25.9699C22.9906 26.0597 22.8674 26.1239 22.752 26.1855C22.5416 26.2984 22.3158 26.3856 22.1182 26.5242C21.7333 26.7962 22.2773 27.3119 22.5108 27.4607C22.9008 27.7096 23.4396 27.9252 23.8836 27.7045C24.3942 27.4505 24.8586 27.1143 25.4154 26.9681L23.7065 25.8339C23.5064 26.188 23.0342 26.3574 22.7186 26.5986C22.4312 26.8167 22.7084 27.2041 22.9008 27.3709C23.2113 27.6429 23.6988 27.9098 24.1273 27.8713C24.407 27.8456 24.6585 27.7763 24.9228 27.6917C25.0382 27.6557 25.1511 27.6224 25.2666 27.5916C25.3025 27.5813 25.341 27.5736 25.3769 27.5659H25.3179C25.341 27.5659 25.3615 27.5659 25.3846 27.5659C25.2948 27.5608 25.2076 27.5454 25.1203 27.5223L24.5995 27.2683L24.4737 27.1656L24.194 26.5062C23.8861 27.0476 23.355 27.394 22.9316 27.8405C22.3106 28.4948 24.135 29.3724 24.697 29.0208C25.4539 28.5487 26.1724 28.0329 27.0551 27.8302L25.3179 26.8423C25.3307 26.75 25.2666 26.9321 25.2486 26.9629C25.2127 27.0194 25.1973 27.0297 25.1229 27.0964C24.9766 27.2247 24.8099 27.3299 24.6456 27.4299C24.3249 27.6224 23.9785 27.7789 23.6808 28.0047C23.3832 28.2305 23.6706 28.6103 23.863 28.7771C24.2017 29.0721 24.6379 29.262 25.0895 29.2774C25.7156 29.3005 26.2673 28.9798 26.8293 28.7565C27.0653 28.6616 27.2911 28.5487 27.5246 28.4486C27.5862 28.4204 27.7222 28.3665 27.8171 28.3383C27.8659 28.3229 27.9147 28.3126 27.9634 28.2998C28.0455 28.2844 28.0583 28.2818 28.0019 28.2921C27.6709 28.3588 27.363 28.2331 27.0756 27.9123L26.8934 27.14C26.3007 27.6044 25.6669 28.0047 25.0177 28.387C24.6456 28.6051 25.128 29.1029 25.3051 29.2415C25.6387 29.5007 26.1955 29.7701 26.6291 29.6341C27.8941 29.2441 29.1514 28.8207 30.4165 28.4281L28.7075 27.2939C28.338 27.8918 27.5708 28.1895 26.9755 28.5102C26.198 28.9285 25.359 29.2826 24.6918 29.8702C24.0247 30.4578 25.8208 31.2917 26.3032 31.1198C27.6093 30.6528 28.9128 30.1652 30.2086 29.6726C30.5678 29.5366 30.9322 29.4109 31.3017 29.3082C31.5198 29.2492 31.7379 29.203 31.9586 29.162C32.1408 29.1286 31.8098 29.1543 31.9817 29.162C32.0125 29.162 32.0535 29.162 32.0843 29.1568C32.2408 29.1286 31.8919 29.1209 32.0304 29.1491C31.684 29.0824 31.3479 28.8823 31.117 28.6154L31.0964 28.015C30.3497 28.5076 29.5646 28.9285 28.7717 29.3416C28.043 29.7239 27.3322 30.1601 26.5367 30.3936L28.1482 31.6432C29.6415 30.9479 31.1452 30.273 32.7386 29.8368L31.1272 28.5872C30.1958 29.2261 29.0411 29.4904 28.0199 29.9574C26.8857 30.4783 25.7849 31.0685 24.7508 31.7715C24.3967 32.0127 24.8407 32.4746 25.0382 32.626C25.3461 32.8646 25.9568 33.1854 26.3623 33.0186C29.2284 31.8459 31.9842 30.4218 34.8684 29.2903L33.257 28.0406C32.5103 28.423 31.7405 28.736 30.9194 28.9208L32.3743 30.2397C33.1081 29.9933 33.842 29.7496 34.5707 29.4878L32.9593 28.2382C32.0227 28.6565 31.0502 28.9926 30.088 29.3467C29.1976 29.6751 28.279 30.0908 27.3168 30.1216L28.7255 31.3943C30.2959 30.4526 32.0381 29.8676 33.6778 29.0696C34.0704 28.8797 33.5443 28.3357 33.3904 28.2151C33.0773 27.9714 32.4795 27.6634 32.0664 27.8225C30.8167 28.2972 29.5851 28.8233 28.3483 29.3287C27.7479 29.5751 27.1423 29.806 26.5342 30.0267C26.216 30.1421 25.8978 30.2422 25.5976 30.3936C25.4898 30.4475 25.3872 30.4911 25.2692 30.5142C25.2692 30.5142 24.9972 30.5347 25.0947 30.5424L26.2673 31.7972C28.0789 30.7888 29.9751 29.9112 31.9945 29.4109L30.3831 28.1612C29.5081 28.7694 28.4509 29.085 27.4861 29.5186C26.3777 30.0138 25.2846 30.5399 24.1812 31.0428L25.9466 32.2231C27.6683 30.9325 29.5825 29.9369 31.5172 29.0106C31.9098 28.8232 31.3838 28.2741 31.2299 28.1561C30.9142 27.9098 30.3215 27.607 29.9058 27.7635C27.8582 28.523 25.9286 29.5494 23.9246 30.4116L25.6335 31.5457C25.6951 31.2968 25.944 31.1557 26.2057 30.9812C26.4957 30.7862 26.8036 30.622 27.1064 30.4475C28.0506 29.9061 28.9924 29.3236 29.893 28.7129C30.2471 28.4717 29.8032 28.0098 29.6056 27.8585C29.2592 27.589 28.7332 27.353 28.2816 27.4659C27.2501 27.725 26.2981 28.2664 25.3436 28.7232C24.3583 29.1953 23.3832 29.688 22.385 30.1293L24.0811 30.953C24.0863 30.9684 24.1299 31.1608 24.0888 31.1608C24.0888 31.1608 24.1119 31.1018 24.1171 31.0967C24.1376 31.071 24.1555 31.0377 24.1761 31.0094C24.2223 30.9427 24.1145 31.0761 24.1786 31.0094C24.3044 30.8811 24.4455 30.7682 24.5892 30.6579C24.8612 30.4526 25.1486 30.2679 25.4308 30.078C26.1595 29.5905 27.1115 29.1235 27.4015 28.2305C27.5092 27.8944 27.1628 27.5685 26.9114 27.4068C26.5675 27.1862 26.1082 26.9963 25.6925 27.0938C24.7124 27.3273 23.7886 27.7199 22.9496 28.2767C22.5929 28.5128 23.0445 28.9823 23.2369 29.1312C23.6039 29.416 24.0914 29.6084 24.561 29.5238C25.5848 29.3441 26.5136 28.8515 27.5195 28.6051L25.9081 27.3555C24.6277 28.2382 23.3113 29.0696 22.1131 30.0677C21.7538 30.3654 22.2465 30.8375 22.5056 31.0043C22.8777 31.2429 23.4499 31.4867 23.8784 31.2481C25.3359 30.4321 26.7471 29.5289 28.2457 28.7899L26.3802 27.725C25.8876 28.4589 24.9972 28.9182 24.33 29.4776C23.455 30.2114 22.5775 30.9453 21.6512 31.615L23.5166 32.6799C23.763 32.372 24.1581 32.1538 24.4917 31.9563C24.892 31.7202 25.2974 31.4995 25.6874 31.2506C26.6933 30.6091 27.6889 29.9548 28.6947 29.3159L26.8293 28.251C26.5239 28.6513 26.0903 28.9541 25.6823 29.2441C25.2512 29.5494 24.8201 29.8548 24.4019 30.1755C23.4243 30.9222 22.4595 31.6894 21.5793 32.5516C20.9507 33.1674 22.7828 34.1142 23.3447 33.7319C25.2666 32.4181 27.1372 31.0274 29.1027 29.7803L27.3373 28.6C26.411 29.4853 25.341 30.1986 24.348 31.0043L26.1134 32.1846C26.1698 32.1385 26.1955 32.1051 26.2519 32.0358C26.4444 31.8074 25.9928 31.3918 25.867 31.2943C25.5796 31.071 25.1255 30.8375 24.7457 30.876C24.4096 30.9119 24.23 31.0864 23.9759 31.2866C23.6218 31.5637 23.2729 31.8459 22.929 32.1333C22.5852 32.4207 22.2362 32.7158 21.9129 33.0314C21.7282 33.211 21.3561 33.4984 21.392 33.7986C21.4356 34.1732 21.8513 34.4735 22.1644 34.6172C22.4774 34.7608 22.9624 34.9302 23.2857 34.7172C24.7765 33.7319 26.2673 32.7414 27.6452 31.5996C28.2944 31.0608 26.4546 30.0215 25.8799 30.4193C24.0632 31.6766 22.4441 33.1854 20.8942 34.7531C20.5709 35.0816 20.9994 35.505 21.2868 35.6897C21.5742 35.8745 22.326 36.244 22.6596 35.9335C24.2556 34.4478 25.9748 33.0879 27.4271 31.4533C28.0045 30.8042 26.2006 29.8265 25.6618 30.273C24.2454 31.4508 22.8803 32.6927 21.3715 33.7524L23.1369 34.9328C24.6046 33.7191 26.1826 32.6414 27.617 31.3841C27.8864 31.148 27.6427 30.7939 27.4348 30.6117C27.091 30.3115 26.6625 30.137 26.2083 30.1114C25.3487 30.0652 24.602 30.7528 23.9554 31.225C22.9957 31.9255 22.0053 32.5772 21.0559 33.2957C20.3964 33.7961 22.2311 34.8609 22.8213 34.476C23.6988 33.9038 24.525 33.2572 25.4026 32.6824C26.2801 32.1077 27.1885 31.5688 28.0686 30.9915C28.4278 30.758 27.9737 30.2858 27.7812 30.137C27.463 29.8907 26.8754 29.5905 26.4572 29.7444C25.2101 30.1986 24.212 31.0685 23.1446 31.8254C22.1464 32.5336 21.2175 33.4496 20.086 33.95L21.7949 35.0842C22.1233 34.7044 22.4928 34.3657 22.7468 33.9269C22.9188 33.6293 22.4569 33.2315 22.2567 33.1032C21.9565 32.9134 21.4023 32.6311 21.0379 32.7902C20.1219 33.1931 19.3495 33.873 18.4232 34.2477L20.1604 35.2355C20.1527 34.9815 20.3323 35.0303 20.5555 34.8814C20.6684 34.8045 20.748 34.6762 20.8788 34.6146C21.0456 34.5325 21.1046 34.6043 20.9148 34.5479L19.9012 33.4727C19.7088 34.3631 19.3059 35.1457 18.4643 35.564L20.2091 36.1439C20.0526 35.9668 20.009 35.8514 20.0398 35.5691L18.0614 35.0765C18.2359 35.5127 18.3411 35.9694 18.4745 36.421C18.5977 36.8418 19.2289 37.1241 19.6036 37.2165C19.873 37.2832 20.458 37.3396 20.4529 36.9137C20.4478 36.4467 20.3554 35.9925 20.3066 35.5281C20.2579 35.0636 19.6703 34.7198 19.2649 34.5992C19.0108 34.5248 18.2513 34.3888 18.2872 34.8712C18.3693 36.0156 18.1487 37.296 18.7542 38.3352C18.9672 38.7021 19.3444 38.9767 19.7524 39.0973C19.9577 39.1589 20.6248 39.3103 20.7018 38.9741C20.9507 37.9041 20.8455 36.829 20.9327 35.7436L18.9544 35.2509C19.1904 36.1285 19.1212 37.083 19.0904 37.9785C19.057 38.9305 18.9261 39.844 19.2135 40.7729C19.3264 41.1372 19.8781 41.4374 20.2117 41.5349C20.4349 41.6017 21.0584 41.7453 21.1611 41.4118C21.3843 40.6959 21.3407 39.962 21.4716 39.2333C21.587 38.5867 21.7436 38.035 21.3664 37.4448C21.1637 37.1241 20.689 36.9085 20.3426 36.8239C20.1527 36.7777 19.6036 36.6879 19.5214 36.9804C19.1981 38.1402 18.6465 39.3744 19.4291 40.4752C19.7575 40.9396 20.6325 41.3476 21.1739 41.0551C21.8231 40.7061 22.3414 40.0133 22.4825 39.2897C22.5698 38.8407 22.1079 38.4917 21.7384 38.3224C21.3895 38.1633 20.7967 37.9606 20.5196 38.3378C20.2425 38.715 19.9628 39.0742 19.5522 39.3308L21.4177 40.3957C21.6461 40.0416 21.9565 39.749 22.1361 39.3642C22.3158 38.9793 21.7667 38.6123 21.5178 38.4686C21.1585 38.2634 20.6633 38.0889 20.2707 38.2967C20.0269 38.4276 19.8781 38.6662 19.642 38.8073L21.5075 39.8722C21.8154 39.2333 22.4774 38.7791 22.4851 38.0145C22.4877 37.6552 21.9899 37.3217 21.7128 37.1959C21.3972 37.0497 20.9148 36.8829 20.5914 37.0959C20.109 37.4166 19.6651 37.7861 19.2135 38.1479L21.079 39.2128C21.3048 38.7817 21.6897 38.4892 22.0438 38.1684L20.1783 37.1036C20.0654 37.237 19.9012 37.3473 19.7319 37.3832L21.3433 38.6329C21.8026 38.1376 22.3029 37.6912 22.7391 37.1754C22.8469 37.0497 22.6853 36.7777 22.6211 36.6879C22.4902 36.5134 22.3081 36.3851 22.1233 36.2799C21.7564 36.0695 21.2766 35.9078 20.8763 36.108C20.2066 36.4441 19.7139 37.0394 19.0365 37.3627L20.8019 38.5431C21.3997 37.8785 22.0771 37.296 22.7648 36.7264L20.9994 35.546C20.3682 36.1131 19.7601 36.7033 19.0801 37.2088L20.8455 38.3891C21.7974 37.5757 22.8213 36.847 23.6706 35.9207C24.2633 35.274 22.5749 34.476 22.0592 34.671C20.9635 35.0867 20.0423 35.7975 19.0339 36.3774L20.7993 37.5577C21.7513 36.7931 22.8059 36.1465 23.5141 35.1278C23.7424 34.7993 23.0958 34.3452 22.8957 34.2323C22.5852 34.0552 21.9848 33.8038 21.6486 34.0603C20.5735 34.8763 19.4984 35.6897 18.4335 36.5185L20.1989 37.6989C20.9353 37.0856 21.6614 36.4595 22.3876 35.8308C22.9855 35.3125 23.6937 34.8968 24.1581 34.2425C24.389 33.9167 23.7373 33.4599 23.5397 33.347C23.2164 33.1623 22.6442 32.9288 22.2927 33.1751C21.1175 33.9988 20.0141 34.9379 18.7311 35.5948L20.5966 36.6596C20.9353 36.0695 21.6537 35.7462 22.1772 35.3407C22.9111 34.7711 23.6295 34.1784 24.2505 33.483C24.7021 32.9801 23.7373 32.4053 23.337 32.2924C22.793 32.141 22.3363 32.1718 21.8359 32.4181C21.4741 32.5952 21.1483 32.8415 20.8301 33.0878C20.0885 33.6575 19.2982 34.3221 18.4232 34.6659L20.1321 35.8001C21.315 34.3708 23.065 33.5318 24.5327 32.4438C24.9099 32.1641 24.3813 31.6612 24.1402 31.5072C23.7886 31.284 23.1728 31.0043 22.7674 31.2635C21.3715 32.159 20.0372 33.1494 18.6157 34.0065L20.4811 35.0713C21.1046 34.3144 21.9565 33.7704 22.7417 33.2008C23.5269 32.6311 24.3916 32.1154 24.9869 31.3071C25.223 30.9863 24.5584 30.5193 24.3685 30.4116C24.0272 30.2166 23.4935 30.0113 23.1215 30.2397C22.249 30.7734 21.3715 31.3045 20.5042 31.8511C19.6369 32.3976 18.921 32.9955 18.1102 33.5472L19.8755 34.7275C20.7197 33.9911 21.6332 33.3342 22.5595 32.703C23.3781 32.1461 24.2171 31.6561 24.8278 30.8555C24.9305 30.722 24.7791 30.4655 24.7098 30.3679C24.5789 30.1935 24.3967 30.0652 24.212 29.96C23.8451 29.7496 23.3678 29.5879 22.9649 29.788C21.0071 30.7605 19.3393 32.1821 17.6457 33.5472L19.5112 34.612C20.7993 33.093 22.6391 32.1667 24.0991 30.8349C24.6097 30.3705 23.532 29.7444 23.1856 29.6444C22.6031 29.4801 22.1336 29.5494 21.6024 29.8188C21.2124 30.0164 20.8557 30.2807 20.5042 30.5347C19.4932 31.266 18.4335 31.9306 17.4199 32.6619L19.2854 33.7268C19.7447 33.1597 20.3913 32.7697 20.8994 32.2514C21.487 31.6509 19.9448 30.9273 19.4907 30.9786C19.0775 31.0248 18.7132 31.1095 18.3411 31.302C18.0281 31.4636 17.8202 31.7382 17.5303 31.9229C16.8785 32.336 16.3294 32.8749 15.8701 33.4907C15.77 33.6241 15.9163 33.8807 15.9881 33.9782C16.119 34.1527 16.3012 34.281 16.4859 34.3862C16.8221 34.5787 17.3661 34.7891 17.733 34.5581C18.9826 33.7704 20.1681 32.8774 21.2047 31.8228C21.8308 31.1865 20.0013 30.2833 19.4393 30.6425C18.608 31.1762 17.7946 31.8049 17.0812 32.49C16.7759 32.7825 16.5142 33.1443 16.6579 33.5882C16.9067 34.3529 18.1153 34.7249 18.8517 34.5196C19.2777 34.4016 19.6036 34.1117 19.9192 33.8166C20.2733 33.4856 20.6582 33.1905 21.0456 32.898C21.9386 32.2257 22.87 31.6022 23.8014 30.9838C24.8637 30.2781 25.9286 29.5776 26.9499 28.813C27.3271 28.5307 26.801 28.0329 26.5573 27.8764C26.1595 27.6224 25.6361 27.4197 25.1845 27.6327C22.3466 28.9746 19.7832 30.8042 17.2352 32.6208L19.0006 33.8012C19.9705 32.8364 21.1637 32.1359 22.2721 31.3456C23.4756 30.4885 24.6559 29.6007 25.8157 28.6847C26.1826 28.3947 25.6746 27.9098 25.4231 27.7481C25.0408 27.5044 24.4891 27.276 24.0503 27.5044C21.9719 28.5897 20.0885 29.9908 18.1127 31.2404L19.8781 32.4207C22.1413 30.7092 24.4275 29.0311 26.7651 27.4222C27.1551 27.1554 26.6035 26.6345 26.3725 26.4857C25.9851 26.2368 25.4411 26.0187 24.9997 26.2419C21.6358 27.9406 18.6567 30.2602 15.6007 32.4412L17.3661 33.6216C19.5753 31.2609 22.208 29.3698 24.7688 27.4197C25.1434 27.1349 24.6225 26.6396 24.3762 26.4831C24.017 26.2522 23.4191 25.9879 23.0034 26.2393C20.2964 27.879 17.7253 29.729 15.0464 31.4123L16.9119 32.4772C17.4969 31.7741 18.2795 31.2609 18.6747 30.409C18.8209 30.0934 18.4053 29.729 18.1846 29.5853C17.8767 29.3903 17.3404 29.1235 16.9658 29.2723C15.942 29.6828 15.1003 30.3243 14.3793 31.1557C14.1586 31.4097 14.7154 31.8793 14.8694 31.9794C15.185 32.1821 15.7033 32.431 16.0882 32.2924C16.6348 32.0948 17.0735 31.7228 17.5996 31.4918L15.9881 30.2422C15.6854 30.4834 15.2286 30.7374 15.1132 31.13C14.9079 31.8408 16.45 32.6003 16.9786 32.1949C17.7689 31.5919 18.4514 30.8401 19.3521 30.3936L17.4867 29.3287C16.9478 29.9856 16.3756 30.6374 15.7829 31.2429C15.3492 31.6868 14.8129 32.1051 14.9951 32.7851C15.0849 33.1186 15.5853 33.3829 15.8598 33.4933C16.1344 33.6036 16.5834 33.737 16.8477 33.5369C18.1615 32.5387 19.4599 31.5201 20.7967 30.5527C22.1336 29.5853 23.5115 28.7642 24.8637 27.861C25.2204 27.6224 24.7714 27.158 24.5764 27.0066C24.2633 26.7628 23.6655 26.4549 23.2523 26.614C21.8026 27.1682 20.5581 28.0714 19.3367 29.0054C18.708 29.4853 18.0743 29.96 17.4533 30.4501C17.1428 30.6938 16.8452 30.9761 16.5039 31.1737C16.1832 31.3584 15.9266 31.6304 15.7187 31.9332C15.5263 32.2129 16.0292 32.6414 16.2088 32.7568C16.5167 32.9544 17.053 33.2187 17.4276 33.0699C18.8261 32.5105 19.8371 31.3148 21.0123 30.4141C22.2927 29.4339 23.6501 28.5538 24.9382 27.5839C25.2255 27.3658 24.9484 26.9783 24.756 26.8115C24.4378 26.5344 23.9631 26.2855 23.5295 26.3112C23.1702 26.3317 22.8264 26.4087 22.521 26.6088C22.3748 26.7038 22.2567 26.8295 22.1464 26.9629C22.0258 27.1041 21.9026 27.1964 21.7487 27.2991C21.0431 27.7789 20.3374 28.2536 19.6267 28.7232C18.9159 29.1927 18.2539 29.6367 17.5842 30.1165C16.9144 30.5963 16.3525 31.1172 15.6571 31.5072L17.4225 32.6876C18.4797 31.6176 19.7575 30.7426 20.9994 29.9035C22.1028 29.1568 23.2883 28.4281 24.1017 27.3478C24.2017 27.2144 24.0555 26.9578 23.9836 26.8603C23.8528 26.6858 23.6706 26.5575 23.4858 26.4523C23.142 26.2547 22.616 26.0572 22.2388 26.2804C20.2194 27.4864 18.2154 28.7565 16.4962 30.3756C15.8701 30.9632 17.7048 31.9768 18.2616 31.556C19.134 30.894 19.9602 30.1806 20.7967 29.4776C21.5845 28.8181 22.3979 28.1843 23.0984 27.4274C23.7039 26.7705 21.8949 25.875 21.333 26.247C19.542 27.4351 17.9383 28.8848 16.1113 30.0241L17.8767 31.2044C18.921 30.1704 20.0603 29.2466 21.197 28.3152C21.7615 27.8533 22.3235 27.3863 22.8803 26.9168C23.1548 26.6858 23.4345 26.3805 23.727 26.1983C23.9862 26.0366 24.2043 25.8929 24.3095 25.585C24.4404 25.1924 23.9785 24.8537 23.6911 24.6895C23.3319 24.4842 22.8366 24.3072 22.4441 24.5176C21.5024 25.0257 20.6505 25.7569 19.6113 26.0623L21.2227 27.3119C21.9745 26.5986 22.8366 26.0135 23.5808 25.2899C24.1966 24.6895 22.4723 23.8197 21.9694 24.0403C21.4664 24.261 20.984 24.5817 20.4785 24.8383L22.344 25.9032C22.7084 25.4619 23.142 25.0795 23.5243 24.6562C23.6372 24.533 23.6988 24.397 23.609 24.2302C23.0958 23.2757 21.936 23.1499 21.02 23.481C20.6813 23.6041 20.3528 23.7529 20.0244 23.8992C19.95 23.9326 19.8755 23.9659 19.8011 23.9993C19.7678 24.0147 19.6113 24.0814 19.7652 24.0172C19.6805 24.0532 19.5959 24.0942 19.5086 24.1199L21.2175 25.254C21.4433 24.9512 21.8154 24.7639 22.1131 24.5433C22.4902 24.2636 22.8469 23.9736 23.278 23.7786L21.4125 22.7137C21.2817 23.2346 20.6761 23.4861 20.3349 23.8556C20.0244 24.1943 20.4272 24.5997 20.7274 24.7922C21.1303 25.0487 21.6435 25.2438 22.1002 25.0359C22.2131 24.9846 22.3106 24.9179 22.4133 24.8486C22.6134 24.7152 22.6673 24.7819 22.3773 24.7331L21.1046 23.5939C20.7557 24.1892 20.2425 24.6562 19.8217 25.2001C19.719 25.3336 19.8704 25.5927 19.9397 25.6877C20.0706 25.8621 20.2527 25.9904 20.4375 26.0956C20.7557 26.2778 21.3407 26.519 21.6845 26.2676C22.0078 26.0315 22.3081 25.7672 22.598 25.4901C23.2164 24.8974 21.3818 23.8684 20.8326 24.3098C20.2194 24.8024 19.5702 25.2797 18.8286 25.5568L20.4401 26.8064C20.8711 26.5421 21.315 26.2958 21.7282 26.0058L19.9628 24.8255C18.726 26.1136 17.071 26.8552 15.6931 27.9662C15.049 28.4871 16.8811 29.5674 17.4584 29.1466C17.9998 28.754 18.5387 28.3614 19.0031 27.8738C19.6036 27.2452 17.9023 26.4164 17.3917 26.6242C16.4911 26.9912 15.7059 27.5274 14.9181 28.0868C14.1304 28.6462 13.4196 29.1876 12.8372 29.9369C12.6858 30.1344 12.986 30.4911 13.1168 30.5963C13.5813 30.9632 14.2407 31.2866 14.8206 30.9966C15.0105 30.9017 15.1799 30.7682 15.3441 30.6322C15.6854 30.3526 16.0266 30.0575 16.3294 29.7367C16.9196 29.1081 15.2312 28.2664 14.718 28.4871C14.1304 28.7411 13.4325 29.2235 13.2631 29.8804C13.1605 30.2833 13.571 30.5989 13.8815 30.7759C14.251 30.9863 14.7231 31.1429 15.1285 30.9479C16.0985 30.4757 16.9658 29.824 17.9177 29.3159L16.1524 28.1356C15.5879 28.4999 15.0567 28.9054 14.5409 29.3364C14.1689 29.6495 13.6172 29.9497 13.4709 30.4424C13.3529 30.8401 13.7917 31.1685 14.0893 31.3379C14.387 31.5072 15.0054 31.769 15.3364 31.5098C16.1857 30.8401 17.035 30.1704 17.8664 29.4776C18.513 28.9413 16.6758 27.8892 16.101 28.2972C15.5904 28.659 14.7539 29.1466 14.9977 29.8804C15.108 30.2191 15.5673 30.4706 15.8624 30.5886C16.1832 30.7195 16.527 30.7862 16.8503 30.6322C18.7542 29.7342 20.4221 28.423 22.2747 27.4299L20.4093 26.3651C20.2835 26.6165 20.1244 26.7987 19.8858 26.9501C19.7344 27.045 19.5625 27.0938 19.4137 27.1887C19.2366 27.3016 19.075 27.4453 18.9056 27.5711C18.4591 27.9072 18.0204 28.251 17.5585 28.5615C17.1556 28.8309 16.7528 29.1029 16.3705 29.4032C16.0189 29.6803 15.6007 30.0087 15.4031 30.4218C15.2286 30.7888 15.7726 31.1762 16.0215 31.3173C16.3397 31.4995 16.9247 31.7407 17.2685 31.4893C19.3752 29.9497 21.2894 28.1304 23.5577 26.8192L23.201 26.9142C23.7784 26.8654 24.4301 26.6961 24.4198 25.9981C24.4096 25.3951 23.2061 24.7998 22.6827 25.0103C21.0687 25.6646 19.6395 26.6319 18.2026 27.6019C16.7656 28.5718 15.2209 29.5956 13.8507 30.7554L15.6161 31.9357C17.7946 29.7188 20.5837 28.2459 22.8726 26.1572C23.5269 25.5594 21.7461 24.7357 21.2612 24.9076C20.0885 25.3233 19.0339 25.9699 18.0075 26.6602C16.9812 27.3504 15.9445 28.1022 14.9489 28.8797L16.7143 30.06C18.5156 28.6128 20.4657 27.3632 22.2619 25.9083C22.8161 25.4593 21.6486 24.8255 21.3484 24.7177C20.7634 24.5099 20.068 24.4945 19.6087 24.9692C19.5061 25.077 19.4239 25.2027 19.3085 25.2951C19.1827 25.3951 19.0365 25.4747 18.9031 25.5645C18.6157 25.7544 18.3257 25.9443 18.0383 26.1367C16.9144 26.8808 15.8239 27.6686 14.7283 28.4512L16.4936 29.6315C18.1461 28.1433 19.8884 26.7602 21.7205 25.4978C22.072 25.2566 21.6307 24.7973 21.4331 24.6433C21.0815 24.3713 20.5632 24.143 20.1091 24.2507C19.4137 24.415 18.939 24.8871 18.3693 25.2822C17.7304 25.7287 17.0941 26.1803 16.4628 26.6345C15.2184 27.5326 13.9226 28.3639 12.7191 29.321C12.0802 29.8317 13.9097 30.9479 14.4845 30.5014C15.7315 29.5315 16.9555 28.5307 18.2077 27.5685C19.4599 26.6063 20.6505 25.7236 21.7795 24.6869C22.09 24.4021 21.7307 24.0172 21.4921 23.8325C21.1534 23.5708 20.6094 23.3142 20.1681 23.4399C18.9775 23.776 18.0204 24.5766 17.0248 25.2694C15.9317 26.0289 14.8566 26.809 13.8712 27.7019L15.6366 28.8823C16.6502 27.92 17.7586 27.0887 18.8825 26.265C20.0064 25.4413 21.0713 24.592 22.2388 23.8556L20.3733 22.7907C20.1167 23.1012 19.7011 23.3039 19.3624 23.5066C18.9492 23.7529 18.549 24.0172 18.1461 24.2815C17.2403 24.8691 16.3448 25.4747 15.4621 26.0931C13.7763 27.2734 11.916 28.4076 10.5637 29.9856C10.456 30.1114 10.6176 30.3833 10.6818 30.4732C10.8126 30.6476 10.9948 30.7759 11.1796 30.8811C11.5234 31.0787 12.0494 31.2763 12.4266 31.0531C13.2118 30.5861 13.8995 29.9523 14.6282 29.4006C14.9079 29.1876 15.1927 28.9798 15.4903 28.795C15.634 28.7052 15.7829 28.6154 15.9394 28.5487C15.8368 28.5923 16.0574 28.5179 16.0728 28.5102C16.1806 28.4512 15.9266 28.4974 16.1113 28.5102L14.7026 27.2375C13.8969 28.1227 12.9526 28.8669 12.1674 29.7726C12.0597 29.8984 12.2213 30.1729 12.2855 30.2602C12.4163 30.4347 12.5985 30.563 12.7833 30.6682C13.0989 30.8478 13.6891 31.0915 14.0303 30.8401C14.5717 30.4398 15.0849 30.001 15.6161 29.5879C16.0908 29.2184 16.5526 28.8361 16.8785 28.3178C17.0915 27.9791 16.4731 27.5428 16.2601 27.4222C15.9189 27.2272 15.3851 27.022 15.0131 27.2503C14.0688 27.8328 13.1938 28.5102 12.324 29.1979L14.0893 30.3782C15.0952 29.5186 16.2114 28.8181 17.0735 27.802C17.1813 27.6763 17.0197 27.4043 16.9555 27.3145C16.8246 27.14 16.6425 27.0117 16.4577 26.9065C16.101 26.7038 15.6007 26.5216 15.2107 26.7346C13.9482 27.4248 12.868 28.3793 11.6697 29.1671L13.5351 30.232C13.8918 29.765 14.405 29.4365 14.8771 29.0978C15.3903 28.7257 15.8727 28.3203 16.2242 27.7866C16.4115 27.5018 15.9189 27.0835 15.7341 26.9629C15.4134 26.7577 14.9027 26.5165 14.5153 26.6499C13.6044 26.9655 12.7884 27.4633 11.9801 27.9816C11.2925 28.4204 10.5304 28.7668 10.0146 29.4185C9.91198 29.5494 10.0634 29.8111 10.1327 29.9061C10.2635 30.0806 10.4457 30.2089 10.6304 30.3141C10.9435 30.4937 11.5388 30.74 11.8775 30.486C13.3657 29.3647 14.8104 28.1946 16.0318 26.7808C16.2268 26.555 15.7675 26.1341 15.6469 26.0392C15.3364 25.798 14.9233 25.6158 14.5256 25.6209C13.3786 25.6363 12.4985 26.3933 11.5824 26.9835C10.9307 27.4043 9.89659 27.7763 9.66052 28.5974C9.46551 29.2723 10.8332 29.9625 11.3694 29.7316C12.2393 29.3595 13.0373 28.9182 13.6121 28.1458C13.8148 27.8739 13.2939 27.4325 13.122 27.3222C12.8192 27.1297 12.2701 26.8552 11.9032 27.0091C10.9435 27.4171 10.2019 28.0766 9.39366 28.7155L11.159 29.8958C11.5414 29.5417 12.2316 29.357 12.365 28.7925C12.4471 28.4435 12.1469 28.1433 11.8749 27.9688C11.567 27.7712 11.0307 27.5069 10.6561 27.6557C9.971 27.9277 8.51098 28.5436 9.19609 29.475C9.47064 29.8471 10.2994 30.3243 10.787 30.1242C12.2188 29.534 13.512 28.7206 14.7257 27.7661C15.2799 27.3299 14.115 26.673 13.8122 26.5755C13.0758 26.342 12.5472 26.6345 12.0058 27.1041C11.5465 27.5018 11.0076 27.8739 10.7331 28.4281C10.6151 28.6693 10.8563 28.9413 11.0128 29.0875C11.2796 29.3339 11.6466 29.5135 12.0032 29.5674C13.0091 29.7239 13.92 28.9054 14.7077 28.387C15.5468 27.8354 16.3679 27.258 17.1967 26.6935C18.0255 26.129 18.862 25.5825 19.7267 25.077C20.5914 24.5715 21.4972 24.0788 22.3568 23.5348C22.7571 23.2808 22.1849 22.7394 21.9642 22.5983C21.5845 22.3545 21.0277 22.1236 20.5914 22.3545C19.3367 23.0216 18.1358 23.7837 16.917 24.5125C16.3268 24.8666 15.7341 25.2155 15.1516 25.5825C14.8694 25.7621 14.5974 25.9699 14.2946 26.111C14.0149 26.2419 13.8122 26.4369 13.6352 26.6884C13.4068 27.0168 14.0534 27.471 14.2536 27.5839C14.5923 27.7763 15.1311 27.9868 15.5006 27.7558C16.6296 27.0476 17.5765 26.1059 18.6234 25.2874C19.6703 24.4688 20.8147 23.7786 21.8 22.8805C22.1105 22.5983 21.7513 22.2108 21.5126 22.0261C21.1329 21.731 20.6684 21.5693 20.1886 21.6335C19.6857 21.7002 19.3444 21.9465 18.9672 22.2544C18.531 22.6085 17.9998 22.8754 17.5328 23.191C16.6194 23.8068 15.77 24.515 14.8591 25.136L16.6245 26.3163C18.4232 24.7023 20.3374 23.2244 22.1002 21.5719C22.4056 21.2845 22.0566 20.9047 21.8128 20.7174C21.4562 20.4403 20.9481 20.2222 20.4888 20.3248C20.0295 20.4275 19.7344 20.6456 19.4291 20.9689C19.1237 21.2922 18.7029 21.5437 18.3462 21.79C17.81 22.1621 17.2224 22.4289 16.7938 22.937C16.6861 23.0627 16.8452 23.3347 16.9119 23.4245C17.0427 23.599 17.2249 23.7273 17.4097 23.8325C17.715 24.007 18.3283 24.2661 18.6567 24.0044C19.6241 23.2295 20.6402 22.5059 21.4716 21.5796C21.7769 21.2383 21.3818 20.838 21.079 20.643C20.6813 20.389 20.1604 20.1888 19.7062 20.3993C18.9621 20.7457 18.3462 21.2973 17.6996 21.79C17.0043 22.3186 16.3089 22.8446 15.6802 23.4553C15.0516 24.066 16.8837 24.9589 17.4456 24.6356C18.6542 23.9403 19.7857 23.1269 20.9148 22.3083C21.2945 22.0312 20.7608 21.5257 20.5222 21.3717C20.1655 21.1434 19.5599 20.874 19.1494 21.128C17.6714 22.0466 16.2755 23.0884 14.9746 24.243L16.84 25.3079C17.0427 24.8204 17.4353 24.6254 17.8177 24.2918C18.2616 23.9018 18.7003 23.5092 19.152 23.1294C20.0295 22.3956 20.9404 21.7002 21.7538 20.8945C22.3799 20.2735 20.5478 19.3318 19.9885 19.7141C18.6952 20.5968 17.5636 21.6925 16.2422 22.5367L18.0075 23.717C19.2802 22.7343 20.5093 21.6899 21.9001 20.8765L20.1347 19.6962C19.4162 20.3813 18.6208 20.9766 17.8895 21.6437C17.1582 22.3109 16.4346 23.0781 15.6674 23.7555L17.5328 24.8204C17.7073 24.4227 18.005 24.1147 18.3103 23.8145C18.6542 23.4758 18.9852 23.1371 19.311 22.7804C20.0885 21.9311 20.8506 21.069 21.5793 20.1786C21.6845 20.0503 21.528 19.7834 21.4613 19.6911C21.3304 19.5166 21.1483 19.3883 20.9635 19.2831C20.6171 19.0855 20.0937 18.8879 19.7165 19.1111C18.8312 19.6346 18.182 20.4429 17.3994 21.0946L19.2649 22.1595C19.8319 20.8432 20.7736 19.7449 21.741 18.7083C22.054 18.3722 21.6461 17.9616 21.3484 17.7717C21.079 17.5998 20.2835 17.2021 19.9756 17.528C19.2982 18.2387 18.6234 18.9521 17.8792 19.5961L19.7447 20.661C20.0346 19.5602 20.8711 18.7494 21.623 17.9436L19.7293 17.025C19.619 17.7024 19.0698 18.3773 18.6311 18.8802L20.4965 19.9451C20.8326 19.4781 21.2098 19.0496 21.6101 18.6364L19.7447 17.5716C19.2649 18.6749 18.3924 19.5371 17.6303 20.4454L19.5933 21.3974C19.9987 20.3043 20.8172 19.4499 21.4947 18.521C21.7307 18.1977 21.0687 17.7358 20.8763 17.6255C20.612 17.4741 19.9038 17.161 19.6292 17.4535C19.0698 18.0488 18.5926 18.7237 17.91 19.1881L19.8037 20.1067C19.8448 19.727 20.1809 19.3729 20.3836 19.0701C20.671 18.6416 20.9481 18.2079 21.2432 17.7846C21.3407 17.646 21.1996 17.3997 21.1252 17.297C20.9763 17.0969 20.7249 16.9198 20.5016 16.8172C20.1373 16.6504 19.5779 16.4657 19.2828 16.8326C18.9877 17.1995 18.6773 17.5818 18.3719 17.9539L20.3349 18.9059C20.5735 18.0822 21.1585 17.4433 21.623 16.7428C21.8436 16.4092 21.2098 15.9653 21.0046 15.8473C20.7043 15.6753 20.0808 15.4111 19.7575 15.6753C19.252 16.0885 18.9852 16.7146 18.4668 17.1071L20.3323 18.172C20.5863 17.4151 21.0174 16.7248 21.5511 16.1321L19.6857 15.0672C19.5189 15.388 19.3213 15.6907 19.0775 15.9602L20.9712 16.8788C21.0148 16.6478 21.0892 16.422 21.1714 16.2014C21.3279 15.778 20.7454 15.3803 20.4272 15.234C20.1809 15.1211 19.3649 14.826 19.2084 15.2494L19.2366 15.2417Z" fill="#FFDD43"/>
</g>
<defs>
<clipPath id="clip0_1206_20629">
<rect width="56.887" height="50" fill="white"/>
</clipPath>
</defs>
</svg>
