<svg width="72" height="55" viewBox="0 0 72 55" fill="none" xmlns="http://www.w3.org/2000/svg">
<path d="M45.768 25.3243C46.6234 24.997 47.2311 24.1683 47.2311 23.1979C47.2311 21.9413 46.212 20.9221 44.9553 20.9221H41.5532C40.2965 20.9221 39.2773 21.9413 39.2773 23.1979V31.7033C39.2773 32.96 40.2965 33.9791 41.5532 33.9791H44.9553C46.212 33.9791 47.2311 32.96 47.2311 31.7033C47.2311 30.733 46.6234 29.9042 45.768 29.577C46.6234 29.2497 47.2311 28.421 47.2311 27.4506C47.2311 26.4803 46.6234 25.6515 45.768 25.3243Z" fill="#E53947" fill-opacity="0.6" stroke="white" stroke-width="2"/>
<path d="M35.3556 32.3595L34.4981 32.8739L34.498 32.8739L33.6229 31.4149V31.7034C33.6229 32.96 32.6037 33.9792 31.3471 33.9792C30.0905 33.9792 29.0713 32.96 29.0713 31.7034V23.198C29.0713 22.1768 29.7516 21.279 30.7379 21.0054C31.735 20.7259 32.7729 21.1582 33.2972 22.0237L33.2994 22.0274L33.2994 22.0274L34.1745 23.4864L36.7909 32.9327M35.3556 32.3595C35.6417 32.8366 36.2552 33.0823 36.7909 32.9327M35.3556 32.3595L33.6229 29.4708L35.3556 32.3595ZM36.7909 32.9327L37.0572 33.8966C37.0577 33.8964 37.0582 33.8963 37.0587 33.8961C37.0591 33.896 37.0595 33.8959 37.06 33.8958L36.7909 32.9327Z" fill="#E53947" fill-opacity="0.6" stroke="white" stroke-width="2"/>
<path d="M56.3571 22.6447L56.357 22.6451L55.7225 25.1815C55.2963 24.8678 54.7775 24.7301 54.312 24.7301C53.8465 24.7301 53.3277 24.8678 52.9015 25.1815L52.267 22.6451L52.2669 22.6447C51.9602 21.421 50.7169 20.692 49.5111 20.989L49.5111 20.989L49.5078 20.9899C48.2877 21.2949 47.5465 22.5304 47.8516 23.7499C47.8516 23.75 47.8516 23.7501 47.8516 23.7502L49.9776 32.2543C49.9777 32.2546 49.9778 32.2548 49.9778 32.2551C49.9779 32.2552 49.9779 32.2553 49.9779 32.2554C50.213 33.1981 51.0223 33.8857 51.9873 33.97L51.9905 33.9703C52.9531 34.0513 53.8673 33.5196 54.2634 32.6304C54.2635 32.6301 54.2637 32.6297 54.2638 32.6294L54.312 32.5216L54.3608 32.6309C54.3608 32.6309 54.3608 32.6309 54.3608 32.6309C54.7514 33.5051 55.6746 34.056 56.6367 33.97C57.6021 33.8856 58.4117 33.1976 58.6464 32.2543L60.7724 23.7502C61.0777 22.5306 60.3364 21.2949 59.1162 20.9899C57.91 20.6883 56.6633 21.4227 56.3571 22.6447Z" fill="#E53947" fill-opacity="0.6" stroke="white" stroke-width="2"/>
<path d="M35.2565 36.1421L35.2569 36.1425C37.7182 38.9014 41.2525 40.4845 44.9564 40.4845C48.6602 40.4845 52.1943 38.9015 54.6557 36.1426L35.2565 36.1421ZM35.2565 36.1421C34.4203 35.2058 32.9802 35.1165 32.0425 35.9605C31.1038 36.7982 31.0267 38.2356 31.8603 39.1712L31.8605 39.1714M35.2565 36.1421L31.8605 39.1714M31.8605 39.1714C35.1836 42.8988 39.9572 45.0361 44.9564 45.0361C49.9555 45.0361 54.7292 42.8988 58.0522 39.1714L58.0524 39.1712M31.8605 39.1714L58.0524 39.1712M58.0524 39.1712C58.8864 38.2351 58.8089 36.7968 57.8688 35.9592M58.0524 39.1712L57.8688 35.9592M57.8688 35.9592C56.9317 35.1211 55.4936 35.202 54.6559 36.1425L57.8688 35.9592Z" fill="#E53947" fill-opacity="0.6" stroke="white" stroke-width="2"/>
<path d="M58.0524 15.7294L58.0522 15.7292C54.7292 12.0017 49.9555 9.8645 44.9564 9.8645C39.9572 9.8645 35.1836 12.0017 31.8605 15.7292L31.8603 15.7294C31.0263 16.6654 31.1038 18.1036 32.0437 18.9412C32.9792 19.7788 34.4194 19.6986 35.2572 18.7578C37.7185 15.999 41.2527 14.4161 44.9564 14.4161C48.6602 14.4161 52.1945 15.9992 54.6559 18.7582C55.4864 19.6894 56.9344 19.7779 57.8688 18.9414C58.8089 18.1039 58.8865 16.6655 58.0524 15.7294Z" fill="#E53947" fill-opacity="0.6" stroke="white" stroke-width="2"/>
<path d="M64.6182 31.1994L64.6187 31.199C65.8413 29.9925 66.3824 28.6833 66.3796 27.4435C66.3768 26.2026 65.8288 24.8974 64.6182 23.7013C62.6258 21.7328 61.4938 19.0008 61.5103 16.1981L61.5103 16.1975C61.5216 14.4762 60.9765 13.1758 60.0923 12.3058C59.2054 11.4331 57.8783 10.8965 56.1459 10.8964C53.3672 10.8963 50.6609 9.76691 48.7054 7.78862L48.7051 7.78833C47.41 6.47697 46.134 5.92193 44.9563 5.92201C43.7786 5.92209 42.5024 6.47743 41.2071 7.7878L40.4959 7.08481L41.2079 7.78697C39.242 9.78041 36.5077 10.9167 33.7093 10.8964C31.9908 10.9051 30.6805 11.4374 29.8057 12.3031C28.9327 13.167 28.392 14.4631 28.4022 16.1981C28.4188 19.0005 27.2878 21.7327 25.2934 23.7015L64.6182 31.1994ZM64.6182 31.1994C62.6258 33.168 61.4938 35.9 61.5103 38.7035C61.5204 40.4212 60.9735 41.7221 60.0877 42.5934C59.199 43.4675 57.8721 44.0045 56.1462 44.0045C53.3673 44.0045 50.6608 45.1338 48.7053 47.1132C47.4098 48.4241 46.1333 48.9791 44.9555 48.979C43.7777 48.9788 42.5018 48.4235 41.2076 47.1136C39.2536 45.1338 36.5476 44.0045 33.7663 44.0045H33.7662H33.7661H33.766H33.7659H33.7658H33.7657H33.7656H33.7655H33.7654H33.7653H33.7652H33.7651H33.765H33.7648H33.7647H33.7646H33.7645H33.7644H33.7643H33.7642H33.7641H33.764H33.7639H33.7638H33.7637H33.7636H33.7635H33.7633H33.7632H33.7631H33.763H33.7629H33.7628H33.7627H33.7626H33.7625H33.7624H33.7623H33.7622H33.7621H33.7619H33.7618H33.7617H33.7616H33.7615H33.7614H33.7613H33.7612H33.7611H33.761H33.7609H33.7608H33.7606H33.7605H33.7604H33.7603H33.7602H33.7601H33.76H33.7599H33.7598H33.7597H33.7596H33.7595H33.7594H33.7592H33.7591H33.759H33.7589H33.7588H33.7587H33.7586H33.7585H33.7584H33.7583H33.7582H33.7581H33.7579H33.7578H33.7577H33.7576H33.7575H33.7574H33.7573H33.7572H33.7571H33.757H33.7569H33.7568H33.7566H33.7565H33.7564H33.7563H33.7562H33.7561H33.756H33.7559H33.7558H33.7557H33.7556H33.7555H33.7553H33.7552H33.7551H33.755H33.7549H33.7548H33.7547H33.7546H33.7545H33.7544H33.7543H33.7541H33.754H33.7539H33.7538H33.7537H33.7536H33.7535H33.7534H33.7533H33.7532H33.7531H33.753H33.7528H33.7527H33.7526H33.7525H33.7524H33.7523H33.7522H33.7521H33.752H33.7519H33.7518H33.7516H33.7515H33.7514H33.7513H33.7512H33.7511H33.751H33.7509H33.7508H33.7507H33.7506H33.7504H33.7503H33.7502H33.7501H33.75H33.7499H33.7498H33.7497H33.7496H33.7495H33.7494H33.7492H33.7491H33.749H33.7489H33.7488H33.7487H33.7486H33.7485H33.7484H33.7483H33.7482H33.748H33.7479H33.7478H33.7477H33.7476H33.7475H33.7474H33.7473H33.7472H33.7471H33.747H33.7468H33.7467H33.7466H33.7465H33.7464H33.7463H33.7462H33.7461H33.746H33.7459H33.7458H33.7456H33.7455H33.7454H33.7453H33.7452H33.7451H33.745H33.7449H33.7448H33.7447H33.7446H33.7444H33.7443H33.7442H33.7441H33.744H33.7439H33.7438H33.7437H33.7436H33.7435H33.7433H33.7432H33.7431H33.743H33.7429H33.7428H33.7427H33.7426H33.7425H33.7424H33.7423H33.7421H33.742H33.7419H33.7418H33.7417H33.7416H33.7415H33.7414H33.7413H33.7412H33.7411H33.7409H33.7408H33.7407H33.7406H33.7405H33.7404H33.7403H33.7402H33.7401H33.74H33.7398H33.7397H33.7396H33.7395H33.7394H33.7393H33.7392H33.7391H33.739H33.7389H33.7388H33.7386H33.7385H33.7384H33.7383H33.7382H33.7381H33.738H33.7379H33.7378H33.7377H33.7376H33.7374H33.7373H33.7372H33.7371H33.737H33.7369H33.7368H33.7367H33.7366H33.7365H33.7364H33.7362H33.7361H33.736H33.7359H33.7358H33.7357H33.7356H33.7355H33.7354H33.7353H33.7351H33.735H33.7349H33.7348H33.7347H33.7346H33.7345H33.7344H33.7343H33.7342H33.7341H33.7339H33.7338H33.7337H33.7336H33.7335H33.7334H33.7333H33.7332H33.7331H33.733H33.7329H33.7327H33.7326H33.7325H33.7324H33.7323H33.7322H33.7321H33.732H33.7319H33.7318H33.7317H33.7315H33.7314H33.7313H33.7312H33.7311H33.731H33.7309H33.7308H33.7307H33.7306H33.7305H33.7303H33.7302H33.7301H33.73H33.7299H33.7298H33.7297H33.7296H33.7295H33.7294H33.7293H33.7291H33.729H33.7289H33.7288H33.7287H33.7286H33.7285H33.7284H33.7283H33.7282H33.7281H33.7279H33.7278H33.7277H33.7276H33.7275H33.7274H33.7273H33.7272H33.7271H33.727H33.7269H33.7268H33.7266H33.7265H33.7264H33.7263H33.7262H33.7261H33.726H33.7259H33.7258H33.7257H33.7256H33.7254H33.7253H33.7252H33.7251H33.725H33.7249H33.7248H33.7247H33.7246H33.7245H33.7244H33.7243H33.7241H33.724H33.7239H33.7238H33.7237H33.7236H33.7235H33.7234H33.7233H33.7232H33.7231H33.7229H33.7228H33.7227H33.7226H33.7225H33.7224H33.7223H33.7222H33.7221H33.722H33.7219H33.7218H33.7217H33.7215H33.7214H33.7213H33.7212H33.7211H33.721H33.7209H33.7208H33.7207H33.7206H33.7205H33.7204H33.7202H33.7201H33.72H33.7199H33.7198H33.7197H33.7196H33.7195H33.7194H33.7193H33.7192H33.7191H33.7189H33.7188H33.7187H33.7186H33.7185H33.7184H33.7183H33.7182H33.7181H33.718H33.7179H33.7178H33.7177H33.7175H33.7174H33.7173H33.7172H33.7171H33.717H33.7169H33.7168H33.7167H33.7166H33.7165H33.7164H33.7163H33.7162H33.716H33.7159H33.7158H33.7157H33.7156H33.7155H33.7154H33.7153H33.7152H33.7151H33.715H33.7149H33.7148H33.7146H33.7145H33.7144H33.7143H33.7142H33.7141H33.714H33.7139H33.7138H33.7137H33.7136H33.7135H33.7134H33.7133H33.7132H33.713H33.7129H33.7128H33.7127H33.7126H33.7125H33.7124H33.7123H33.7122H33.7121H33.712H33.7119H33.7118H33.7117H33.7115H33.7114H33.7113H33.7112H33.7111H33.711H33.7109H33.7108C31.9842 44.0045 30.6737 43.4663 29.8002 42.595C28.9278 41.7248 28.3917 40.4231 28.4022 38.703L28.4022 38.7027M64.6182 31.1994L28.4022 38.7027M28.4022 38.7027C28.4188 35.9003 27.2877 33.1679 25.2933 31.1991L25.2932 31.1991M28.4022 38.7027L25.2932 31.1991M25.2932 31.1991C24.08 30.0015 23.5376 28.6918 23.5388 27.4478M25.2932 31.1991L23.5388 27.4478M23.5388 27.4478C23.5399 26.2035 24.0851 24.8953 25.2931 23.7018L23.5388 27.4478ZM67.818 20.463L67.8178 20.4628C66.6937 19.3529 66.052 17.8059 66.0619 16.2261C66.0801 13.3296 65.087 10.857 63.3077 9.10032C61.5318 7.34701 59.0446 6.37734 56.1975 6.34485C54.5563 6.32609 53.0468 5.707 51.9418 4.5893C49.8906 2.51183 47.4546 1.41407 44.9557 1.41431C42.4566 1.41454 40.0203 2.51286 37.9688 4.58958L37.9684 4.58998C36.8694 5.70375 35.3223 6.3203 33.7105 6.3449C30.86 6.3884 28.3738 7.35246 26.5993 9.10174C24.8208 10.855 23.8328 13.3232 23.8506 16.2251L23.8506 16.2253C23.8606 17.8062 23.2194 19.353 22.0956 20.4627L22.0956 20.4627C20.0645 22.4682 19.003 24.9311 19 27.4407C18.997 29.9508 20.0531 32.4203 22.0954 34.4379L22.0956 34.4381C23.2194 35.5477 23.8606 37.0945 23.8506 38.6755C23.8327 41.5318 24.8274 44.0343 26.6009 45.8154C28.3731 47.5952 30.8641 48.5951 33.7282 48.5561C35.3392 48.5725 36.8687 49.1964 37.9683 50.3108L38.6801 49.6084L37.9683 50.3108C39.9675 52.3367 42.4229 53.4063 44.9311 53.4143C47.4408 53.4222 49.9129 52.3671 51.9422 50.312L51.9423 50.3119C53.0584 49.1815 54.5591 48.5341 56.1725 48.556C59.0419 48.5949 61.538 47.5974 63.3132 45.8166C65.0872 44.0369 66.0812 41.5354 66.0619 38.6756C66.052 37.0949 66.6937 35.5479 67.8178 34.4381C69.8609 32.4207 70.9242 29.9577 70.9235 27.4492C70.9229 24.9407 69.8585 22.4788 67.818 20.463Z" fill="#E53947" fill-opacity="0.6" stroke="white" stroke-width="2"/>
</svg>
