<svg width="31" height="30" viewBox="0 0 31 30" fill="none" xmlns="http://www.w3.org/2000/svg">
<g id="&#227;&#131;&#172;&#227;&#130;&#164;&#227;&#131;&#164;&#227;&#131;&#188; 1">
<path id="Vector" d="M23.4687 29.9833L6.81129 30C3.14666 30.0033 0.144992 27.0083 0.14166 23.3437L0.125003 6.68629C0.121671 3.02166 3.11667 0.0199917 6.7813 0.0166602L23.4387 2.77663e-06C27.1033 -0.00332871 30.105 2.99167 30.1083 6.6563L30.125 23.3137C30.13 26.9783 27.1333 29.98 23.4687 29.9833Z" fill="url(#paint0_radial_26_14645)"/>
<path id="Vector_2" d="M23.4687 29.9833L6.81129 30C3.14666 30.0033 0.144992 27.0083 0.14166 23.3437L0.125003 6.68629C0.121671 3.02166 3.11667 0.0199917 6.7813 0.0166602L23.4387 2.77663e-06C27.1033 -0.00332871 30.105 2.99167 30.1083 6.6563L30.125 23.3137C30.13 26.9783 27.1333 29.98 23.4687 29.9833Z" fill="url(#paint1_radial_26_14645)"/>
<path id="Vector_3" d="M15.125 20.8301C11.9118 20.8301 9.29492 18.2149 9.29492 15C9.29492 11.7851 11.9118 9.16992 15.125 9.16992C18.3382 9.16992 20.9551 11.7851 20.9551 15C20.9551 18.2149 18.3382 20.8301 15.125 20.8301ZM15.125 10.8357C12.8296 10.8357 10.9607 12.7046 10.9607 15C10.9607 17.2954 12.8296 19.1644 15.125 19.1644C17.4204 19.1644 19.2894 17.2954 19.2894 15C19.2894 12.7046 17.4204 10.8357 15.125 10.8357Z" fill="white"/>
<path id="Vector_4" d="M21.3714 10.003C22.0613 10.003 22.6207 9.44367 22.6207 8.7537C22.6207 8.06373 22.0613 7.50439 21.3714 7.50439C20.6814 7.50439 20.1221 8.06373 20.1221 8.7537C20.1221 9.44367 20.6814 10.003 21.3714 10.003Z" fill="white"/>
<path id="Vector_5" d="M20.1224 25.8275H10.1279C6.91307 25.8275 4.29785 23.2123 4.29785 19.9974V10.0029C4.29785 6.78807 6.91307 4.17285 10.1279 4.17285H20.1224C23.3373 4.17285 25.9525 6.78807 25.9525 10.0029V19.9974C25.9525 23.2123 23.3373 25.8275 20.1224 25.8275ZM10.1279 5.83859C7.83255 5.83859 5.96359 7.70755 5.96359 10.0029V19.9974C5.96359 22.2928 7.83255 24.1617 10.1279 24.1617H20.1224C22.4178 24.1617 24.2867 22.2928 24.2867 19.9974V10.0029C24.2867 7.70755 22.4178 5.83859 20.1224 5.83859H10.1279Z" fill="white"/>
</g>
<defs>
<radialGradient id="paint0_radial_26_14645" cx="0" cy="0" r="1" gradientUnits="userSpaceOnUse" gradientTransform="translate(11.2771 30.0167) scale(37.3959 37.3959)">
<stop stop-color="#FFDD55"/>
<stop offset="0.33" stop-color="#FF543F"/>
<stop offset="0.35" stop-color="#FC5245"/>
<stop offset="0.5" stop-color="#E64771"/>
<stop offset="0.64" stop-color="#D53E91"/>
<stop offset="0.76" stop-color="#CC39A4"/>
<stop offset="0.84" stop-color="#C837AB"/>
</radialGradient>
<radialGradient id="paint1_radial_26_14645" cx="0" cy="0" r="1" gradientUnits="userSpaceOnUse" gradientTransform="translate(4.95565 -0.248893) scale(24.8279 16.5354)">
<stop stop-color="#4168C9"/>
<stop offset="1" stop-color="#4168C9" stop-opacity="0"/>
</radialGradient>
</defs>
</svg>
