<svg width="40" height="40" viewBox="0 0 40 40" fill="none" xmlns="http://www.w3.org/2000/svg">
<g id="AdobeStock_567277740 1">
<g id="Line Icons">
<path id="Vector" d="M32.881 1.25001C31.9748 1.25001 30.7123 1.14376 29.9748 1.74376C29.9451 1.60582 29.8697 1.48195 29.7608 1.39231C29.6519 1.30266 29.5158 1.25251 29.3748 1.25001H10.6248C10.4794 1.24677 10.3375 1.29431 10.2234 1.38443C10.1093 1.47455 10.0302 1.60161 9.99976 1.74376C9.26851 1.11876 7.99351 1.25001 7.09351 1.25001C2.79976 1.25001 1.59976 7.25001 5.54351 8.91251L9.44351 10.9688C10.1778 11.3551 10.7925 11.935 11.221 12.6455C11.6495 13.3561 11.8756 14.1702 11.8748 15C11.8748 15.1658 11.8089 15.3247 11.6917 15.4419C11.5745 15.5592 11.4155 15.625 11.2498 15.625H10.6248C10.459 15.625 10.3 15.5592 10.1828 15.4419C10.0656 15.3247 9.99976 15.1658 9.99976 15C9.99976 14.8342 10.0656 14.6753 10.1828 14.5581C10.3 14.4409 10.459 14.375 10.6248 14.375V13.125C10.1275 13.125 9.65056 13.3226 9.29893 13.6742C8.9473 14.0258 8.74976 14.5027 8.74976 15C8.74976 15.4973 8.9473 15.9742 9.29893 16.3258C9.65056 16.6775 10.1275 16.875 10.6248 16.875C12.356 17.0563 13.3935 15.9813 13.0748 14.2563C14.013 15.8256 15.1402 17.2739 16.431 18.5688C16.6185 18.7813 16.9623 18.75 17.2185 18.75C18.7935 20.5188 17.9248 23.225 17.0998 25H14.3748C14.209 25 14.05 25.0659 13.9328 25.1831C13.8156 25.3003 13.7498 25.4592 13.7498 25.625V27.5H13.1248C12.959 27.5 12.8 27.5659 12.6828 27.6831C12.5656 27.8003 12.4998 27.9592 12.4998 28.125V35H11.2498C11.084 35 10.925 35.0659 10.8078 35.1831C10.6906 35.3003 10.6248 35.4592 10.6248 35.625V38.125C10.6248 38.2908 10.6906 38.4497 10.8078 38.5669C10.925 38.6842 11.084 38.75 11.2498 38.75H28.7498C28.9155 38.75 29.0745 38.6842 29.1917 38.5669C29.3089 38.4497 29.3748 38.2908 29.3748 38.125V35.625C29.3748 35.4592 29.3089 35.3003 29.1917 35.1831C29.0745 35.0659 28.9155 35 28.7498 35H27.4998V28.125C27.4998 27.9592 27.4339 27.8003 27.3167 27.6831C27.1995 27.5659 27.0405 27.5 26.8748 27.5H26.2498V25.625C26.2498 25.4592 26.1839 25.3003 26.0667 25.1831C25.9495 25.0659 25.7905 25 25.6248 25H22.8935C22.0685 23.2188 21.206 20.5313 22.7873 18.75C23.0435 18.75 23.381 18.7813 23.5685 18.5688C24.8593 17.2739 25.9865 15.8256 26.9248 14.2563C26.606 15.9813 27.6435 17.0563 29.3748 16.875C29.872 16.875 30.3489 16.6775 30.7006 16.3258C31.0522 15.9742 31.2498 15.4973 31.2498 15C31.2498 14.5027 31.0522 14.0258 30.7006 13.6742C30.3489 13.3226 29.872 13.125 29.3748 13.125V14.375C29.5405 14.375 29.6995 14.4409 29.8167 14.5581C29.9339 14.6753 29.9998 14.8342 29.9998 15C29.9998 15.1658 29.9339 15.3247 29.8167 15.4419C29.6995 15.5592 29.5405 15.625 29.3748 15.625H28.7498C28.584 15.625 28.425 15.5592 28.3078 15.4419C28.1906 15.3247 28.1248 15.1658 28.1248 15C28.1239 14.1702 28.35 13.3561 28.7785 12.6455C29.207 11.935 29.8217 11.3551 30.556 10.9688L34.3748 8.93751C38.406 7.26876 37.2185 1.25001 32.881 1.25001ZM9.99976 9.86251L6.07476 7.78126C5.49341 7.53451 5.01471 7.09519 4.71908 6.53712C4.42346 5.97904 4.32893 5.33622 4.45137 4.71666C4.57382 4.0971 4.90578 3.53857 5.39147 3.1349C5.87717 2.73124 6.487 2.50705 7.11851 2.50001H8.43726C9.84976 2.38751 10.7998 4.80626 9.06226 5.00001C8.91308 4.99315 8.76727 4.95338 8.63527 4.88355C8.50327 4.81371 8.38835 4.71554 8.29875 4.59608C8.20915 4.47661 8.14708 4.3388 8.117 4.19253C8.08692 4.04625 8.08957 3.89514 8.12476 3.75001H6.87476C6.82218 4.16047 6.8861 4.57745 7.05922 4.95332C7.23234 5.32918 7.50768 5.64878 7.85379 5.87561C8.1999 6.10245 8.60283 6.22736 9.01656 6.2361C9.43029 6.24483 9.83813 6.13703 10.1935 5.92501C10.4098 7.64561 10.8294 9.33449 11.4435 10.9563C11.0252 10.5153 10.5375 10.1459 9.99976 9.86251ZM28.1248 37.5H11.8748V36.25H28.1248V37.5ZM13.7498 35V28.75H26.2498V35H13.7498ZM24.9998 27.5H14.9998V26.25H24.9998V27.5ZM21.5373 25H18.4623C18.9869 23.8142 19.2959 22.5443 19.3748 21.25C19.3683 20.3733 19.1381 19.5128 18.706 18.75H21.2935C20.8614 19.5128 20.6312 20.3733 20.6248 21.25C20.7036 22.5443 21.0126 23.8142 21.5373 25ZM22.8623 17.5H17.1373C15.2009 15.5218 13.6819 13.1746 12.6705 10.5978C11.6591 8.021 11.176 5.2672 11.2498 2.50001H28.7498C28.8236 5.2672 28.3404 8.021 27.329 10.5978C26.3176 13.1746 24.7986 15.5218 22.8623 17.5ZM33.8748 7.80626C32.7435 8.47501 29.356 9.95626 28.531 10.9313C29.1432 9.31967 29.5628 7.64136 29.781 5.93126C30.1373 6.15107 30.5487 6.26499 30.9673 6.25972C31.3859 6.25445 31.7943 6.1302 32.1449 5.90149C32.4955 5.67277 32.7738 5.34903 32.9473 4.96806C33.1208 4.5871 33.1824 4.16464 33.1248 3.75001H31.8748C31.9099 3.89514 31.9126 4.04625 31.8825 4.19253C31.8524 4.3388 31.7904 4.47661 31.7008 4.59608C31.6112 4.71554 31.4962 4.81371 31.3642 4.88355C31.2322 4.95338 31.0864 4.99315 30.9373 5.00001C29.1998 4.80626 30.1498 2.38751 31.5623 2.50001H32.881C33.5191 2.50465 34.1357 2.73104 34.6252 3.14038C35.1146 3.54972 35.4465 4.11654 35.564 4.74372C35.6815 5.3709 35.5772 6.01941 35.269 6.57814C34.9608 7.13686 34.4679 7.57103 33.8748 7.80626Z" fill="#EA6C92"/>
</g>
</g>
</svg>
