<svg width="40" height="40" viewBox="0 0 40 40" fill="none" xmlns="http://www.w3.org/2000/svg">
<path d="M38.75 21.875C38.75 20.125 37.375 18.75 35.625 18.75H34.4375C33.625 18.75 32.9375 19.25 32.625 20H32.0625C33.125 19.0625 33.75 17.75 33.75 16.25V16.1875C35.1875 15.875 36.25 14.625 36.25 13.125C36.25 12.5625 36 12.0625 35.625 11.75C35.5625 8 32.5 5 28.75 5C25 5 21.9375 8 21.875 11.75C21.5 12.0625 21.25 12.5625 21.25 13.125C21.25 14.625 22.3125 15.875 23.75 16.1875V16.25C23.75 17.4375 24.125 18.5 24.8125 19.3125L24.5 19.25C22.8125 18.875 21 19 19.375 19.5625C18.5 19.875 17.5625 20 16.625 20H15.1875C16.25 19.0625 16.875 17.75 16.875 16.25V16.1875C18.3125 15.875 19.375 14.625 19.375 13.125C19.375 12.4375 19.0625 11.875 18.5 11.5625C19.0625 10.75 19.375 9.75 19.375 8.75V5.625C19.375 5.25 19.125 5 18.75 5H10.625C7.1875 5 4.375 7.8125 4.375 11.25V13.125C4.375 14.625 5.4375 15.875 6.875 16.1875V16.25C6.875 17.75 7.5625 19.0625 8.5625 20H7.5C7.4375 20 7.4375 20 7.375 20C7.125 19.25 6.375 18.75 5.5625 18.75H4.375C2.625 18.75 1.25 20.125 1.25 21.875C1.25 22.625 1.6875 23.25 2.3125 23.5625C2 24.1875 1.875 24.9375 1.875 25.625V38.125C1.875 38.5 2.125 38.75 2.5 38.75H18.75C19.125 38.75 19.375 38.5 19.375 38.125V29C20.5 29.5 21.25 30.6875 21.25 31.9375V38.125C21.25 38.5 21.5 38.75 21.875 38.75H37.5C37.875 38.75 38.125 38.5 38.125 38.125V24.375C38.125 24.0625 38.0625 23.6875 38 23.375C38.4375 23 38.75 22.5 38.75 21.875ZM33.75 12.5H34.375C34.75 12.5 35 12.75 35 13.125C35 13.9375 34.5 14.625 33.75 14.875V12.5ZM23.75 14.875C23 14.625 22.5 13.9375 22.5 13.125C22.5 12.75 22.75 12.5 23.125 12.5H23.75V14.875ZM16.875 12.5H17.5C17.875 12.5 18.125 12.75 18.125 13.125C18.125 13.9375 17.625 14.625 16.875 14.875V12.5ZM5 21.875C5 22.25 4.75 22.5 4.375 22.5H3.1875H3.125C2.75 22.5 2.5 22.25 2.5 21.875C2.5 20.8125 3.3125 20 4.375 20H5.5625C5.9375 20 6.25 20.3125 6.25 20.6875C6.25 21 6 21.25 5.625 21.25C5.25 21.25 5 21.5 5 21.875ZM6.875 37.5H5.625V27.5C5.625 27.125 5.875 26.875 6.25 26.875C6.625 26.875 6.875 27.125 6.875 27.5V37.5ZM6.875 14.875C6.125 14.625 5.625 13.9375 5.625 13.125C5.625 12.75 5.875 12.5 6.25 12.5H6.875V14.875ZM11.875 22.5C10.9375 22.5 10.1875 21.8125 10 20.875C10.625 21.125 11.25 21.25 11.875 21.25C12.5 21.25 13.125 21.125 13.75 20.875C13.5625 21.8125 12.8125 22.5 11.875 22.5ZM11.875 20C9.8125 20 8.125 18.3125 8.125 16.25V15.625V12.4375C9.5625 12.25 10.9375 11.5625 11.875 10.375C12.8125 11.5 14.1875 12.25 15.625 12.4375V15.625V16.25C15.625 18.3125 13.9375 20 11.875 20ZM25 15.625V12.1875L26.8125 10.8125C28.0625 11.875 29.6875 12.5 31.375 12.5H32.5V15.625V16.25C32.5 18.3125 30.8125 20 28.75 20C26.6875 20 25 18.3125 25 16.25V15.625ZM30.625 20.875C30.5 21.8125 29.75 22.5 28.75 22.5C27.75 22.5 27.0625 21.8125 26.875 20.875C27.5 21.125 28.125 21.25 28.75 21.25C29.375 21.25 30 21.125 30.625 20.875ZM36.875 37.5H34.375V28.125C34.375 27.75 34.125 27.5 33.75 27.5C33.375 27.5 33.125 27.75 33.125 28.125V37.5H22.5V31.9375C22.5 30 21.1875 28.25 19.375 27.625V25C20.8125 24.9375 22.125 24.0625 22.75 22.8125C23.25 21.875 24.1875 21.3125 25.25 21.3125H25.6875C26 22.75 27.25 23.8125 28.75 23.8125C30.25 23.8125 31.5 22.75 31.8125 21.3125H32.5625C32.75 21.875 33.1875 22.3125 33.8125 22.5C34.0625 23.25 34.75 23.8125 35.625 23.8125H36.8125C36.875 24 36.875 24.25 36.875 24.4375V37.5ZM36.875 22.5H35.625C35.25 22.5 35 22.25 35 21.875C35 21.5 34.6875 21.25 34.3125 21.25C34 21.25 33.75 21 33.75 20.6875C33.75 20.3125 34.0625 20 34.4375 20H35.625C36.6875 20 37.5 20.8125 37.5 21.875C37.5 22.25 37.25 22.5 36.875 22.5Z" fill="#EA6C92"/>
<path d="M26.875 14.375C27.2202 14.375 27.5 14.0952 27.5 13.75C27.5 13.4048 27.2202 13.125 26.875 13.125C26.5298 13.125 26.25 13.4048 26.25 13.75C26.25 14.0952 26.5298 14.375 26.875 14.375Z" fill="#EA6C92"/>
<path d="M30.625 14.375C30.9702 14.375 31.25 14.0952 31.25 13.75C31.25 13.4048 30.9702 13.125 30.625 13.125C30.2798 13.125 30 13.4048 30 13.75C30 14.0952 30.2798 14.375 30.625 14.375Z" fill="#EA6C92"/>
<path d="M27.0625 16.4375C26.8125 16.6875 26.8125 17.0625 27.0625 17.3125C27.5 17.75 28.125 18 28.75 18C29.375 18 30 17.75 30.4375 17.3125C30.6875 17.0625 30.6875 16.6875 30.4375 16.4375C30.1875 16.1875 29.8125 16.1875 29.5625 16.4375C29.125 16.875 28.375 16.875 27.9375 16.4375C27.6875 16.1875 27.3125 16.1875 27.0625 16.4375Z" fill="#EA6C92"/>
<path d="M10 14.375C10.3452 14.375 10.625 14.0952 10.625 13.75C10.625 13.4048 10.3452 13.125 10 13.125C9.65482 13.125 9.375 13.4048 9.375 13.75C9.375 14.0952 9.65482 14.375 10 14.375Z" fill="#EA6C92"/>
<path d="M13.75 14.375C14.0952 14.375 14.375 14.0952 14.375 13.75C14.375 13.4048 14.0952 13.125 13.75 13.125C13.4048 13.125 13.125 13.4048 13.125 13.75C13.125 14.0952 13.4048 14.375 13.75 14.375Z" fill="#EA6C92"/>
<path d="M12.6875 16.4375C12.25 16.875 11.5 16.875 11.0625 16.4375C10.8125 16.1875 10.4375 16.1875 10.1875 16.4375C9.9375 16.6875 9.9375 17.0625 10.1875 17.3125C10.625 17.75 11.25 18 11.875 18C12.5 18 13.125 17.75 13.5625 17.3125C13.8125 17.0625 13.8125 16.6875 13.5625 16.4375C13.3125 16.1875 12.9375 16.1875 12.6875 16.4375Z" fill="#EA6C92"/>
</svg>
