<svg width="48" height="40" viewBox="0 0 48 40" fill="none" xmlns="http://www.w3.org/2000/svg">
<g id="AdobeStock_453397624 1" clip-path="url(#clip0_273_14462)">
<path id="Vector" d="M19.6134 38.3994L34.7069 36.987C34.9438 36.9648 35.1823 37.0041 35.3996 37.1009L41.6345 39.8796C42.333 40.191 43.1516 39.8771 43.4629 39.1785L47.5415 30.0275C47.8528 29.329 47.539 28.5103 46.8403 28.199L41.6177 25.8713C41.3991 25.7739 41.2096 25.6215 41.0674 25.4291L31.2961 12.1955C30.6659 11.342 29.3493 11.4853 28.9174 12.4543L18.2196 36.457C17.7885 37.4244 18.5589 38.4981 19.6134 38.3993V38.3994Z" fill="#9EB8FF"/>
<g id="Group">
<path id="Vector_2" d="M1.22461 34.3389L11.14 32.9356" stroke="#9EB8FF" stroke-width="2" stroke-miterlimit="10" stroke-linecap="round"/>
<path id="Vector_3" d="M15.9834 1.22424L21.5689 9.53611" stroke="#9EB8FF" stroke-width="2" stroke-miterlimit="10" stroke-linecap="round"/>
</g>
</g>
<defs>
<clipPath id="clip0_273_14462">
<rect width="47.662" height="40" fill="white"/>
</clipPath>
</defs>
</svg>
