<svg width="40" height="40" viewBox="0 0 40 40" fill="none" xmlns="http://www.w3.org/2000/svg">
<g id="AdobeStock_556893803 1">
<path id="Vector" d="M35.2172 37.9456C33.8879 33.5112 29.316 29.905 23.7497 28.8494V27.8944C26.5316 26.5694 28.5022 23.8288 28.7185 20.625H29.3747C30.4085 20.625 31.2497 19.7838 31.2497 18.75V16.875C31.2497 16.6069 31.191 16.3531 31.0891 16.1225C31.1897 15.5469 31.2497 14.9613 31.2497 14.375C31.2497 11.9806 30.3966 9.77687 28.9766 7.99813C29.6297 7.26437 29.9997 6.31625 29.9997 5.3125C29.9997 3.0725 28.1772 1.25 25.9372 1.25C24.2004 1.25 22.6866 2.35375 22.1191 3.94563C21.4316 3.82125 20.7247 3.75 19.9997 3.75C13.7966 3.75 8.74974 8.51625 8.74974 14.375C8.74974 14.9613 8.80912 15.5469 8.91037 16.1225C8.80849 16.3531 8.74974 16.6069 8.74974 16.875V18.75C8.74974 19.7838 9.59099 20.625 10.6247 20.625H11.2816C11.5104 23.8381 13.4779 26.5713 16.2497 27.8938V28.8494C10.6841 29.905 6.11162 33.5106 4.78224 37.9456C4.72537 38.135 4.76162 38.3394 4.87974 38.4981C4.99724 38.6562 5.18287 38.75 5.38099 38.75H34.6185C34.816 38.75 35.0016 38.6569 35.1197 38.4981C35.2379 38.3394 35.2741 38.1344 35.2172 37.9456ZM10.8029 32.3231C13.5391 32.8469 16.7104 33.125 20.0004 33.125C23.2904 33.125 26.461 32.8469 29.1972 32.3225C29.8679 32.7556 30.4916 33.2325 31.0535 33.7506C28.0341 34.5469 24.0835 34.9994 20.0004 34.9994C15.9172 34.9994 11.9672 34.5469 8.94724 33.7506C9.50912 33.2325 10.1322 32.7562 10.8029 32.3231ZM30.0004 18.75C30.0004 19.0944 29.7204 19.375 29.3754 19.375H28.7904L28.986 16.25H29.3754C29.7204 16.25 30.0004 16.5306 30.0004 16.875V18.75ZM25.9379 2.5C27.4885 2.5 28.7504 3.76188 28.7504 5.3125C28.7504 5.9575 28.5291 6.56813 28.1372 7.05813C26.8335 5.76562 25.196 4.77562 23.3485 4.23063C23.7766 3.2025 24.7854 2.5 25.9379 2.5ZM20.0004 5C25.5141 5 30.0004 9.20563 30.0004 14.375C30.0004 14.6181 29.9847 14.8619 29.9647 15.1044C29.7785 15.0419 29.5822 15 29.3754 15H29.0641L29.2179 12.5387C29.2291 12.3675 29.1685 12.1994 29.051 12.0738C28.9335 11.9481 28.7704 11.8763 28.5985 11.875C25.0097 11.8462 21.6672 10.7981 19.4285 9C19.2047 8.82 18.8866 8.81625 18.6579 8.99063C18.4297 9.165 18.3497 9.47313 18.4641 9.73688C19.2047 11.4338 20.3297 12.8225 21.6804 13.7456C19.5547 13.6681 17.5566 12.3238 16.306 10.1163C16.1954 9.92188 15.9897 9.80125 15.7666 9.79937C15.536 9.7925 15.336 9.91625 15.2229 10.1087C14.3279 11.6388 12.9166 12.6994 11.351 13.0181C11.0454 13.0806 10.8322 13.3581 10.8516 13.6694L10.9354 14.9987H10.6254C10.4185 14.9987 10.2222 15.0406 10.036 15.1031C10.016 14.8606 10.0004 14.6175 10.0004 14.3737C10.0004 9.20437 14.4866 4.99875 20.0004 4.99875V5ZM9.99974 18.75V16.875C9.99974 16.5306 10.2797 16.25 10.6247 16.25H11.0135L11.2104 19.375H10.6247C10.2797 19.375 9.99974 19.0944 9.99974 18.75ZM12.4985 19.9613L12.131 14.1119C13.5329 13.6981 14.7997 12.8044 15.7466 11.5681C17.276 13.7344 19.5097 15.0006 21.8747 15.0006C22.5804 15.0006 23.276 14.8919 23.9422 14.6763C24.2004 14.5931 24.3747 14.3525 24.3747 14.0813C24.3747 13.81 24.2004 13.57 23.9422 13.4862C22.8279 13.1262 21.8072 12.4125 20.9716 11.435C22.9822 12.4181 25.3916 13.0044 27.9297 13.1088L27.5004 20C27.5004 24.1356 24.136 27.5 20.0004 27.5C15.8647 27.5 12.5004 24.1356 12.4991 19.9606L12.4985 19.9613ZM16.9729 29.9925C17.276 29.9444 17.4997 29.6825 17.4997 29.375V28.3813C18.2929 28.6181 19.131 28.75 19.9997 28.75C20.8685 28.75 21.7066 28.6187 22.4997 28.3819V29.375C22.4997 29.6825 22.7229 29.9444 23.0266 29.9925C24.601 30.2425 26.0941 30.71 27.4504 31.35C25.1585 31.6931 22.6216 31.875 19.9997 31.875C17.3779 31.875 14.8429 31.6919 12.5516 31.3481C13.9072 30.7094 15.3997 30.2425 16.9729 29.9925ZM6.26474 37.5C6.66287 36.5294 7.24099 35.6131 7.96162 34.7719C11.196 35.7231 15.4422 36.25 19.9991 36.25C24.556 36.25 28.8029 35.7231 32.0366 34.7719C32.7572 35.6131 33.3354 36.53 33.7335 37.5H6.26474Z" fill="#98E88C"/>
<path id="Vector_2" d="M16.875 17.5C16.875 17.155 16.595 16.875 16.25 16.875C15.905 16.875 15.625 17.155 15.625 17.5V18.75C15.625 19.095 15.905 19.375 16.25 19.375C16.595 19.375 16.875 19.095 16.875 18.75V17.5Z" fill="#98E88C"/>
<path id="Vector_3" d="M23.75 19.375C24.095 19.375 24.375 19.095 24.375 18.75V17.5C24.375 17.155 24.095 16.875 23.75 16.875C23.405 16.875 23.125 17.155 23.125 17.5V18.75C23.125 19.095 23.405 19.375 23.75 19.375Z" fill="#98E88C"/>
<path id="Vector_4" d="M23.0076 24.0587C23.3157 23.8406 23.3507 23.3931 23.0914 23.1194C22.8782 22.8944 22.5345 22.8625 22.2814 23.0412C21.6307 23.5012 20.8382 23.75 20.0001 23.75C19.162 23.75 18.3701 23.5012 17.7189 23.0412C17.4657 22.8625 17.122 22.8944 16.9089 23.1194C16.6489 23.3931 16.6845 23.8406 16.9926 24.0587C17.8545 24.6694 18.8989 25 20.0001 25C21.1014 25 22.1457 24.6694 23.0076 24.0587Z" fill="#98E88C"/>
</g>
</svg>
