<svg width="40" height="40" viewBox="0 0 40 40" fill="none" xmlns="http://www.w3.org/2000/svg">
<g id="AdobeStock_446027730 1">
<g id="Group">
<path id="Vector" d="M20.7926 17.3081C20.4414 17.2725 20.1401 17.5181 20.1026 17.8606L19.9964 18.8187C19.9701 19.0569 19.807 19.2612 19.5807 19.34L15.4201 20.7881C15.1689 20.8756 15.0001 21.1125 15.0001 21.3787V26.9631C15.0001 27.1281 15.0651 27.2869 15.182 27.4037L18.5682 30.8094C18.6851 30.9275 18.7501 31.0837 18.7501 31.25V36.875C18.7501 37.2194 18.4701 37.5 18.1251 37.5C17.7801 37.5 17.5001 37.2194 17.5001 36.875V31.7656C17.5001 31.6006 17.4351 31.4419 17.3182 31.325L13.6989 27.6844C13.5814 27.5662 13.4226 27.5 13.2557 27.5H11.8751C11.5295 27.5 11.2501 27.78 11.2501 28.125V33.125C11.2501 33.3344 11.1464 33.5287 10.972 33.645L5.34636 37.395C5.06886 37.5794 4.66448 37.4975 4.48011 37.2212C4.28886 36.935 4.36636 36.5456 4.65323 36.3544L9.72135 32.9756C9.89573 32.86 10.0001 32.665 10.0001 32.4562V28.125C10.0001 27.78 9.72073 27.5 9.3751 27.5C9.02948 27.5 8.7501 27.78 8.7501 28.125V32.1219L3.96011 35.315C3.10011 35.8881 2.86698 37.055 3.44011 37.9156C3.78886 38.4375 4.37261 38.75 5.00136 38.75C5.37261 38.75 5.73198 38.6412 6.04011 38.435L11.6651 34.685C12.1882 34.3362 12.5001 33.7531 12.5001 33.125V28.75H12.9957L16.2501 32.0237V36.875C16.2501 37.9087 17.0914 38.75 18.1251 38.75C19.1589 38.75 20.0001 37.9087 20.0001 36.875V31.25C20.0001 30.7512 19.8057 30.2819 19.4545 29.9281L16.2501 26.705V21.8231L19.9907 20.5206C20.6695 20.285 21.1589 19.6712 21.2382 18.9569L21.3445 17.9987C21.3826 17.6556 21.1351 17.3462 20.7926 17.3081Z" fill="#F0A573"/>
<path id="Vector_2" d="M8.05093 24.9931L8.7503 24.4375V25.625C8.7503 25.97 9.02968 26.25 9.3753 26.25C9.72093 26.25 10.0003 25.97 10.0003 25.625V23.1419C10.0003 22.9019 9.8628 22.6831 9.64718 22.5794C9.43218 22.475 9.17468 22.5031 8.98655 22.6531L7.27343 24.015C7.1378 24.1225 6.96218 24.1688 6.79155 24.1438L3.03093 23.575C2.99593 23.57 2.9628 23.5619 2.93093 23.5513C2.63968 23.4563 2.46218 23.1669 2.5078 22.8638C2.53218 22.6988 2.6203 22.5531 2.75468 22.4544C2.88905 22.3556 3.05218 22.3144 3.21905 22.3394L6.43968 22.8263C6.6103 22.85 6.78655 22.8056 6.92155 22.6975L10.1328 20.1463C10.3097 20.0744 10.5403 20.0013 10.6253 20H11.2503C11.5959 20 11.8753 19.72 11.8753 19.375V19.1113C11.8753 18.8631 11.7284 18.6381 11.5009 18.5388C10.5891 18.1394 10.0003 17.2413 10.0003 16.25C10.0003 14.8713 11.1216 13.75 12.5003 13.75C13.8791 13.75 15.0003 14.8713 15.0003 16.25C15.0003 17.2413 14.4116 18.1394 13.4997 18.5388C13.2722 18.6381 13.1253 18.8631 13.1253 19.1113V19.375C13.1253 19.72 13.4047 20 13.7503 20H14.1347C14.2966 20 14.4528 19.9369 14.5691 19.8244C14.6366 19.7588 14.7122 19.7113 14.7947 19.6825L18.4253 18.4188C18.6522 18.34 18.8141 18.1369 18.8409 17.8975L19.3791 13.055C19.4172 12.7131 19.7316 12.4631 20.0691 12.5038C20.4122 12.5375 20.7209 12.2938 20.7591 11.9506C20.7972 11.6075 20.5491 11.2994 20.2059 11.2613C19.1772 11.1488 18.2491 11.8913 18.1359 12.9181L17.6416 17.3681L15.8122 18.005C16.0947 17.4744 16.2503 16.875 16.2503 16.25C16.2503 14.1819 14.5684 12.5 12.5003 12.5C10.4322 12.5 8.7503 14.1819 8.7503 16.25C8.7503 17.2675 9.16343 18.22 9.86155 18.9119C9.7253 18.96 9.61468 19.0069 9.55843 19.0319C9.50968 19.0538 9.46343 19.0813 9.42155 19.1144L6.35718 21.5494L3.4053 21.1031C2.9103 21.03 2.41655 21.1513 2.01218 21.4475C1.60843 21.745 1.34593 22.1813 1.2703 22.6769C1.13343 23.5869 1.66843 24.4538 2.54218 24.7388C2.63905 24.7706 2.74093 24.795 2.84405 24.81L6.60343 25.3788C7.11718 25.4563 7.64468 25.3163 8.05093 24.9931Z" fill="#F0A573"/>
<path id="Vector_3" d="M38.09 6.69625C37.6694 6.33938 37.1138 6.18501 36.565 6.27501C35.6731 6.42063 35.0006 7.24438 35.0006 8.19188V16.25H33.4169C34.165 15.4138 34.52 14.2594 34.3188 13.0906C34.0631 11.5994 32.9006 10.3913 31.4269 10.0831C30.295 9.84813 29.1431 10.1219 28.2619 10.8381C27.3813 11.5544 26.8756 12.6156 26.8756 13.75C26.8756 14.375 27.0313 14.9744 27.3125 15.505L25.4831 14.8681L24.9969 10.4881C24.8869 9.50938 24.0688 8.75001 23.1281 8.75001H23.1094C22.5775 8.75626 22.0725 8.98688 21.7219 9.38313C21.3713 9.77875 21.2038 10.3075 21.2625 10.8325L21.8875 16.4575C21.9669 17.1713 22.4563 17.785 23.1344 18.0213L26.8756 19.3231V24.205L23.6713 27.4281C23.32 27.7819 23.1256 28.2513 23.1256 28.7506V34.3081C23.1256 35.2556 23.7981 36.0794 24.69 36.225C25.24 36.3138 25.795 36.1613 26.2144 35.8044C26.6338 35.4475 26.8756 34.9256 26.8756 34.375V29.5238L30.13 26.25H30.6256V36.8081C30.6256 37.7556 31.2981 38.5794 32.1906 38.7244C32.2931 38.7413 32.3956 38.7494 32.4975 38.7494C32.9425 38.7494 33.3731 38.5931 33.715 38.3031C34.135 37.9463 34.3756 37.4256 34.3756 36.875V21.875C34.3756 21.53 34.0963 21.25 33.7506 21.25C33.405 21.25 33.1256 21.53 33.1256 21.875V36.875C33.1256 37.0588 33.045 37.2325 32.905 37.3513C32.7619 37.4719 32.5788 37.5194 32.3913 37.4913C32.1019 37.4438 31.8756 37.1438 31.8756 36.8081V25.625C31.8756 25.28 31.5963 25 31.2506 25H29.87C29.7031 25 29.5444 25.0663 29.4269 25.1844L25.8075 28.825C25.6906 28.9425 25.6256 29.1006 25.6256 29.2656V34.375C25.6256 34.5588 25.545 34.7325 25.405 34.8519C25.2619 34.9725 25.0794 35.0213 24.8913 34.9913C24.6019 34.9438 24.3756 34.6438 24.3756 34.3081V28.7506C24.3756 28.5838 24.4406 28.4275 24.5575 28.3094L27.9438 24.9038C28.0606 24.7863 28.1256 24.6281 28.1256 24.4631V18.8788C28.1256 18.6125 27.9569 18.3756 27.7063 18.2888L23.5456 16.8406C23.3194 16.7619 23.1563 16.5575 23.13 16.3194L22.505 10.6944C22.485 10.5169 22.5394 10.345 22.6581 10.2113C22.7763 10.0775 22.9419 10.0025 23.1231 10.0006C23.4463 10.02 23.7156 10.2781 23.7544 10.6269L24.285 15.3981C24.3119 15.6375 24.4738 15.8406 24.7006 15.9194L28.3319 17.1831C28.4138 17.2119 28.4894 17.2594 28.5569 17.325C28.6731 17.4369 28.8294 17.5 28.9913 17.5H29.3756C29.7213 17.5 30.0006 17.22 30.0006 16.875V16.6113C30.0006 16.3631 29.8538 16.1381 29.6263 16.0388C28.7144 15.6394 28.1256 14.7413 28.1256 13.75C28.1256 12.9938 28.4625 12.2863 29.05 11.8088C29.6463 11.3244 30.3981 11.1463 31.1719 11.3075C32.1319 11.5081 32.92 12.3281 33.0869 13.3019C33.2838 14.45 32.6831 15.5756 31.6244 16.0388C31.3975 16.1381 31.2506 16.3631 31.2506 16.6113V16.875C31.2506 17.22 31.53 17.5 31.8756 17.5H35.0006C35.69 17.5 36.2506 16.9394 36.2506 16.25V8.19188C36.2506 7.85626 36.4769 7.55626 36.7656 7.50876C36.9544 7.47938 37.1381 7.52751 37.28 7.64876C37.42 7.76751 37.5006 7.94126 37.5006 8.12501V16.25C37.5006 17.6288 36.3794 18.75 35.0006 18.75H33.7506C33.405 18.75 33.1256 19.03 33.1256 19.375C33.1256 19.72 33.405 20 33.7506 20H35.0006C37.0688 20 38.7506 18.3181 38.7506 16.25V8.12501C38.7506 7.57438 38.51 7.05375 38.09 6.69625Z" fill="#F0A573"/>
<path id="Vector_4" d="M3.125 8.75C4.15875 8.75 5 7.90875 5 6.875V5H8.75V6.365C8.55375 6.295 8.345 6.25 8.125 6.25C7.09125 6.25 6.25 7.09125 6.25 8.125C6.25 9.15875 7.09125 10 8.125 10C9.15875 10 10 9.15875 10 8.125V1.875C10 1.53 9.72062 1.25 9.375 1.25H4.375C4.02938 1.25 3.75 1.53 3.75 1.875V5.115C3.55375 5.045 3.345 5 3.125 5C2.09125 5 1.25 5.84125 1.25 6.875C1.25 7.90875 2.09125 8.75 3.125 8.75ZM8.125 8.75C7.78 8.75 7.5 8.46938 7.5 8.125C7.5 7.78062 7.78 7.5 8.125 7.5C8.47 7.5 8.75 7.78062 8.75 8.125C8.75 8.46938 8.47 8.75 8.125 8.75ZM5 2.5H8.75V3.75H5V2.5ZM3.125 6.25C3.47 6.25 3.75 6.53062 3.75 6.875C3.75 7.21938 3.47 7.5 3.125 7.5C2.78 7.5 2.5 7.21938 2.5 6.875C2.5 6.53062 2.78 6.25 3.125 6.25Z" fill="#F0A573"/>
<path id="Vector_5" d="M25.7907 8.05312C26.0957 8.2475 26.4426 8.34812 26.7957 8.34812C26.9314 8.34812 27.0682 8.33312 27.2039 8.30312C27.6926 8.195 28.1101 7.90312 28.3795 7.48062C28.3795 7.48 28.3801 7.47937 28.3801 7.47937L30.0595 4.84625L32.6945 6.52687C32.7989 6.59312 32.9157 6.625 33.0301 6.625C33.2364 6.625 33.4382 6.52312 33.5576 6.33625L34.902 4.22812C34.9914 4.08812 35.0207 3.91875 34.9857 3.7575C34.9495 3.59562 34.8514 3.45437 34.712 3.36562L31.5501 1.34875C31.2589 1.16375 30.8726 1.24875 30.687 1.54L29.3426 3.64812L28.2732 5.32437C28.1432 5.15812 27.9901 5.00937 27.807 4.8925C26.9364 4.33687 25.7745 4.59437 25.2182 5.46562C24.6626 6.33562 24.9195 7.49687 25.7907 8.05312ZM31.4051 2.73812L33.5126 4.0825L32.8401 5.13687L30.7326 3.7925L31.4051 2.73812ZM26.272 6.13562C26.3907 5.94937 26.5939 5.84687 26.8001 5.84687C26.9157 5.84687 27.0314 5.87875 27.1351 5.945C27.2764 6.035 27.3739 6.17375 27.4095 6.33687C27.4451 6.5 27.4157 6.66687 27.3257 6.8075C27.2357 6.94875 27.097 7.04562 26.9339 7.08187C26.7682 7.11812 26.6026 7.08812 26.4626 6.99812C26.1726 6.81375 26.087 6.42625 26.272 6.13562Z" fill="#F0A573"/>
<path id="Vector_6" d="M13.7469 7.08313C13.855 7.5725 14.1469 7.99 14.5688 8.25938C14.8738 8.45375 15.2207 8.55438 15.5738 8.55438C15.7094 8.55438 15.8463 8.54 15.9819 8.50938C16.4688 8.40188 16.8844 8.11125 17.1538 7.69188C17.155 7.69 17.1563 7.68875 17.1575 7.6875L19.175 4.52625C19.3607 4.235 19.2757 3.84875 18.9844 3.66313C18.6925 3.4775 18.3069 3.56313 18.1213 3.85375L17.0513 5.53125C16.9232 5.36625 16.7719 5.21625 16.5863 5.0975C16.1644 4.82875 15.6638 4.73813 15.1725 4.8475C14.6838 4.95563 14.2663 5.2475 13.9969 5.67C13.7282 6.0925 13.6388 6.59438 13.7469 7.08313ZM15.0507 6.3425C15.1407 6.20187 15.2794 6.10438 15.4425 6.06875C15.4875 6.05875 15.5338 6.05375 15.5788 6.05375C15.6963 6.05375 15.8125 6.0875 15.9138 6.1525C16.2038 6.3375 16.2894 6.72375 16.105 7.015V7.01563C16.015 7.15625 15.8763 7.25437 15.7132 7.29C15.5494 7.32562 15.3825 7.29625 15.2413 7.20625C15.1007 7.11625 15.0038 6.9775 14.9675 6.815C14.9319 6.65063 14.9607 6.48375 15.0507 6.3425Z" fill="#F0A573"/>
<path id="Vector_7" d="M22.5 6.25C22.8456 6.25 23.125 5.97 23.125 5.625V3.125C23.125 2.78 22.8456 2.5 22.5 2.5C22.1544 2.5 21.875 2.78 21.875 3.125V5.625C21.875 5.97 22.1544 6.25 22.5 6.25Z" fill="#F0A573"/>
<path id="Vector_8" d="M3.125 13.75V15.625C3.125 15.97 3.40438 16.25 3.75 16.25C4.09562 16.25 4.375 15.97 4.375 15.625V13.75C4.375 13.405 4.09562 13.125 3.75 13.125C3.40438 13.125 3.125 13.405 3.125 13.75Z" fill="#F0A573"/>
<path id="Vector_9" d="M16.25 11.875C16.5952 11.875 16.875 11.5952 16.875 11.25C16.875 10.9048 16.5952 10.625 16.25 10.625C15.9048 10.625 15.625 10.9048 15.625 11.25C15.625 11.5952 15.9048 11.875 16.25 11.875Z" fill="#F0A573"/>
<path id="Vector_10" d="M13.125 3.125C13.4702 3.125 13.75 2.84518 13.75 2.5C13.75 2.15482 13.4702 1.875 13.125 1.875C12.7798 1.875 12.5 2.15482 12.5 2.5C12.5 2.84518 12.7798 3.125 13.125 3.125Z" fill="#F0A573"/>
</g>
</g>
</svg>
