<svg width="26" height="24" viewBox="0 0 26 24" fill="none" xmlns="http://www.w3.org/2000/svg">
<path id="Vector" d="M12.7697 0C19.81 0 25.5394 4.5872 25.5394 10.2281C25.5394 12.4793 24.6532 14.5183 22.7973 16.5213C21.4607 18.0449 19.2907 19.7218 17.2902 21.1085C15.2896 22.4781 13.4499 23.5557 12.7688 23.8382C12.4964 23.9495 12.2921 24 12.1304 24C11.5685 24 11.6187 23.4025 11.6613 23.1543C11.6953 22.966 11.8494 22.074 11.8494 22.074C11.892 21.7573 11.9337 21.254 11.806 20.9373C11.6613 20.5863 11.0909 20.4057 10.6738 20.3201C4.54516 19.5164 0 15.2784 0 10.2281C0 4.5872 5.72933 0 12.7697 0ZM11.9116 6.84614C11.4825 6.85384 11.0671 7.18339 11.0671 7.70383V12.8397C11.0671 13.3122 11.4485 13.6957 11.9184 13.6957C12.3883 13.6957 12.7697 13.3122 12.7697 12.8397V10.3753L14.6307 13.3362C15.1125 14.0141 16.1749 13.6726 16.1749 12.8397V7.70383C16.1749 7.23133 15.7935 6.84785 15.3236 6.84785C14.8537 6.84785 14.4723 7.23133 14.4723 7.70383V10.2718L12.6113 7.20736C12.4309 6.95314 12.1687 6.84186 11.9116 6.84614ZM4.25656 6.84785C3.78664 6.84785 3.40525 7.23133 3.40525 7.70383V12.8397C3.40525 13.3122 3.78664 13.6957 4.25656 13.6957H6.8105C7.28042 13.6957 7.66181 13.3122 7.66181 12.8397C7.66181 12.3672 7.28042 11.9837 6.8105 11.9837H5.10787V7.70383C5.10787 7.23133 4.72649 6.84785 4.25656 6.84785ZM9.36444 6.84785C8.89451 6.84785 8.51313 7.23133 8.51313 7.70383V12.8397C8.51313 13.3122 8.89451 13.6957 9.36444 13.6957C9.83436 13.6957 10.2157 13.3122 10.2157 12.8397V7.70383C10.2157 7.23133 9.83436 6.84785 9.36444 6.84785ZM17.8776 6.84785C17.4076 6.84785 17.0263 7.23133 17.0263 7.70383V12.8397C17.0263 13.3122 17.4076 13.6957 17.8776 13.6957H20.4315C20.9014 13.6957 21.2828 13.3122 21.2828 12.8397C21.2828 12.3672 20.9014 11.9837 20.4315 11.9837H18.7289V11.1278H20.4315C20.9023 11.1278 21.2828 10.7443 21.2828 10.2718C21.2828 9.79927 20.9023 9.41579 20.4315 9.41579H18.7289V8.55981H20.4315C20.9014 8.55981 21.2828 8.17633 21.2828 7.70383C21.2828 7.23133 20.9014 6.84785 20.4315 6.84785H17.8776Z" fill="#06C755"/>
</svg>
