<svg width="33" height="30" viewBox="0 0 33 30" fill="none" xmlns="http://www.w3.org/2000/svg">
<path id="Vector" d="M16.3751 0.000488281C25.1752 0.000488281 32.3367 5.73429 32.3367 12.7852C32.3367 15.5991 31.2289 18.1477 28.9092 20.6514C27.2385 22.5559 24.5261 24.6519 22.0255 26.3852C19.5249 28.0971 17.2253 29.4441 16.374 29.7972C16.0335 29.9363 15.7782 29.9994 15.576 29.9994C14.8737 29.9994 14.9364 29.2526 14.9897 28.9423C15.0322 28.7069 15.2248 27.5921 15.2248 27.5921C15.278 27.1962 15.3302 26.5671 15.1705 26.1712C14.9897 25.7325 14.2767 25.5067 13.7553 25.3998C6.09482 24.3951 0.413574 19.0978 0.413574 12.7852C0.413574 5.73429 7.57499 0.000488281 16.3751 0.000488281ZM15.3025 8.55785C14.7662 8.56748 14.2469 8.97941 14.2469 9.62993V16.0496C14.2469 16.6402 14.7236 17.1195 15.311 17.1195C15.8984 17.1195 16.3751 16.6402 16.3751 16.0496V12.9692L18.7012 16.6701C19.3035 17.5175 20.6315 17.0906 20.6315 16.0496V9.62993C20.6315 9.03933 20.1548 8.55999 19.5674 8.55999C18.98 8.55999 18.5033 9.03933 18.5033 9.62993V12.8397L16.1772 9.00937C15.9516 8.6916 15.6239 8.5525 15.3025 8.55785ZM5.73409 8.55999C5.1467 8.55999 4.66998 9.03933 4.66998 9.62993V16.0496C4.66998 16.6402 5.1467 17.1195 5.73409 17.1195H8.92639C9.51378 17.1195 9.9905 16.6402 9.9905 16.0496C9.9905 15.459 9.51378 14.9796 8.92639 14.9796H6.79819V9.62993C6.79819 9.03933 6.32147 8.55999 5.73409 8.55999ZM12.1187 8.55999C11.5313 8.55999 11.0546 9.03933 11.0546 9.62993V16.0496C11.0546 16.6402 11.5313 17.1195 12.1187 17.1195C12.7061 17.1195 13.1828 16.6402 13.1828 16.0496V9.62993C13.1828 9.03933 12.7061 8.55999 12.1187 8.55999ZM22.7597 8.55999C22.1723 8.55999 21.6956 9.03933 21.6956 9.62993V16.0496C21.6956 16.6402 22.1723 17.1195 22.7597 17.1195H25.952C26.5394 17.1195 27.0161 16.6402 27.0161 16.0496C27.0161 15.459 26.5394 14.9796 25.952 14.9796H23.8238V13.9097H25.952C26.5405 13.9097 27.0161 13.4304 27.0161 12.8397C27.0161 12.2491 26.5405 11.7698 25.952 11.7698H23.8238V10.6999H25.952C26.5394 10.6999 27.0161 10.2205 27.0161 9.62993C27.0161 9.03933 26.5394 8.55999 25.952 8.55999H22.7597Z" fill="#06C755"/>
</svg>
