<svg width="31" height="30" viewBox="0 0 31 30" fill="none" xmlns="http://www.w3.org/2000/svg">
<g id="&#227;&#130;&#185;&#227;&#131;&#158;&#227;&#131;&#188;&#227;&#131;&#136;&#227;&#131;&#149;&#227;&#130;&#169;&#227;&#131;&#179;&#227;&#129;&#174;&#231;&#132;&#161;&#230;&#150;&#153;&#227;&#130;&#162;&#227;&#130;&#164;&#227;&#130;&#179;&#227;&#131;&#179; 1">
<g id="Group">
<g id="Vector">
<path d="M21.57 0H9.36039C7.43547 0 5.875 1.56041 5.875 3.48539V24.4235C5.875 27.5036 8.3715 30 11.4515 30H19.4788C22.5589 30 25.0553 27.5035 25.0553 24.4235V3.48539C25.0553 1.56041 23.495 0 21.57 0ZM15.4652 28.197C14.9897 28.197 14.6045 27.8118 14.6045 27.3364C14.6045 26.861 14.9897 26.4757 15.4652 26.4757C15.9406 26.4757 16.3258 26.8609 16.3258 27.3364C16.3258 27.8119 15.9406 28.197 15.4652 28.197ZM13.2521 1.31156H17.6778C17.9271 1.31156 18.1288 1.51383 18.1288 1.76256C18.1288 2.01135 17.9271 2.21355 17.6778 2.21355H13.2521C13.0028 2.21355 12.8011 2.01141 12.8011 1.76256C12.8011 1.51383 13.0028 1.31156 13.2521 1.31156ZM7.84223 24.4235V4.18031H23.0881V24.4235C23.0881 24.6487 23.0646 24.8682 23.0252 25.0819H7.9051C7.86578 24.8682 7.84223 24.6488 7.84223 24.4235Z" fill="white"/>
<path d="M21.57 0H9.36039C7.43547 0 5.875 1.56041 5.875 3.48539V24.4235C5.875 27.5036 8.3715 30 11.4515 30H19.4788C22.5589 30 25.0553 27.5035 25.0553 24.4235V3.48539C25.0553 1.56041 23.495 0 21.57 0ZM15.4652 28.197C14.9897 28.197 14.6045 27.8118 14.6045 27.3364C14.6045 26.861 14.9897 26.4757 15.4652 26.4757C15.9406 26.4757 16.3258 26.8609 16.3258 27.3364C16.3258 27.8119 15.9406 28.197 15.4652 28.197ZM13.2521 1.31156H17.6778C17.9271 1.31156 18.1288 1.51383 18.1288 1.76256C18.1288 2.01135 17.9271 2.21355 17.6778 2.21355H13.2521C13.0028 2.21355 12.8011 2.01141 12.8011 1.76256C12.8011 1.51383 13.0028 1.31156 13.2521 1.31156ZM7.84223 24.4235V4.18031H23.0881V24.4235C23.0881 24.6487 23.0646 24.8682 23.0252 25.0819H7.9051C7.86578 24.8682 7.84223 24.6488 7.84223 24.4235Z" fill="#E53947"/>
</g>
</g>
</g>
</svg>
