<svg width="16" height="16" viewBox="0 0 16 16" fill="none" xmlns="http://www.w3.org/2000/svg">
<g id="Group">
<path id="Vector" d="M15.6074 7.0595L9.24556 0.766722C8.72609 0.253034 7.88844 0.257191 7.37475 0.776972C6.86106 1.29613 6.86556 2.13378 7.38503 2.64747L11.4587 6.67741H1.32278C0.592375 6.67744 0 7.26947 0 7.99988C0 8.7306 0.592375 9.32263 1.32278 9.32263H11.4586L7.38503 13.3523C6.86556 13.8659 6.86106 14.7039 7.37475 15.2231C7.88844 15.7425 8.72609 15.747 9.24556 15.2333L15.6074 8.9406C15.8588 8.69175 16 8.35335 16 7.99991C16 7.64638 15.8587 7.30828 15.6074 7.0595Z" fill="#06C755"/>
</g>
</svg>
