<svg width="40" height="40" viewBox="0 0 40 40" fill="none" xmlns="http://www.w3.org/2000/svg">
<g id="AdobeStock_598655522 1">
<path id="Vector" d="M36.8793 33.7214C36.8745 33.7207 36.396 33.6603 35.0967 32.134C36.3796 30.438 37.1836 28.4286 37.4244 26.3156C37.6653 24.2027 37.3343 22.0639 36.466 20.1227C35.5977 18.1814 34.2239 16.509 32.4883 15.2802C30.7527 14.0514 28.7189 13.3112 26.5994 13.1371C19.4768 12.4301 13.0939 18.7965 13.7893 25.92C14.4171 35.0397 25.2586 40.0378 32.5914 34.5835C33.9881 35.1892 35.545 35.3192 37.0228 34.9536C37.1639 34.9169 37.287 34.8305 37.3696 34.7103C37.4521 34.5901 37.4884 34.4442 37.4719 34.2993C37.4551 34.1493 37.3869 34.0098 37.2789 33.9045C37.1709 33.7991 37.0297 33.7344 36.8793 33.7214ZM32.8453 33.3204C32.7368 33.2547 32.6109 33.2236 32.4842 33.231C32.3576 33.2384 32.2362 33.284 32.1361 33.3619C30.1061 34.9427 27.5701 35.7306 25.0017 35.5785C15.9087 35.0789 11.66 23.8435 18.1219 17.4531C24.4549 11.0696 35.5383 15.1908 36.2184 24.1391C36.4248 26.7817 35.6369 29.4061 34.0091 31.498C33.8611 31.6843 33.782 31.9159 33.7851 32.1538C33.7882 32.3917 33.8734 32.6212 34.0262 32.8035C34.4009 33.2521 34.7299 33.6091 35.0198 33.8929C34.2628 33.8569 33.5219 33.6618 32.8453 33.3204Z" fill="#EA6C92"/>
<path id="Vector_2" d="M12.05 25.3371C10.5259 24.9982 9.09674 24.323 7.86702 23.3609C7.77469 23.289 7.66404 23.2444 7.54763 23.2322C7.43123 23.22 7.31374 23.2407 7.20851 23.2919C6.51704 23.6564 5.75379 23.8642 4.97298 23.9004C5.4511 23.3759 6.7335 22.3869 5.99458 21.5007C5.04818 20.2858 4.37722 18.8797 4.02819 17.3798C3.67915 15.8798 3.66039 14.3219 3.9732 12.814C4.28601 11.3061 4.92291 9.88424 5.83978 8.64691C6.75664 7.40958 7.93156 6.38637 9.28312 5.64818C10.6347 4.90999 12.1306 4.47447 13.6671 4.37178C15.2037 4.26909 16.7443 4.5017 18.182 5.05348C19.6198 5.60527 20.9204 6.46304 21.9938 7.56737C23.0671 8.6717 23.8876 9.99618 24.3982 11.4491C24.4549 11.6031 24.5698 11.7287 24.7183 11.7987C24.8668 11.8687 25.0368 11.8774 25.1917 11.8231C25.3466 11.7687 25.4738 11.6556 25.546 11.5082C25.6182 11.3608 25.6294 11.1909 25.5773 11.0352C21.1696 -0.977701 3.7351 1.30883 2.53482 14.0442C2.3096 16.9398 3.15286 19.8175 4.90523 22.1336C3.60163 23.6618 3.12743 23.7216 3.12682 23.7222C2.97395 23.7222 2.82637 23.7781 2.71199 23.8795C2.59761 23.9809 2.52436 24.1208 2.50609 24.2725C2.48783 24.4243 2.52581 24.5775 2.61287 24.7031C2.69992 24.8288 2.83001 24.9182 2.97852 24.9544C4.45725 25.3211 6.01557 25.1909 7.41296 24.584C8.71617 25.5349 10.2018 26.2064 11.7766 26.5564C11.938 26.592 12.107 26.5621 12.2464 26.4734C12.3859 26.3846 12.4845 26.2442 12.5207 26.0829C12.5568 25.9217 12.5276 25.7526 12.4394 25.6128C12.3512 25.473 12.2112 25.3738 12.05 25.3371Z" fill="#EA6C92"/>
<path id="Vector_3" d="M26.3614 18.4462C25.8598 18.341 25.3412 18.3485 24.8428 18.4682C24.3445 18.5878 23.879 18.8166 23.4798 19.1381C23.0807 19.4595 22.7579 19.8655 22.5347 20.3269C22.3116 20.7883 22.1936 21.2934 22.1895 21.8059C22.1895 21.9716 22.2553 22.1306 22.3725 22.2478C22.4897 22.365 22.6487 22.4308 22.8144 22.4308C22.9801 22.4308 23.1391 22.365 23.2563 22.2478C23.3735 22.1306 23.4393 21.9716 23.4393 21.8059C23.4391 21.4075 23.5477 21.0167 23.7533 20.6756C23.9588 20.3344 24.2536 20.0558 24.6059 19.8698C24.9581 19.6838 25.3544 19.5975 25.7521 19.6202C26.1498 19.6428 26.5337 19.7736 26.8626 19.9984C27.1914 20.2232 27.4526 20.5335 27.6181 20.8958C27.7836 21.2581 27.8471 21.6587 27.8017 22.0544C27.7562 22.4502 27.6037 22.826 27.3604 23.1414C27.1171 23.4568 26.7924 23.6998 26.4212 23.8443C26.0082 23.9973 25.6514 24.272 25.398 24.6322C25.1445 24.9923 25.0063 25.4209 25.0017 25.8613V27.204C25.0049 27.3676 25.0722 27.5234 25.1891 27.638C25.3059 27.7525 25.463 27.8167 25.6267 27.8167C25.7903 27.8167 25.9474 27.7525 26.0643 27.6379C26.1811 27.5234 26.2484 27.3675 26.2516 27.2039V25.8613C26.2573 25.6726 26.3201 25.4901 26.4317 25.3378C26.5433 25.1855 26.6983 25.0705 26.8765 25.0081C30.0065 23.8238 29.6502 19.1256 26.3614 18.4462Z" fill="#EA6C92"/>
<path id="Vector_4" d="M25.6383 29.2888C25.474 29.2909 25.3171 29.3577 25.2017 29.4747C25.0862 29.5916 25.0215 29.7494 25.0215 29.9137C25.0215 30.0781 25.0862 30.2358 25.2017 30.3528C25.3171 30.4697 25.474 30.5365 25.6384 30.5387C25.8027 30.5365 25.9596 30.4697 26.075 30.3527C26.1905 30.2358 26.2552 30.078 26.2552 29.9137C26.2552 29.7493 26.1904 29.5916 26.075 29.4746C25.9595 29.3577 25.8027 29.2909 25.6383 29.2888Z" fill="#EA6C92"/>
<path id="Vector_5" d="M20.6258 11.8482C20.6259 11.7661 20.6097 11.6848 20.5783 11.609C20.5469 11.5331 20.5009 11.4642 20.4429 11.4062C20.3848 11.3481 20.3159 11.3021 20.2401 11.2707C20.1642 11.2393 20.0829 11.2232 20.0009 11.2232H7.5019C7.33616 11.2232 7.1772 11.2891 7.06 11.4063C6.9428 11.5235 6.87695 11.6824 6.87695 11.8482C6.87695 12.0139 6.9428 12.1729 7.06 12.2901C7.1772 12.4073 7.33616 12.4731 7.5019 12.4731H20.0009C20.083 12.4732 20.1643 12.457 20.2401 12.4257C20.3159 12.3943 20.3848 12.3482 20.4429 12.2902C20.5009 12.2321 20.547 12.1632 20.5783 12.0874C20.6097 12.0116 20.6259 11.9303 20.6258 11.8482Z" fill="#EA6C92"/>
<path id="Vector_6" d="M7.50138 16.2228C7.33777 16.2261 7.18195 16.2933 7.06739 16.4102C6.95283 16.527 6.88867 16.6842 6.88867 16.8478C6.88868 17.0114 6.95285 17.1686 7.06742 17.2854C7.18199 17.4022 7.33781 17.4695 7.50142 17.4727H14.532C14.6957 17.4695 14.8515 17.4022 14.966 17.2854C15.0806 17.1685 15.1448 17.0114 15.1447 16.8478C15.1447 16.6841 15.0806 16.527 14.966 16.4102C14.8514 16.2933 14.6956 16.2261 14.532 16.2228H7.50138Z" fill="#EA6C92"/>
</g>
</svg>
