<svg width="50" height="40" viewBox="0 0 50 40" fill="none" xmlns="http://www.w3.org/2000/svg">
<g id="Group 1">
<path id="Vector" d="M6.08984 4.61095C6.08984 7.14697 8.16477 9.18348 10.7008 9.18348C13.2368 9.18348 15.2733 7.10855 15.2733 4.57253C15.2733 2.0365 13.1984 0 10.7008 0C8.12635 0 6.08984 2.07493 6.08984 4.61095ZM13.7363 4.61095C13.7363 6.30163 12.353 7.64649 10.6624 7.64649C8.97169 7.64649 7.62683 6.26321 7.62683 4.57253C7.62683 2.88184 9.01011 1.53698 10.6624 1.53698C12.353 1.53698 13.7363 2.92027 13.7363 4.61095Z" fill="#F0A573"/>
<path id="Vector_2" d="M33.8711 4.61095C33.8711 7.14697 35.946 9.18348 38.482 9.18348C41.0181 9.18348 43.0546 7.10855 43.0546 4.57253C43.0546 2.0365 40.9796 0 38.482 0C35.946 0 33.8711 2.07493 33.8711 4.61095ZM41.5176 4.61095C41.5176 6.30163 40.1343 7.64649 38.4436 7.64649C36.7529 7.64649 35.4081 6.26321 35.4081 4.57253C35.4081 2.88184 36.7914 1.53698 38.4436 1.53698C40.1727 1.53698 41.5176 2.92027 41.5176 4.61095Z" fill="#F0A573"/>
<path id="Vector_3" d="M43.5158 11.0279C43.2469 10.6436 42.7473 10.3746 42.2863 10.3746H35.0624C34.5245 10.3746 34.025 10.6436 33.756 11.1047L30.0672 16.0615C29.952 16.2152 29.7598 16.3304 29.5677 16.3689L24.4957 17.2526L19.5773 16.3689C19.3852 16.3304 19.1931 16.2152 19.0778 16.023L15.389 11.0663C15.1201 10.6052 14.6206 10.3362 14.0826 10.3362H6.85879C6.35927 10.3362 5.89817 10.5668 5.6292 10.9894L0.288184 18.4822C-0.0960615 19.0202 -0.0960615 19.7502 0.288184 20.2882L4.59174 26.1671C5.09126 26.8588 6.05187 27.0125 6.70509 26.513L7.62728 25.8213C8.31892 25.3218 8.47262 24.3228 7.93468 23.6695L7.20461 22.7473V15.7925C7.20461 15.3698 6.85879 15.024 6.43612 15.024C6.20557 15.024 5.97502 15.1393 5.82132 15.3314L3.51585 18.4822C3.1316 19.0202 3.1316 19.7502 3.51585 20.2882L5.82132 23.439L6.66667 24.5533L5.74448 25.2449L1.51777 19.366L6.85879 11.9116H14.0826C14.0826 11.95 14.121 11.95 14.121 11.9885L17.8098 16.9452C18.1556 17.4448 18.6936 17.7906 19.2699 17.8674L22.3055 18.4054C22.2286 18.6359 22.1902 18.9049 22.2286 19.1739L22.3055 19.5197L18.1556 18.7128C17.9635 18.6743 17.7714 18.5591 17.6561 18.367L15.5427 15.6004C15.2738 15.2546 14.8127 15.2161 14.4669 15.4467C14.2747 15.6004 14.1595 15.8309 14.1595 16.0615V38.2325C14.1595 38.2709 14.121 38.3477 14.0442 38.3477H11.5082V26.0519C11.5082 25.6292 11.1623 25.2834 10.7397 25.2834C10.317 25.2834 9.97118 25.6292 9.97118 26.0519V38.3477H7.28146C7.24303 38.3093 7.24303 38.2709 7.24303 38.2325V27.9347C6.82036 28.1652 6.32084 28.2805 5.82132 28.2805C5.7829 28.2805 5.74448 28.2805 5.70605 28.2805V38.2325C5.66763 39.1162 6.35927 39.8463 7.24303 39.8847H14.0826C15.0048 39.8847 15.6964 39.1162 15.7349 38.2325V18.4054L16.4649 19.366C16.8108 19.8655 17.3487 20.2113 17.9251 20.2882L23.2277 21.3256C23.5351 21.5178 23.8809 21.5562 24.2267 21.5178L31.22 20.3266C31.7963 20.2113 32.3343 19.9039 32.6801 19.4044L33.4102 18.4438V38.3477C33.4102 39.2699 34.1402 40 35.0624 40H41.902C42.7858 39.9616 43.4774 39.2315 43.439 38.3477V28.3958C43.4006 28.3958 43.3621 28.3958 43.3237 28.3958C42.8242 28.3958 42.3631 28.2805 41.902 28.0499V38.3477C41.902 38.3862 41.902 38.4246 41.8636 38.463H39.1739V26.1671C39.1739 25.7445 38.828 25.3986 38.4054 25.3986C37.9827 25.3986 37.6369 25.7445 37.6369 26.1671V38.463H35.0624C35.024 38.463 34.9856 38.3862 34.9472 38.3477V16.1383C34.9472 15.7157 34.6013 15.3698 34.1787 15.3698C33.9481 15.3698 33.7176 15.4851 33.5639 15.6772L31.4121 18.4822C31.2968 18.6359 31.1047 18.7512 30.9126 18.7896L23.9962 19.9808L23.804 18.9433L29.8367 17.9059C30.4131 17.7906 30.951 17.4832 31.2968 16.9837L34.9856 11.9885C34.9856 11.95 35.024 11.95 35.024 11.9116H42.2478L47.6273 19.366L43.3237 25.2449L42.3631 24.5917L43.2469 23.4774C43.2469 23.4774 43.2469 23.4774 43.2853 23.439L45.5908 20.2882C45.975 19.7502 45.975 19.0202 45.5908 18.4822L43.2853 15.3314C43.0547 14.9856 42.5552 14.9087 42.2094 15.1777C42.0173 15.3314 41.902 15.562 41.902 15.7925V22.7473L41.1719 23.6695C40.6724 24.3612 40.8261 25.3218 41.5178 25.8213L42.4399 26.513C43.1316 27.0125 44.0922 26.8588 44.5917 26.1671L48.8953 20.2498C49.2795 19.7118 49.2795 18.9817 48.8953 18.4438L43.5158 11.0279ZM5.70605 20.634L4.82228 19.4044L5.70605 18.1748V20.634ZM43.439 18.1748L44.3228 19.4044L43.439 20.634V18.1748Z" fill="#F0A573"/>
</g>
</svg>
