<svg width="31" height="30" viewBox="0 0 31 30" fill="none" xmlns="http://www.w3.org/2000/svg">
<g id="&#227;&#130;&#185;&#227;&#131;&#158;&#227;&#131;&#188;&#227;&#131;&#136;&#227;&#131;&#149;&#227;&#130;&#169;&#227;&#131;&#179;&#227;&#129;&#174;&#231;&#132;&#161;&#230;&#150;&#153;&#227;&#130;&#162;&#227;&#130;&#164;&#227;&#130;&#179;&#227;&#131;&#179; 1">
<g id="Group">
<path id="Vector" d="M21.195 0H8.98539C7.06047 0 5.5 1.56041 5.5 3.48539V24.4235C5.5 27.5036 7.9965 30 11.0765 30H19.1038C22.1839 30 24.6803 27.5035 24.6803 24.4235V3.48539C24.6803 1.56041 23.12 0 21.195 0ZM15.0902 28.197C14.6147 28.197 14.2295 27.8118 14.2295 27.3364C14.2295 26.861 14.6147 26.4757 15.0902 26.4757C15.5656 26.4757 15.9508 26.8609 15.9508 27.3364C15.9508 27.8119 15.5656 28.197 15.0902 28.197ZM12.8771 1.31156H17.3028C17.5521 1.31156 17.7538 1.51383 17.7538 1.76256C17.7538 2.01135 17.5521 2.21355 17.3028 2.21355H12.8771C12.6278 2.21355 12.4261 2.01141 12.4261 1.76256C12.4261 1.51383 12.6278 1.31156 12.8771 1.31156ZM7.46723 24.4235V4.18031H22.7131V24.4235C22.7131 24.6487 22.6896 24.8682 22.6502 25.0819H7.5301C7.49078 24.8682 7.46723 24.6488 7.46723 24.4235Z" fill="#333333" fill-opacity="0.4"/>
</g>
</g>
</svg>
