<svg width="40" height="40" viewBox="0 0 40 40" fill="none" xmlns="http://www.w3.org/2000/svg">
<g id="AdobeStock_499492363 1">
<path id="Vector" d="M26.262 37.3636H4.64805C4.54196 37.3636 4.44022 37.3215 4.3652 37.2464C4.29019 37.1714 4.24805 37.0697 4.24805 36.9636V8.13759C4.24805 8.03151 4.29019 7.92977 4.3652 7.85475C4.44022 7.77974 4.54196 7.73759 4.64805 7.73759H19.0576C19.1637 7.73759 19.2655 7.77974 19.3405 7.85475C19.4155 7.92977 19.4576 8.03151 19.4576 8.13759V14.9456H26.262C26.3681 14.9456 26.4699 14.9877 26.5449 15.0628C26.6199 15.1378 26.662 15.2395 26.662 15.3456V36.9636C26.662 37.0697 26.6199 37.1714 26.5449 37.2464C26.4699 37.3215 26.3681 37.3636 26.262 37.3636ZM5.04805 36.5636H25.862V15.7456H19.0576C18.9516 15.7456 18.8498 15.7035 18.7748 15.6284C18.6998 15.5534 18.6576 15.4517 18.6576 15.3456V8.53759H5.04805V36.5636Z" fill="#F0A573"/>
<path id="Vector_2" d="M22.6608 33.76H8.24961C8.14352 33.76 8.04178 33.7178 7.96677 33.6428C7.89175 33.5678 7.84961 33.4661 7.84961 33.36C7.84961 33.2539 7.89175 33.1522 7.96677 33.0771C8.04178 33.0021 8.14352 32.96 8.24961 32.96H22.6608C22.7669 32.96 22.8686 33.0021 22.9437 33.0771C23.0187 33.1522 23.0608 33.2539 23.0608 33.36C23.0608 33.4661 23.0187 33.5678 22.9437 33.6428C22.8686 33.7178 22.7669 33.76 22.6608 33.76Z" fill="#F0A573"/>
<path id="Vector_3" d="M22.6608 26.5548H8.24961C8.14352 26.5548 8.04178 26.5127 7.96677 26.4376C7.89175 26.3626 7.84961 26.2609 7.84961 26.1548C7.84961 26.0487 7.89175 25.947 7.96677 25.872C8.04178 25.7969 8.14352 25.7548 8.24961 25.7548H22.6608C22.7669 25.7548 22.8686 25.7969 22.9437 25.872C23.0187 25.947 23.0608 26.0487 23.0608 26.1548C23.0608 26.2609 23.0187 26.3626 22.9437 26.4376C22.8686 26.5127 22.7669 26.5548 22.6608 26.5548Z" fill="#F0A573"/>
<path id="Vector_4" d="M22.6596 19.3492H8.24961C8.14352 19.3492 8.04178 19.3071 7.96677 19.232C7.89175 19.157 7.84961 19.0553 7.84961 18.9492C7.84961 18.8431 7.89175 18.7414 7.96677 18.6664C8.04178 18.5913 8.14352 18.5492 8.24961 18.5492H22.6596C22.7657 18.5492 22.8674 18.5913 22.9425 18.6664C23.0175 18.7414 23.0596 18.8431 23.0596 18.9492C23.0596 19.0553 23.0175 19.157 22.9425 19.232C22.8674 19.3071 22.7657 19.3492 22.6596 19.3492Z" fill="#F0A573"/>
<path id="Vector_5" d="M22.6596 22.9504H8.24961C8.14352 22.9504 8.04178 22.9083 7.96677 22.8332C7.89175 22.7582 7.84961 22.6565 7.84961 22.5504C7.84961 22.4443 7.89175 22.3426 7.96677 22.2676C8.04178 22.1925 8.14352 22.1504 8.24961 22.1504H22.6596C22.7657 22.1504 22.8674 22.1925 22.9425 22.2676C23.0175 22.3426 23.0596 22.4443 23.0596 22.5504C23.0596 22.6565 23.0175 22.7582 22.9425 22.8332C22.8674 22.9083 22.7657 22.9504 22.6596 22.9504Z" fill="#F0A573"/>
<path id="Vector_6" d="M22.6596 30.1572H8.24961C8.14352 30.1572 8.04178 30.1151 7.96677 30.04C7.89175 29.965 7.84961 29.8633 7.84961 29.7572C7.84961 29.6511 7.89175 29.5494 7.96677 29.4743C8.04178 29.3993 8.14352 29.3572 8.24961 29.3572H22.6596C22.7657 29.3572 22.8674 29.3993 22.9425 29.4743C23.0175 29.5494 23.0596 29.6511 23.0596 29.7572C23.0596 29.8633 23.0175 29.965 22.9425 30.04C22.8674 30.1151 22.7657 30.1572 22.6596 30.1572Z" fill="#F0A573"/>
<path id="Vector_7" d="M26.2616 15.7456H19.0572C18.9511 15.7456 18.8494 15.7035 18.7744 15.6284C18.6994 15.5534 18.6572 15.4517 18.6572 15.3456V8.1376C18.6572 8.0585 18.6807 7.98118 18.7247 7.91542C18.7686 7.84965 18.8311 7.7984 18.9042 7.76813C18.9772 7.73786 19.0577 7.72994 19.1352 7.74537C19.2128 7.76079 19.2841 7.79888 19.34 7.8548L26.5444 15.0628C26.6003 15.1187 26.6384 15.19 26.6539 15.2676C26.6693 15.3452 26.6614 15.4256 26.6311 15.4987C26.6008 15.5717 26.5496 15.6342 26.4838 15.6782C26.418 15.7221 26.3407 15.7456 26.2616 15.7456ZM19.4572 14.9456H25.2972L19.4572 9.1056V14.9456Z" fill="#F0A573"/>
<path id="Vector_8" d="M35.3509 32.2624H26.2621C26.156 32.2624 26.0543 32.2203 25.9793 32.1452C25.9043 32.0702 25.8621 31.9685 25.8621 31.8624V15.5112L18.8917 8.5376H13.7369C13.6308 8.5376 13.5291 8.49545 13.4541 8.42044C13.3791 8.34542 13.3369 8.24368 13.3369 8.1376V3.0368C13.3369 2.93071 13.3791 2.82897 13.4541 2.75395C13.5291 2.67894 13.6308 2.6368 13.7369 2.6368H28.1465C28.2526 2.63682 28.3543 2.67898 28.4293 2.754L35.6337 9.962C35.7087 10.037 35.7509 10.1387 35.7509 10.2448V31.8624C35.7509 31.9685 35.7088 32.0702 35.6338 32.1452C35.5587 32.2203 35.457 32.2624 35.3509 32.2624ZM26.6621 31.4624H34.9509V10.4104L27.9805 3.4368H14.1369V7.7376H19.0569C19.163 7.73762 19.2647 7.77978 19.3397 7.85479L26.5441 15.0628C26.6191 15.1378 26.6613 15.2395 26.6613 15.3456L26.6621 31.4624Z" fill="#F0A573"/>
<path id="Vector_9" d="M31.7523 28.6568H26.2623C26.1562 28.6568 26.0545 28.6147 25.9795 28.5396C25.9044 28.4646 25.8623 28.3629 25.8623 28.2568C25.8623 28.1507 25.9044 28.049 25.9795 27.974C26.0545 27.8989 26.1562 27.8568 26.2623 27.8568H31.7523C31.8584 27.8568 31.9601 27.8989 32.0351 27.974C32.1102 28.049 32.1523 28.1507 32.1523 28.2568C32.1523 28.3629 32.1102 28.4646 32.0351 28.5396C31.9601 28.6147 31.8584 28.6568 31.7523 28.6568Z" fill="#F0A573"/>
<path id="Vector_10" d="M31.7523 25.0544H26.2623C26.1562 25.0544 26.0545 25.0123 25.9795 24.9372C25.9044 24.8622 25.8623 24.7605 25.8623 24.6544C25.8623 24.5483 25.9044 24.4466 25.9795 24.3716C26.0545 24.2965 26.1562 24.2544 26.2623 24.2544H31.7523C31.8584 24.2544 31.9601 24.2965 32.0351 24.3716C32.1102 24.4466 32.1523 24.5483 32.1523 24.6544C32.1523 24.7605 32.1102 24.8622 32.0351 24.9372C31.9601 25.0123 31.8584 25.0544 31.7523 25.0544Z" fill="#F0A573"/>
<path id="Vector_11" d="M31.7523 21.452H26.2623C26.1562 21.452 26.0545 21.4099 25.9795 21.3349C25.9044 21.2598 25.8623 21.1581 25.8623 21.052C25.8623 20.9459 25.9044 20.8442 25.9795 20.7692C26.0545 20.6942 26.1562 20.652 26.2623 20.652H31.7523C31.8584 20.652 31.9601 20.6942 32.0351 20.7692C32.1102 20.8442 32.1523 20.9459 32.1523 21.052C32.1523 21.1581 32.1102 21.2598 32.0351 21.3349C31.9601 21.4099 31.8584 21.452 31.7523 21.452Z" fill="#F0A573"/>
<path id="Vector_12" d="M35.3519 10.6448H28.1471C28.041 10.6448 27.9392 10.6027 27.8642 10.5276C27.7892 10.4526 27.7471 10.3509 27.7471 10.2448V3.0364C27.7471 2.9573 27.7706 2.87999 27.8145 2.81422C27.8585 2.74846 27.9209 2.6972 27.994 2.66693C28.0671 2.63667 28.1475 2.62874 28.2251 2.64417C28.3027 2.6596 28.3739 2.69768 28.4299 2.7536L35.6347 9.962C35.6906 10.0179 35.7287 10.0892 35.7441 10.1668C35.7595 10.2444 35.7516 10.3248 35.7213 10.3979C35.6911 10.4709 35.6398 10.5334 35.5741 10.5774C35.5083 10.6213 35.431 10.6448 35.3519 10.6448ZM28.5471 9.8448H34.3871L28.5471 4.0024V9.8448Z" fill="#F0A573"/>
<path id="Vector_13" d="M31.7523 17.8496H26.2623C26.1562 17.8496 26.0545 17.8075 25.9795 17.7324C25.9044 17.6574 25.8623 17.5557 25.8623 17.4496C25.8623 17.3435 25.9044 17.2418 25.9795 17.1668C26.0545 17.0917 26.1562 17.0496 26.2623 17.0496H31.7523C31.8584 17.0496 31.9601 17.0917 32.0351 17.1668C32.1102 17.2418 32.1523 17.3435 32.1523 17.4496C32.1523 17.5557 32.1102 17.6574 32.0351 17.7324C31.9601 17.8075 31.8584 17.8496 31.7523 17.8496Z" fill="#F0A573"/>
<path id="Vector_14" d="M31.7485 14.2472H24.7633C24.6572 14.2472 24.5555 14.2051 24.4804 14.13C24.4054 14.055 24.3633 13.9533 24.3633 13.8472C24.3633 13.7411 24.4054 13.6394 24.4804 13.5644C24.5555 13.4893 24.6572 13.4472 24.7633 13.4472H31.7485C31.8546 13.4472 31.9563 13.4893 32.0313 13.5644C32.1063 13.6394 32.1485 13.7411 32.1485 13.8472C32.1485 13.9533 32.1063 14.055 32.0313 14.13C31.9563 14.2051 31.8546 14.2472 31.7485 14.2472Z" fill="#F0A573"/>
</g>
</svg>
