<svg width="48" height="46" viewBox="0 0 48 46" fill="none" xmlns="http://www.w3.org/2000/svg">
<path d="M46.8221 20.0257L27.7367 1.14733C26.1783 -0.393729 23.6653 -0.38126 22.1243 1.17808C20.5832 2.73555 20.5967 5.24852 22.1551 6.78958L34.376 18.8794H3.96834C1.77712 18.8795 0 20.6556 0 22.8468C0 25.039 1.77712 26.8151 3.96834 26.8151H34.3759L22.1551 38.9039C20.5967 40.445 20.5832 42.959 22.1243 44.5165C23.6653 46.0748 26.1783 46.0883 27.7367 44.5472L46.8221 25.669C47.5763 24.9224 48 23.9072 48 22.8469C48 21.7863 47.5762 20.772 46.8221 20.0257Z" fill="white"/>
</svg>
